<?xml version="1.0" encoding="UTF-8" standalone="no"?>
<svg
   width="1483"
   height="1450"
   version="1.1"
   xmlns:inkscape="http://www.inkscape.org/namespaces/inkscape"
   xmlns="http://www.w3.org/2000/svg"
   xmlns:svg="http://www.w3.org/2000/svg">
  <metadata
     origin="https://upload.wikimedia.org/wikipedia/commons/f/fa/France_all_regions.svg"
     scale="1080"
     placeholder="ph2"
     id="mapMetadata" />
  <style
     type="text/css"
     id="style1848"><![CDATA[
        text {
         text-anchor:middle;
        }
     ]]></style>
  <g
     id="g1395">
    <path
       class="county_y"
       d="m 757.64951,5 c -5.5723,2.48968 -10.7659,4.91353 -16.3531,5.80597 -2.003,-0.68595 -3.8224,0.43493 -5.451,-0.81131 -4.2039,1.13084 -8.2638,3.0164 -12.6768,3.32132 -2.489,1.06421 -4.8307,2.46258 -7.5553,2.96637 -3.0214,1.64253 -6.4806,0.39953 -9.6344,1.26768 -3.3316,0.24976 -6.5134,1.36024 -9.8119,1.72405 -1.8881,0.0198 -3.8908,1.06257 -5.6031,2.10435 -3.2429,-0.22078 -5.8454,1.96089 -8.8738,2.56071 -3.0595,0.8883 -6.3305,2.09637 -8.5188,4.589 -3.7567,2.21309 -5.2597,7.37667 -9.9132,8.16386 -1.5474,0.5659 -4.3354,-0.005 -4.7665,1.97758 1.0134,4.81887 3.6616,9.64052 2.3832,14.67974 -0.089,4.09523 -4.0991,6.88668 -3.6509,11.05417 0.5682,5.11402 1.6656,10.17496 1.3691,15.33893 -0.4438,2.24555 1.075,3.71102 2.4593,5.14678 1.9704,2.79515 -1.5885,0.71497 -2.2818,2.35789 -0.5761,5.60499 -0.231,11.32032 -1.3438,16.86014 -0.9699,1.79184 -1.1135,4.13578 0.9128,5.2482 0.8828,0.39764 1.9964,0.83916 2.7128,1.4198 l 3.0678,1.0395 0.4563,0.30424 1.0142,1.4198 0.2789,0.12677 0.431,0.50707 0.3549,1.24233 0.3296,0.12677 1.2931,0.78596 0.076,0.22818 1.5466,-0.88737 0.1014,-0.20283 h 0.8874 l 0.5831,-0.38031 0.3043,-0.12676 2.079,-0.38031 0.2028,-0.12677 0.1014,-0.0761 0.9634,-0.91273 0.355,-0.20283 1.293,-0.32959 0.5324,-0.50707 0.6592,-0.22819 2.51,0.27889 h 0.051 l 0.431,0.0254 h 0.051 0.8113 l 0.431,-0.0254 0.5071,0.17748 1.4451,1.0902 0.025,0.0254 0.2535,0.20283 2.3579,0.93808 0.4057,0.0761 0.431,0.43101 1.6226,0.91273 0.355,0.43101 0.5324,1.44516 0.862,0.45636 0.3042,-0.0254 0.4311,0.12677 0.5577,0.32959 0.1775,0.27889 1.1663,0.0761 1.9776,-2.38323 0.431,-0.25354 0.5324,-0.12677 0.6845,0.15212 1.8762,1.52122 0.2789,0.7099 -0.025,0.45636 -0.076,0.27889 -0.4057,0.93809 -0.3042,0.35495 -1.9522,1.34374 0.4563,0.7099 0.1268,-0.10141 0.2535,-0.12677 0.4057,-0.12677 0.8874,0.22818 0.8873,1.0395 2.3072,0.93808 0.1775,0.10142 0.6592,0.48172 0.1267,0.10141 0.1522,0.17748 0.507,0.20282 1.2424,-0.20282 0.5577,0.10141 0.8114,0.50707 0.1267,0.0761 0.355,0.3296 0.025,0.0254 0.9635,0.91273 0.6085,0.12677 h 0.051 l 0.4817,-0.0254 0.4817,0.10141 1.1156,0.68455 0.2535,0.20283 0.2535,0.3803 -0.1267,1.06485 -1.1156,0.98879 v 0.10142 l 0.3803,0.58313 0.025,0.58313 0.9888,0.88738 0.051,0.0507 0.3296,0.3803 0.2028,0.48172 0.051,0.93808 0.6591,-0.12676 1.3945,0.30424 0.355,-0.53243 1.0141,-0.27889 1.6987,0.81132 0.2789,0.20283 0.3043,0.35495 0.1521,0.22818 0.2788,0.68455 1.6227,-1.7494 0.7353,-0.22818 0.1774,0.0254 0.2282,-0.17748 0.5831,-0.17747 0.3042,0.0254 0.786,-0.25353 0.786,-0.48172 0.1521,0.0507 0.6085,-0.3296 0.3803,-0.10142 h 1.1156 l 0.786,0.63384 0.051,0.22819 0.4057,-0.17748 0.2028,-0.0507 1.1156,-0.17747 1.4198,-1.69869 0.9888,-0.20283 1.8762,0.93808 0.3042,0.25354 0.2535,0.35495 0.051,0.0507 0.3803,0.43101 1.4198,-0.76061 0.5325,0.0254 -0.355,-0.50707 -0.786,-0.35495 -0.152,-0.45636 0.5577,-1.0395 1.3184,-0.35495 0.3042,-0.22819 1.1156,0.22819 0.2028,0.30424 0.025,0.0254 0.1774,0.30425 2.1551,3.42273 0.1268,-0.63384 0.1775,-0.32959 1.0141,-1.19162 0.8367,-0.25354 0.1267,0.0254 0.051,0.0253 1.0395,-0.96344 0.2788,-0.17747 0.4564,-0.15212 0.786,0.12676 0.8619,0.73526 1.2424,0.0507 h 0.076 l 0.3297,0.0507 0.8367,-0.25353 h 0.051 l 0.5325,-0.12677 0.9381,0.48172 0.431,1.11555 0.2281,0.25354 0.051,0.0761 0.3549,0.60849 1.3184,0.73525 0.355,0.0254 0.5324,0.27889 0.3803,0.43101 0.3043,0.27889 0.152,0.20283 0.2536,0.43101 0.1014,0.48172 -0.025,0.20282 0.076,0.25354 -0.5324,0.98879 -0.2536,0.0761 -0.1014,0.0507 -0.5831,0.30424 -0.355,0.0761 -0.2535,0.0254 -0.5831,0.27889 -0.051,0.0253 -0.2789,0.12677 -0.025,0.0254 -1.9269,1.29304 -0.6084,0.12676 -0.4311,-0.10141 h -0.025 l -0.862,-0.0507 -1.2424,0.63384 -0.076,0.0507 h -0.025 v 0.0254 l -0.1014,0.86202 -0.5071,0.6592 -0.3803,0.15212 h -0.5324 -0.025 l -0.2029,0.50707 -0.6085,0.53243 -0.1775,0.0254 0.1014,0.78596 -0.1774,0.60849 -0.5325,0.65919 -0.5323,2.81425 -0.025,0.0761 -0.1014,0.35495 0.8367,-0.0761 0.786,0.45637 0.1774,0.35495 0.8367,0.55778 0.3803,0.0507 0.6592,0.63384 0.2535,1.06485 0.025,0.0254 1.2423,-3.21991 v -0.0254 l 0.1775,-0.45637 0.152,-0.32959 0.2537,-0.68455 0.1267,-0.22818 0.3295,-0.43101 0.025,-0.15213 0.7353,-0.73525 0.8367,-0.0507 0.2281,-0.15212 0.025,-0.0254 0.6592,-0.45637 0.4056,-0.15212 1.5213,-0.12677 h 0.025 l 1.8254,-0.43101 0.1522,-0.0254 h 0.5071 l 0.7605,0.45636 1.3692,2.96638 0.431,-0.27889 0.051,-0.0507 -0.1775,-1.49586 0.1268,-0.50708 0.507,-0.83667 0.9635,-0.32959 1.3691,0.50707 0.2281,0.12677 0.4565,-0.22818 0.6085,-0.0507 0.4309,0.15212 0.051,0.0254 0.3803,0.0761 0.5579,1.14092 -0.3804,0.7606 -0.1521,0.22819 -1.0902,1.14091 0.1014,0.22818 0.025,0.0507 0.1267,0.12677 1.3692,0.55778 0.2281,0.20282 1.3945,-0.3803 0.2788,-0.0254 1.5466,0.10141 0.431,0.15212 0.4057,0.3296 0.3295,0.65919 v 0.12677 l 0.025,0.0761 0.1775,0.17748 0.7606,0.40566 0.2282,-0.27889 0.9888,-0.22819 1.293,0.63384 0.2789,0.20283 0.5831,-0.12677 0.5071,0.0761 0.8366,0.3803 -0.2028,-0.20283 -0.076,-1.06485 0.6085,-0.76061 0.3802,-0.25354 0.3043,-0.12676 -0.4563,-1.69869 0.7859,-1.01415 h 1.8509 l 0.1267,0.0254 0.4818,0.0761 0.4056,0.17747 1.7747,1.54657 0.1775,0.17748 0.076,0.12676 0.9127,0.20283 1.217,-0.40565 0.8873,0.25353 0.3043,0.40566 0.1521,0.63384 -0.2281,1.31839 -0.025,0.12676 0.1268,0.25354 0.051,0.15212 0.1775,0.81132 -0.051,0.48172 -0.7606,1.77475 -0.1521,0.22818 -1.0396,1.11556 -0.076,0.0761 0.025,0.35495 0.1521,0.35495 -0.2282,0.93808 -1.5465,1.31839 0.1014,0.12677 v 0.0254 l 0.025,0.0507 1.648,-0.25354 0.3296,-0.50707 0.5325,-0.3803 1.0901,-0.20283 0.786,-1.14091 0.025,-0.0254 0.3043,-0.40565 1.0395,-0.0507 1.3437,-0.6592 0.355,0.0507 0.3296,-0.63384 0.2535,-0.30424 1.2677,-0.88738 0.4817,-0.15212 0.5325,0.0254 0.8113,0.81132 -0.051,1.77475 0.3803,0.10142 0.5324,0.43101 1.1917,2.30718 v 0.73525 l -0.4057,0.83667 1.3184,-0.76061 0.4564,-0.10141 1.3944,0.10141 0.2028,-1.21697 1.2424,-0.55778 0.7099,0.45636 0.051,-0.0507 0.051,-0.20283 0.2789,-0.43101 0.431,-0.3296 0.4311,-0.15212 0.5323,-0.0507 0.3296,0.0254 0.8621,0.27889 0.431,0.15213 0.3803,0.30424 0.5071,0.7099 1.1662,-0.78596 0.2028,-0.10142 0.4565,-0.15212 0.051,-0.0254 0.7607,-0.30424 0.076,-0.0507 0.2282,-0.12677 0.4817,-0.45636 0.7099,-0.20283 1.0141,0.17747 0.1014,0.0507 0.025,-0.0254 0.431,-0.12677 0.431,0.0254 2.4086,0.76061 0.1267,0.0507 0.3297,0.17747 0.076,0.0254 0.051,0.0254 1.2423,0.40566 0.1521,0.10141 0.6339,-0.40566 0.2028,-0.27889 1.3944,0.12677 0.4564,0.93808 1.5465,0.83667 0.4057,0.58314 0.1014,0.63384 0.6085,0.83667 0.025,0.0253 2.1297,-0.10142 0.8113,0.91273 0.4056,-0.0254 0.2789,-0.15212 1.1155,0.35495 0.3551,0.7099 2.3325,-0.65919 2.5354,-1.72405 0.8366,-0.0507 0.1775,0.10142 0.6845,-0.25354 0.6339,0.0507 0.076,0.0254 0.3297,0.35495 0.9127,-0.53242 0.4817,0.10141 0.3549,0.0761 0.051,0.0254 0.355,0.10141 0.4817,0.3296 0.7606,1.19162 -0.1015,0.30424 0.3297,0.20283 1.1662,-0.27889 h 0.025 l 0.431,-0.12677 0.4564,-0.12677 h 0.4309 l 1.6988,0.45637 0.4056,-0.10142 0.4818,-0.96343 0.3042,-0.3296 0.3549,-0.22818 0.076,-0.53243 0.3043,-0.40565 0.6084,-0.35496 2.1804,-0.10141 0.4564,0.10141 1.1156,0.68455 h 0.025 l 0.4056,-0.32959 0.9636,-0.0507 1.4958,0.98879 0.7099,-0.0507 0.6339,0.25354 0.3802,0.35495 0.076,0.22818 5.1976,0.30424 0.076,0.0254 h 0.076 l 1.1917,-1.29304 0.1014,-0.22818 0.025,-0.0761 0.076,-0.25354 0.6085,-0.50707 1.9015,-0.43101 1.0395,-1.64798 0.4563,-0.35495 0.9888,-0.27889 0.1775,-0.0254 0.5324,-0.0254 0.1267,0.0254 1.1664,0.12677 0.3549,0.15212 0.8113,0.53243 0.076,0.0507 0.2535,0.22818 1.3691,0.40566 0.3549,0.25353 1.3945,1.54657 0.1775,0.38031 0.051,0.25353 0.076,-0.0507 0.355,-0.27889 0.2282,-0.12676 0.4056,-0.15213 0.1268,-0.0507 1.2169,-0.68455 0.7099,-0.0254 0.3551,0.15212 0.051,-1.14091 0.1775,-0.48172 0.786,-0.93809 0.5071,-0.27889 0.3042,-0.0254 3.5748,-1.54657 0.1268,-0.0254 0.3042,-0.0761 0.355,-0.30425 1.1662,0.10142 0.5071,0.63384 2.0537,1.11556 0.2282,0.20283 0.1267,0.15212 2.2819,0.30424 0.3549,0.15212 0.431,0.27889 0.2028,0.22818 1.0649,-0.22818 0.6085,0.10142 1.6987,1.0902 0.076,0.0254 1.2931,-0.86202 0.2281,-0.12677 0.4818,-0.15212 0.786,0.20283 0.9633,0.91273 1.9016,0.38031 0.2281,0.10141 1.3945,0.78596 0.4057,0.53243 0.1014,0.50707 -0.1267,0.20283 0.1774,0.12677 0.3042,0.60848 0.025,0.6592 2.0536,-1.29304 0.2029,-0.25353 0.4309,-0.27889 2.0791,-0.50708 0.2028,-0.0254 0.5577,0.0254 0.2029,0.12677 2.7636,-2.15505 0.9127,-0.0507 0.7353,0.43101 0.3548,0.40566 0.1776,0.48172 0.025,0.0761 0.4056,1.44515 -0.051,0.53243 -1.4706,3.47344 0.025,0.40566 1.7495,-0.0761 0.7859,0.48172 0.3549,0.86202 h 0.5071 l 0.5071,0.17747 0.4817,0.35496 1.1156,-0.43102 0.4817,-0.0253 3.0931,0.7099 h 0.051 l 0.5071,0.17748 0.5324,0.50707 0.2535,0.73525 0.8874,-0.15212 h 0.3043 l 0.3295,0.0761 2.9664,-0.78596 0.076,-0.0254 2.0029,-1.06485 c 0.3253,-0.89111 0.3434,-1.75653 -0.8874,-2.58607 -1.0468,-1.78838 0.6526,-4.02503 1.9269,-5.12143 2.3837,0.68783 2.7404,-1.74878 4.3355,-2.58607 2.1062,-0.0242 2.969,-2.37594 1.217,-3.65092 -1.5981,-1.54088 -2.565,-3.53009 -1.8002,-5.6792 0.2804,-2.22405 -3.354,-2.27793 -4.4368,-0.98879 -2.8829,0.66726 -1.7305,-1.81147 -1.8001,-3.42274 2.2085,-0.64255 1.0568,-2.91847 1.9775,-4.5383 1.1777,-1.33773 -1.3832,-4.10747 1.0649,-4.33546 1.1184,-1.65495 1.9145,-3.86459 4.1833,-4.41153 2.605,-1.66656 -0.4819,-4.7639 -2.7128,-4.66506 -0.6681,-2.39527 -3.4851,-1.24022 -1.9015,0.86202 0.9953,2.06351 -3.395,2.3701 -2.6622,-0.0761 -2.0253,-1.06046 -0.7149,-4.05714 -3.017,-5.07072 -1.06,-1.76126 -3.0698,-1.08094 -3.9552,-2.91566 -2.1769,-0.86201 -2.617,-3.07046 -3.7269,-4.84254 -2.3601,0.85972 -4.6602,2.05233 -7.2258,1.87616 -2.1991,1.02361 -4.641,2.67544 -7.1497,1.82546 -0.6197,-1.95773 -3.0664,-1.48439 -4.1327,-3.11849 -1.7814,-0.7983 -3.1566,1.1114 -4.9439,-0.0507 -2.016,0.31361 -4.16,-0.69108 -5.9328,0.78596 -1.7316,0.86642 -1.5427,3.50633 -2.079,5.22285 -2.3312,-2.23393 -1.32,2.79288 -3.6763,0 -1.8335,-2.54125 -2.3375,-5.76729 -3.3467,-8.56952 1.1818,-1.93114 1.953,-4.15397 0.9636,-6.38911 -0.2213,-1.99472 0.4597,-4.25752 -1.0903,-5.90739 -0.4681,-1.80881 -2.9511,-2.27891 -3.2706,-4.33546 -0.8166,-1.22769 -2.772,-3.2285 -4.0059,-1.39445 -2.3209,-1.58909 -5.1637,-1.11752 -7.53,0.17747 -2.5796,-0.24094 -0.9352,-3.28588 0.1014,-4.2594 -0.7275,-0.942 -3.9578,-2.65059 -4.7918,-1.09021 -0.7011,1.98458 -2.3443,2.78909 -4.3355,2.71284 -2.2573,0.15893 -4.1471,1.80994 -6.3638,1.85081 -1.3644,-1.84153 -3.8153,-1.95787 -5.5017,-3.39738 -1.8985,-0.32361 -2.4144,-2.40485 -3.6002,-3.44809 -0.2402,-2.58747 0.5023,-5.19888 0.2789,-7.80891 -0.2212,-2.17129 -2.6964,-3.22363 -2.3579,-5.45103 -0.4609,-2.00486 -1.9771,-4.02404 -1.4198,-6.05951 2.4062,-0.87816 1.0463,-2.25803 0.431,-3.77768 0.8459,-2.18331 -1.875,-3.10367 -3.5241,-2.66213 -1.5542,-1.03229 -1.7667,-2.78281 -2.5354,-4.2087 -0.6891,-2.14872 -2.2448,-3.74418 -2.8142,-5.98345 -1.3226,-1.47343 -4.4569,-1.47092 -5.6032,-0.73526 -1.022,1.81789 -3.4393,2.24689 -5.0453,1.19162 -1.9761,0.0457 -3.0136,2.14638 -5.1215,1.69869 -1.5658,0.41511 -2.9631,2.35631 -4.4368,2.05365 -1.2369,-1.02387 -3.5417,1.49596 -2.1298,2.56071 -1.7577,0.95829 -0.7152,3.32987 -2.6621,4.2087 -1.1105,2.97666 -2.1009,1.02778 -3.4734,-0.3296 -2.1051,0.50913 -2.9771,-1.63758 -4.5384,-2.23112 -2.6594,1.32305 -6.6394,-0.45163 -5.8059,-3.77768 -1.817,-0.84584 -2.6389,-2.08102 -2.8903,-3.98052 -1.8352,-0.50392 -2.9898,-1.8452 -3.9552,-3.32132 1.2426,-2.83027 -2.6121,-2.78471 -4.3608,-2.99172 -1.2626,-0.84117 -3.0892,2.20721 -4.4368,0 -0.7885,-1.49976 -0.4425,-3.89726 -2.6876,-4.18335 -0.176,-1.62796 1.4051,-3.46018 0.6846,-5.45102 -0.356,-1.77529 -0.4182,-3.6535 -1.9522,-4.79183 0.4825,-1.71679 2.4237,-2.6462 2.941,-4.33547 2.0237,-0.34966 0.134,-3.20139 -0.8113,-4.05658 -0.3322,-2.01195 -1.3502,-3.19774 -3.3213,-3.65092 -2.0199,-2.54058 -1.5347,-6.29243 -2.4847,-9.33012 -0.1958,-1.48853 -0.6158,-3.08947 -1.648,-4.2087 z"
       id="Nord-pas-de-calais" />
    <path
       class="county_r"
       d="m 528.32619,251.15813 c 0.69299,7.96775 2.7551,14.92095 1.57192,21.52521 10.6099,-7.25356 0.24478,8.31765 2.63677,7.63144 8.83423,1.65683 3.04423,11.87237 9.30473,14.45155 -4.5691,4.37374 0.6498,9.49042 -5.2228,11.76407 7.3775,3.04791 8.0155,12.58516 1.217,19.80117 3.3981,11.98491 21.8977,-2.15576 22.8182,9.65972 -3.0344,7.30954 22.5356,9.8506 14.4516,21.27167 -1.1066,0.45001 2.4913,9.62463 6.744,4.33547 4.9287,-9.03143 17.4788,-2.50482 23.7817,-11.43448 6.1839,4.75046 5.3622,-10.31159 10.7499,-1.72404 6.4894,-0.73906 17.4431,4.42611 20.6632,-3.34668 -6.8672,-10.93525 17.1773,-8.56771 8.2907,-19.62369 4.6767,-1.23721 8.4157,-7.2431 1.724,-6.82012 3.1696,-4.85892 -7.3319,-14.9016 3.6763,-13.13316 2.1597,-4.51799 15.6384,-0.0772 15.2882,-11.94155 2.3819,-7.35386 4.0467,-25.35442 14.2994,-16.32772 -1.0347,-6.90889 -3.1283,-16.28895 -8.1131,-23.27461 1.2319,-6.68345 13.6579,-16.41195 1.8001,-12.2965 -2.1768,-3.80672 2.6758,-10.51636 -3.8284,-12.57538 2.5049,-4.72457 0.2845,-12.38553 5.2228,-17.01227 -9.062,7.03972 -1.5679,-12.46386 3.6509,-10.69922 -8.1988,-7.77173 -4.2344,-22.93698 -18.0264,-25.80997 -5.0816,-7.20307 -14.6129,-13.16072 -17.6207,-18.27995 -31.0699,25.2246 -79.8193,23.35513 -114.82649,47.61407 -51.67994,21.92954 1.90983,57.26895 13.25729,42.74871 l -6.7921,2.48212 z"
       id="Haute-normandie" />
    <path
       class="county_y"
       d="m 335.91769,369.00168 c 6.43264,7.88627 4.9516,19.95863 14.19802,24.23804 6.81781,3.62682 11.5253,-5.30399 15.56711,-8.51881 5.92879,-7.29025 15.11008,4.00264 22.86895,1.52122 7.63045,5.47213 11.42042,-2.02057 19.37015,2.23112 6.32946,2.00118 9.72204,11.58139 13.20923,6.99759 0.003,-3.59348 10.84377,-6.97804 9.55831,0.55778 9.47478,-3.86136 16.02621,-12.57512 26.7227,-8.26527 2.58741,4.95562 8.10512,-5.16839 11.23164,-1.7494 -0.1479,-5.01504 5.86767,-10.64037 10.42033,-3.65092 7.5465,1.78919 -2.32342,11.933 6.84548,13.74165 12.19033,-7.13888 0.62615,16.93076 11.73872,7.78356 5.39652,6.6594 7.79137,-7.62877 14.50226,-6.16093 0.75067,-6.29783 20.8488,-10.64191 24.11132,1.34374 -0.3081,8.84336 0.5936,20.7114 11.8654,18.27995 0.024,7.1588 10.9814,12.50099 16.201,6.23699 5.3198,3.93718 10.9988,18.62979 16.3784,7.07365 -2.1292,-8.63251 -7.7541,-9.91597 -4.4369,-16.70802 6.8502,-4.56608 17.265,-5.32045 19.2181,-15.4657 -7.5576,-5.97885 3.7085,-10.92672 -4.2341,-15.44034 -1.7227,-5.02208 -13.5806,-7.44331 -10.8006,-16.1249 -3.1961,-2.56753 -11.4479,-13.37661 -9.2034,-9.00053 12.8137,-10.78253 -16.4228,-12.57941 -12.7021,-23.40137 -2.9551,-3.98616 -6.8976,1.90038 -13.7163,-1.97758 -7.8947,3.24026 -10.84,-9.54194 -4.6904,-14.35014 5.9669,-8.38467 -11.81827,-8.28158 -3.0678,-15.31358 0.3452,1.1853 0.082,-9.09674 1.4198,-9.22871 -6.07453,-1.96953 2.0109,-12.17703 -7.5554,-12.55003 2.12531,-10.27936 -7.23846,-14.46275 -1.7494,-10.2175 -4.38276,-4.48876 3.66286,-24.11029 -10.39498,-18.20389 -36.9014,37.35062 -82.71826,5.42984 -126.81872,4.43688 -14.36591,17.03711 -41.76513,-27.88402 -24.24812,-32.12051 3.57559,-29.26613 -37.62567,3.59212 -56.25562,-11.71373 -27.17124,-16.13099 2.50851,27.4392 -0.95739,46.19212 17.93822,-0.28974 7.95087,22.38903 26.16037,23.00366 -10.96953,21.79053 1.74703,29.26027 -0.0715,35.03074 -2.88195,17.8886 -5.46411,44.99727 20.63193,50.75268 -7.65414,-0.80614 -13.59437,3.72164 -21.31648,0.74049 z"
       id="Basse-normandie" />
    <path
       class="county_g"
       d="m 923.23391,170.07731 c -6.6142,2.32537 -21.8482,0.81164 -17.3419,-9.02588 -7.9836,7.06009 -10.8418,0.60095 -18.077,0.25353 -6.1117,-3.72382 -13.7162,-4.07619 -16.7588,0.76061 -5.8387,2.07587 -10.7843,-6.62346 -16.3277,2.48465 -8.7227,-4.82458 -15.0035,2.2808 -22.0324,-0.86202 -6.0768,0.16585 -14.659,2.47718 -19.6236,-3.06778 -9.4025,-4.28248 -16.1922,2.62319 -23.6803,2.51 4.8313,-11.35501 -5.956,-0.46061 -11.4598,-3.06778 5.3496,-4.14375 3.2255,-13.14851 -1.5719,-9.96397 2.0513,9.21962 -10.291,0.78195 -15.922,-0.20283 -0.022,-6.2155 -14.6046,-8.85155 -8.9753,-2.76354 -4.2968,1.97078 -4.3527,11.59636 -9.1019,4.00587 -7.5948,-6.12889 6.9888,-12.39555 9.2033,-14.55297 -4.8968,-7.83971 -11.6401,2.89962 -14.4515,-2.56071 -5.8871,2.62015 -14.1379,0.13545 -20.4604,4.2594 -3.9081,-0.74049 -9.5328,-3.46583 -8.4174,-8.72164 -5.7116,-3.22967 -16.5871,-4.42832 -11.5866,-11.15558 -6.6955,8.14297 -13.975,-11.23219 -22.3618,-2.25647 -9.7715,6.72294 -21.9223,-17.44608 -19.359,10.31458 33.6331,15.10308 -21.8359,8.81985 -12.688,29.56663 6.8656,-1.61681 5.7396,7.90299 12.1697,10.59781 9.9173,8.45489 21.1327,14.37732 22.1844,28.37068 2.1091,4.17244 7.6723,8.62814 -0.051,8.82306 -0.7444,4.73248 -8.7749,10.74277 0.3043,7.099 1.4703,5.39959 -5.8377,7.7233 -3.1692,13.64024 -1.3,3.67079 4.7219,12.31646 2.3832,15.94742 8.762,-5.90554 3.6841,7.62965 -1.1155,10.01467 -0.8753,5.51367 5.3797,12.06224 5.7552,20.40965 7.1057,12.39132 -6.8008,1.81256 -8.1892,8.26528 6.0588,2.65563 0.01,11.02361 9.5076,7.68214 9.907,5.42878 20.0357,-0.28122 29.7905,-3.11849 4.0541,6.29584 14.0107,1.83784 15.1361,7.96103 5.6416,-1.65278 8.5581,-9.57336 12.8036,-0.63384 8.9042,-2.0029 14.6765,10.31224 18.6603,5.55244 2.9576,11.5271 11.7536,-4.61938 15.7698,7.98638 5.542,-0.98041 5.8941,0.75819 10.3697,-4.51294 7.6126,4.51791 15.8632,1.55419 21.9815,0.68455 4.49,-0.96476 9.8089,-6.02524 16.201,-0.38031 -2.9468,3.96789 16.0611,22.8625 2.9663,12.98105 5.571,2.50299 5.029,11.89888 11.3331,8.92447 5.0213,8.26777 6.7133,6.23151 9.6597,10.29356 5.3691,6.05492 7.7774,4.70259 11.1303,-4.10728 8.7551,-2.4635 7.2444,-12.31525 15.7953,-15.94742 -2.6871,-3.9408 -14.9257,-1.64655 -6.2877,-9.02588 3.2376,-1.28432 -5.9226,-14.87171 7.2005,-12.01761 6.287,2.28278 8.4915,-2.36346 1.3437,-4.589 -6.8414,-4.73787 -4.658,-11.26045 -3.9299,-11.89084 -6.7186,-9.39636 9.4535,-10.89134 15.263,-14.0459 6.9114,4.6136 3.5982,-5.35295 11.7894,-6.69335 5.1113,1.2507 12.738,11.90872 12.8543,0.0507 -0.6935,-6.87572 -1.9255,-14.28669 2.4085,-19.14197 -0.5919,-11.44044 -6.5686,-3.88327 -3.0678,-15.00934 9.3622,3.26694 6.947,-5.97029 13.0825,-8.89911 5.8142,-3.89595 8.5627,-8.67489 4.4369,-12.95569 -0.4,-5.79627 8.4194,-15.03083 0.4817,-19.37016 2.5021,-7.44219 1.4831,-6.67744 -5.9581,-8.89911 z"
       id="Picardie" />
    <path
       class="county_b"
       d="m 648.45151,324.75964 c 6.643,-0.12907 6.8172,7.81535 8.8231,10.82599 4.3542,4.29524 -1.565,15.16318 4.8932,18.20389 -7.7407,7.53744 1.8472,13.32446 6.2624,19.26874 4.4825,-0.84232 1.7336,7.39315 8.9752,7.12436 0.2149,8.862 6.876,21.88688 17.4179,17.67146 -2.2924,7.60557 8.0419,6.62513 3.8284,15.56711 -5.068,10.65398 10.0591,8.00519 15.1107,6.71871 7.771,-0.59889 10.519,-9.53006 15.0601,-0.73526 5.3654,-4.26275 21.7231,1.97258 15.6939,-0.45636 -2.9557,10.94666 15.4211,6.53411 9.254,17.79823 -1.6891,1.83866 -12.5897,11.81493 1.5719,8.77234 7.0057,-6.35238 20.4622,7.04998 24.9987,-5.22284 6.5528,-4.86671 0.5691,8.49385 8.5949,3.52415 9.2713,-8.54686 21.0207,-0.35437 20.6378,9.38084 10.9194,5.59624 8.3511,19.62796 -3.5495,23.52814 -2.3757,6.71823 1.5414,8.70507 0.6845,15.18681 -2.3334,8.00792 -21.6407,0.8373 -17.6968,14.14731 6.4611,2.29488 10.539,9.0331 8.9752,16.80944 9.9079,8.5895 -20.2779,2.5232 -4.8426,15.00933 11.4559,9.30395 -9.806,22.6029 2.6622,29.13129 8.9216,7.13266 9.4254,20.06485 11.5612,30.82998 -3.0024,6.72914 8.6394,9.10781 3.3213,17.18974 1.0692,7.02943 -1.1091,14.83518 -0.5577,22.33653 -5.6642,6.28432 -17.7653,1.60118 -21.9563,13.36135 -13.1486,2.45322 -11.1114,-1.26444 -14.2994,-0.17748 -1.5168,4.46277 -9.9423,7.92693 -8.5188,10.2175 -10.0822,-0.75883 3.2341,22.27761 -3.0678,11.99226 4.9978,10.13007 -10.0934,8.24872 -16.0996,8.56952 -11.6275,-0.59797 -12.1187,12.4663 -18.1784,14.75579 -10.4302,-0.13928 -18.8559,3.66751 -28.32,-1.95222 -7.4753,-0.95147 -13.8437,3.68278 -19.6491,-2.30718 -6.971,-0.0296 -1.9817,15.63985 -11.2063,5.95809 -5.2798,9.74662 -4.4065,-6.5392 -11.257,1.62264 -3.258,-7.72959 -10.5217,3.79822 -15.0093,8.11315 -2.7282,-7.61051 -10.039,-8.96136 -13.4881,-3.65092 -7.0242,-0.12111 -11.9465,0.0162 -6.7948,-7.68214 -10.5484,-1.06231 -2.6847,-16.0226 -15.9474,-16.86015 -4.3977,-3.64491 -13.6713,-4.85544 -16.6573,-12.60074 7.0147,-9.86029 -0.9975,-17.35673 -8.316,-24.49158 0.2174,-11.71918 -13.6889,-11.34498 -12.2711,-25.65785 -2.6733,-3.60045 -17.8007,-11.53554 -13.1586,-1.21697 3.2788,2.65363 -12.6978,1.51615 -15.7699,5.02001 -7.63961,-0.62442 -13.97864,0.34902 -10.85133,-9.05123 1.84255,-10.42789 -7.11131,-10.52756 -13.51347,-9.8372 9.00076,-6.47735 -23.95175,-19.01621 -7.27649,-9.68508 -8.90148,-0.29453 -2.0031,-15.03285 -2.05364,-22.71682 8.83405,-10.00901 8.55045,-16.62491 12.14438,-29.05523 3.48784,-5.63649 -2.38876,-9.90508 2.86495,-15.21217 0.15607,-9.85172 18.5744,11.90899 16.7841,-1.67333 -7.07492,-10.77718 5.8027,2.15809 7.9357,-6.16093 7.7706,-1.9564 18.3024,-5.88673 12.2458,-11.76407 5.3376,-5.7824 11.2298,-5.98348 14.4769,-12.75286 7.4203,-3.64666 -0.094,-10.7187 4.8932,-14.88257 3.4946,6.66449 4.2573,-13.8261 5.8567,-9.8372 3.3139,-13.27579 -10.2359,-4.06542 -0.5578,-14.12195 -1.9249,-7.38725 9.2446,-16.51052 8.1892,-12.39792 -5.7133,-3.6436 -14.4453,-4.39168 -9.2287,-11.43447 -2.6532,-6.79559 -4.8114,-19.5338 -4.5383,-14.85721 7.1556,-2.76949 20.3608,-7.82438 19.4969,-17.925 -6.3158,-3.30026 3.6224,-11.86951 -3.1945,-14.50226 -5.7638,-6.52977 -14.4151,-9.99364 -11.5359,-19.3448 5.1611,-4.23795 23.0364,-7.4482 15.9981,-6.668 12.0383,-8.47347 12.51,8.28792 14.4769,-9.22871 6.8393,5.53492 13.2298,3.19723 21.5759,3.57486 7.6121,-3.73758 0.123,-13.17233 9.9387,-15.16145 8.3287,-0.64253 0.7264,-8.46849 4.1579,-10.92741 z"
       id="Centre" />
    <path
       class="county_g"
       d="m 243.88411,545.56417 c 2.29096,-11.05304 16.32823,5.26416 16.37843,-10.2175 4.7183,1.81825 15.31374,6.59557 12.82892,2.30718 4.33596,-6.59861 6.21381,-3.42076 7.27649,-10.82599 -0.17024,-9.8985 5.61997,-15.46889 14.8065,-18.35601 2.29348,5.87721 12.92823,-7.49242 19.75046,-1.19162 6.88741,-0.42768 13.60973,-1.67881 15.74459,-9.60901 5.20054,-3.86736 15.53766,-3.52486 14.4262,-10.57246 9.83683,-2.69101 16.72927,13.05741 23.78168,5.80598 3.08627,-9.08987 6.55383,-15.73358 10.01467,-25.58179 2.83517,-5.13804 16.98242,0.6613 11.6373,-9.76113 -1.67985,-13.74875 -11.79958,-31.22593 -2.40859,-43.96315 -2.13128,-9.00648 -2.45245,-16.0714 -2.079,-25.04936 -7.60539,-0.54204 -17.54953,-9.42434 -20.99278,0.27889 -6.84253,5.9287 -12.98407,9.10973 -20.63783,2.68748 -7.05821,-6.86797 -3.52884,-26.87928 -17.2792,-18.84697 -21.93164,8.47851 -25.13333,-29.92024 -37.68741,-1.81622 10.0033,9.41985 5.3401,25.06425 -1.09021,1.72405 -14.08834,-11.67802 -13.55907,14.47611 -22.00693,-1.16627 -5.40159,-6.33674 -15.60737,-10.10852 -31.56523,3.80304 -16.08671,25.88955 -20.89165,0.0241 -34.50626,-12.6768 -8.0763,-26.3624 -14.56579,-32.38182 -20.15274,-21.43887 -13.9056,-4.12445 -8.30149,-3.58018 -30.30093,0.72498 -10.74728,-3.01815 -23.3037,2.02963 -21.15113,15.69339 1.54753,14.30381 -28.28278,-10.63307 -28.28761,6.17552 -1.956252,17.90349 -12.054912,-19.74266 -20.917502,-0.74936 -17.42652,2.86405 -23.9499,2.4509 -35.8635,6.24447 -21.58746,-0.69679 -11.42472,12.08943 -26.93738,10.08325 -12.5439604,2.88577 -17.1273004,33.74631 -2.80885,34.70542 22.72078,-4.22596 48.0354,-20.42977 28.59347,0.004 15.23747,-3.77717 8.76188,-1.29967 19.11661,3.44809 9.24651,4.37228 -29.98876,-13.02738 -30.96206,-2.23429 -12.88565,-2.73618 -1.53891,33.59919 5.83274,13.10335 28.56288,3.17776 22.61893,27.81128 -5.57787,23.07827 -36.5477104,5.2383 -1.53794,8.20899 11.21027,17.82473 -2.99212,30.12324 24.49678,3.94275 27.02694,14.98398 1.90299,-13.63792 26.45067,-6.85171 18.63456,-0.41987 5.10054,-7.69205 18.554332,18.70327 34.303772,11.9304 14.64667,18.93137 40.97192,0.50485 31.3117,8.4174 -3.25952,6.21266 18.23423,16.80103 16.13505,-1.67334 11.66268,1.63127 -5.50283,21.62465 5.18733,38.58819 -0.77202,-10.7951 25.75561,-7.62898 16.67536,-14.56875 1.12911,-13.25934 0.32266,2.26076 19.6703,-7.00911 2.0782,0.99063 19.30652,-0.15423 0.61989,11.86743 -15.9749,-7.74341 -13.59383,10.63283 7.10874,6.29859 14.31958,-8.32016 8.14154,-1.06375 34.79881,0.46946 -5.86644,-0.41042 -20.2763,1.13593 -9.65777,7.48067 z"
       id="Bretagne" />
    <path
       class="county_y"
       d="m 423.26085,858.93474 c 7.43386,6.3324 17.44137,-7.7218 15.94742,4.7411 9.36466,-0.9326 20.11354,3.6333 15.71923,14.2995 1.7591,9.0835 13.21032,3.0552 17.16439,13.6655 7.45443,7.3694 13.59659,-6.1126 18.83773,1.2677 3.9678,-5.5653 3.38019,-14.2989 12.32185,-18.711 5.56799,2.0376 10.25629,2.3778 11.68801,-5.2989 5.66741,-2.3785 12.38618,-6.1817 6.87083,-14.4515 0.0879,-7.542 6.27356,-11.5864 7.7075,-14.5276 5.4793,-1.695 11.9905,-6.34 16.2009,-12.0937 5.8103,-3.8388 -1.355,-17.9781 9.4062,-14.6543 1.7535,-10.182 13.7909,-15.9393 15.7193,-24.9988 8.786,5.3118 10.1231,-11.3373 8.5948,-17.7728 9.3608,3.5401 18.285,-7.3162 8.5442,-13.74167 -5.1299,3.4132 -10.3361,-6.63636 -6.3384,-11.71336 -1.124,-4.68254 2.4719,-10.43806 -3.4734,-15.61782 4.2984,-6.22419 11.4892,-15.02437 21.0688,-12.27115 -0.095,-9.24095 8.5002,-12.16715 13.2346,-11.35841 4.3414,-4.12587 11.2496,-8.64089 1.9522,-11.99226 0.1196,-7.59163 -3.4385,-14.54181 -13.4628,-13.4374 -3.8072,-4.75507 -16.9634,-9.72127 -11.5358,-20.33359 5.1558,-8.35383 -11.8136,-13.34355 -11.1556,-22.61542 -4.8652,-5.34456 -11.7161,-11.45901 -11.0288,-21.11955 -4.5669,0.77177 -9.7711,-9.22901 -10.5471,-2.28182 8.9153,8.64966 -12.908,2.06506 -15.5672,8.64557 -7.73758,-0.86951 -17.62918,-0.17114 -13.38666,-10.57245 -1.24292,-6.87282 -4.58975,-14.02061 -6.64264,-8.87376 -10.81052,6.78168 -14.15702,-1.93956 -8.26528,-5.90739 -4.22208,-5.18141 -9.21399,-0.26196 -10.85134,-9.07659 -10.81324,-2.94024 -3.79189,15.83604 -14.35014,10.52175 1.18069,9.84661 -15.12131,3.47441 -6.92153,-1.19162 -7.94872,1.04167 -20.20551,-1.46474 -26.0128,5.17213 -7.70324,2.44447 -12.18853,-7.51528 -13.10781,5.14678 -7.24616,7.61627 -16.8808,7.22482 -25.17613,4.25941 -6.95019,3.50293 -12.39252,5.6263 -2.40859,10.85134 -4.87738,9.08919 9.88155,12.77697 11.23165,18.10247 -5.77467,7.17485 7.15438,12.17827 5.17213,18.48278 2.75924,6.82549 4.146,13.26265 5.37496,22.08299 -8.88387,1.53895 4.28407,11.76113 -3.60021,16.30237 -1.3892,4.40681 9.16709,-1.66663 9.96397,5.80597 -5.36471,4.93927 -10.25112,11.47827 -18.17853,10.19215 -4.75173,6.72055 -12.17718,-8.77025 -15.64318,-0.25354 -12.09563,4.76447 -4.53038,-10.21395 -15.64317,-5.02001 -12.55067,4.79722 -10.46695,15.73181 -19.42536,25.16817 9.98734,-7.00937 32.45075,95.02913 11.66716,35.27483 -15.97417,14.4236 22.952,46.714 -8.26528,22.2605 -23.73398,19.2129 37.20256,29.9558 43.07577,55.6258 l 3.39739,11.3838 z"
       id="Poitou-charente" />
    <path
       class="county_r"
       d="m 465.4746,1229.7565 c -2.70083,-8.7422 3.59804,-23.9904 2.58607,-18.4829 -2.95673,-9.7933 8.15856,-11.6526 7.80891,-16.6319 -0.1183,-6.4462 6.56086,-12.0071 10.34427,-16.2516 2.9919,-2.573 4.40941,-7.3088 8.06245,-13.2346 -6.88868,-4.2791 1.62282,-10.5141 4.589,-11.2316 -5.83575,-3.0315 0.31603,-20.5685 -6.28769,-8.7217 -8.01941,-11.0807 2.48244,-7.1386 -0.88738,-15.2629 0.047,-5.3284 -6.78255,-4.4592 -5.85668,-10.2682 -7.36141,-0.7104 -14.40323,0.6268 -17.03762,-4.9946 -3.30837,-5.6962 4.85526,-8.1459 2.43394,-15.3644 9.26973,-3.3316 -2.29209,-13.2934 5.04537,-17.6461 1.43084,-6.0784 -2.5204,-6.6601 -3.85375,-10.6738 7.49733,-7.7793 15.26462,-2.9012 21.4238,-12.2711 7.33579,3.2222 1.86252,15.9059 10.01467,10.3442 -7.15504,-7.8557 8.05112,-16.8873 9.30477,-9.4315 2.38794,-14.0995 12.76198,1.1826 17.2151,-4.7665 9.50688,0.294 14.23958,-9.8995 24.26338,-7.6822 6.1109,-9.3462 10.4847,13.3058 15.1361,0.2536 3.0075,-1.7917 5.3688,-8.1769 8.1385,-9.964 -1.8054,-5.4953 15.8927,2.6575 7.8343,-5.1214 -4.9534,-6.2515 6.3163,-22.5649 7.53,-15.6431 -4.3644,-4.3082 -9.699,-5.3345 -5.4003,-12.5248 0.035,-10.82406 8.482,2.0448 13.6909,-2.1803 9.683,-1.904 -2.7245,-11.58446 -1.1916,-17.95036 -7.8567,-9.9308 3.568,-9.9638 8.9752,-13.4881 2.2701,-4.9021 4.3005,-10.9636 7.1244,-15.1107 10.5869,-2.5762 16.3124,-8.5835 13.4374,-17.3927 7.8157,-2.0729 8.0233,-9.5859 14.2233,-12.4232 -4.5288,-4.7584 0.8608,-10.2745 -3.2452,-17.8743 6.4391,-3.3394 -6.8663,-15.2294 -0.7099,-17.7982 -5.8471,-0.7571 -19.6059,-2.4074 -11.7387,-9.2794 -14.2335,-0.783 -0.6285,-7.6254 -2.1805,-9.2288 -9.5622,-6.1503 2.0073,-13.604 5.6285,-19.3194 -11.2004,-1.0394 -2.3223,-7.1731 -5.0453,-8.2146 -5.5678,-1.5305 -11.5598,-3.3271 -15.846,-7.7328 6.2035,-5.7779 -9.4835,-4.1744 -3.7777,-6.5413 -4.9292,-8.2442 -8.2352,-13.8293 -19.0406,-9.7358 -2.1181,-7.4418 -5.8944,11.3312 -9.1273,1.0396 -10.6637,0.4509 1.7122,-18.8608 -12.3472,-13.6656 -8.9139,-8.4685 -7.9535,12.3049 -15.4403,6.9215 -2.3368,5.7216 0.3626,13.7564 -7.1751,17.1898 -1.6977,8.088 -10.12611,5.367 -13.91911,11.7894 -2.16947,-1.3781 -9.81259,11.1956 -4.589,18.7363 -3.13953,6.8084 -10.90444,7.8396 -13.7163,15.5671 -5.73948,-3.1266 -15.14805,0.3953 -14.70509,6.7187 -5.09491,15.1218 -12.22019,12.5021 -14.29943,11.4345 -8.69279,2.4132 -13.75507,-8.6603 -19.16733,-7.7582 -4.47698,-2.0593 -10.51511,-1.6926 -9.93861,-12.6008 3.2306,-10.6464 -9.77701,-7.9316 -16.12489,-11.1556 2.16041,-9.8292 -7.39657,3.1967 -14.02055,-3.3973 5.10081,45.0981 18.33471,40.1085 15.70964,54.6875 -16.4045,-25.4517 -31.09585,-83.4678 -56.22469,-85.8471 -6.35612,27.9828 -16.6559,122.6224 -13.69095,125.6778 24.29104,-21.3588 17.23737,9.7331 -0.5947,18.2803 -11.94794,55.21596 -2.12654,131.24676 -45.11785,172.17596 -24.52841,23.815 39.47541,6.0004 30.901,32.6431 -12.40675,35.981 11.57323,-3.0447 23.27965,20.8783 20.00424,13.7351 44.04888,6.357 54.38348,26.2157 7.50603,15.1358 20.22279,8.2941 33.21322,4.3101 z"
       id="Aquitaine" />
    <path
       class="county_b"
       d="m 1051.6753,223.8523 c -4.4329,4.0624 -9.191,10.86833 -15.4911,10.72458 -3.5748,-4.45988 -10.9894,-2.89968 -14.0205,-5.75527 0.207,7.25782 -7.6393,12.74599 0.1774,18.81237 0.556,8.93183 -1.97,11.82537 -8.2906,18.00106 6.7922,7.99973 -2.8177,9.55104 -5.9581,14.22337 5.0174,6.60166 -6.4225,8.01636 0.7099,15.69388 5.5972,7.45003 -1.7132,14.50765 5.9835,16.53055 -4.4532,4.87419 4.0539,11.39647 -6.8456,14.22337 -11.10489,1.12853 0.9072,13.41898 -7.6313,16.53055 3.3267,4.26987 16.2796,12.48648 10.5217,18.55884 0.9468,4.96487 -1.448,13.90021 6.1102,8.0878 0.3418,5.99844 6.9536,5.70608 9.5583,9.45689 6.4619,7.15934 16.6948,6.23327 22.7929,13.58953 3.6267,1.22988 8.8365,7.46054 9.0006,9.33013 -5.6331,0.13177 -5.6778,14.51561 0,8.56952 8.8766,-4.7281 7.7417,14.64423 15.3389,9.05123 5.1745,6.53086 5.8695,8.0793 12.195,13.91913 -2.6874,2.9607 -4.2697,6.80525 -7.0482,11.99226 -0.852,5.05944 -3.8407,4.60699 4.1326,7.45396 6.5776,3.80815 10.5619,9.77997 9.9386,17.21509 5.9946,-9.19419 8.5555,9.77281 11.5359,-2.99172 9.0292,-5.95305 -0.2796,10.87543 5.6031,1.85081 5.8129,-0.86171 7.9125,-10.34442 15.7193,-9.55831 6.8319,2.89447 1.978,13.41868 11.4091,13.08246 8.4637,-6.93234 22.9334,-4.72787 25.2269,6.82012 6.5482,-1.72588 13.7776,-15.12624 17.4686,-2.23112 10.2899,3.89711 17.9912,18.43739 26.5452,7.7075 -1.3519,-6.72732 -0.1452,-15.79705 4.5637,-22.48865 5.3177,-3.02207 10.838,-13.59124 11.1302,-17.74752 -0.518,-9.55128 11.5396,-21.28264 11.8655,-28.64957 -1.631,-1.9394 -15.5376,-1.98949 -8.316,-9.55831 -3.6217,-5.22967 3.1969,-13.05601 -1.0396,-18.33066 8.1816,1.68509 -10.5842,-2.57702 0.6085,-4.10728 10.3302,3.93409 20.4202,-12.39926 18.3307,-17.925 -8.8439,-5.48831 10.0039,-18.96894 -3.1945,-22.10834 -3.8579,-2.2133 -7.9422,-8.47408 -10.9021,-0.73525 -2.2026,6.49889 -8.4002,2.06992 -8.4427,0.20283 -6.1445,-6.71082 11.064,-6.91902 -0.7099,-8.01174 -9.615,-2.72599 -13.964,-9.70127 -6.6427,-13.48812 8.1515,-0.76775 4.9473,-15.73476 11.6373,-18.88843 3.3726,3.85573 3.1142,11.30161 11.1556,12.57538 8.6911,2.76005 14.0889,9.67693 25.1508,3.62557 5.7705,4.53859 13.886,6.56596 13.8684,-3.21991 10.9601,-19.42539 -8.43,-8.21989 -8.5696,-22.8436 -14.2927,-1.55787 -56.9303,7.1857 -45.3263,5.89251 -8.5693,-35.56212 -32.8891,10.12 -38.3405,-20.09052 -12.1096,-18.27662 -18.1795,-34.06203 -43.9378,-37.87829 -20.8227,8.41508 -33.45,6.89153 -51.5548,-7.33861 -17.1753,1.7838 -28.6457,15.61067 -36.0165,-9.77507 z"
       id="Lorraine" />
    <path
       class="county_g"
       d="m 680.21961,693.45174 c 8.4882,7.07765 21.3623,-1.38765 31.261,6.64264 6.2344,-1.61684 19.918,-6.47173 20.1815,3.98052 7.8776,-0.39682 -3.7081,8.63527 7.53,10.24285 6.031,-2.44223 4.5818,4.77813 11.5612,4.84254 3.1636,10.26119 10.11,17.13217 7.3272,28.37068 3.6428,6.82494 9.8242,17.42537 0.5071,20.58717 -0.094,10.4579 -10.6105,8.3334 -12.7782,15.7446 -10.0333,0.6775 2.3433,13.0905 6.3891,15.6684 4.8164,5.2489 3.9162,13.4822 -1.1916,15.263 -5.2404,8.253 7.1797,12.1012 3.2199,20.6885 -6.257,6.2428 -9.3364,16.5969 -2.1297,16.0235 -4.9546,-0.5343 -17.6742,-11.5211 -13.1585,1.4198 -0.9459,9.7154 -12.4468,12.4846 -16.5306,21.7533 -0.8127,7.2997 -5.077,22.6869 -1.648,16.4545 0.1314,6.1966 -15.3703,5.3107 -6.9976,14.7051 6.0389,8.1243 -13.6582,1.4376 -16.6826,8.4934 -4.0958,-9.6639 -14.6612,10.4134 -19.1167,2.2059 -5.5023,-6.658 -13.4829,-16.6984 -22.0322,-14.8066 -6.6154,-0.3283 -12.3563,8.4702 -13.8685,-4.0312 0.2973,-6.0421 0.8097,-11.7255 -8.0878,-10.5217 -11.9542,2.0296 2.6734,-10.7733 -10.0146,-9.1273 4.1181,-4.3633 7.2484,-7.9999 -0.076,-10.3189 -1.1914,-7.6679 15.3528,-12.3181 6.0595,-18.3814 -6.1353,1.7323 5.4655,-7.973 -5.2228,-6.9216 -2.7515,-5.7951 -18.734,-2.6681 -7.2765,-11.8401 -5.1584,-6.1485 -14.2537,-0.7479 -13.767,-11.4598 -5.4053,-4.506 -14.3117,1.0259 -18.356,-3.1945 -2.7223,11.4655 -13.2922,0.4192 -8.6963,-7.3019 -2.8629,-6.3851 -18.9309,-0.3608 -11.3331,-9.0259 6.685,-1.3635 3.9271,-13.1491 10.0654,-7.7328 4.3913,-2.5096 8.6554,-14.6183 5.7806,-20.7646 15.1495,8.0506 15.8197,-18.74438 4.5637,-15.49111 -6.0422,-2.4471 -2.635,-11.45915 -2.5861,-14.12191 4.9819,-6.56124 -9.7762,-13.98826 2.1551,-16.30237 -0.2788,-9.72124 14.1021,-2.79284 16.1756,-9.05124 0.6235,-7.37322 18.4785,-4.73319 12.1443,-7.65678 3.0894,-9.57054 8.2413,0.28725 14.4262,-3.1692 5.3091,-3.03707 10.1685,-5.49043 13.3614,3.57485 7.2198,0.24268 11.4579,-17.21206 15.846,-6.89618 6.161,-7.72389 16.3735,-3.13993 10.2175,0.15212 8.3522,2.20819 8.6129,-1.27048 12.7782,-8.69628 z"
       id="Limousin" />
    <path
       class="county_g"
       d="m 844.07991,405.0545 c 3.78,8.55502 10.8521,-0.0375 16.0235,9.10195 0.9254,5.77391 11.5115,8.75256 6.3384,15.66852 -5.0022,7.20925 9.6706,12.6906 4.6904,9.10195 2.8365,11.67596 12.3795,-7.14595 9.4315,5.55244 8.9981,0.19907 5.4963,13.69248 12.829,17.18974 -7.9214,9.74042 7.9281,-1.75071 3.7777,7.70749 -3.5174,10.45091 11.9017,2.50549 16.4798,5.12143 10.4662,0.73091 7.9621,-5.69271 15.2376,-2.00293 -2.3961,-11.91462 7.8745,12.81407 10.3696,-1.26768 7.5921,-3.15275 19.1864,0.91062 26.672,-3.77769 -5.5932,-10.91897 12.9615,-6.66396 18.7616,-3.8791 6.8343,-0.24469 1.2645,8.54579 10.8514,8.39204 -9.3763,11.72929 6.47829,15.3925 5.90729,7.65679 4.5522,6.22595 10.3453,12.90115 0.051,16.93621 1.8746,3.95354 6.4987,5.32748 3.803,11.99225 6.9387,2.13104 7.5605,-1.6248 11.7134,5.02001 5.4823,7.96766 11.571,-6.25708 11.2316,2.33254 8.3118,1.83933 6.4415,17.58559 15.0601,6.36375 3.3576,2.36145 9.2733,3.36154 11.7893,-3.19455 9.7802,6.93764 3.2017,19.79663 -5.3749,19.92793 -2.814,5.62052 0,5.46934 4.2088,7.60608 -2.4052,7.94098 6.6711,12.3408 5.9073,9.86255 -1.866,6.32731 -0.233,9.21397 1.4959,11.84013 -3.2521,3.8381 -3.3425,12.01271 -4.9187,15.4657 -2.6238,6.93401 -4.932,15.80605 -13.4881,16.58126 -6.7443,2.86496 -5.7624,11.36027 -4.2594,10.77528 -5.9799,5.82201 -1.9002,12.90209 2.3833,11.94155 1.6004,9.97358 10.5832,2.32587 13.6656,10.69922 7.3914,4.44751 -20.5961,1.02164 -8.1639,9.86255 4.387,3.76564 -2.2324,8.82331 4.8172,12.87963 -1.0559,4.90724 5.8084,9.70444 -0.6339,13.7163 -2.7736,1.79624 -8.9976,14.53947 1.9777,16.47984 -3.6262,7.24959 -20.585,8.91938 -21.6267,-2.71284 -7.281,-1.73308 -15.2469,7.35624 -22.5647,-1.06485 -10.15579,-1.62208 -8.19,15.01813 -13.48809,22.33653 -2.068,9.3636 -4.9364,20.94942 -9.6091,28.24391 -4.3627,-2.37025 -1.0776,-11.77124 -6.3637,-12.44862 7.4122,-5.11421 -9.5014,-11.24553 -8.6202,-1.29303 -6.7699,-4.56253 -24.9337,-9.49733 -13.336,-2.99173 -13.3996,-9.075 -7.145,16.06427 -15.5417,15.21217 -4.4945,2.29431 -7.3059,6.62841 -7.7583,-0.43102 -6.3388,-0.97463 -9.9133,3.9086 -16.3277,-1.36909 -5.5806,3.0373 -10.8754,5.87071 -13.767,-1.0395 -8.8063,2.85676 -6.2711,-12.02398 -2.6368,-12.2965 6.7465,-4.01262 7.7124,-6.17569 5.1468,-15.56711 5.8321,-7.03619 -1.8248,-19.48871 -9.8372,-13.51347 -2.4186,-8.10783 -9.7409,-4.91456 -15.2375,-9.55831 2.8613,-11.98756 -9.9029,-19.83217 -11.8655,-30.50038 -5.5928,-2.56247 -7.6,14.40867 -7.7582,9.96396 -4.8853,-1.42062 -10.7256,11.51673 -10.4964,-1.01414 -4.4916,-9.04532 -11.8663,6.85522 -17.139,-3.5495 -7.2738,7.75109 -11.719,2.31491 -18.356,-2.71284 -14.4122,-5.09376 2.6447,-16.63876 -4.4876,-25.22683 4.0245,-8.48694 3.4944,-19.25288 -2.9664,-25.07472 2.6301,-9.75578 -4.2001,-19.69004 -5.3495,-29.05523 -8.6686,-5.55256 -12.5124,-11.40772 -5.1722,-20.68854 5.7814,-9.21793 -14.6539,-19.3783 -0.9635,-21.62662 13.4835,3.35272 -1.7621,-9.05391 3.9552,-13.66559 -3.4144,-4.11125 -7.2192,-9.9205 -9.9132,-11.18094 -0.4102,-8.86515 22.6984,-2.53232 16.6065,-15.03469 3.4924,-4.61 -4.4596,-10.12906 3.9552,-13.66559 11.0085,-6.00446 8.7065,-18.32395 -0.3043,-23.12249 0.2262,-8.87983 -6.5786,-10.88511 -11.8147,-14.83185 7.7315,-4.26404 13.7637,-11.70147 8.5442,-19.47157 2.041,-9.01112 9.0144,-6.46476 15.5925,-8.72164 6.7726,1.65446 12.5734,-1.01226 19.649,-0.76061 -1.5063,-2.45251 0.7078,-2.08617 1.2169,-3.21991 z"
       id="Bourgogne" />
    <path
       class="county_r"
       d="m 381.24993,713.9121 c 4.44706,-3.7329 13.59247,-9.49812 21.27168,-8.44275 -5.5199,12.38235 7.38031,4.00045 12.52468,3.27061 0.35362,4.83362 7.51129,6.97941 10.72457,2.43395 11.54224,1.71009 5.09563,-5.96028 13.31064,-5.45103 2.63587,-10.13743 -11.26875,2.2452 -8.26527,-9.8372 6.44973,-4.5315 -5.52093,-14.08804 3.44809,-16.25165 -2.17513,-6.04006 -2.24047,-12.54729 -4.81719,-15.56712 1.62671,-8.69111 -9.51728,-12.74389 -6.7187,-23.07178 0.42781,-3.17969 -16.05771,-9.342 -10.52175,-16.80943 -5.73562,-3.61577 -11.80888,-9.4033 -2.91566,-10.80064 9.58648,-6.22778 25.71227,4.5641 29.99331,-7.85962 0.31407,-9.66639 11.52267,-5.64734 15.87136,-4.74112 4.66116,-7.05658 18.68799,-3.92536 25.88603,-4.9186 3.11926,1.47031 -3.80188,8.67035 4.46223,5.17214 -0.0801,-8.72101 10.20013,0.16375 7.30184,-8.51882 4.16776,-10.61666 12.04285,-3.09125 10.95275,-15.31357 -1.65287,-11.09869 11.92179,-17.81276 8.7977,-25.60714 3.20597,-6.40769 7.60669,-15.71063 4.28476,-20.86602 3.19144,-7.40164 3.74653,-14.66153 13.79236,-7.85961 12.87025,10.20986 -1.527,-6.56388 7.07365,-6.9976 4.13,5.9868 9.6918,-3.11271 15.846,-3.52415 7.33,-0.86006 0.098,-8.11292 7.1244,-12.60074 7.82,-2.04554 10.0284,-7.75394 14.8572,-13.89377 -5.135,-4.80008 0.619,-11.42974 3.8791,-8.89912 4.6108,-6.26006 0.3141,-9.04078 3.0424,-16.42913 -10.622,-4.09848 -6.3261,-15.93781 -1.6733,-12.42327 5.7241,-5.79591 12.8818,-6.34936 0.6338,-9.81184 -6.0529,-1.16798 -13.4413,-2.66378 -15.0347,-11.99226 -4.9664,-0.89548 -3.1087,4.8111 -10.6231,1.54657 -8.3074,-1.68622 -6.43,-10.4514 -15.415,-10.04002 -9.99326,-3.84342 0.2566,-25.42611 -15.82066,-25.04936 -9.7641,2.32863 -13.60764,6.9502 -20.99279,12.52468 -1.79479,5.15336 -9.712,-1.18552 -12.80357,1.90152 2.8475,-12.53427 -2.72335,-7.61691 -9.8372,-11.89084 -1.62288,-7.3583 -0.2346,-14.65237 -8.67093,-14.27408 2.42551,9.10058 -12.00229,13.03653 -9.43154,8.54416 -4.07819,4.53336 -12.8844,-5.44922 -18.66025,0.73526 -4.87041,3.64328 -15.61901,11.11032 -16.5052,2.78889 -8.50262,2.80155 -11.03065,6.99158 -8.59487,6.36376 -4.6438,-4.33134 -6.09844,-3.38541 -10.5978,-9.43154 -7.78123,0.0386 -8.77778,-2.87277 -15.74459,0.91273 -8.90873,-7.95985 -2.63567,6.87998 -5.70456,10.74992 8.60662,10.71173 -5.73641,20.87763 0.20283,31.59059 -0.91866,11.47265 9.56823,22.88252 3.85374,32.07231 -9.21035,0.15852 -13.38331,4.90418 -14.65438,14.17267 -2.78225,5.0518 -4.62866,12.3095 -8.03709,17.6461 -9.65674,0.76872 -14.96053,-10.26781 -21.90551,-7.83426 0.28193,9.2985 -18.49262,4.92343 -18.20389,16.20095 -9.64777,6.73477 -23.04056,-1.86451 -33.01039,7.3779 -3.11892,-1.7465 -13.88068,2.39584 -11.9669,10.01467 -0.66078,13.41435 -5.87051,7.65219 -6.71871,15.0854 -4.23117,1.51354 -17.72341,2.1831 -12.11902,0.20283 -3.60161,-4.0714 -6.30706,11.28356 -15.06004,6.28769 -7.53592,1.0695 6.91603,11.77585 -13.46834,11.09518 15.38205,15.20768 -8.81168,12.43145 20.9223,18.72066 10.33327,-17.46519 69.45526,1.16549 53.26792,5.50173 -12.57978,-17.60303 -39.85861,-9.87879 -41.47849,10.49639 36.89936,6.04607 3.04879,33.02517 16.20095,53.57216 25.99267,17.28142 19.39909,43.2507 39.95728,50.07337 14.28558,7.0113 32.26606,16.39469 45.44933,26.02649 3.13809,-1.31544 2.27088,-11.96816 11.03849,-6.0732 z"
       id="Pays-de-la-loire" />
    <path
       class="county_r"
       d="m 932.51331,172.38449 c -3.6606,7.1483 6.5524,12.36595 -1.1662,19.62369 -3.243,7.75687 5.1664,9.41584 -0.8367,16.07418 -8.7276,3.69452 -7.7936,16.62396 -18.1025,14.32479 0.4048,2.776 0.3084,13.92041 2.6621,11.38376 2.5372,5.64498 -6.1389,9.26252 -0.9127,15.89671 -1.9695,2.0791 -0.5914,19.39476 -8.3667,9.86255 -4.435,-4.96715 -13.2303,-2.69966 -12.7529,4.76648 -7.4556,-3.35376 -15.5644,1.93059 -21.4237,6.05951 5.6483,4.41246 -1.6707,14.35147 5.9327,14.09661 3.8155,2.55631 7.9061,10.59928 -1.5719,8.94982 -11.1121,-2.38737 -5.7526,5.87612 -5.4764,11.38377 -13.6106,4.27513 11.3994,1.72664 2.5861,10.31891 -6.6662,3.91649 -5.5784,12.42092 -13.9952,14.4262 -5.3376,4.96562 -1.6215,15.41753 -8.0372,14.85721 -2.8527,6.2066 -4.2627,6.03287 2.7382,9.43154 1.4199,7.67725 -6.7787,16.59105 5.7807,12.82893 8.1852,6.9421 -8.2008,8.57975 -5.1722,17.18974 -12.9093,4.36228 -0.2839,4.46434 -8.037,9.53296 0.075,6.24298 2.6695,8.61455 2.8396,15.44034 10.5651,-5.7306 15.082,11.31758 20.6378,15.94742 -1.0367,8.83977 -5.343,8.00649 2.4847,12.90498 2.0814,9.63758 12.1788,-8.22068 9.4822,5.67921 10.1595,1.04297 6.6514,18.68547 16.708,20.94207 0.6343,7.92752 -2.1424,9.86743 7.3272,8.62023 4.899,-0.47502 18.1034,2.25677 13.9445,-0.10142 4.5109,-7.63738 9.0308,1.76328 8.0117,-5.93274 4.6666,0.0656 8.4297,13.03945 11.257,1.64799 6.519,-1.18714 24.0091,1.53375 23.5789,-3.42274 -0.3188,-9.78644 15.6472,-6.89503 21.9815,-3.1692 10.2787,-1.97856 0.4525,9.20542 11.4853,7.78355 -3.5225,12.98294 1.8484,-0.8452 6.31299,8.51882 3.9931,5.58137 13.0067,14.92871 0.6845,18.55883 5.1086,0.32665 4.1331,8.31475 4.8425,12.06832 8.7624,-8.00158 6.3939,6.18334 15.8207,5.52708 1.5527,-11.38117 16.6548,9.58271 12.1444,8.44275 1.5855,3.27377 9.5054,-4.9622 11.7134,-1.29303 1.5252,-8.87054 7.9725,-13.84182 16.7841,-10.59781 5.2051,-12.00014 7.5604,5.54315 14.8318,-1.59727 2.2202,-1.28517 0.545,-7.93252 2.8904,-10.97811 -7.2315,-1.54601 -0.6665,-11.23469 4.2086,-9.76114 -0.078,-8.98132 10.8487,0.51307 10.2936,-11.15559 9.6686,0.49022 -0.8779,-10.99935 -5.6032,-6.28769 1.8838,-9.11249 -6.1106,-16.81226 -12.5753,-18.38136 -8.0957,-3.14817 3.6976,-9.00532 1.1915,-16.53055 13.1522,-3.40916 -7.7986,-6.17653 -3.1438,-12.34721 -8.1773,1.85665 -24.9759,-11.87042 -17.4939,-11.89084 -8.8953,7.90252 -5.1368,-6.85305 -7.8597,-7.70749 9.579,-3.11094 -1.4536,-10.39108 -5.9074,-12.49933 -4.6186,-5.20232 -14.8152,-5.74976 -19.649,-10.82599 -5.5455,-4.56589 -8.7637,-10.20581 -14.5529,-7.50466 -5.6582,-9.37069 4.4415,-16.86987 -6.6428,-24.06057 -1.5169,-4.30758 -10.32479,-3.66454 -4.46219,-9.53296 6.16029,-2.22303 -4.4206,-13.89691 6.31309,-15.11074 11.7934,-0.80365 12.74,-12.05409 6.5159,-10.06538 -7.6147,-3.49796 -4.1092,-3.28014 -3.6256,-15.28823 -3.8632,-5.95469 -7.0513,-14.16412 -1.8508,-16.68267 -6.2031,-8.36638 14.5705,-7.2847 5.0454,-17.29116 3.487,-7.06618 8.6397,-19.40863 8.5442,-12.82892 0.4766,-6.67296 -8.59,-11.68115 -1.8002,-16.80944 0.5152,-5.77871 4.0383,-13.06178 9.178,-5.70456 7.4406,-1.94728 12.0052,8.83957 16.3023,-3.70162 12.286,-1.91896 4.55,-12.88767 -0.8366,-8.03824 -13.7732,-13.05853 -41.7113,-15.44704 -48.83099,-30.5753 -2.0082,-14.70138 -3.607,-27.62068 3.7016,-42.28981 -21.5074,-9.65526 -18.5852,37.47103 -47.0056,29.71442 -6.4603,-0.89496 -12.3015,-5.25724 -19.0659,-2.8396 z"
       id="Champagne-ardenne" />
    <path
       class="county_y"
       d="m 672.79101,280.87256 c -0.5195,3.32539 1.8265,11.22957 8.8484,7.70749 8.3131,4.95647 19.8607,1.47661 29.2327,-3.39738 2.7049,2.72434 7.7727,5.27063 10.5218,4.94395 3.1373,-0.95323 6.4262,7.35497 11.3584,0.0507 2.9558,-3.40616 17.7386,2.57644 13.4881,4.71577 9.5907,4.10566 23.5729,16.14583 14.6037,6.99759 3.154,3.00591 10.6269,-4.41133 13.2345,4.38618 6.1022,-0.14102 21.7932,-0.74218 14.3248,-2.94102 4.8354,3.85791 12.1373,-1.97676 16.1756,1.06485 7.1028,-3.53957 16.6516,-3.68347 12.043,-4.43688 8.2427,0.37904 4.913,9.74057 5.7046,13.96983 7.1072,2.61341 8.7866,11.98131 13.9698,12.2965 5.9462,2.2814 16.5866,13.65185 10.9274,9.76114 2.9039,2.6409 12.2404,3.55246 2.5608,6.11022 -6.3829,0.93403 2.9395,4.03188 -4.5384,9.02588 7.0557,1.28152 9.1964,8.08373 4.5637,14.22337 1.9307,7.51181 14.8545,0.35775 6.744,9.65972 -5.7006,11.08699 -12.4986,3.86871 -8.6709,12.77822 -3.8407,3.21308 -4.3792,17.87928 -3.3214,12.2965 6.2195,4.79586 -2.5718,3.38543 -5.9326,7.17507 -9.3259,0.35268 -18.3913,-0.12557 -27.2299,2.28182 -7.5062,2.25433 -3.879,13.49002 -3.7776,16.58126 -4.7843,8.84918 -14.1953,13.78502 -22.5647,16.32772 3.82,-8.34654 -10.9992,-3.60911 -9.178,0.0254 -7.213,1.52136 -19.901,-1.23749 -25.5312,0.86202 4.8046,-3.40289 9.1339,-10.03309 3.4989,-16.17559 -6.4056,-1.09538 -8.0612,-4.57399 -9.4823,-11.73872 -6.2273,1.32982 -11.3563,-4.38786 -15.7446,1.29303 -4.4409,-11.05242 -10.2408,5.2021 -16.6573,0.93808 -6.2799,3.88087 -14.9773,3.45815 -11.7894,-4.89324 4.3673,-6.01333 -2.9825,-10.25768 -3.296,-12.06832 1.4572,-10.92119 -8.8069,1.70706 -11.764,-7.45396 -8.276,-1.48548 -0.3129,-18.02203 -12.3472,-16.86014 4.0368,-7.30198 -7.2021,-3.36953 -7.1244,-10.42033 -5.6341,-2.48573 -5.0825,-8.34193 -1.0142,-13.56418 -9.8711,-3.63621 1.635,-15.72469 -7.8089,-18.45742 3.2101,-7.00326 -8.6939,-10.17346 -4.0058,-16.5052 -6.7467,1.79312 -1.9421,-5.92264 -6.1863,-10.24285 4.9089,-0.6843 15.9528,-1.33878 18.1025,-7.35255 6.1924,-5.10808 1.8853,-14.19019 8.0624,-18.96449 z"
       id="Île-de-france" />
    <path
       class="county_y"
       d="m 801.38451,641.70503 c 7.8773,0.56562 10.2949,10.9608 18.28,13.84307 5.1436,13.5252 14.085,-8.82326 17.7981,3.24526 6.9297,1.14742 13.6058,-8.6127 12.474,3.65092 5.1797,4.46017 9.7353,-3.17204 13.26,-5.04536 0.2671,-4.07027 4.9977,-14.93262 6.9976,-1.47051 6.7607,6.9703 9.79,15.80284 10.6738,24.92259 6.1441,3.45696 11.636,0.098 12.6008,7.3779 7.5154,-1.32991 15.9317,2.05949 12.0937,11.23164 -0.162,8.9192 1.3958,14.75791 -8.6202,16.68267 -2.4009,7.50538 -18.8985,3.61299 -11.7895,14.67974 1.2479,8.99049 2.833,16.52377 2.865,26.84947 3.3573,9.50432 -17.1814,1.10257 -12.0937,13.48812 10.0445,4.3233 -0.9708,9.6601 1.5466,17.8996 -4.5975,5.9905 9.0535,9.1753 6.6933,17.4686 3.909,12.6404 20.1709,13.227 19.4716,28.0158 5.3717,8.1452 -12.2334,10.4162 -7.3018,21.221 1.6821,10.5758 8.8738,-11.1432 11.8655,3.0678 2.2849,-1.8502 12.2325,-6.8044 9.3554,-2.8143 6.6169,-0.1207 6.3173,-7.1364 14.7558,-3.8284 2.1746,7.0524 16.8364,-1.4161 8.823,9.6344 3.5254,6.938 18.5096,9.7506 11.8655,8.8991 9.3184,3.9691 -3.0191,16.587 -0.4563,18.5082 -10.1977,-7.7946 -15.421,5.6294 -8.7978,4.665 -1.3173,7.8635 5.0039,8.7437 -6.2877,11.688 6.1963,11.8487 -8.8145,2.3658 -8.5188,12.5754 -2.9812,9.5757 -11.5594,7.6268 -19.1165,9.9893 0.065,10.2188 -11.4486,1.1635 -11.8402,14.4262 -6.1081,5.179 -14.578,-4.2964 -10.3443,-2.5861 -3.795,-5.2928 -9.0996,-9.8006 -13.1077,-7.7581 0.5086,-10.8738 -12.7543,-5.7105 -11.6881,0.2788 -7.4475,5.0014 -11.2958,2.536 -12.4486,-6.6933 -2.01,-8.261 -5.7714,-19.4108 -13.4881,-9.609 -5.1679,0.5865 -9.5441,1.1137 -9.3301,9.2287 -4.9682,6.9458 -8.6262,-10.9106 -12.6008,0.7859 0.3937,7.5509 -7.2027,9.0794 -6.2877,17.494 -1.518,4.1892 -4.1302,15.6062 -6.9976,14.9586 -7.4482,-5.4634 2.3741,-20.5464 -7.4032,-19.3447 -0.3621,-10.38 -6.3963,-15.0712 -12.1444,-12.1444 3.2341,-9.6458 -6.8734,-12.8642 -10.5217,-5.3497 -7.4122,6.8689 -9.6015,15.4787 -13.3614,24.8973 -3.2249,6.7729 -7.4589,17.6938 -17.3165,13.1078 -3.5103,-1.5677 -9.5196,-3.9919 -15.7953,-0.6338 -5.437,11.8369 -12.9302,-9.096 -7.4032,-6.7441 -3.1513,-2.8691 7.9698,-14.5531 -0.6846,-18.6095 -7.2899,-7.7517 -1.1615,-13.5193 -7.1751,-21.4492 9.0581,10e-5 8.3259,-6.6856 3.4735,-12.5246 10.0411,-3.8871 12.3981,-13.3393 10.2935,-11.5106 8.0071,-4.9485 -6.8966,-11.8084 3.9805,-16.5052 2.9618,-8.5354 18.3168,-12.5261 11.8149,-24.1112 5.0022,3.0794 19.5552,10.7297 16.2263,0.2534 -4.5387,-8.2203 6.0225,-21.3789 -4.8173,-28.2438 2.3943,-6.2508 7.4448,-6.4252 6.2624,-14.2994 -0.8173,-8.5616 -20.6744,-16.8154 -8.8992,-21.6521 0.859,-4.9364 9.7914,-3.7123 11.6627,-11.5105 -1.0204,-5.226 8.9195,-6.5528 4.6904,-14.32478 0.2257,-6.2819 -8.8151,-12.01906 -3.3973,-19.16733 -4.5869,-7.34972 -4.8221,-19.72228 -14.1981,-22.97036 -1.522,-6.33633 -16.4341,-11.343 -12.2458,-7.17507 8.3729,-5.47405 -6.1933,-4.70438 -2.9916,-11.91619 2.8475,-9.02276 10.1334,-14.30345 20.942,-14.67974 6.6807,5.32848 17.9356,-7.06363 10.4964,-12.77822 -0.1691,-12.7017 3.7761,-14.27407 3.8284,-10.2175 7.1717,-1.35747 7.9963,-12.45855 14.3501,-5.02001 9.7094,-0.30892 11.0208,-9.11099 20.0294,-12.34721 z"
       id="Auvergne" />
    <path
       class="county_y"
       d="m 1228.4406,538.0088 c 1.6418,-5.80844 -3.433,-12.93478 -8.2906,-14.4262 -8.9351,3.54743 -1.6122,-10.73914 -1.2678,-13.53883 1.6546,-12.12376 -17.5077,-10.48023 -20.8152,-18.3053 -6.5689,-6.76121 -17.958,-10.74528 -23.5282,-19.19268 -7.0884,10.49242 -14.7901,7.66344 -20.435,-0.53242 -6.275,-7.30718 -18.7543,7.86709 -22.4633,-1.11556 -7.1932,-1.29446 0.2053,-13.28175 -11.2063,-8.84841 -2.9304,3.34747 -14.3883,17.33493 -13.9952,7.78356 0.7316,-6.11917 -3.7533,6.70513 -5.6538,9.15265 -6.1687,-1.80068 -3.7218,12.91655 -11.9669,6.18628 1.5062,8.51547 -10.6226,2.5662 -7.7075,11.56124 6.3588,2.49292 -1.2741,8.88003 0.5577,13.81772 -4.3429,1.4248 -13.547,-10.02434 -12.7274,-2.63678 -4.7792,8.61417 -16.5912,0.26898 -18.28,10.09074 -4.3004,8.12705 10.7301,-6.90663 10.395,7.7582 4.4824,7.3353 -7.1681,14.79509 -9.0766,14.40084 -4.3453,4.86968 6.4243,1.01829 3.3467,8.84841 -0.8066,7.34249 9.0203,1.46602 6.0848,9.96397 -5.216,6.52982 6.9038,5.91017 -0.051,11.20629 -1.5632,11.58947 -4.9361,20.90152 -12.195,30.62715 -7.4859,-0.58468 -11.3315,6.62362 -5.9074,9.86255 -6.671,1.93167 -8.1332,11.58891 -0.5831,10.52175 0.1126,9.77606 10.423,3.17407 12.9049,11.02882 9.7807,5.58616 -7.5118,5.41284 -10.4457,7.63143 5.117,3.55351 13.4861,17.95125 6.0596,12.27115 2.2533,7.15093 6.2203,13.1749 2.0536,18.71095 -0.8783,4.16802 -10.0256,7.19293 -3.0678,12.2458 10.3277,6.00575 -2.0389,9.77106 -7.099,10.72457 -2.2526,6.94006 9.123,6.66102 6.4905,13.76701 3.4871,3.12829 10.8018,1.82822 9.4316,9.27941 1.1282,7.92436 13.3671,-2.43371 16.1755,-7.17507 3.2015,0.12557 11.073,5.11007 10.319,10.52175 13.0674,2.50182 20.1867,-4.47799 25.4043,-14.55297 19.2273,-18.22994 15.3808,-43.83736 43.9631,-55.9554 0.4049,-26.95288 22.8946,-37.72948 38.9685,-56.33571 17.9274,-17.21074 33.8742,-37.30539 12.7019,-39.30694 9.8597,-8.56877 5.4199,-19.15439 21.9058,-16.03997 z"
       id="Franche-comté" />
    <path
       class="county_g"
       d="m 1281.8606,308.45728 c -5.1979,6.49921 -7.4121,24.05701 -17.6714,13.00639 -6.3277,-1.9655 -17.2694,6.91223 -19.4463,-1.92687 -9.4522,-0.18513 -19.7718,-7.2182 -19.3702,-14.40085 -4.9078,3.01462 -2.8876,18.20022 -10.4456,18.20389 -11.7897,9.66388 16.2755,8.21318 9.4315,15.11075 -6.2219,0.34656 1.7454,7.78557 1.3184,6.11022 4.2381,-3.47109 7.0899,-11.89677 11.9923,-4.43688 5.7539,0.2335 7.4422,4.72063 10.4457,10.49639 -7.6543,7.91753 0.087,22.06688 -2.079,17.57004 -1.3943,10.76148 -13.8675,20.43461 -21.9562,17.89965 8.8547,1.33721 1.3403,3.75547 3.4987,11.78942 -2.1773,4.8817 -0.9971,10.80709 -1.1916,13.56418 4.3369,2.83831 12.5248,-0.22033 9.3301,7.93568 -4.3306,6.17951 -11.8893,17.91724 -11.333,24.03521 -0.6473,8.54222 -9.0957,17.16571 -13.767,22.59007 -4.7428,7.9677 -0.8271,16.00919 -4.8933,22.46329 -13.365,4.75156 6.9246,9.12532 11.1049,12.29649 6.7003,5.73351 2.6123,14.58904 0.431,20.46036 3.9588,0.002 9.9281,2.73646 11.0796,8.72164 4.441,10.3895 6.9301,8.82076 5.6538,15.0854 14.5554,11.59359 42.7815,-12.30019 33.5866,-13.04834 12.5355,-11.82879 -5.3606,-37.37192 7.7398,-57.81498 -4.8088,-28.15037 16.8291,-55.2843 21.3006,-84.68014 0.4915,-30.73485 37.9911,-43.25898 42.8947,-69.59654 -20.8624,-7.3694 -35.4768,-13.83231 -57.6541,-11.43447 z"
       id="Alsace" />
    <path
       class="county_b"
       d="m 1477.951,1333.5152 c -3.4315,4.8521 -7.8981,16.2102 -15.7687,28.444 3.4715,20.6082 -4.8288,50.6197 -7.9738,52.4169 -4.2806,5.6089 -4.3865,25.7554 -7.4905,28.0057 -17.1895,16.4778 -11.2889,-15.4674 -32.6484,-11.5162 -13.5159,-5.2628 -21.2258,-19.1357 -4.7116,-27.0173 2.4279,-10.3239 -33.1677,-3.4485 -17.7209,-19.491 22.0764,-20.5878 -15.2647,-14.2946 -10.8155,-20.6507 4.8588,-6.359 23.0963,-24.8433 -2.5394,-27.9909 -10.2235,-11.3112 -0.6191,-33.7987 5.1724,-25.9661 -12.6267,-7.8613 -1.9983,-10.8041 2.4886,-25.0727 3.3273,-15.6132 11.6559,-12.4599 22.7755,-22.1224 17.9005,1.4168 28.1861,-29.8209 42.6726,-8.6003 9.3401,-11.7713 -4.6514,-55.5973 16.7259,-44.2916 2.0277,17.2522 1.3678,77.4399 -0.018,50.2247 13.2025,20.6736 7.8669,49.6894 9.8515,73.6279 z"
       id="Corse" />
    <path
       class="county_b"
       d="m 681.66481,1267.4572 c 8.4795,-0.605 9.5403,-5.9575 17.4179,-6.3637 0.7394,-11.0828 16.5104,-3.0737 20.2829,-9.0005 -5.9392,-5.9874 -10.2898,-11.5191 -18.4828,-6.7441 -10.2874,-0.8896 -7.7907,-10.4788 -13.5135,-15.0347 1.9718,-7.3696 17.8406,-2.4566 12.1698,-13.9951 -11.9968,-3.0082 6.3118,-7.1653 -0.7607,-13.1078 2.543,-4.8036 -6.0438,-6.2756 -1.8508,-11.0796 -0.5604,-8.7636 -12.976,-13.4757 -10.0907,-7.9357 -6.6042,-0.4526 -17.6345,-5.161 -14.3501,-12.3979 -4.4032,-7.4481 -0.3306,-15.5644 4.589,-19.0406 9.046,5.319 1.7581,-9.3909 8.5948,-11.1048 5.1084,-4.8508 6.1471,4.819 13.1839,0.1014 6.1292,2.293 8.2101,-5.4349 12.8543,3.8791 6.0253,-5.2434 10.9953,-12.1045 12.6514,-3.8791 5.9331,-11.9216 16.8646,6.3716 26.2917,-2.0282 14.5786,7.1201 25.0582,-8.3159 14.4262,-19.2688 -1.409,-9.3503 6.5039,-20.1869 14.5277,-7.4286 8.0928,-3.5367 15.971,-5.778 20.6377,-12.2458 5.8404,-2.2441 13.2772,4.3273 9.4063,-6.1863 0.5744,-5.7368 -1.3588,-20.2462 10.6992,-11.1555 14.1057,5.3787 4.2647,-16.0308 17.3925,-11.2317 3.3628,-5.0955 4.6358,-12.6204 12.0684,-16.201 1.3591,-8.2553 -11.5318,-2.8836 -11.688,-10.1415 -11.1266,2.2536 1.2466,-15.8187 0.2028,-10.7499 9.5481,-8.0413 -3.9714,-9.0718 -10.2428,-5.7045 -1.0335,-4.2416 -12.1543,-15.8839 -7.9611,-11.8402 -7.8081,3.2261 3.1568,-10.5238 -3.2199,-13.9444 1.5808,-8.30196 2.5916,-15.30236 -5.5018,-22.08296 5.4822,-14.858 -19.6447,-20.2281 -14.2233,-35.8754 -3.625,-3.1572 3.7487,-5.1725 -4.2594,-5.4003 -1.1822,-12.1877 -17.9602,-13.6861 -12.5754,-11.9922 2.6517,-8.6467 -12.4107,0.6589 -7.6822,-4.8173 -5.5281,5.618 -13.8845,24.814 -10.3696,17.8744 -3.4723,6.9336 -6.2089,19.7607 -15.5164,21.3984 -8.0817,0.8465 -9.7829,-5.2545 -16.9615,-3.0678 -3.4023,3.331 -9.272,10.2907 -10.7499,-0.025 -2.5572,-5.2492 -4.4679,-7.7088 -2.2565,-16.4799 7.9906,-6.7112 -12.5534,-14.6479 -4.6651,-22.2857 -1.5817,-11.7584 -22.8435,-5.8979 -16.6573,-6.1103 -2.6486,-5.1951 -11.6117,8.7727 -15.6432,5.5778 -7.8578,-4.9757 -13.1349,-19.9489 -25.1254,-16.3277 -4.1459,-0.9038 -17.1429,4.9142 -9.7358,12.5247 2.1094,3.9918 -17.7501,36.3071 -0.9634,11.8147 -6.7069,2.1624 -4.1988,10.2298 -12.9304,10.9021 5.2132,9.2524 -5.8132,16.4793 -15.491,18.7363 0,8.0582 -4.4885,14.5195 -11.6373,17.0377 -23.783,-52.8692 45.1339,187.44256 -1.1156,11.409 -0.058,5.8212 8.2646,12.5988 1.4452,17.44326 -7.3739,-2.3371 -11.5951,6.4594 -13.9952,-2.9156 -1.4406,5.0822 -4.6458,10.8597 2.1804,12.1697 6.357,5.1051 -4.232,17.294 -5.9835,17.6715 8.5005,2.2667 -2.6975,13.0149 -7.1243,5.882 1.0849,5.382 -6.6963,5.1366 -6.2624,11.688 -5.6866,2.855 -8.9894,8.9546 -12.7782,-0.431 -4.5212,-2.9812 -9.5537,3.8671 -15.5417,1.5212 -6.0214,7.6999 -18.33204,11.7857 -25.73394,4.9693 -5.4239,7.7367 -18.39758,4.8389 -12.32185,5.375 -6.23774,1.7365 3.706,15.9543 -7.3272,12.1443 -4.9112,-7.0205 -3.54706,-14.4556 -11.6373,-4.234 -4.90369,-1.6649 -10.90797,1.0584 -13.84307,4.589 7.43017,2.2233 2.72402,7.8725 3.09314,13.6909 -5.69529,1.4469 5.97975,12.32 -4.46223,14.4262 0.90695,5.2159 -1.39208,8.8006 -3.34668,12.6262 3.73248,5.8456 10.56491,3.1957 18.66026,5.6284 0.29291,5.7594 6.47341,7.4024 6.18627,13.8431 5.17268,3.7343 -8.364,9.0619 -1.34374,8.6456 8.60411,-7.2317 3.07435,10.4474 7.47932,14.2487 -4.499,2.0536 -9.38235,4.8741 -4.31012,10.116 -4.42613,7.6336 -4.63945,15.0346 -11.02881,16.1503 -3.13528,6.7253 -10.06604,9.2949 -6.59194,16.6574 -7.92381,1.675 -8.66298,9.1812 -8.31598,17.3672 -12.99348,7.3893 14.87015,22.757 13.37575,22.2419 16.05826,22.5577 44.92161,4.2976 63.77522,12.6446 32.8651,13.1851 7.9362,-28.7845 34.4745,-21.8511 22.7293,11.4573 44.3051,13.8221 61.8946,26.719 2.8776,12.1818 25.3946,-5.7907 38.2079,11.9922 z"
       id="Midi-pyrénées" />
    <path
       class="county_g"
       d="m 930.61181,1136.9623 c -1.5764,-8.0853 9.9081,-10.4602 10.6232,-12.8797 4.2368,-0.4253 15.3969,-7.8798 12.2965,-8.5695 -7.6329,-6.2283 7.6162,-22.6301 15.7699,-12.981 0.5808,-7.1741 6.8133,-20.1722 3.9045,-26.6973 8.2787,-4.7181 16.3476,-13.9618 20.1815,-19.421 -4.1954,-4.7131 -7.2388,-12.2653 -12.6768,-12.4992 -2.3322,-6.9752 2.9564,-17.8451 -4.7665,-19.6237 -1.2955,-9.728 -11.6726,-12.7067 -18.9392,-16.8094 0.6414,4.6164 -11.1963,13.8765 -9.0512,0.9887 -6.5242,-7.3714 -9.2686,10.3851 -15.7192,9.2033 -7.3325,-6.4068 -11.4019,-11.1481 -20.3083,-7.6314 -1.3138,-8.555 4.2745,-15.91286 -5.1975,-21.01806 -0.051,-13.4265 -11.346,-17.0518 -11.4599,-29.1567 -1.4984,-6.4915 -3.0882,-14.625 -5.8566,-16.5812 -6.935,-1.0165 -7.1234,-13.6864 -16.9616,-9.2795 3.2366,-6.9507 -9.0057,-10.1567 -6.4651,0.5071 -6.9068,0.056 -14.0612,7.24 -16.4546,-4.234 -2.4271,-9.4362 -3.753,-20.7169 -13.2599,-11.9923 -8.3755,-1.8184 -4.2228,11.7715 -13.4881,10.3697 -6.7883,-11.4925 -4.8818,5.8358 -10.6739,7.175 -2.3414,9.5704 -3.8345,16.6363 -7.7075,25.4297 4.8487,7.0953 13.2363,11.6639 8.8992,21.4999 13.343,7.4768 0.6324,19.42786 8.1384,28.75086 -8.772,8.3083 8.6741,20.9549 7.378,12.7529 -3.9127,9.061 18.3676,-6.1462 14.7812,8.0625 -7.04,1.5072 -2.2285,11.4342 -9.7866,11.0542 9.545,2.09 3.3227,4.544 9.8119,4.7664 14.7566,2.4734 3.9641,13.4837 -1.6734,18.3053 1.9749,10.9406 -16.6412,3.694 -11.6372,16.6066 -6.3297,8.2953 -22.1606,-8.239 -18.5842,6.0596 -0.5194,3.9086 3.5471,18.5259 -5.9075,12.7021 -9.6393,-1.6313 -9.4526,11.5029 -20.2829,10.1921 -7.0723,8.8769 -17.4832,-12.6684 -18.8376,4.5383 -0.279,7.1256 6.681,11.0039 4.5636,18.1025 -2.2015,6.687 -12.9966,11.5038 -20.5364,6.7948 -7.8938,8.6236 -20.4378,-8.7693 -24.669,1.5972 0.4343,12.1208 -7.4267,-1.7873 -13.6657,4.2594 -6.1224,-0.5273 -4.022,-7.8178 -11.4851,-2.1297 -6.1295,-6.4136 -9.5143,9.8521 -12.3726,-4.2594 -6.4434,2.1952 -2.403,11.048 -6.668,14.5277 -8.333,-2.7122 -11.9873,9.9797 -7.3018,17.0882 -3.1664,5.6556 9.2278,11.8145 13.3613,8.7217 2.6654,4.5795 13.8984,4.6751 10.395,14.9079 -0.5354,0.5688 5.6239,5.8966 3.4227,10.2429 6.366,9.7108 -11.708,3.1376 -0.5831,9.6597 6.2812,12.5675 -10.4291,7.9299 -12.4486,15.5418 9.1328,2.8186 3.1734,14.4637 14.7051,11.6627 7.1042,-6.0018 14.3181,4.4885 17.4939,9.9892 -4.5982,6.7725 -19.7669,-1.709 -21.2463,9.4316 -7.7846,1.2667 -10.0292,6.1475 -19.2745,6.7317 -0.9912,14.6303 30.5753,40.1851 47.7868,21.9904 19.9416,-0.01 43.0841,26.755 51.1487,1.0937 11.2989,-18.1076 53.7878,7.4171 41.8842,-11.9669 -14.9465,-23.1649 -6.7545,-36.2978 -13.26,-54.1553 5.0391,-16.8806 8.057,-14.9957 8.6202,-38.2332 2.2404,6.3477 37.0639,-29.4482 51.62,-38.2586 23.2018,-11.402 47.424,-38.7847 8.9752,-8.6455 3.719,-11.3393 54.8652,-32.7637 29.1313,-19.3449 8.5223,-15.5448 14.1527,13.6069 24.3141,15.0601 z m -227.0415,143.6028 c 7.7886,10.709 -8.3971,6.9004 0,0 z"
       id="Languedoc-roussillon" />
    <path
       class="county_y"
       d="m 1176.9221,892.30004 c -18.2749,1.4197 -2.8315,3.196 -17.2659,9.2287 -10.5404,-1.6246 -9.6481,-9.5625 -19.8518,-10.5724 -1.762,5.1675 -11.1486,21.7778 5.3495,16.1755 1.0807,6.6149 7.9466,11.3158 4.6398,19.9026 -0.569,8.3834 -26.6963,8.5079 -19.1926,4.158 -6.1126,-1.0575 -21.6107,2.4423 -17.1899,4.7919 -6.0549,-0.4223 1.2542,8.0953 -6.6679,8.5441 -4.6285,3.5434 -14.8866,-1.226 -11.3584,7.6061 0.5222,9.0353 -10.7779,11.4218 -18.5082,8.7724 1.8964,8.4554 -9.4455,14.8921 2.155,20.5617 -3.282,2.5448 -6.7663,10.2553 -13.057,4.589 -10.185,-6.1519 -8.3415,2.6067 -4.2087,7.5554 -7.6923,0.9478 -5.3306,15.59516 -5.8567,7.91026 5.349,5.0928 12.9302,3.9925 19.9026,6.5413 -4.7352,7.3644 8.5384,5.481 4.4115,12.8289 -0.4494,8.8345 0.042,10.9259 -2.5648,12.2774 -5.7748,1.4457 -7.6595,-10.4292 -7.1457,1.3121 -5.0025,6.4417 -14.1378,8.0358 -17.7728,0.3296 -7.6217,0.9052 -0.1946,-13.048 -10.826,-8.1132 -5.109,-6.3272 -12.9689,3.5649 -16.7587,-5.4764 -0.3249,-5.1684 5.5638,-15.0616 -3.7524,-5.1467 -7.6648,-6.7321 -14.3324,3.3928 -23.32529,2.8396 -6.1531,9.6484 -9.7449,0.4337 -8.8737,-6.5159 -8.0375,-8.2891 -19.9461,0.5948 -11.2063,9.7612 2.7818,2.9407 6.3923,10.6628 2.8903,18.5334 3.371,3.8042 9.4697,5.134 11.6119,12.9304 7.4268,6.9121 -6.3642,11.0441 -10.1921,17.8996 -9.3555,5.4185 -5.7537,7.9462 -7.1244,18.0771 -5.8431,8.2763 -0.818,18.5448 -13.6149,12.2205 -9.5179,-3.0389 -17.4595,47.7228 -7.099,17.4433 -6.313,4.2602 -16.4624,7.9263 -22.1844,14.8318 26.8932,-5.252 39.2573,28.9738 57.5781,15.3136 -30.1432,-47.8299 -5.2371,-17.9645 5.4002,-4.2848 28.10069,8.8703 9.15049,-29.236 26.24109,-14.7558 30.4071,5.8163 -38.69339,30.3647 14.4769,24.872 13.7498,4.8597 17.6602,28.6504 44.1659,23.2999 12.0413,6.7108 12.0308,25.1131 24.3903,14.2994 -3.5293,-12.9824 22.7171,6.6678 23.5787,5.9835 5.5429,-17.0007 21.6949,-4.1064 35.1148,-17.3673 18.6534,2.5574 1.5326,-20.7379 12.5754,-19.2687 10.1422,-18.7664 30.1584,-16.4269 38.1064,-37.0923 18.169,-1.8492 22.9005,-25.0223 38.284,-25.9367 17.7736,-5.226 12.0822,-17.1194 23.376,-35.419 16.3852,-7.6382 14.522,-44.526 -4.8932,-28.8017 -21.5306,11.254 -37.9588,-11.5084 -56.9532,-16.473 -14.9309,-22.08076 -12.9537,-37.91086 -1.8165,-61.21046 24.5596,-8.1859 -4.7733,-33.3981 -22.7928,-37.0162 5.9266,-17.9835 -10.5016,-12.8155 -12.1951,-27.9397 z"
       id="Provence-alpes-côte-d_azur" />
    <path
       class="county_r"
       d="m 1120.6624,697.93933 c -10.7194,9.153 -14.9609,27.86844 -32.0216,23.35066 -8.2642,3.49432 -5.7029,-12.9826 -14.7812,-8.97517 -1.2819,8.5564 -21.6559,14.52539 -16.0488,0.96344 -6.7634,0.0134 -5.2819,3.48414 -9.8119,-6.05951 1.6503,-6.30721 -10.019,-5.97167 -6.3383,-12.57539 -11.5044,2.10324 -9.7953,-15.95559 -20.08,-6.89618 -7.7482,3.83143 -19.7879,-10.78142 -19.6491,4.79183 -6.33759,13.10508 -8.01829,30.19569 -15.08549,42.34052 -11.1831,0.5463 -0.752,-11.55081 -10.0653,-12.87963 7.1294,-6.59145 -5.3564,-7.97802 -6.313,-0.60849 -5.8581,-6.1618 -7.3793,3.20393 -13.0825,-2.99173 -14.0538,-7.3845 -4.5352,18.20314 -17.2151,17.13904 -3.8881,2.21107 -7.0412,-7.0242 -7.454,-2.30718 -4.5859,0.52787 -5.4502,0.75287 -11.4852,1.34374 -4.4584,-6.78068 -15.8463,8.17743 -17.7981,-3.80304 -13.1682,3.89763 -0.6487,-16.01569 -11.5613,-8.67093 -12.0117,1.34407 -0.7389,13.45392 -3.7777,21.27167 2.3136,5.60968 1.9596,13.54159 1.6987,19.29416 -6.6917,2.7922 -18.3153,2.6117 -8.0878,10.8005 1.2717,5.7278 -2.7802,12.2593 -4.3608,18.0772 7.2221,5.1938 8.2135,13.3409 12.8796,22.6408 10.715,2.884 14.6769,14.5892 16.2009,23.2999 1.2023,8.3868 -14.1983,9.5311 -7.8849,20.0041 2.4833,-12.099 10.2132,0.9997 13.6402,-2.4087 5.9778,3.5085 9.6234,-7.6043 18.356,-5.1214 5.4787,5.1574 8.9767,0.9552 14.7812,6.3637 0.069,4.4201 5.7122,14.8231 2.0789,12.398 10.9239,-4.8631 13.526,12.2458 6.592,18.2292 3.0164,10.2883 -4.4297,1.5323 -7.1751,2.1297 7.6949,3.8669 -8.9222,7.7101 0.5325,11.5106 -1.0178,6.547 -11.8593,4.06 -7.1498,12.6768 -10.7004,-1.133 -9.7424,8.7993 -16.4797,14.7557 -7.2385,-0.9484 -12.9013,0.7979 -14.2235,6.4399 -4.775,2.9826 -8.8532,-0.6876 -9.0004,8.8484 -11.4795,4.0165 -1.3892,18.0308 -0.1776,27.8382 8.1022,3.1455 4.9072,17.6854 12.7529,21.7281 2.1516,3.8437 0.1774,10.94836 0.3296,15.79516 9.6521,-7.0648 13.32,5.9363 21.728,7.3526 -0.3518,-8.9363 18.0756,-17.40466 13.6909,-3.22 6.6941,4.0172 2.7107,-14.87536 12.2966,-5.527 4.9053,2.9445 15.0897,13.0423 13.6909,-0.051 10.7207,-1.9813 18.2625,3.8033 17.3673,14.8826 4.288,-6.8652 11.34519,-3.9266 19.16729,-9.1527 5.7676,-5.0269 9.9278,6.9657 15.2628,-3.296 4.6862,2.3174 -4.5674,19.4402 7.5808,12.905 5.3255,-0.445 13.2678,2.0479 16.0234,3.7777 -0.4523,7.7551 6.4545,8.942 11.612,12.4232 7.6379,-1.4855 5.6885,-16.6113 14.0206,-7.9356 5.1767,-3.2887 2.1767,-8.5776 3.6509,-13.8431 -8.423,0.5022 -3.0934,-12.1054 -12.7276,-8.3667 -5.3711,-2.7532 -14.2412,-3.0384 -12.7274,-12.42316 -3.1692,-8.3753 11.4613,1.2986 2.7128,-8.7217 -2.0909,-13.9532 16.6642,6.82 18.0263,-5.6792 4.7449,-0.4874 -9.0309,-7.1743 -0.9127,-12.5247 2.8768,-5.5719 0.037,-14.6912 10.826,-8.2652 5.2157,-2.6611 11.1671,-5.1826 8.1893,-10.4457 -0.1881,-11.9892 12.7703,-1.9675 17.0882,-10.5471 -6.5062,-8.1151 16.9862,-12.1878 14.0713,-9.178 6.4759,-0.8909 29.2286,5.648 23.5282,-0.7352 4.4487,-7.8882 -3.6211,-13.3738 -2.434,-21.3478 -16.5023,5.9576 -10.4241,-10.4689 -8.8991,-17.2151 24.7307,-3.8236 -5.5467,4.4686 21.2464,6.8202 5.5188,0.7978 7.5849,-8.8993 16.2009,-8.3668 18.6964,-3.9965 31.7104,1.1109 45.2207,-14.273 14.439,-3.7414 19.1606,-36.3748 -3.0577,-42.7472 6.422,-24.0395 -36.2876,-30.1758 -14.0748,-50.2772 34.5871,-11.0117 -5.8699,-46.13768 -3.5713,-42.11135 5.1943,-29.12858 -10.8,-64.82356 -52.8975,-39.3672 -13.4604,15.00862 3.6079,36.35172 -27.8537,38.27699 -27.6915,-2.87246 32.5814,-26.3409 3.2199,-41.55455 z"
       id="Rhône-alpes" />
  </g>
  <g
     id="textgroup"
     style="font-style:italic;"
     transform="matrix(2.6630554,0,0,2.6630554,71.94361,-4.7243264)">
    <text
       x="153.83365"
       y="286.78046"
       id="text9678"><tspan
         id="tspan9680"
         x="153.83365"
         y="286.78046">Poitou-</tspan><tspan
         x="153.83365"
         y="302.78046"
         id="tspan9800">Charentes</tspan></text>
    <text
       x="151.56654"
       y="374.52646"
       id="text9692"><tspan
         id="tspan9694"
         x="151.56654"
         y="374.52646">Aquitaine</tspan></text>
    <text
       x="207.67307"
       y="413.08145"
       id="text9700"><tspan
         id="tspan9702"
         x="207.67307"
         y="413.08145">Midi-Pyrénées</tspan></text>
    <text
       x="141.40625"
       y="460.17468"
       id="text9704"><tspan
         id="tspan9706"
         x="141.40625"
         y="460.17468" /></text>
    <text
       x="301.97699"
       y="423.34851"
       id="text9716"><tspan
         id="tspan9718"
         x="301.97699"
         y="423.34851">Languedoc-</tspan></text>
    <text
       x="404.22739"
       y="391.50534"
       id="text9720"><tspan
         id="tspan9722"
         x="404.22739"
         y="391.50534">Provence-</tspan><tspan
         x="404.22739"
         y="407.50534"
         id="tspan9802">Alpes-</tspan><tspan
         x="404.22739"
         y="423.50534"
         id="tspan9804">Côte d'Azur</tspan></text>
    <text
       x="373.24036"
       y="314.94516"
       id="text9724"><tspan
         id="tspan9726"
         x="373.24036"
         y="314.94516">Rhône-Alpes</tspan></text>
    <text
       x="283.00052"
       y="334.27228"
       id="text9728"><tspan
         id="tspan9730"
         x="283.00052"
         y="334.27228">Auvergne</tspan></text>
    <text
       x="315.0957"
       y="216.42612"
       id="text9732"><tspan
         id="tspan9734"
         x="315.0957"
         y="216.42612">Bourgogne</tspan></text>
    <text
       x="395.25101"
       y="218.16653"
       id="text9736"><tspan
         x="395.25101"
         y="218.16653"
         id="tspan9740">Franche-</tspan><tspan
         x="395.25101"
         y="234.16653"
         id="tspan9808">Comté</tspan></text>
    <text
       x="436.72037"
       y="184.5526"
       id="text9744"><tspan
         id="tspan9746"
         x="436.72037"
         y="184.5526">Alsace</tspan></text>
    <text
       x="392.31775"
       y="133.71335"
       id="text9748"><tspan
         id="tspan9750"
         x="392.31775"
         y="133.71335">Lorraine</tspan></text>
    <text
       x="331.26389"
       y="152.57925"
       id="text9752"><tspan
         id="tspan9754"
         x="331.26389"
         y="152.57925">Champagne-</tspan><tspan
         x="331.26389"
         y="168.57925"
         id="tspan9820" /></text>
    <text
       x="261.35037"
       y="133.28191"
       id="text9756"><tspan
         id="tspan9758"
         x="261.35037"
         y="133.28191">Île-de-</tspan><tspan
         x="261.35037"
         y="149.28191"
         id="tspan23714">France</tspan></text>
    <text
       x="266.08264"
       y="89.553032"
       id="text9760"><tspan
         id="tspan9762"
         x="266.08264"
         y="89.553032">Picardie</tspan></text>
    <text
       x="254.7059"
       y="41.658405"
       id="text9764"><tspan
         x="254.7059"
         y="41.658405"
         id="tspan9812">Nord-Pas-</tspan><tspan
         x="254.7059"
         y="57.658405"
         id="tspan9816" /></text>
    <text
       x="199.81535"
       y="82.985497"
       id="text9776"><tspan
         id="tspan9778"
         x="199.81535"
         y="82.985497">Haute-</tspan><tspan
         x="199.81535"
         y="98.985489"
         id="tspan9818">Normandie</tspan></text>
    <text
       x="139.89995"
       y="120.87099"
       id="text9780"><tspan
         id="tspan9782"
         x="139.89995"
         y="120.87099">Basse-</tspan><tspan
         x="139.89995"
         y="136.87099"
         id="tspan9810">Normandie</tspan></text>
    <text
       x="57.904751"
       y="172.31885"
       id="text9784"><tspan
         id="tspan9786"
         x="57.904751"
         y="172.31885">Bretagne</tspan></text>
    <text
       x="121.6454"
       y="210.98386"
       id="text9788"><tspan
         id="tspan9790"
         x="121.6454"
         y="210.98386">Pays de la Loire</tspan></text>
    <text
       x="223.99066"
       y="211.26514"
       id="text9792"><tspan
         id="tspan9794"
         x="223.99066"
         y="211.26514">Centre</tspan></text>
    <text
       x="225.54813"
       y="302.92404"
       id="text9796"><tspan
         id="tspan9798"
         x="225.54813"
         y="302.92404">Limousin</tspan></text>
    <text
       x="510.00873"
       y="502.4649"
       id="text9822"><tspan
         id="tspan9824"
         x="510.00873"
         y="502.4649">Corse</tspan></text>
    <text
       x="257.54211"
       y="442.78293"
       id="text41376"><tspan
         id="tspan41374"
         x="257.54211"
         y="442.78293">Roussillon</tspan></text>
    <text
       x="345.48254"
       y="151.94353"
       id="text53313"><tspan
         x="345.48254"
         y="167.94353"
         id="tspan53311">Ardenne</tspan></text>
    <text
       x="282.03683"
       y="38.110477"
       id="text60208"><tspan
         x="282.03683"
         y="54.110477"
         id="tspan60206">de-Calais</tspan></text>
  </g>
</svg>
