<?xml version="1.0" encoding="UTF-8" standalone="no"?>
<!--********* Copyright (c) 2024 Pareto Softare, LLC DBA Simplemaps.com ***************************************
************* Free for Commercial Use, full terms at  https://simplemaps.com/resources/svg-license ************
************* Attribution is appreciated! https://simplemaps.com *******************************************-->

<svg
   version="1.1"
   preserveAspectRatio="xMinYMin"
   height="651.5360000000001"
   width="688"
   id="Regions_of_Poland"
   inkscape:version="1.3 (0e150ed6c4, 2023-07-21)"
   sodipodi:docname="Regions_of_Poland.svg"
   xmlns:inkscape="http://www.inkscape.org/namespaces/inkscape"
   xmlns:sodipodi="http://sodipodi.sourceforge.net/DTD/sodipodi-0.dtd"
   xmlns="http://www.w3.org/2000/svg"
   xmlns:svg="http://www.w3.org/2000/svg">
  <metadata
     origin="https://simplemaps.com/svg/country/pl"
     placeholder="ph2"
     scale="1023"
     id="mapMetadata" />
  <style
     id="style1"><![CDATA[
      path {
        fill: #88a4bc;
        stroke: #fff;
        stroke-width: 2
      }
   ]]></style>
  <g
     id="regions">
    <path
       id="Pomeranian"
       class="county_b"
       d="M 383.0096,73.272 l -0.2752,0.0688 -0.688,-0.0688 0.1376,0.4816 0.1376,1.1696 0.1376,0.4816 -1.032,0.2064 -0.4816,1.032 -0.2752,1.1696 -0.5504,0.6192 -0.8944,0.1376 -0.8944,0.344 -3.9904,2.9584 -2.4768,0.344 -1.032,0.4128 -4.8848,3.096 -0.7568,0.2064 -0.8256,0.4816 -1.5824,1.5136 -1.5824,2.5456 -0.344,0.4128 -0.4816,0.6192 -1.1008,2.9584 -0.8256,0.8256 0.0688,-1.5824 0.2064,-1.1696 0.4816,-1.376 h 0.5504 v 1.72 l -1.4448,-2.408 -5.5728,-0.688 -1.5136,1.376 -0.4128,1.72 1.376,6.88 1.3072,1.72 0.6192,2.4768 -0.688,1.9952 -0.9632,1.72 -2.752,2.752 -0.9632,1.5136 0.1376,2.064 1.1696,4.6784 2.064,3.44 3.0272,5.16 3.1648,-3.096 1.6512,2.2704 -1.2384,4.1968 2.2704,1.1008 6.1232,-0.5504 3.1648,0.8944 -0.2752,1.6512 v 1.7888 l -0.7568,1.4448 -1.1008,1.1008 -1.032,3.0272 -0.688,1.1696 -0.1376,1.72 -3.5088,1.5824 -5.0912,-0.344 -2.6144,1.6512 -2.2016,2.408 -9.2192,17.2 -3.3712,1.5136 -7.0864,0.4128 -3.44,-1.376 -1.9264,-1.2384 -4.128,-4.2656 -0.9632,-0.6192 -0.8944,-1.032 -1.1696,-0.688 -5.0912,-0.7568 -3.6464,1.3072 -2.3392,1.5136 -5.2976,-3.1648 -11.2144,-1.8576 -2.064,-1.9264 -1.8576,-2.408 -2.1328,-0.1376 -10.5952,1.5824 -7.912,-1.5824 -1.72,1.3072 -2.5456,4.6784 -4.2656,1.5136 -1.9952,2.064 -0.344,1.376 -0.2752,1.376 v 2.064 l -3.9216,1.7888 -8.6688,-2.4768 -2.2704,0.4128 -1.7888,2.408 -1.5136,3.3712 -1.8576,6.88 -1.72,0.688 -2.8208,-3.44 -3.3024,-1.6512 -12.728,-0.4128 -3.6464,-2.3392 -2.6144,-4.5408 -2.9584,-3.7152 -1.1008,-11.4208 2.6144,-2.6832 1.8576,-3.5088 -0.688,-2.064 -1.1008,-2.064 -1.2384,-0.344 h -0.0688 l 3.096,-3.784 3.44,0.688 -1.1696,-2.752 -1.4448,-2.064 -1.72,-1.376 -2.3392,-4.816 -1.5136,0.344 -2.6832,-3.784 v -6.192 l -0.4816,-5.504 -3.9904,-12.384 8.6688,-2.064 1.032,-1.5824 -0.2752,-2.5456 -1.1696,-0.344 -0.688,-3.096 0.4816,-1.7888 1.6512,-1.6512 0.688,-2.8896 -0.4816,-5.16 -1.9264,-3.9216 -5.16,-7.4304 -4.3344,-8.8064 -0.1376,-0.2064 4.6784,-1.8576 2.6144,-0.4816 2.408,-0.8256 5.9856,-6.6048 18.7824,-8.8752 23.6672,-4.472 10.5952,-3.6464 16.6496,-1.5136 h 10.2512 l 1.4448,0.4816 2.2016,1.9952 0.8944,0.4816 1.3072,0.2752 21.328,12.7968 3.8528,5.0224 0.6192,1.2384 0.688,1.6512 V 55.04 l -1.1008,0.5504 -0.2752,-0.344 -0.2752,-0.8256 -0.4128,-0.7568 -1.1008,-0.8256 -0.7568,-1.9952 -1.032,-1.3072 -2.9584,-5.0912 -0.6192,-0.2752 -2.2016,-0.4128 -0.5504,-0.2752 -0.5504,-0.9632 -1.7888,-0.6192 -3.7152,-2.6144 -3.6464,-1.7888 -0.6192,-0.8256 -1.9952,-1.5824 -0.5504,-0.2064 -0.7568,0.344 -0.4128,0.5504 -0.8944,3.096 -0.1376,0.688 v 1.5824 l 0.344,0.4128 1.5136,0.688 0.344,0.4128 0.7568,1.3072 0.8944,1.9952 -0.0688,0.8256 -0.2064,0.688 v 0.688 l 0.7568,0.8256 -0.4128,2.064 0.7568,0.8944 1.1696,-0.2064 1.032,-1.376 -0.344,1.7888 0.4816,1.4448 0.7568,1.1696 1.5824,4.9536 0.4816,1.032 -0.2064,2.4768 v 4.1968 l 0.4128,4.0592 0.8944,1.7888 0.9632,0.344 1.9264,1.4448 0.9632,0.344 0.8256,0.0688 1.1008,0.344 0.8256,0.5504 0.4128,0.9632 1.032,1.5136 10.5264,3.3712 2.3392,0.2064 1.9264,-1.1008 0.5504,0.5504 0.7568,0.4128 1.72,0.4816 23.392,-3.5088 5.16,-2.4768 2.4768,-0.5504 1.9952,-0.9632 3.784,-3.9904 1.1008,-0.4816 1.3072,1.1008 3.096,1.032 4.8848,0.2752 z" />
    <path
       id="West–Pomeranian"
       class="county_g"
       d="m 150.8096,223.8064 1.1008,-4.6784 -1.6512,-5.2976 -3.096,-0.8944 -3.44,0.6192 -3.2336,2.6144 -5.6416,7.224 -3.096,2.2704 h -12.8656 l -10.5952,3.6464 -3.5088,0.1376 1.1696,1.72 1.72,0.2752 -2.3392,4.5408 -3.8528,4.472 -3.3024,0.4128 -10.3888,-3.44 -6.0544,3.3712 -3.9904,8.7376 -4.8848,6.9488 -3.1648,1.3072 -5.2976,0.8256 -1.376,2.064 -1.5136,5.504 -3.6464,-4.0592 -3.7152,-1.5136 -1.7888,-2.4768 -1.2384,-0.5504 -0.6192,-0.6192 -2.1328,-4.1968 -0.9632,-1.1696 -6.6736,-4.9536 -1.6512,-0.8944 -2.064,-2.408 L 35.776,242.7952 34.4,242.52 h -1.3072 l -1.1008,-1.376 -0.688,-1.1696 1.6512,-1.4448 0.6192,-1.2384 0.2752,-1.9264 -0.1376,-1.3072 -0.7568,-3.7152 -0.4128,-1.032 V 228.76 l 3.0272,-2.3392 3.784,-1.7888 3.7152,-3.44 1.9264,-4.472 0.8256,1.032 0.1376,-1.032 1.9264,-5.848 -0.1376,-1.376 -0.4128,-1.376 -0.2064,-1.9264 0.1376,-1.376 0.4816,-1.3072 0.6192,-0.8944 0.688,-0.4128 0.4128,-0.688 1.6512,-3.0272 -0.8256,-0.688 -0.2752,-0.688 -0.8944,-0.688 -0.4128,-0.8944 -0.2064,-1.032 v -1.9264 l -0.1376,-0.9632 -0.4128,-2.064 -1.3072,-5.9168 -0.6192,-5.4352 -1.3072,-2.2016 -0.688,-2.2016 -1.5136,-2.3392 -0.4128,-2.1328 -0.0688,-2.3392 0.1376,-3.8528 -0.0688,-1.032 -1.3072,-4.0592 -0.9632,-2.064 0.2752,-1.6512 -0.0688,-2.9584 v -0.0688 l 0.5504,-0.0688 1.1696,-0.4816 0.8256,-0.7568 0.0688,-0.8256 -1.1008,-0.7568 0.6192,-0.4128 0.2064,-0.344 -0.2064,-0.344 -0.6192,-0.344 0.344,-0.8256 0.6192,0.5504 0.8944,0.4816 0.7568,0.5504 0.688,2.064 0.8944,0.688 1.72,0.7568 1.2384,1.376 0.688,0.5504 2.752,0.4816 3.3712,1.2384 1.1696,0.8944 0.9632,1.376 2.064,3.9216 0.688,0.9632 0.344,-0.2752 0.0688,-1.72 0.2752,-0.9632 0.5504,-0.688 0.8256,-0.6192 -0.0688,-0.4128 v -0.4128 l 0.0688,-0.6192 -0.688,-0.2064 -1.5824,-0.1376 -0.688,-0.4128 -1.9264,-4.6784 0.344,-2.3392 1.5824,-4.5408 0.688,0.6192 0.6192,-0.2064 0.688,-0.344 0.9632,-0.0688 -0.4128,-2.6832 0.2064,-2.1328 0.4128,-1.8576 0.2064,-1.9952 h -0.4128 l -0.1376,1.2384 -0.4816,0.8256 -1.5136,1.5136 0.4128,0.7568 -0.5504,-0.2064 -0.4816,-0.344 -0.344,-0.344 -0.344,-0.5504 0.344,-0.344 0.5504,-0.7568 0.4128,-0.344 -0.8256,-1.7888 -1.5136,-0.8944 -6.9488,-0.688 -0.9632,-1.1008 0.8256,-2.064 -0.2064,-0.2064 h -0.0688 v -0.1376 l -0.1376,-0.344 -0.6192,1.032 -0.4816,0.1376 -0.5504,-0.2752 -0.7568,-0.2064 -0.4816,0.2064 -0.4816,0.5504 -0.4128,0.688 -0.4816,0.688 1.8576,0.344 0.9632,0.4816 0.5504,0.688 -0.1376,1.3072 -0.6192,0.8944 -0.8256,0.344 -0.5504,-0.4128 -1.72,1.1008 -0.8256,0.2752 -0.8944,0.0688 v 0.7568 l 0.8256,0.344 v 0.2064 l -0.8256,0.1376 -0.6192,-0.0688 -0.9632,-0.4816 -0.7568,-0.1376 -1.032,-0.688 -2.9584,-4.4032 -1.5136,-0.6192 h -0.1376 l -0.4816,-1.6512 -1.1008,-1.376 0.6192,-0.1376 0.4816,-0.4128 1.1008,-2.8208 1.032,0.4816 0.688,0.5504 1.8576,0.7568 6.192,0.4816 2.4768,-0.4816 2.408,-1.3072 4.5408,-3.3024 16.512,-7.3616 14.2416,-3.784 17.3376,-7.3616 11.2832,-3.0272 12.3152,-3.3024 12.1088,-5.504 10.0448,-1.2384 6.88,-2.3392 -0.7568,0.7568 -3.096,1.4448 1.3072,0.9632 5.504,-0.9632 v -0.688 h -0.4128 V 90.128 h 2.9584 v -0.5504 l -0.0688,-0.0688 h -0.1376 l -0.2064,-0.1376 0.1376,-1.72 -1.4448,-0.0688 -3.3712,1.032 2.1328,-1.032 2.6144,-1.72 3.8528,-4.5408 -0.8256,1.5824 -1.376,1.5136 -0.5504,0.7568 0.5504,-0.2064 1.1696,-0.2064 0.9632,-0.4128 0.8944,-1.032 2.2016,-1.032 0.7568,-0.9632 -0.688,-1.5824 h -1.2384 l -0.5504,0.688 -0.9632,0.8944 2.6832,-4.6096 7.224,-9.288 v 0.6192 l -0.344,1.1008 0.6192,0.2752 1.032,-0.4128 0.7568,-0.9632 0.4128,-1.4448 -0.344,-0.4128 -0.8256,0.344 -0.8944,0.8944 1.2384,-2.6144 2.2016,-2.1328 4.2656,-2.6832 13.0032,-1.9264 0.4128,-0.1376 0.1376,0.2064 4.3344,8.8064 5.16,7.4304 1.9264,3.9216 0.4816,5.16 -0.688,2.8896 -1.6512,1.6512 -0.4816,1.9264 0.688,1.5824 1.1696,1.6512 0.2752,2.6144 -1.032,1.5136 -8.6688,2.2016 3.9904,12.1088 0.4816,5.848 v 5.848 l 2.6832,1.9264 1.5136,1.7888 2.3392,4.816 1.72,1.5824 1.4448,2.064 1.1696,2.4768 -3.44,-0.4128 -3.096,1.4448 0.0688,2.064 1.2384,0.6192 1.1008,1.7888 0.688,2.2704 -1.8576,3.3024 -2.6144,2.6832 1.1008,11.4208 -2.3392,-0.7568 -2.408,0.0688 -2.2016,0.9632 -1.6512,2.8896 -1.2384,3.44 -1.5824,6.6736 -1.8576,0.4128 -11.4896,-0.344 -1.4448,1.9952 0.0688,4.1968 0.9632,3.7152 3.9216,3.8528 4.7472,1.1696 2.2704,1.2384 1.9952,2.4768 0.344,3.0272 -1.8576,2.3392 -1.5136,2.6144 -1.7888,1.72 -4.6096,1.4448 -9.0128,5.2976 -5.0912,7.9808 -5.9856,5.7104 -3.8528,1.5136 -3.9216,0.4816 -3.784,-2.2704 z" />
    <path
       id="Silesian"
       class="county_r"
       d="m 363.6768,567.6 -0.344,-3.784 -0.344,3.784 -0.2752,-3.096 -5.3664,6.1232 -0.4816,0.4128 -0.8944,0.344 -0.6192,0.1376 h -1.9264 l -1.2384,0.2064 -1.032,0.5504 -0.8944,0.8256 -0.8256,1.376 -1.032,3.096 0.1376,0.1376 0.2064,0.2752 0.1376,0.4816 -0.2064,0.6192 -0.2752,0.2064 -0.7568,0.0688 h -0.1376 l -0.4816,1.8576 -0.1376,1.2384 -0.4816,0.7568 -1.9264,0.7568 -1.5136,0.344 -0.688,-0.0688 -0.5504,-0.344 -1.2384,-0.8944 -0.6192,-0.2064 -1.376,0.344 -2.408,1.4448 -1.5824,0.0688 -1.1696,-0.2064 -0.344,-1.1008 0.2064,-3.1648 -0.1376,-1.376 -0.2752,-1.3072 -0.0688,-1.376 0.5504,-1.6512 -1.8576,-1.1008 -6.192,-0.5504 0.2752,-1.4448 v -0.1376 l -0.1376,-1.9952 -0.8944,-4.128 -0.2752,-0.8256 -0.7568,-1.72 -0.2752,-0.8944 -0.4128,-3.3712 -0.2752,-0.7568 -0.9632,-0.688 -0.9632,0.2064 -0.9632,0.4128 -0.8944,0.0688 -0.8256,-0.4816 -1.2384,-1.4448 -0.7568,-0.688 -0.8944,-0.2752 h -0.6192 l -0.8944,-0.1376 H 313.04 l -0.8256,-0.6192 -0.4128,-0.688 -0.6192,-2.8208 -1.5136,-3.0272 -1.032,-2.9584 -0.0688,-2.5456 0.344,-0.344 v -0.0688 l 0.8256,-0.9632 0.344,-0.344 0.0688,-0.1376 v -0.2752 l -1.5136,-0.7568 -0.2752,-1.2384 0.2064,-1.4448 -0.4128,-1.7888 -0.9632,-0.5504 -0.6192,0.4128 -0.9632,0.6192 -0.8256,0.5504 h -1.4448 l -4.6784,-2.5456 -2.408,-0.8944 -1.4448,0.2064 v 0.1376 0.2064 h -0.344 -0.0688 -0.2752 v 0.0688 l -0.1376,0.2064 -0.2064,0.1376 -0.2064,0.2064 -0.344,0.2752 -0.8256,0.7568 -0.8944,0.1376 -1.2384,-1.032 -0.344,-0.6192 -0.4816,-1.5136 -0.2064,-0.5504 -0.7568,-0.5504 -1.4448,-0.2752 -0.7568,-0.344 -1.9952,-1.72 -0.9632,-0.4816 -3.9216,-0.7568 -0.8256,-0.9632 0.4128,-1.7888 -2.6832,-1.72 -0.5504,-0.344 -0.4128,-0.344 -0.8944,-0.2064 0.0688,-1.1696 v -0.2752 -0.2064 l 3.7152,-7.2928 7.8432,-1.6512 3.784,-2.8208 6.0544,-2.8208 0.6192,-2.8208 0.0688,-5.0224 -1.032,-12.5216 0.5504,-2.064 1.376,-0.2064 1.376,-0.688 0.0688,-1.72 -0.688,-1.7888 0.8256,-2.2016 1.8576,-0.4128 9.0816,0.0688 -0.7568,-3.5088 -1.9952,-2.1328 -1.9952,-1.5824 -1.6512,-2.2704 -1.2384,-3.7152 1.5136,-4.0592 1.1008,-6.192 1.6512,-3.5088 4.8848,-3.1648 0.4816,-3.5088 -0.8256,-1.7888 -0.4128,-2.2704 0.4816,-1.5136 0.7568,-0.9632 2.1328,-7.568 3.1648,-1.5824 8.8064,-0.2752 2.064,-0.9632 1.9264,-1.376 2.2016,0.4128 1.9264,1.9952 8.1872,4.4032 4.0592,0.8256 h 4.9536 l 2.1328,-1.8576 4.1968,0.7568 3.784,3.44 5.848,9.3568 2.064,0.6192 6.2608,-0.344 6.8112,3.44 5.2976,1.032 0.8256,0.4816 0.2064,1.1008 v 1.1696 l -0.2752,0.8256 -4.2656,0.688 -2.3392,4.472 1.72,1.9952 4.6784,1.376 2.1328,1.6512 1.7888,3.8528 2.9584,3.6464 -2.5456,0.4128 -4.2656,3.5776 -1.2384,2.752 2.1328,1.1696 4.2656,0.6192 1.7888,0.688 0.4128,2.1328 0.1376,1.72 -7.912,4.9536 -1.9264,0.344 -3.5088,-0.2752 -3.44,0.5504 -5.504,4.2656 -1.5824,0.344 -1.6512,0.0688 -3.44,-1.9952 -1.6512,2.4768 -1.7888,3.5088 -2.6832,3.8528 -4.1968,-0.6192 -1.9264,1.5824 3.3024,3.3024 2.8896,4.0592 -14.792,16.6496 -1.376,1.9952 -1.376,2.8896 -0.688,3.2336 1.2384,1.6512 1.6512,0.1376 1.376,1.72 0.1376,3.2336 1.8576,3.3712 3.1648,1.2384 1.2384,2.2704 0.9632,3.0272 1.9952,1.8576 2.3392,1.1008 4.2656,0.7568 -0.2064,2.4768 -1.1008,2.2016 -0.4816,1.9952 0.7568,1.72 1.4448,1.032 0.344,1.1008 z" />
    <path
       id="Świętokrzyskie"
       class="county_y"
       d="m 395.3936,478.504 -1.7888,-0.688 -4.2656,-0.688 -2.1328,-1.376 1.2384,-2.752 4.2656,-3.44 2.5456,-0.5504 -2.9584,-3.5776 -1.7888,-4.128 -2.1328,-1.376 -4.6784,-1.376 -1.72,-2.064 2.3392,-5.848 h 4.2656 l 0.2752,-0.344 v -0.9632 l -0.2064,-1.1008 -0.8256,-0.4816 -5.2976,-1.032 1.4448,-2.408 1.7888,-1.72 2.2016,-1.4448 1.032,-2.9584 -0.2752,-3.096 0.0688,-3.1648 0.8256,-3.2336 2.2016,-0.4128 8.256,6.0544 1.376,-1.6512 0.4816,-3.2336 -0.5504,-3.3024 -1.9264,-1.5824 -2.8896,-4.3344 1.5824,-5.9856 1.5136,-1.9952 1.9264,-0.7568 6.9488,0.9632 1.9952,-0.5504 4.3344,-4.128 1.9952,-0.9632 2.064,-0.344 2.064,-0.9632 2.2704,-5.6416 1.7888,-1.376 3.44,1.2384 1.8576,4.7472 10.32,6.3296 1.4448,1.6512 1.3072,2.064 1.5824,1.2384 7.568,1.5824 8.6688,-1.376 2.064,-1.1696 1.8576,-2.6144 1.9264,-1.8576 1.9264,0.688 0.4816,3.3024 1.8576,2.1328 0.2752,1.6512 0.4128,1.5136 4.2656,2.8208 4.816,0.4128 10.32,3.2336 19.952,-4.1968 0.2752,1.376 -0.2752,0.5504 -0.4816,0.4128 -0.5504,0.2752 -0.4128,0.0688 v 0.688 l 1.1008,0.8944 0.2064,1.9264 -0.4128,4.2656 -0.0688,0.344 -0.2064,0.1376 -0.1376,0.344 -0.0688,0.6192 0.1376,0.5504 0.2752,0.2752 0.2752,0.1376 0.1376,0.344 0.1376,0.9632 1.5824,6.0544 0.344,2.1328 0.1376,1.3072 0.1376,3.6464 -0.5504,3.9216 -0.4128,1.5136 -0.7568,1.7888 -0.9632,1.4448 -1.1008,0.6192 -1.6512,0.2752 -1.1008,0.7568 -1.7888,3.0272 -2.9584,3.5088 -0.4128,1.5136 -0.344,1.9264 -0.7568,1.5136 -1.9264,2.3392 -1.1696,0.9632 -3.9904,1.032 -5.9856,2.6832 0.2752,0.4128 0.6192,1.5824 -1.1696,1.2384 -1.6512,0.9632 -1.5824,0.344 -1.1696,-0.5504 -3.784,3.3712 -0.2752,0.0688 -0.8944,-0.0688 -0.2064,0.2064 v 0.4128 l 0.0688,0.4816 -0.0688,0.2752 -0.688,0.5504 -0.4128,-0.0688 -0.5504,-0.4816 -0.344,1.376 -0.7568,0.688 -0.7568,0.344 -0.2752,0.5504 -0.1376,0.8256 -0.2064,0.2064 h -0.344 l -0.4128,0.344 -1.1008,1.5136 v 0.1376 l -1.1008,0.2752 -0.6192,-0.5504 -0.5504,-0.688 -0.8944,-0.4128 -0.6192,0.1376 -2.6144,1.2384 -0.5504,0.5504 -0.6192,0.6192 -0.688,0.6192 -0.9632,0.2752 -4.6096,0.1376 -0.6192,0.2064 -0.5504,0.4816 -0.6192,0.8256 -0.5504,0.344 -1.72,0.1376 -0.8944,0.5504 -0.9632,-0.6192 -0.8256,0.5504 -0.8256,0.8944 -1.032,0.4816 -2.408,-2.2704 -0.344,0.5504 -0.4128,1.72 -1.3072,1.3072 -0.2064,0.1376 h -0.5504 l -0.2752,0.2064 -0.2064,0.4816 -0.0688,1.032 -0.2064,0.4816 -0.8944,0.8944 -1.9952,0.9632 -0.7568,1.2384 -0.2752,1.032 -1.8576,1.9952 -8.1872,-0.2752 -4.6096,-2.752 -1.1696,-2.4768 -2.8208,-3.9904 -1.1008,-2.2704 -1.032,-4.5408 -2.8896,-5.6416 -4.7472,-3.2336 -5.2976,-1.6512 -2.064,-2.2016 -2.4768,-1.3072 h -5.848 z" />
    <path
       id="Lublin"
       class="county_g"
       d="m 596.3584,298.248 h 0.4816 l 0.688,1.376 0.2064,1.376 -0.5504,1.376 1.4448,1.376 4.472,0.688 h 0.9632 l 0.8256,0.7568 3.8528,1.3072 h 1.3072 v 0.8944 l -0.4128,0.9632 0.1376,0.2064 0.8944,-0.4128 0.8256,0.4128 0.5504,0.5504 0.5504,0.1376 0.8944,-1.1008 0.2752,0.4816 0.6192,0.5504 0.4128,0.4816 1.032,-1.032 0.2064,0.7568 -0.1376,1.2384 -0.2752,0.344 1.72,3.44 1.2384,0.4128 2.9584,-0.0688 1.1696,0.688 0.4128,0.8256 0.344,0.8256 0.344,0.6192 0.6192,0.2752 0.7568,0.4816 0.2064,1.2384 0.0688,1.1696 0.5504,1.2384 0.8944,3.8528 0.688,1.72 -0.9632,0.688 -0.8256,1.3072 -1.1696,2.8208 -0.4128,1.8576 -0.0688,3.3024 -0.4128,1.1008 0.2752,0.1376 h 0.0688 l 0.0688,0.1376 v 0.4128 l -0.688,0.4816 -0.2752,2.1328 -0.688,0.8944 0.9632,1.7888 1.1696,1.6512 -0.688,2.2704 -1.2384,1.1696 -1.3072,0.8256 -1.032,1.2384 -0.2752,0.688 -0.2752,1.376 -0.344,2.064 0.2064,0.688 0.4816,0.5504 0.1376,0.8256 h -0.6192 l -0.2064,3.096 0.2064,-2.408 0.344,0.688 0.344,0.688 -0.8256,1.032 -0.4128,0.344 h -0.5504 v 0.688 l 0.7568,0.688 0.0688,1.376 -0.344,2.752 0.2064,1.376 0.5504,1.376 1.376,2.064 h -0.4128 -0.4128 l 0.7568,1.376 0.9632,0.688 0.8944,0.688 0.2064,1.376 0.1376,0.688 0.4128,1.376 0.9632,0.688 0.4128,-0.1376 0.7568,0.1376 0.0688,0.2064 0.8256,0.4816 -1.032,2.064 h 0.0688 v 0.688 l 0.0688,-0.0688 0.0688,0.1376 0.5504,0.8256 1.9264,2.8208 0.4816,1.1696 -0.688,0.344 -0.1376,0.2064 -0.1376,0.2064 -0.0688,0.1376 -0.1376,0.1376 v 0.2752 l -0.0688,0.7568 0.1376,0.4128 0.0688,0.2064 0.1376,0.4816 v 0.0688 l 0.0688,0.2064 -0.344,0.1376 h -0.0688 l -0.4128,0.1376 -0.344,0.1376 v 0.0688 l -1.1008,1.1008 -0.8256,1.5136 -0.344,1.3072 0.4128,2.1328 0.9632,0.4816 h 0.0688 l 1.1008,0.0688 1.1008,0.688 0.2752,0.5504 2.1328,4.816 0.1376,0.2752 0.688,1.5136 0.2064,0.4128 0.344,0.4128 1.1008,1.3072 1.032,0.688 0.6192,0.4128 1.2384,0.7568 0.2752,0.1376 1.5136,1.6512 0.1376,0.0688 0.0688,0.1376 0.2752,0.2752 0.2752,0.2064 0.688,0.7568 0.2752,0.5504 0.4128,0.6192 -0.344,0.2064 -0.688,0.344 -0.0688,0.1376 -0.1376,0.7568 0.1376,0.344 0.2064,0.4816 0.0688,0.1376 0.4816,1.032 1.6512,2.5456 0.5504,1.3072 0.688,4.1968 v 0.6192 l -0.2752,0.7568 0.4816,0.4128 0.8256,0.2752 0.7568,0.5504 0.688,1.032 0.1376,0.8256 0.0688,0.8944 0.344,1.3072 0.9632,1.5824 4.1968,3.9216 0.344,0.1376 0.7568,0.4128 1.9264,1.1008 0.9632,0.5504 0.1376,0.0688 0.5504,0.2752 0.0688,0.0688 0.4816,0.2064 0.0688,0.1376 0.688,1.032 v 0.0688 l -0.7568,1.72 -1.8576,0.4128 h -1.1696 -0.2752 -0.0688 -0.5504 l -1.3072,0.6192 -1.6512,-0.9632 -1.72,0.2064 -0.688,0.5504 -0.7568,0.5504 -0.7568,1.72 0.0688,1.1696 v 0.2752 l 0.0688,0.4128 0.4128,0.5504 0.4816,0.7568 1.5136,0.688 1.376,0.1376 0.344,0.0688 v 0.6192 l -0.0688,0.0688 -0.0688,0.1376 -0.2752,0.688 h -0.0688 l -0.1376,0.4816 -0.2064,0.344 0.2752,0.4128 0.0688,0.1376 0.0688,0.1376 0.4816,0.8256 1.4448,0.8944 0.0688,0.0688 h 0.0688 l 0.1376,0.0688 1.2384,0.344 0.4128,0.0688 -0.344,2.2704 0.344,1.5136 v 0.2064 l 0.0688,0.1376 0.0688,0.2064 0.1376,0.4128 0.1376,0.344 0.0688,0.2064 1.032,2.408 0.2064,0.4816 -0.8944,1.5824 -0.5504,0.9632 0.344,2.4768 0.2752,2.2016 0.4816,1.2384 0.2752,0.2752 -0.0688,0.2752 -0.7568,1.1008 -1.1696,1.2384 -0.1376,0.0688 -3.9216,2.064 -0.1376,1.1696 0.0688,1.9264 -0.0688,1.2384 -0.344,1.1008 -1.032,2.408 -0.2752,0.7568 -3.3024,1.376 -11.352,0.1376 -1.8576,0.6192 -0.2752,0.0688 -1.1008,0.5504 -0.8256,0.8256 -0.688,1.4448 -0.7568,2.6144 h -0.0688 l -6.2608,-3.7152 -1.9952,-3.0272 -3.9216,-2.4768 -4.6096,-0.5504 -3.5776,0.344 -1.6512,0.7568 -5.0912,5.848 -4.0592,3.2336 -4.7472,1.032 -14.0352,-0.4816 -8.5312,-2.408 -0.6192,-1.4448 2.1328,-0.5504 0.9632,-0.5504 -1.6512,-1.1696 -8.6688,1.72 -2.2016,-1.032 -1.6512,-2.4768 -0.4128,-2.408 1.032,-2.064 1.5136,-2.064 1.9952,-0.6192 1.9264,0.2064 1.72,-0.9632 -0.7568,-2.408 -1.4448,-2.752 -0.1376,-1.376 0.0688,-1.3072 -0.6192,-0.8944 -9.8384,-5.2976 -14.5168,-3.7152 -1.1696,-2.064 2.8208,-5.3664 0.8944,-2.4768 -1.9952,-1.7888 -2.2016,-1.376 -2.408,-0.8944 -2.4768,0.1376 -4.128,2.8896 -4.6784,-0.2752 -8.1872,-5.5728 -0.344,-2.1328 -1.5824,-6.0544 -0.1376,-0.9632 -0.1376,-0.344 -0.2752,-0.1376 -0.2752,-0.2752 -0.1376,-0.5504 0.0688,-0.6192 0.1376,-0.344 0.2064,-0.1376 0.0688,-0.344 0.4128,-4.2656 -0.2064,-1.9264 -1.1008,-0.8944 v -0.688 l 0.4128,-0.0688 0.5504,-0.2752 0.4816,-0.4128 0.2752,-0.5504 -0.2752,-1.376 -1.5136,-3.784 -0.4816,-3.2336 -0.5504,-1.7888 -0.1376,-0.7568 0.0688,-1.1696 0.2064,-0.8256 0.5504,-1.4448 1.1696,-6.192 0.7568,-1.6512 0.5504,-0.4816 0.688,-0.0688 -0.1376,-2.1328 0.7568,-3.0272 0.4128,-2.8208 -2.4768,-3.0272 0.1376,-2.408 1.4448,-1.2384 1.5136,-2.064 0.0688,-4.128 -1.9264,-0.2064 v -0.688 l 0.9632,-1.1008 -0.2752,-1.2384 -1.1008,-1.72 -0.1376,-1.4448 0.0688,-1.1696 -0.2064,-0.8256 -0.9632,-0.688 -0.6192,-0.0688 -1.5136,0.688 -1.1008,0.1376 -3.2336,-0.688 -1.72,-0.8256 -0.9632,-1.1008 -0.7568,-1.3072 -0.0688,-1.032 0.6192,-2.6144 2.2704,-0.6192 2.2016,0.9632 4.5408,0.688 4.472,-1.5824 1.5136,-1.4448 0.4128,-2.2704 -3.096,-4.8848 2.408,-3.3712 3.44,-2.1328 -2.2016,-3.3024 -1.5136,-3.784 -0.2752,-2.6832 -1.2384,-2.6144 -0.9632,-2.8208 -0.4128,-2.6144 4.4032,-3.3024 4.7472,-1.376 9.0816,0.0688 8.5312,-1.72 3.1648,0.6192 2.2016,-0.688 5.9168,-4.472 2.408,-0.2752 6.88,0.6192 3.44,-2.8208 0.344,-1.5136 0.4128,-1.3072 1.032,-1.1008 1.1008,-0.7568 2.5456,0.6192 7.3616,3.784 2.408,-0.9632 2.064,-2.6144 1.7888,-4.1968 5.9168,-8.7376 1.9952,-3.784 0.8256,-0.4128 1.1696,0.344 1.9952,1.1696 h 1.1008 l 0.4816,-0.4128 z" />
    <path
       id="Lubusz"
       class="county_r"
       d="m 82.904,387.688 -0.2752,-2.4768 0.5504,-1.2384 -0.6192,-1.376 -1.1696,-1.2384 -0.9632,-0.7568 -1.4448,-0.688 -2.8896,-0.8256 -1.4448,-0.8256 -1.3072,-0.9632 -4.128,-1.376 -1.376,-1.4448 -0.2064,-1.2384 -0.1376,-0.688 0.5504,-1.7888 1.1696,-1.9952 0.7568,-1.9952 -0.0688,-2.6144 -0.6192,-2.5456 -0.8256,-1.7888 -3.0272,-2.4768 -1.4448,-1.6512 -0.6192,-2.6144 -0.2064,-2.6144 -0.8944,-1.1696 -1.1008,-0.8256 -1.032,-1.5824 -0.2064,-2.1328 0.8256,-1.72 3.5776,-3.6464 1.1696,-1.5824 0.9632,-1.7888 0.4816,-1.9952 0.2064,-6.192 0.344,-0.9632 1.376,-2.4768 0.2752,-0.9632 0.0688,-0.8944 0.2064,-0.9632 0.4816,-0.8256 1.1696,-1.4448 -4.0592,-3.0272 -0.6192,-1.5136 0.344,-2.6144 0.688,-1.8576 0.2752,-1.4448 -0.8944,-1.4448 v -0.6192 l 1.1696,-1.5824 0.0688,-2.1328 -1.032,-1.7888 -1.72,-0.7568 -1.7888,-0.4128 -2.1328,-1.1696 -1.376,-1.376 0.4128,-2.064 -1.3072,-2.752 -1.5136,-4.816 -0.344,-3.8528 3.2336,-3.0272 1.5136,-2.064 1.032,-2.752 -0.2752,-0.688 -1.1696,-1.3072 0.4816,-2.1328 1.72,-4.128 -1.9264,-1.376 -0.344,-0.688 1.5136,-5.504 1.376,-2.064 5.2976,-0.688 3.1648,-1.376 4.8848,-6.88 3.9904,-5.16 6.0544,-6.536 10.3888,3.44 3.3024,-0.688 3.8528,-3.096 2.3392,-5.848 -1.72,-1.032 -1.1696,-1.032 h 3.5088 l 10.5952,-5.848 h 12.8656 l 3.096,-0.344 5.6416,-6.88 3.2336,-2.752 3.44,-0.4816 3.096,0.688 1.6512,5.0912 -1.1008,4.8848 -1.2384,5.9856 0.2064,6.6048 -6.1232,7.8432 1.9264,1.7888 1.376,5.0912 -0.6192,1.5824 -1.1696,0.8256 -5.9168,1.8576 -0.9632,-0.1376 -0.4128,0.9632 -0.0688,2.3392 -0.2752,2.2016 0.2064,5.7104 2.2016,6.0544 0.7568,3.5776 0.4816,3.784 v 3.0272 h -1.6512 l -1.3072,0.9632 2.6144,4.6784 1.2384,3.0272 0.1376,6.3296 -1.9952,5.9856 -0.344,1.4448 -0.1376,1.5824 -0.688,3.0272 -0.0688,3.3712 0.4816,3.2336 1.4448,2.2016 1.72,1.72 3.44,1.8576 1.1008,3.1648 1.4448,2.6144 2.2704,2.2704 h 2.2704 l 1.1008,-0.4128 1.032,0.6192 0.0688,2.064 -0.5504,1.9264 -0.2752,3.5088 0.8944,2.6832 2.6832,1.8576 2.8896,0.8944 4.5408,-3.096 4.0592,4.472 1.9952,7.568 -3.096,4.9536 -3.784,3.3024 -4.9536,1.1008 -3.44,-4.4032 -0.2064,-3.5088 -1.72,-1.7888 -9.4256,-1.7888 -1.2384,1.72 -0.8944,2.6144 -1.9264,1.9264 -2.2016,0.688 -1.3072,1.032 -6.1232,11.9712 -6.9488,9.1504 -4.4032,1.1008 -8.8064,-4.816 -4.5408,1.5824 -2.064,2.4768 -3.1648,5.504 -1.8576,-0.2064 -3.6464,-3.1648 -1.7888,0.0688 -9.976,5.16 -1.1696,0.688 z" />
    <path
       id="Warmian-Masurian"
       class="county_y"
       d="m 573.5856,77.4 0.1376,1.1008 -1.5136,5.16 -3.5776,3.784 -4.128,2.8208 -13.9664,1.9264 -5.848,8.3936 6.2608,8.4624 0.344,3.1648 0.688,2.9584 3.1648,3.096 6.6048,9.288 -0.2064,4.9536 -2.5456,4.8848 -2.1328,6.1232 -3.6464,3.784 -17.3376,10.8704 -6.0544,6.88 -10.8016,7.3616 -4.6784,0.688 -1.9952,0.8944 -1.7888,1.4448 h -3.9216 l -8.944,1.032 -4.5408,1.7888 -7.49643,3.92579 -1.58517,-2.48099 -1.7888,3.5776 -2.5456,1.7888 -2.8208,0.4128 -5.5728,-0.7568 -4.7472,5.9168 -5.5728,1.6512 h -5.9856 l -4.5408,2.752 -3.9904,0.688 -4.472,0.0688 -2.2704,1.8576 -2.064,2.2016 -8.7376,5.504 -2.2704,0.688 -2.408,-0.688 -1.9264,1.7888 -1.032,3.7152 -1.6512,1.376 -1.8576,1.2384 -4.7472,0.8944 -19.6768,-3.096 -0.5504,-0.4128 -0.4128,-1.376 -0.9632,-0.4128 -1.1008,-0.2752 -2.4768,0.8256 -1.5824,3.1648 -1.7888,1.5136 -2.2016,0.5504 -0.8944,-9.4944 -3.2336,-8.1872 -3.5088,-2.4768 -7.0864,-1.8576 -6.6736,-4.0592 -4.816,-1.5824 h -1.1696 l -1.4448,-0.6192 -0.9632,-1.4448 -1.9264,-3.5776 -1.5136,-4.5408 -5.4352,-10.5264 9.2192,-17.2 2.2016,-2.408 2.6144,-1.6512 5.0912,0.344 3.5088,-1.5824 0.1376,-1.72 0.688,-1.1696 1.032,-3.0272 1.1008,-1.1008 0.7568,-1.4448 v -1.7888 l 0.2752,-1.6512 -3.1648,-0.8944 -6.1232,0.5504 -2.2704,-1.1008 1.2384,-4.1968 -1.6512,-2.2016 -3.1648,-0.4128 -3.0272,-1.7888 -2.064,-3.5088 -1.1696,-4.5408 -0.1376,-2.064 0.9632,-1.5136 2.752,-2.752 0.9632,-1.72 0.688,-1.9952 -0.6192,-2.6144 -1.3072,-2.2704 -1.376,-4.128 0.4128,-3.6464 1.5136,-1.72 5.5728,0.688 1.4448,-0.1376 v 0.7568 l -0.5504,0.5504 -0.4816,0.9632 -0.2064,1.3072 -0.0688,1.5824 0.8256,-0.8256 1.1008,-2.9584 0.4816,-0.6192 0.344,-0.4128 1.5824,-2.5456 1.5824,-1.5136 0.8256,-0.4816 0.7568,-0.2064 4.8848,-3.096 1.032,-0.4128 2.4768,-0.344 3.9904,-2.9584 0.8944,-0.344 0.8944,-0.1376 0.5504,-0.6192 0.2752,-1.1696 0.4816,-1.032 1.032,-0.2064 -0.1376,-0.4816 -0.1376,-1.1696 -0.1376,-0.4816 0.688,0.0688 0.2752,-0.1376 12.8656,0.688 24.2176,1.3072 18.0256,0.9632 18.0256,0.9632 22.2912,1.1696 27.1072,1.4448 17.3376,0.9632 17.3376,0.8944 14.5856,0.7568 11.7648,0.6192 4.2656,-1.376 1.1696,-0.9632 1.5824,-2.9584 z" />
    <path
       id="Masovian"
       class="county_r"
       d="m 493.1584,178.536 0.8256,3.3712 1.4448,3.44 0.9632,4.1968 1.5824,11.696 3.5088,8.944 2.2704,6.536 3.3024,-0.344 3.44,0.688 2.8896,2.064 -1.032,2.064 0.2752,2.752 1.5824,2.752 2.408,1.376 1.5136,1.376 0.8944,2.752 0.8944,3.44 1.6512,3.1648 4.4032,2.3392 4.7472,-0.688 3.096,-3.3712 3.0272,1.9952 -0.9632,6.192 1.5824,2.064 1.9264,1.376 3.5088,-1.8576 3.6464,-1.032 0.9632,4.9536 0.4128,5.504 0.7568,3.44 0.1376,5.16 -0.1376,1.032 3.44,3.44 1.3072,2.064 1.376,0.344 0.4816,1.032 0.1376,1.376 -0.2064,0.7568 -0.2752,0.8256 -0.0688,0.8944 0.2064,1.3072 0.344,0.8944 0.4816,0.4816 0.8944,0.1376 0.1376,0.4816 -0.344,3.3712 0.4128,1.1008 1.032,1.5136 1.3072,0.9632 1.032,-0.4816 0.7568,1.2384 1.5136,0.344 3.3024,-0.1376 9.7008,1.9952 4.8848,-0.688 1.8576,0.6192 1.4448,1.376 0.5504,2.3392 1.3072,-0.7568 1.1696,0.688 1.72,2.1328 -0.2752,0.5504 -0.344,1.1008 -0.1376,0.4816 1.032,0.6192 0.9632,-0.344 0.9632,-0.6192 -1.9952,3.784 -5.9168,8.7376 -1.7888,4.1968 -2.064,2.6144 -2.408,0.9632 -7.3616,-3.784 -2.5456,-0.6192 -1.1008,0.7568 -1.032,1.1008 -0.4128,1.3072 -0.344,1.5136 -3.44,2.8208 -6.88,-0.6192 -2.408,0.2752 -5.9168,4.472 -2.2016,0.688 -3.1648,-0.6192 -8.5312,1.72 -9.0816,-0.0688 -4.7472,1.376 -4.4032,3.3024 0.4128,2.6144 0.9632,2.8896 1.2384,2.752 0.2752,2.4768 1.5136,3.784 2.2016,3.3712 -3.44,2.064 -2.408,3.44 3.096,4.816 -0.4128,2.064 -1.5136,1.376 -4.472,1.8576 -4.5408,-0.688 -2.2016,-1.1696 -2.2704,0.8256 -0.6192,2.6144 0.0688,1.032 0.7568,1.3072 0.9632,1.1008 1.72,0.8256 3.2336,0.688 1.1008,-0.1376 1.5136,-0.688 0.6192,0.0688 0.9632,0.688 0.2064,0.6192 -0.0688,1.376 0.1376,1.376 1.1008,2.064 0.2752,0.688 -0.9632,1.376 v 0.688 h 1.9264 l -0.0688,4.128 -1.5136,2.064 -1.4448,1.4448 -0.1376,2.408 2.4768,3.0272 -0.4128,2.8208 -0.7568,3.0272 0.1376,2.1328 -0.688,0.0688 -0.5504,0.2064 -0.7568,2.064 -1.1696,6.192 -0.5504,1.376 -0.2064,0.688 -0.0688,1.2384 0.1376,0.7568 0.5504,1.7888 0.4816,3.2336 1.5136,3.784 -19.952,4.1968 -10.32,-3.2336 -4.816,-0.4128 -4.2656,-2.8208 -0.4128,-1.6512 -0.2752,-1.5136 -1.8576,-1.9264 -0.4816,-3.5088 -1.9264,-0.688 -1.9264,1.8576 -1.8576,2.6144 -2.064,1.1696 -8.6688,1.376 -7.568,-1.5824 -1.5824,-1.2384 -1.3072,-2.064 -1.4448,-1.6512 -10.32,-6.3296 -1.8576,-4.7472 -3.44,-1.2384 -0.2064,-2.8896 0.8256,-2.752 3.9904,-3.7152 1.032,-2.752 v -3.2336 l -0.8256,-0.8944 -2.2704,-1.1696 -0.4816,-1.5824 -0.2064,-3.2336 -0.6192,-3.096 -1.8576,-4.4032 1.5824,-5.7104 h 4.8848 l 3.7152,2.064 4.5408,0.6192 0.8256,-1.6512 0.1376,-2.408 -0.9632,-2.5456 -3.3024,-3.5088 -0.6192,-2.8896 0.344,-1.3072 0.6192,-0.8944 0.5504,-1.1696 -0.4128,-1.6512 -3.6464,-4.9536 -4.5408,-3.5088 -4.128,-1.9264 -6.6048,0.8256 -2.2704,-0.7568 -0.5504,-1.6512 0.1376,-1.9264 -1.4448,-2.2016 -1.72,-1.9264 -0.4816,-2.1328 2.064,-1.2384 0.688,-5.0912 -0.8944,-1.1008 -2.408,-1.6512 -4.3344,-1.72 -0.9632,0.2752 -0.8944,-0.4816 -1.2384,-2.8896 -0.2064,-3.5088 -0.8256,-2.6144 -1.72,-1.2384 -2.2016,-0.6192 -1.9952,-1.032 -1.4448,-2.6144 -1.72,-2.2016 -2.3392,0.2064 -1.9952,2.064 -12.9344,2.6832 -5.7792,-4.6784 -3.2336,-1.5136 -6.536,-1.376 -6.0544,-4.128 0.4128,-1.7888 0.2752,-1.72 4.6096,-7.6368 -0.2752,-1.8576 -1.2384,-1.3072 0.2752,-3.9904 1.72,-3.3712 4.1968,-12.2464 2.6832,-0.688 -0.0688,-3.44 -1.7888,-4.3344 -1.1008,-1.9264 -0.688,-2.2016 0.5504,-2.064 1.2384,-1.376 0.344,-3.8528 -0.9632,-4.1968 3.0272,0.344 2.6144,-2.2016 1.1696,-1.72 1.3072,-1.3072 1.2384,0.5504 1.1696,0.8256 1.1696,0.1376 0.5504,-1.7888 0.344,-1.9952 0.2064,-2.064 -0.4816,-3.096 -0.0688,-1.9952 -0.4128,-1.9952 3.2336,-1.5136 2.9584,-2.408 2.2016,-0.5504 1.7888,-1.5136 1.5824,-3.1648 2.4768,-0.8256 1.1008,0.2752 0.9632,0.6192 0.4128,0.9632 0.5504,0.8944 19.6768,2.752 4.7472,-0.688 1.8576,-1.1008 1.6512,-1.8576 1.032,-3.2336 1.9264,-1.7888 2.408,0.2064 2.2704,-0.688 8.7376,-5.0224 2.064,-2.3392 2.2704,-2.064 4.472,0.1376 3.9904,-0.8256 4.5408,-2.6144 h 5.9856 l 5.5728,-1.5136 4.7472,-5.9168 5.5728,0.4128 2.8208,-3.096 2.5456,1.032 1.7888,-3.44 1.5136,2.408 7.568,-4.0592 z" />
    <path
       id="Greater–Poland"
       class="county_y"
       d="m 255.4544,412.456 -0.8256,-4.816 -0.7568,-10.32 1.7888,-4.128 -2.2704,-1.9264 -2.3392,-0.688 -3.8528,0.5504 -3.6464,-0.6192 -1.5136,-3.7152 -0.344,-4.6096 0.8944,-2.064 1.5136,-0.688 0.8256,-2.752 0.6192,-2.6832 -6.192,-4.0592 -6.88,-1.8576 -7.3616,-0.0688 -2.6144,0.5504 -2.3392,5.3664 -12.9344,2.2704 -7.1552,-2.5456 -3.44,-3.784 -6.0544,-3.3712 -2.6832,-4.816 -0.2064,-3.2336 -1.1008,-2.5456 -7.0176,-3.8528 -2.5456,-0.688 -5.4352,1.1008 -1.9952,-7.568 -4.0592,-4.472 -4.5408,3.096 -2.8896,-0.8944 -2.6832,-1.8576 -0.8944,-2.6832 0.2752,-3.5088 0.5504,-1.9264 -0.0688,-2.064 -1.032,-0.6192 -1.1008,0.4128 h -2.2704 l -2.2704,-2.2704 -1.4448,-2.6144 -1.1008,-3.1648 -3.44,-1.8576 -1.72,-1.72 -1.4448,-2.2016 -0.4816,-3.2336 0.0688,-3.3712 0.688,-3.0272 0.1376,-1.5824 0.344,-1.4448 1.9952,-5.9856 -0.1376,-6.3296 -1.2384,-3.0272 -2.6144,-4.6784 1.3072,-0.9632 h 1.6512 v -3.0272 l -0.4816,-3.784 -0.7568,-3.5776 -2.2016,-6.0544 -0.2064,-5.7104 0.2752,-2.2016 0.0688,-2.3392 0.4128,-0.9632 0.9632,0.1376 5.9168,-1.8576 1.1696,-0.8256 0.6192,-1.5824 -1.376,-5.0912 -1.9264,-1.7888 6.1232,-7.8432 -0.2064,-6.6048 1.2384,-5.9856 3.44,1.1696 3.784,2.2704 3.9216,-0.4816 3.8528,-1.5136 5.9856,-5.7104 5.0912,-7.9808 9.0128,-5.2976 4.6096,-1.4448 1.7888,-1.72 1.5136,-2.6144 1.8576,-2.3392 -0.344,-3.0272 -1.9952,-2.4768 -2.2704,-1.2384 -4.7472,-1.1696 -3.9216,-3.8528 -0.9632,-3.7152 -0.0688,-4.1968 1.4448,-1.9952 11.4896,0.344 1.8576,-0.4128 1.5824,-6.6736 1.2384,-3.44 1.6512,-2.8896 2.2016,-0.9632 2.408,-0.0688 2.3392,0.7568 2.9584,3.7152 2.6144,4.5408 3.6464,2.2016 12.728,0.5504 3.3024,1.8576 2.8208,3.3024 -1.7888,3.8528 -4.472,5.9168 0.688,3.1648 5.3664,4.128 2.9584,6.8112 -5.7104,4.816 0.5504,4.4032 1.9264,3.7152 -0.8256,6.4672 -2.8208,6.4672 5.0912,1.8576 4.6784,3.5776 3.096,6.7424 -1.376,7.2928 -0.688,1.4448 -1.032,0.344 -1.1008,-0.0688 -1.1008,0.8256 -0.4128,2.6144 2.2704,2.2016 0.9632,2.408 1.2384,1.9952 2.5456,0.4816 2.5456,-0.8256 1.1008,-1.032 1.9264,1.6512 0.5504,1.376 0.2752,1.72 0.4816,0.6192 0.688,0.4128 3.9904,1.376 4.3344,0.2064 4.6784,2.5456 6.3984,5.9168 2.2704,1.1008 2.2704,0.2064 2.1328,0.8256 1.7888,2.2704 1.9952,1.9264 6.3296,1.6512 2.1328,-0.9632 3.6464,-4.2656 1.2384,0.344 0.8944,0.6192 0.4816,1.8576 0.7568,1.6512 1.1696,1.7888 1.5136,0.4816 0.9632,-0.5504 0.5504,-1.1696 1.1696,-0.4816 1.1696,-0.1376 2.2016,1.032 1.8576,2.2016 10.32,8.4624 1.72,3.9216 2.2704,-0.2064 6.536,-2.752 2.2016,-0.344 5.9168,4.5408 0.1376,3.3024 1.1696,2.5456 0.9632,0.2752 0.1376,1.032 -3.8528,3.7152 -6.2608,2.6144 -0.6192,2.8896 -0.5504,6.3296 -3.1648,3.784 -4.1968,0.9632 -2.1328,-0.2752 -1.9952,0.2064 -0.8944,3.096 -0.4128,3.44 0.688,3.5776 1.1696,3.2336 -0.2064,3.2336 -3.0272,5.2976 -0.688,0.7568 -9.0816,-0.9632 -3.5776,1.6512 -1.5824,2.2016 -2.8896,6.9488 -1.6512,6.192 -0.2752,6.6048 0.6192,5.504 0.0688,5.3664 -1.72,4.7472 -2.9584,2.1328 -3.44,-1.6512 -3.096,0.8944 -1.032,3.1648 -1.5824,2.4768 -4.5408,1.032 -1.032,2.2016 0.2064,3.2336 1.1696,2.752 3.5776,3.2336 0.6192,2.752 0.4128,4.6096 -7.1552,4.2656 -7.3616,2.752 -3.9904,-0.2064 -3.3024,-2.6832 -0.344,-2.408 -0.8256,-2.1328 -2.064,-1.1008 z" />
    <path
       id="Lesser–Poland"
       class="county_g"
       d="m 363.6768,567.6 -0.344,-4.472 -1.4448,-1.376 -0.7568,-1.376 0.4816,-2.064 1.1008,-2.064 0.2064,-2.6144 -4.2656,-0.7568 -2.3392,-1.1008 -1.9952,-1.8576 -0.9632,-3.0272 -1.2384,-2.2704 -3.1648,-1.4448 -1.8576,-3.44 -0.1376,-2.9584 -1.376,-1.72 -1.6512,-0.1376 -1.2384,-1.6512 0.688,-3.2336 1.376,-2.8896 1.376,-1.9952 14.792,-16.6496 -2.8896,-4.0592 -3.3024,-3.3024 1.9264,-1.5824 4.1968,0.6192 2.6832,-3.8528 1.7888,-3.5088 1.6512,-2.4768 3.44,1.9952 1.6512,-0.0688 1.5824,-0.344 5.504,-4.2656 3.44,-0.5504 3.5088,0.2752 1.9264,-0.344 7.912,-4.9536 -0.1376,-1.72 -0.4128,-2.1328 h 5.848 l 2.4768,1.3072 2.064,2.2016 5.2976,1.6512 4.7472,3.2336 2.8896,5.6416 1.032,4.5408 1.1008,2.2704 2.8208,3.9904 1.1696,2.4768 4.6096,2.752 8.1872,0.2752 1.8576,-1.9952 0.2752,-1.032 0.7568,-1.2384 1.9952,-0.9632 0.8944,-0.8944 0.2064,-0.4816 0.0688,-1.032 0.2064,-0.4816 0.2752,-0.2064 h 0.5504 l 0.2064,-0.1376 1.3072,-1.3072 0.4128,-1.72 0.344,-0.5504 2.408,2.2704 1.032,-0.4816 0.8256,-0.8944 0.8256,-0.5504 0.9632,0.6192 0.8944,-0.5504 1.72,-0.1376 0.5504,-0.344 0.6192,-0.8256 0.5504,-0.4816 0.6192,-0.2064 4.6096,-0.1376 0.9632,-0.2752 0.688,-0.6192 0.6192,-0.6192 0.5504,-0.5504 2.6144,-1.2384 0.6192,-0.1376 0.8944,0.4128 0.5504,0.688 0.6192,0.5504 1.1008,-0.2752 v -0.1376 l 1.1008,-1.5136 0.4128,-0.344 h 0.344 l 0.2064,-0.2064 0.1376,-0.8256 0.2752,-0.5504 0.7568,-0.344 0.7568,-0.688 0.344,-1.376 0.5504,0.4816 0.4128,0.0688 0.688,-0.5504 0.0688,-0.2752 -0.0688,-0.4816 v -0.4128 l 0.2064,-0.2064 0.8944,0.0688 -0.688,8.1872 -1.8576,4.6784 -2.3392,3.9904 -0.4128,5.504 1.72,14.6544 -0.5504,4.3344 -0.0688,3.7152 0.6192,1.1696 0.4816,1.3072 1.3072,1.5824 1.7888,0.1376 2.3392,1.2384 0.8256,2.8208 -6.192,4.7472 -1.1008,2.408 1.8576,1.72 6.7424,2.8896 3.7152,4.0592 2.2016,6.7424 0.2064,3.3712 -0.344,3.3712 1.1008,7.0176 2.2704,6.3984 0.0688,0.2064 v 0.0688 l -1.1008,0.4816 -0.9632,-0.2752 -2.2704,0.4816 h -1.032 l -6.1232,-1.72 -3.5088,-1.8576 -0.8256,-0.2064 -1.1008,0.7568 -1.9952,2.8896 -1.032,1.032 -1.376,0.2064 -0.9632,-0.6192 -0.8944,-1.032 -1.1008,-0.7568 -0.9632,-0.0688 -2.5456,0.4816 -0.9632,0.4816 -1.2384,1.376 0.7568,0.8944 1.4448,0.8944 0.7568,1.4448 -0.5504,0.8944 -1.1008,0.2064 h -1.376 l -0.9632,0.2064 -1.2384,1.2384 -2.064,3.0272 -1.376,1.1696 -1.4448,0.5504 -1.1696,-0.2064 -0.9632,-0.7568 -1.032,-1.1008 -1.1696,-0.8256 -0.9632,-0.1376 h -1.1008 l -1.376,-0.2064 -1.032,-0.688 -5.504,-6.6736 -0.9632,-0.1376 -2.408,0.344 -1.3072,-0.2064 -0.6192,0.0688 -0.6192,0.344 -0.9632,1.2384 -0.7568,0.688 -1.4448,0.5504 -1.376,-0.344 -5.2976,-2.752 -0.9632,0.2752 v 1.6512 l -3.2336,0.0688 -2.5456,-0.9632 -0.7568,0.0688 -0.6192,0.4816 -0.2064,0.5504 -0.1376,0.8944 -0.344,1.376 -0.4128,1.3072 -0.344,0.4128 -4.816,0.4816 -0.9632,0.4816 -1.3072,1.6512 -0.6192,0.5504 -1.376,-0.1376 -0.2064,-0.1376 -0.344,0.4816 -1.1696,2.6832 -0.344,1.1008 -0.4128,1.1008 -0.8256,0.8944 -0.344,3.3712 -0.6192,2.408 -1.2384,0.8944 -2.064,-0.9632 -3.2336,-3.096 -1.72,-0.8944 -1.9952,0.2752 -1.1696,0.8256 -1.1696,1.2384 -0.8944,0.8944 -1.376,0.5504 -2.8896,-0.2064 -1.5824,-0.6192 -0.8256,-1.1008 0.2752,-1.2384 2.3392,-3.8528 0.2752,-0.2752 0.4128,-0.0688 0.344,-0.2064 0.2064,-0.5504 -0.1376,-0.4128 v -0.0688 l -0.4816,-0.4816 h -0.0688 l -0.0688,-0.2752 -0.8944,-0.6192 -0.2064,-0.344 0.0688,-0.344 0.4816,-0.7568 0.0688,-0.4128 -0.344,-4.6096 -0.344,-1.5824 -0.5504,-1.7888 v -0.0688 l -0.6192,-0.4128 -2.064,0.8256 -1.2384,0.1376 -1.376,-0.1376 -3.5776,-1.2384 0.1376,-1.1008 -0.0688,-1.5136 0.1376,-0.5504 0.2752,-0.6192 h -2.4768 l -1.3072,-0.344 -1.1008,-0.8256 -0.344,-0.688 -0.9632,-3.096 -1.1696,-4.816 -0.7568,-1.9264 -1.4448,-0.9632 -0.4816,-0.5504 -1.032,-1.8576 -0.5504,-0.2064 z" />
    <path
       id="Podlachian"
       class="county_b"
       d="m 596.3584,298.248 h -0.4816 -1.1008 l -1.9952,-0.688 -1.1696,-0.688 -0.8256,0.4816 -0.9632,0.8944 h -0.9632 l -1.032,-0.5504 0.1376,-0.4816 0.344,-1.1008 0.2752,-0.6192 -1.72,-2.064 -1.1696,-0.688 -1.3072,0.688 -0.5504,-2.2704 -1.4448,-1.376 -1.8576,-0.6192 -4.8848,0.688 -9.7008,-1.9952 -3.3024,0.1376 -1.5136,-0.344 -0.7568,-1.2384 -1.032,0.4816 -1.3072,-0.9632 -1.032,-1.5136 -0.4128,-1.1008 0.344,-3.3712 -0.1376,-0.4816 -0.8944,-0.1376 -0.4816,-0.4816 -0.344,-0.8944 -0.2064,-1.3072 0.0688,-0.8944 0.2752,-0.8256 0.2064,-0.8256 -0.1376,-1.032 -0.4816,-0.6192 -1.376,-1.1696 -1.3072,-1.7888 -3.44,-3.7152 0.1376,-2.2704 -0.1376,-3.784 -0.7568,-3.6464 -0.4128,-5.3664 -0.9632,-4.8848 -3.6464,1.032 -3.5088,1.7888 -1.9264,-1.376 -1.5824,-2.2016 0.9632,-5.7104 -3.0272,-2.2704 -3.096,3.3712 -4.7472,0.688 -4.4032,-2.3392 -1.6512,-3.0272 -0.8944,-3.784 -0.8944,-2.5456 -1.5136,-1.5824 -2.408,-1.3072 -1.5824,-2.8896 -0.2752,-2.6144 1.032,-1.8576 -2.8896,-2.2704 -3.44,-0.4816 -3.3024,-1.7888 -2.2704,-4.472 -3.5088,-8.7376 -1.5824,-12.04 -0.9632,-4.0592 -1.4448,-3.44 -0.8256,-3.6464 4.5408,-1.9952 8.944,0.5504 3.9216,-1.376 1.7888,-1.4448 1.9952,-0.8944 4.6784,-0.688 10.8016,-7.3616 6.0544,-6.88 17.3376,-10.8704 3.6464,-3.784 2.1328,-6.1232 2.5456,-4.8848 0.2064,-4.9536 -6.6048,-9.288 -3.1648,-3.096 -0.688,-2.9584 -0.344,-3.1648 -6.2608,-8.4624 5.848,-8.3936 13.9664,-1.9264 4.128,-2.8208 3.5776,-3.784 1.5136,-5.16 -0.1376,-0.8256 0.0688,-0.1376 1.5824,-0.7568 1.3072,0.2064 3.784,1.9264 0.6192,0.0688 1.4448,-0.2752 0.6192,0.1376 0.688,0.688 0.344,0.8256 0.2752,0.8256 0.4128,0.688 0.688,0.4816 2.1328,0.2752 0.4128,0.5504 -0.2064,1.032 -0.4128,1.2384 v 1.1008 l 1.1696,1.5824 h 1.376 l 1.5136,-0.6192 1.2384,-0.2752 1.1696,0.5504 3.8528,3.2336 2.408,1.4448 5.0224,1.9264 1.2384,1.1008 1.1696,0.9632 0.6192,0.9632 1.1008,2.1328 0.5504,0.8256 0.688,0.4816 1.3072,0.344 0.6192,0.344 1.032,1.5136 0.8256,2.1328 0.688,2.408 0.4816,2.2704 0.8944,4.9536 0.0688,2.408 -0.9632,1.6512 -0.7568,0.6192 -0.344,0.4128 -0.2752,0.4816 -0.0688,1.1008 0.2752,0.9632 0.5504,0.8256 0.6192,0.5504 0.4128,0.4128 0.1376,0.5504 v 0.6192 l -0.2752,0.6192 0.0688,3.096 0.6192,2.5456 0.8256,2.4768 0.688,2.6832 0.5504,5.5728 0.688,2.2016 1.5136,2.2016 0.1376,6.536 1.4448,7.2928 5.2976,16.3744 2.9584,6.1232 1.2384,3.3024 2.5456,9.9072 1.1008,2.9584 1.1008,1.5136 0.6192,1.4448 0.4816,1.5136 0.7568,1.6512 1.1008,1.2384 1.1008,0.8256 0.6192,1.2384 -0.1376,2.5456 -0.5504,1.4448 -0.7568,1.3072 -0.6192,1.376 -0.0688,2.064 0.5504,1.7888 1.8576,2.408 0.7568,1.5136 0.0688,0.8256 -0.1376,1.2384 v 0.688 l 0.5504,2.8896 v 0.8256 l -0.2064,0.6192 -0.688,1.376 -0.1376,0.8256 0.0688,1.1008 0.2064,0.6192 0.2064,0.5504 0.2064,0.7568 0.4816,12.5216 0.1376,3.096 -0.8256,4.4032 -2.4768,3.096 -8.3248,5.7104 -10.3888,2.9584 -5.5728,3.2336 -5.504,4.6096 -7.568,11.696 -2.5456,3.096 -1.1008,1.7888 -2.8896,5.9168 0.1376,0.0688 0.4816,0.344 z" />
    <path
       id="Kuyavian-Pomeranian"
       class="county_g"
       d="m 343.656,168.56 5.4352,8.6 1.5136,4.4032 1.9264,3.8528 0.9632,1.1696 1.4448,0.8944 h 1.1696 l 4.816,1.3072 6.6736,4.1968 7.0864,3.096 3.5088,1.032 3.2336,8.256 0.8944,9.632 -2.9584,2.064 -3.2336,-0.344 0.4128,3.784 0.0688,2.2704 0.4816,3.096 -0.2064,2.064 -0.344,1.9952 -0.5504,1.7888 -1.1696,-0.1376 -1.1696,-0.7568 -1.2384,-0.6192 -1.3072,1.3072 -1.1696,1.72 -2.6144,2.2016 -3.0272,-0.344 0.9632,4.1968 -0.344,3.9216 -1.2384,1.376 -0.5504,2.064 0.688,2.1328 1.1008,1.9952 1.7888,4.128 0.0688,3.44 -2.6832,0.688 -4.1968,12.384 -1.72,3.44 -0.2752,4.128 1.2384,1.1008 0.2752,1.8576 -4.6096,7.3616 -0.2752,2.064 -0.4128,1.032 -1.1696,0.344 -1.2384,0.688 -0.7568,0.688 -0.5504,1.4448 -2.408,0.688 -7.7056,0.1376 -1.032,0.6192 -0.4816,0.9632 -0.6192,0.7568 -5.9168,-4.5408 -2.2016,0.344 -6.536,2.752 -2.2704,0.2064 -1.72,-3.9216 -10.32,-8.4624 -1.8576,-2.2016 -2.2016,-1.032 -1.1696,0.1376 -1.1696,0.4816 -0.5504,1.1696 -0.9632,0.5504 -1.5136,-0.4816 -1.1696,-1.7888 -0.7568,-1.6512 -0.4816,-1.8576 -0.8944,-0.6192 -1.2384,-0.344 -3.6464,4.2656 -2.1328,0.9632 -6.3296,-1.6512 -1.9952,-1.9264 -1.7888,-2.2704 -2.1328,-0.8256 -2.2704,-0.2064 -2.2704,-1.1008 -6.3984,-5.9168 -4.6784,-2.5456 -4.3344,-0.2064 -3.9904,-1.376 -0.688,-0.4128 -0.4816,-0.6192 -0.2752,-1.72 -0.5504,-1.376 -1.9264,-1.6512 -1.1008,1.032 -2.5456,0.8256 -2.5456,-0.4816 -1.2384,-1.9952 -0.9632,-2.408 -2.2704,-2.2016 0.4128,-2.6144 1.1008,-0.8256 1.1008,0.0688 1.032,-0.344 0.688,-1.4448 1.376,-7.2928 -3.096,-6.7424 -4.6784,-3.5776 -5.0912,-1.8576 2.8208,-6.4672 0.8256,-6.4672 -1.9264,-3.8528 -0.5504,-4.128 5.7104,-4.816 -2.9584,-6.9488 -5.3664,-4.128 -0.688,-3.3712 4.472,-5.504 1.7888,-4.0592 1.72,-1.032 1.8576,-6.6048 1.5136,-3.3712 1.7888,-2.408 2.2704,-0.2064 8.6688,2.2704 3.9216,-1.5824 v -2.2704 l 0.2752,-1.4448 0.344,-1.376 1.9952,-1.9264 4.2656,-1.5824 2.5456,-4.6784 1.72,-1.3072 7.912,1.5824 10.5952,-1.5824 2.1328,0.1376 1.8576,2.408 2.064,1.9264 11.2144,1.8576 5.2976,3.1648 2.3392,-1.5136 3.6464,-1.3072 5.0912,0.7568 1.1696,0.688 0.8944,1.032 0.9632,0.6192 4.128,4.2656 1.9264,1.2384 3.44,1.376 7.0864,-0.4128 3.3712,-1.5136 z" />
    <path
       id="Łódź"
       class="county_b"
       d="m 382.528,446.856 -6.8112,-3.44 h -6.2608 l -2.064,-0.688 -5.848,-8.944 -3.784,-3.44 -4.1968,-0.8944 -2.1328,1.5824 h -4.9536 l -4.0592,-0.5504 -8.1872,-4.2656 -1.9264,-2.064 -2.2016,-0.688 -1.9264,1.376 -2.064,1.1696 -8.8064,0.2752 -3.1648,1.5824 -4.6784,-3.8528 -1.4448,-2.8208 -1.6512,-2.064 -0.7568,0.4816 -0.5504,1.032 -0.8256,0.688 -4.4032,0.1376 -13.9664,-3.5088 -1.8576,-1.5824 -1.376,-2.5456 -0.4128,-4.6096 -0.6192,-2.752 -3.5776,-3.2336 -1.1696,-2.752 -0.2064,-3.2336 1.032,-2.2016 4.5408,-1.032 1.5824,-2.4768 1.032,-3.1648 3.096,-0.8944 3.44,1.6512 2.9584,-2.1328 1.72,-4.7472 -0.0688,-5.3664 -0.6192,-5.504 0.2752,-6.6048 1.6512,-6.192 2.8896,-6.9488 1.5824,-2.2016 3.5776,-1.6512 9.0816,0.9632 0.688,-0.7568 3.0272,-5.2976 0.2064,-3.2336 -1.1696,-3.2336 -0.688,-3.5776 0.4128,-3.44 0.8944,-3.096 1.9952,-0.2064 2.1328,0.2752 4.1968,-0.9632 3.1648,-3.784 0.5504,-6.3296 0.6192,-2.8896 6.2608,-2.6144 3.8528,-3.7152 -0.1376,-1.032 -0.9632,-0.2752 -1.1696,-2.5456 -0.1376,-3.3024 0.6192,-0.7568 0.4816,-0.9632 1.032,-0.6192 7.7056,-0.1376 2.408,-0.688 0.5504,-1.1696 0.7568,-1.1696 1.2384,-0.2064 1.1696,0.0688 6.0544,4.128 6.536,1.376 3.2336,1.5136 5.7792,4.6784 12.9344,-2.6832 1.9952,-2.064 2.3392,-0.2064 1.72,2.2016 1.4448,2.6144 1.9952,1.032 2.2016,0.6192 1.72,1.2384 0.8256,2.6144 0.2064,3.5088 1.2384,2.8896 0.8944,0.4816 0.9632,-0.2752 4.3344,1.72 2.408,1.6512 0.8944,1.1008 -0.688,5.0912 -2.064,1.2384 0.4816,2.1328 1.72,1.9264 1.4448,2.2016 -0.1376,1.9264 0.5504,1.6512 2.2704,0.7568 6.6048,-0.8256 4.128,1.9264 4.5408,3.5088 3.6464,4.9536 0.4128,1.6512 -0.5504,1.1696 -0.6192,0.8944 -0.344,1.3072 0.6192,2.6144 3.3024,5.848 0.9632,0.344 -0.1376,2.752 -0.8256,1.376 -4.5408,-0.688 -3.7152,-2.064 h -4.8848 l -1.5824,5.16 1.8576,5.16 0.6192,2.752 0.2064,3.44 0.4816,1.376 2.2704,1.376 0.8256,0.688 v 3.44 l -1.032,2.752 -3.9904,6.536 H 424.84 l 0.2064,3.096 -1.7888,1.376 -2.2704,5.4352 -2.064,0.9632 -2.064,0.344 -1.9952,0.8256 -4.3344,4.128 -1.9952,0.688 -6.9488,-0.688 -1.9264,0.688 -1.5136,2.064 -1.5824,5.7104 2.8896,4.6096 1.9264,1.376 0.5504,3.2336 -0.4816,2.9584 -1.376,2.064 -8.256,-6.192 -2.2016,0.688 -0.8256,2.9584 -0.0688,3.1648 0.2752,3.096 -1.032,3.1648 -2.2016,1.2384 -1.7888,1.72 -1.4448,2.408 z" />
    <path
       id="Lower–Silesian"
       class="county_b"
       d="m 82.904,387.688 1.1696,-0.688 9.976,-4.816 h 1.7888 l 3.6464,2.752 1.8576,3.784 3.1648,-6.88 2.064,-4.472 4.5408,-1.376 8.8064,4.816 4.4032,-1.376 6.9488,-8.944 6.1232,-12.1776 1.3072,-1.032 2.2016,-0.688 1.9264,-1.9264 0.8944,-2.6144 1.2384,-1.72 9.4256,1.7888 1.72,1.7888 0.2064,3.5088 3.44,4.4032 4.9536,-1.1008 3.784,-3.3024 3.096,-4.9536 5.4352,-1.1008 2.5456,0.688 7.0176,3.8528 1.1008,2.5456 0.2064,3.2336 2.6832,4.816 6.0544,3.3712 3.44,3.784 7.1552,2.5456 12.9344,-2.2704 2.3392,-5.3664 2.6144,-0.5504 7.3616,0.0688 6.88,1.8576 6.192,4.0592 -0.6192,2.8896 -0.8256,2.4768 -1.5136,0.9632 -0.8944,2.1328 0.344,4.3344 1.5136,3.7152 3.6464,0.8256 3.8528,-0.7568 2.3392,0.688 2.2704,1.7888 -1.7888,4.1968 0.7568,10.2512 0.8256,4.9536 -2.1328,1.2384 -2.1328,0.5504 -2.1328,-0.1376 -2.064,0.688 -1.5824,1.72 -3.6464,8.3936 -0.688,2.408 -0.4128,2.6144 -0.9632,2.9584 -1.9952,1.376 -2.9584,3.8528 -2.2704,5.16 -5.16,7.7056 -4.472,8.6 -1.4448,5.504 -2.2704,3.8528 -3.784,0.6192 -3.2336,2.5456 -4.5408,11.2144 -0.2752,1.1696 -1.72,-1.032 -1.4448,-0.2064 -1.2384,0.8256 -0.4816,0.2064 v 1.1008 0.2752 l 0.4128,0.5504 0.1376,0.2064 0.1376,0.2064 1.376,1.9952 0.688,1.7888 0.4816,2.1328 0.5504,1.8576 1.1696,1.2384 1.5824,0.8944 1.1008,1.2384 0.688,1.72 0.0688,2.408 0.8256,1.032 0.0688,0.9632 0.0688,0.344 -0.4128,0.8256 -0.7568,-0.2752 -0.2752,-0.4128 -0.2752,-0.4128 -0.1376,-0.1376 -0.0688,-0.2064 -0.2064,-0.4128 -0.4128,-0.2752 h -0.8944 l -0.1376,0.2752 v 1.1696 l -0.1376,0.344 -0.6192,0.0688 -1.1008,-0.4128 h -0.5504 l -0.7568,0.5504 -1.032,1.4448 -0.6192,0.4816 -0.688,0.2064 -0.4816,0.1376 -0.2752,0.0688 -1.2384,-0.1376 -1.2384,0.2064 -1.2384,1.032 -0.1376,0.1376 -0.0688,0.0688 -0.2064,0.2752 -0.8944,1.376 -0.688,1.376 -0.344,0.4816 -0.0688,0.1376 -0.2752,0.344 -0.0688,0.0688 -1.376,1.032 -0.2064,0.2752 -0.2064,0.2752 -1.1696,1.5824 -0.0688,0.0688 -0.2064,0.344 -0.0688,0.0688 -2.5456,0.2064 -2.6144,-1.376 -2.1328,-1.9952 -1.1008,-1.4448 -0.4128,-0.8256 -0.2064,-0.4128 -0.688,-3.3024 -0.688,-1.8576 -1.8576,-1.9264 -0.8256,-1.4448 -0.8944,-1.2384 -1.5824,-2.8896 -0.8944,-1.3072 -1.376,-0.9632 -2.8208,-1.032 -1.1008,-1.4448 -0.1376,-0.8944 0.0688,-0.8944 -0.0688,-0.8944 -0.4128,-0.8944 -0.6192,-0.2064 h -2.8208 l -0.2064,0.0688 -0.344,0.1376 -0.2064,0.0688 -0.4128,0.344 -0.4816,0.1376 -0.8256,-0.688 -0.2752,-0.5504 -0.8256,-2.4768 -1.9952,-0.4128 -0.6192,-1.72 0.4128,-1.2384 v -0.2752 l -0.0688,-0.2064 v -0.2064 h 0.1376 l 0.344,-0.0688 -0.0688,-0.2752 v -0.1376 h 0.4816 l 0.1376,-0.0688 -0.0688,-0.2064 h 0.4128 l 0.344,-0.2752 0.2064,-0.1376 0.344,-0.1376 0.9632,-0.7568 1.1008,-0.688 0.9632,-0.8256 0.1376,-0.2752 0.344,-0.9632 0.9632,-0.344 0.4816,0.1376 1.5136,0.4128 1.1008,-0.2064 0.4128,-0.6192 0.0688,-0.0688 0.0688,-0.1376 0.2752,-0.2752 h 0.0688 l 0.9632,-0.9632 0.5504,-0.7568 h -0.2064 v -0.1376 -0.4128 l 0.0688,-0.7568 0.1376,-0.4816 0.2752,-0.5504 0.1376,-0.2752 v -0.344 l -0.2064,-0.7568 0.6192,-0.2752 1.3072,-0.5504 v -0.1376 l -0.5504,-1.72 -5.2976,-5.6416 -1.9264,-1.1008 -2.064,-0.4816 -2.2704,-0.0688 -0.2752,0.0688 -0.4816,0.0688 -0.4816,1.032 -0.4816,1.2384 -0.2064,0.2752 -0.344,0.4816 -0.2064,0.2064 -1.032,0.2064 -0.9632,-0.4128 -1.9264,-1.5136 -2.6832,-0.2752 -1.2384,1.2384 -0.1376,0.1376 -0.2752,0.2752 -2.1328,2.064 -0.0688,0.0688 -2.6832,0.4816 -0.0688,-0.344 -0.0688,-0.2752 0.0688,-0.344 0.0688,-0.2752 0.5504,-0.4128 0.0688,-0.1376 0.2752,-0.2064 0.0688,-0.1376 0.1376,-1.032 -0.1376,-0.4128 -0.2064,-0.9632 -0.5504,-1.3072 -0.8256,-1.5824 -0.8256,-0.7568 -1.032,-0.2064 -1.3072,0.5504 -0.4816,0.1376 -1.2384,0.4816 -0.2064,0.0688 -0.4816,0.2064 h -0.2064 -0.4128 -1.1008 l -0.4128,-0.1376 -3.1648,-5.3664 -0.2064,-0.6192 -0.1376,-0.6192 -1.1008,-0.1376 -0.4128,-0.0688 -0.0688,0.0688 -1.7888,0.4128 -0.8256,0.2064 -2.5456,0.6192 -0.6192,-0.2064 -0.4816,-0.4816 -0.8256,-1.2384 -0.688,-0.4816 -6.6048,-2.3392 -0.8944,-0.2752 -0.2064,-0.0688 -0.2752,-0.1376 -1.4448,-0.4816 -0.4128,-0.1376 -0.4128,-0.1376 -2.2704,-0.8256 -1.3072,0.1376 -1.2384,0.0688 -0.6192,0.7568 -0.6192,1.032 -0.0688,0.0688 -0.6192,0.688 -0.0688,-0.0688 -0.7568,-0.2064 -0.4128,-0.8256 v -0.9632 l 0.2064,-0.9632 v -0.9632 l -0.7568,-1.8576 -0.9632,-0.8256 -1.1008,-0.4816 -1.2384,-0.9632 -0.688,-1.1008 -0.7568,-1.6512 -0.5504,-1.72 -0.2064,-1.4448 0.4128,-1.7888 0.5504,-1.032 0.0688,-0.9632 -0.9632,-1.6512 -1.6512,-0.8256 -3.5776,-0.0688 -0.6192,-1.4448 -0.2752,-1.5136 -0.7568,-0.344 -0.1376,0.1376 -0.4128,0.2752 -0.2064,0.1376 -0.5504,1.3072 -0.2064,1.032 -0.7568,0.1376 -0.8256,-0.4128 -0.7568,-0.7568 -0.5504,-0.9632 -3.1648,-0.688 -0.8256,-0.8256 H 86.344 v 0.4816 h -0.2752 v 0.0688 l -0.344,0.4128 -0.8944,0.688 -0.2064,0.0688 h -0.1376 l -0.344,0.2064 -0.344,0.2064 -0.2752,0.344 0.2752,1.1696 1.032,0.7568 0.8944,1.376 0.0688,2.8208 v 0.0688 l -0.1376,0.5504 -0.4128,0.4128 -0.2064,0.2752 -0.2064,0.344 -0.0688,0.5504 0.0688,0.344 0.0688,0.2752 0.0688,3.0272 v 0.4128 l -0.1376,0.8944 -7.0864,-0.5504 -2.2704,0.6192 H 74.648 l -0.5504,-0.0688 0.0688,-1.7888 0.8256,-1.5136 2.2704,-2.4768 3.096,-7.4992 2.8208,-7.0864 0.2064,-1.1008 V 417.96 l 0.0688,-0.9632 0.344,-0.688 0.4816,-0.4816 0.4128,-0.688 0.1376,-1.2384 0.0688,-2.5456 0.5504,-2.752 0.8256,-2.6832 1.032,-2.1328 -0.2064,-0.2752 -0.2752,-0.2752 0.344,-2.8896 -0.8944,-1.9952 -1.4448,-1.6512 -1.1008,-1.9952 -0.2064,-0.688 -0.2752,-1.8576 v -0.0688 l -0.344,-4.2656 z" />
    <path
       id="Opole"
       class="county_g"
       d="m 314.1408,427.592 -2.1328,7.568 -0.7568,1.376 -0.4816,1.376 0.4128,2.064 0.8256,2.064 -0.4816,3.44 -4.8848,3.44 -1.6512,3.44 -1.1008,6.192 -1.5136,4.128 1.2384,3.44 1.6512,2.064 1.9952,1.7888 1.9952,2.1328 0.7568,3.6464 -9.0816,-0.2064 -1.8576,0.2064 -0.8256,2.408 0.688,1.72 -0.0688,2.064 -1.376,0.688 h -1.376 l -0.5504,2.064 1.032,12.384 -0.0688,4.816 -0.6192,3.784 -6.0544,2.408 -3.784,2.752 -7.8432,1.376 -3.7152,7.568 v 0 0 l -0.0688,1.376 -0.7568,-0.1376 -0.2752,0.1376 0.2752,1.9952 0.344,0.1376 0.4816,-0.1376 h 0.5504 l 0.4128,0.688 0.0688,0.9632 -0.2752,0.4128 -0.1376,0.0688 -1.9264,0.5504 -2.4768,0.0688 -0.4128,0.1376 -0.7568,0.1376 -1.5824,1.5136 -0.2064,0.1376 -2.2704,0.688 -2.2704,-0.4816 -4.0592,-3.9904 -0.688,-0.9632 -0.4816,-1.1696 -0.344,-1.2384 -0.4816,-1.032 -0.688,-0.8256 -0.5504,-0.6192 -0.2064,-0.5504 0.2064,-0.5504 0.5504,-0.4816 0.0688,-0.0688 v -0.0688 -0.0688 l -0.0688,-0.1376 -0.8256,-0.2064 -1.72,-0.8256 -0.8256,-0.2064 -0.688,0.1376 -0.4816,0.344 -0.688,0.0688 -0.9632,-0.4128 -3.0272,-3.8528 -0.1376,-0.688 0.4816,-1.032 0.2752,-0.1376 0.4128,-0.2064 h 0.6192 l 2.408,-0.0688 1.6512,-0.688 0.8944,-0.5504 1.1008,-0.6192 0.688,-0.4128 0.8944,-0.8256 0.344,-0.2752 0.5504,-1.4448 -0.9632,-1.8576 -0.6192,-0.6192 -0.1376,-1.032 0.0688,-0.8944 0.688,-1.7888 0.1376,-0.344 0.0688,-0.2752 v -0.2752 l -0.2064,-0.2064 -1.1008,-1.5136 -0.344,-0.344 -1.1008,-0.4128 -0.2752,0.1376 -0.1376,0.1376 -0.1376,0.688 -0.344,0.7568 -0.9632,1.376 h -0.0688 l -0.2752,0.4128 -0.1376,0.2064 -0.2064,0.2752 -0.2064,0.2752 -1.1008,0.8944 -1.4448,0.4128 -4.816,-0.8944 h -0.0688 l -0.688,-0.1376 -2.8208,0.2752 h -0.1376 l -1.1008,1.376 -0.7568,0.8944 -0.2752,0.2064 -0.344,0.0688 -0.344,-0.0688 -0.344,-0.2064 -0.2064,-0.7568 -0.344,-1.1008 -1.376,-1.1008 -1.376,0.1376 -0.344,0.8256 -0.1376,0.4816 -0.2064,0.4816 -0.8256,-0.6192 -0.4128,-1.032 -0.1376,-1.2384 0.0688,-1.2384 -0.2752,-0.2752 -0.2752,-0.2752 -0.2064,-0.344 -0.1376,-0.344 0.8256,-0.344 h -0.2064 v -0.344 l -0.7568,-0.344 -2.9584,0.0688 -1.5136,-0.4128 -2.2016,-1.376 -0.5504,-0.688 -0.4128,-0.8256 -0.4128,-1.3072 v -0.1376 l -0.2064,-0.8944 0.1376,-0.2752 -0.688,-0.2064 -1.9264,0.344 h -0.8256 l -0.8256,-0.4128 -1.4448,-1.2384 -0.688,-0.4128 -6.3984,-1.7888 -1.4448,0.1376 -0.9632,-0.5504 0.2752,-1.1696 4.5408,-11.2144 3.2336,-2.5456 3.784,-0.6192 2.2704,-3.8528 1.4448,-5.504 4.472,-8.6 5.16,-7.7056 2.2704,-5.16 2.9584,-3.8528 1.9952,-1.376 0.9632,-2.9584 0.4128,-2.6144 0.688,-2.408 3.6464,-8.3936 1.5824,-1.72 2.064,-0.688 2.1328,0.1376 2.1328,-0.5504 2.1328,-1.2384 2.1328,-0.1376 2.064,1.1008 0.8256,2.1328 0.344,2.408 3.3024,2.6832 3.9904,0.2064 7.3616,-2.752 7.1552,-4.2656 1.376,2.5456 1.8576,1.4448 13.9664,3.6464 4.4032,-0.1376 0.8256,-0.688 0.5504,-1.032 0.7568,-0.4816 1.6512,2.064 1.4448,2.8208 4.6784,3.8528 z" />
    <path
       id="Subcarpathian"
       class="county_b"
       d="m 492.608,581.704 v 0 h -0.0688 l -2.2704,-6.6048 -1.1008,-7.1552 0.344,-3.2336 -0.2064,-3.3712 -2.2016,-6.7424 -3.7152,-4.0592 -6.7424,-2.8896 -1.8576,-1.72 1.1008,-2.408 6.192,-4.7472 -0.8256,-2.8208 -2.3392,-1.2384 -1.7888,-0.1376 -1.3072,-1.5824 -0.4816,-1.3072 -0.6192,-1.1696 0.0688,-3.7152 0.5504,-4.3344 -1.72,-14.6544 0.4128,-5.504 2.3392,-3.9904 1.8576,-4.6784 0.688,-8.1872 0.2752,-0.0688 3.784,-3.3712 1.1696,0.5504 1.5824,-0.344 1.6512,-0.9632 1.1696,-1.2384 -0.6192,-1.5824 -0.2752,-0.4128 5.9856,-2.6832 3.9904,-1.032 1.1696,-0.9632 1.9264,-2.3392 0.7568,-1.5136 0.344,-1.9264 0.4128,-1.5136 2.9584,-3.5088 1.7888,-3.0272 1.1008,-0.7568 1.6512,-0.2752 1.1008,-0.6192 0.9632,-1.4448 0.7568,-1.7888 0.4128,-1.5136 0.5504,-3.9216 -0.1376,-3.6464 -0.1376,-1.3072 8.1872,5.5728 4.6784,0.2752 4.128,-2.8896 2.4768,-0.1376 2.408,0.8944 2.2016,1.376 1.9952,1.7888 -0.8944,2.4768 -2.8208,5.3664 1.1696,2.064 14.5168,3.7152 9.8384,5.2976 0.6192,0.8944 -0.0688,1.3072 0.1376,1.376 1.4448,2.752 0.7568,2.408 -1.72,0.9632 -1.9264,-0.2064 -1.9952,0.6192 -1.5136,2.064 -1.032,2.064 0.4128,2.408 1.6512,2.4768 2.2016,1.032 8.6688,-1.72 1.6512,1.1696 -0.9632,0.5504 -2.1328,0.5504 0.6192,1.4448 8.5312,2.408 14.0352,0.4816 4.7472,-1.032 4.0592,-3.2336 5.0912,-5.848 1.6512,-0.7568 3.5776,-0.344 4.6096,0.5504 3.9216,2.4768 1.9952,3.0272 6.2608,3.7152 h 0.0688 l -0.0688,0.1376 v 0.0688 l -0.1376,0.0688 -0.4816,0.1376 -0.4128,0.2064 h -0.1376 l -0.0688,0.344 -0.1376,0.4128 -0.1376,0.4128 -0.0688,0.0688 -0.0688,0.2752 v 0.0688 h -0.0688 l -0.4128,0.2064 -0.2752,0.0688 -0.2064,0.1376 -0.2064,0.0688 h -0.0688 l -0.1376,0.2752 -0.1376,0.2064 -0.0688,0.1376 -0.0688,0.1376 -0.0688,0.0688 -0.0688,0.1376 -0.2752,0.5504 -0.1376,0.1376 -0.0688,0.1376 -0.4128,0.688 -0.0688,0.0688 -0.9632,1.1008 -0.1376,0.0688 -0.688,0.4128 v 0.0688 l -0.2064,0.1376 -0.1376,0.1376 -0.2752,0.1376 -0.1376,0.1376 -0.5504,0.4128 -0.4128,0.2752 v 0.0688 h -0.0688 l -0.0688,0.0688 -0.0688,0.0688 -0.2064,0.1376 -0.1376,0.1376 -0.0688,0.0688 -0.2752,0.2752 h -0.0688 l -0.1376,0.1376 -0.2064,0.2064 -0.2064,0.1376 -0.0688,0.0688 h -0.0688 l -0.2752,0.1376 -0.2064,0.1376 -0.344,0.2064 h -0.0688 l -0.1376,0.1376 -0.2064,0.0688 -0.4816,0.2752 -0.2752,0.1376 -0.0688,0.0688 h -0.0688 l -0.344,0.4128 -0.6192,0.8256 -0.2064,0.2064 -0.0688,0.1376 -0.2064,0.2752 -0.688,0.5504 -1.9264,2.1328 -0.2064,0.0688 -0.344,0.2752 -0.1376,0.1376 -0.344,0.2752 -0.4128,0.2752 -0.1376,0.1376 -0.0688,0.0688 -0.1376,0.1376 v 0.0688 l -0.4816,0.4128 -0.1376,0.1376 -0.0688,0.1376 -0.1376,0.1376 -0.1376,0.2064 -0.1376,0.1376 -0.4128,0.4128 -0.2064,0.1376 -0.1376,0.2064 -0.0688,0.0688 -0.2752,0.2752 -0.2064,0.2752 -0.2752,0.2752 -0.2752,0.344 -0.1376,0.2064 -0.2752,0.2752 -0.1376,0.1376 -0.2064,0.2752 -0.0688,0.1376 -0.1376,0.1376 -0.344,0.0688 v 0.0688 l -0.2752,0.1376 -0.344,0.2064 -0.0688,0.1376 -0.0688,0.2752 -0.0688,0.0688 -0.4816,0.2064 -0.0688,0.0688 h -0.1376 -0.0688 l -0.2064,-0.1376 -0.0688,0.0688 0.0688,0.2064 v 0.2752 0.2064 0.2064 0.2752 0.1376 l -0.1376,0.0688 -0.2064,0.2064 -0.2752,0.2064 -0.2064,0.2064 -0.1376,0.0688 -0.1376,0.2064 -0.2064,0.2752 -0.2064,0.344 -0.1376,0.2752 -0.2064,0.2752 -0.2064,0.344 -0.1376,0.1376 -0.5504,0.6192 -0.1376,0.0688 -0.4128,0.2064 -0.4816,0.2064 -0.2064,0.0688 -0.0688,0.5504 v 0.344 l -0.4128,0.4128 -1.8576,2.9584 -2.3392,1.7888 -2.4768,2.752 -6.7424,9.9072 -2.6144,2.752 -0.344,0.7568 -0.4816,1.9264 -0.2064,0.4816 -0.1376,0.0688 -0.2064,0.2752 -0.2752,0.344 -0.0688,0.1376 -1.032,0.344 -0.5504,0.4128 -0.6192,0.688 -3.8528,7.0176 -0.2064,0.2064 -0.0688,0.0688 h -0.0688 l -0.4128,0.0688 -0.4128,0.0688 h -0.1376 l -0.0688,0.0688 -0.5504,0.7568 -0.1376,0.2064 -1.032,0.2064 -0.688,0.6192 -0.4128,0.8256 -1.1008,3.0272 -4.7472,6.3984 -1.5136,3.5776 h -0.0688 v 0.0688 l 0.0688,0.0688 0.0688,0.1376 0.0688,0.1376 0.0688,0.2752 v 0.0688 l 0.0688,0.2064 0.1376,0.4128 v 0.1376 l 0.0688,0.2064 0.1376,0.4128 0.0688,0.0688 0.4816,1.376 0.4128,1.4448 0.4128,4.0592 0.2064,1.1008 0.1376,0.5504 0.8256,1.2384 1.376,1.4448 0.344,0.7568 0.2752,1.5136 0.8256,8.7376 -0.2064,1.4448 -0.688,1.7888 -0.1376,0.0688 -0.1376,0.2064 -0.1376,0.344 v 0.2064 l -0.0688,0.2752 -0.0688,0.344 0.0688,0.0688 -0.7568,2.9584 -1.032,2.064 -0.344,1.1696 0.4128,0.4816 0.2752,-0.1376 0.8256,-1.1008 0.9632,0.7568 h -0.0688 l -0.2064,0.0688 1.9952,1.4448 1.8576,2.408 1.1696,0.8256 2.752,1.5824 0.7568,0.9632 v 0.8256 l -0.5504,1.8576 -0.0688,1.3072 0.2752,0.8944 1.032,1.72 0.0688,0.2064 0.0688,0.344 -0.344,0.688 -0.344,0.8256 -1.2384,-0.5504 -1.4448,-1.2384 -1.1008,-0.6192 -0.688,-0.2064 -1.1696,-1.6512 -0.5504,-0.4816 -0.0688,-0.0688 -0.4128,-0.0688 -0.2064,-0.0688 h -0.0688 v 0.0688 l -1.376,0.4128 -1.9952,-0.2064 h -0.2752 l -0.7568,0.0688 -0.5504,0.0688 -1.376,-0.1376 -1.5136,-1.1008 -2.3392,-2.5456 -0.9632,-0.344 -0.2752,-0.0688 -1.3072,1.2384 -2.2016,-1.032 -4.8848,-0.2064 -2.2704,-0.688 -3.1648,-3.2336 -1.3072,-0.4816 -3.5088,0.1376 -2.8896,-0.9632 -0.4816,-0.344 -0.1376,-0.6192 0.2064,-0.6192 -0.0688,-0.688 -0.688,-0.7568 -0.4816,-0.0688 -1.5136,0.1376 h -0.6192 l -0.688,-0.344 -2.064,-1.3072 -4.4032,-0.8256 -1.7888,-1.3072 -0.4128,-3.0272 -0.7568,-3.3712 -1.7888,-2.9584 -2.2704,-2.1328 -3.3712,-1.6512 -2.2704,-2.1328 -1.1696,-0.6192 -1.2384,0.2064 -1.1008,0.9632 -0.8944,1.1008 -0.6192,0.4128 -0.9632,-0.7568 -2.1328,-3.2336 -1.032,-1.1008 -0.6192,-0.2064 -0.9632,0.2064 h -0.4816 l -0.6192,-0.4816 -1.1696,-1.1008 -0.6192,-0.4816 -1.1696,-0.2752 -4.472,0.4816 -0.9632,0.4128 z" />
  </g>
  <desc
     id="desc16">Created with Raphaël 2.1.0</desc>
  <g
     id="textgroup">
    <text
       style="font-style:normal;font-variant:normal;font-weight:bold;font-stretch:normal;font-size:11.008px;line-height:normal;font-family:Arial;text-anchor:middle;opacity:1"
       x="165.11995"
       y="433.44003"
       text-anchor="middle"
       font="10px &quot;Arial&quot;"
       stroke-width="0"
       font-size="16px"
       font-weight="bold"
       font-family="Arial"
       opacity="1"
       class="sm_label sm_label_PLDS"
       id="text16"><tspan
         dy="3.898658"
         id="tspan16"
         style="stroke-width:0">Lower Silesian</tspan></text>
    <text
       style="font-style:normal;font-variant:normal;font-weight:bold;font-stretch:normal;font-size:11.008px;line-height:normal;font-family:Arial;text-anchor:middle;opacity:1"
       x="305.81601"
       y="225.31996"
       text-anchor="middle"
       font="10px &quot;Arial&quot;"
       stroke-width="0"
       font-size="16px"
       font-weight="bold"
       font-family="Arial"
       opacity="1"
       class="sm_label sm_label_PLKP"
       id="text17"><tspan
         dy="3.6833436"
         id="tspan17"
         style="stroke-width:0">Kuyavian-Pomeranian</tspan></text>
    <text
       style="font-style:normal;font-variant:normal;font-weight:bold;font-stretch:normal;font-size:11.008px;line-height:normal;font-family:Arial;text-anchor:middle;opacity:1"
       x="101.20801"
       y="300.65604"
       text-anchor="middle"
       font="10px &quot;Arial&quot;"
       stroke-width="0"
       font-size="16px"
       font-weight="bold"
       font-family="Arial"
       opacity="1"
       class="sm_label sm_label_PLLB"
       id="text18"><tspan
         dy="3.8986557"
         id="tspan18"
         style="stroke-width:0">Lubusz</tspan></text>
    <text
       style="font-style:normal;font-variant:normal;font-weight:bold;font-stretch:normal;font-size:11.008px;line-height:normal;font-family:Arial;text-anchor:middle;opacity:1"
       x="358.44803"
       y="369.79999"
       text-anchor="middle"
       font="10px &quot;Arial&quot;"
       stroke-width="0"
       font-size="16px"
       font-weight="bold"
       font-family="Arial"
       opacity="1"
       class="sm_label sm_label_PLLD"
       id="text19"><tspan
         dy="3.8986683"
         id="tspan19"
         style="stroke-width:0">Łódź</tspan></text>
    <text
       style="font-style:normal;font-variant:normal;font-weight:bold;font-stretch:normal;font-size:11.008px;line-height:normal;font-family:Arial;text-anchor:middle;opacity:1"
       x="578.60797"
       y="396.28802"
       text-anchor="middle"
       font="10px &quot;Arial&quot;"
       stroke-width="0"
       font-size="16px"
       font-weight="bold"
       font-family="Arial"
       opacity="1"
       class="sm_label sm_label_PLLU"
       id="text20"><tspan
         dy="3.8986635"
         id="tspan20"
         style="stroke-width:0">Lublin</tspan></text>
    <text
       style="font-style:normal;font-variant:normal;font-weight:bold;font-stretch:normal;font-size:11.008px;line-height:normal;font-family:Arial;text-anchor:middle;opacity:1"
       x="417.616"
       y="541.45599"
       text-anchor="middle"
       font="10px &quot;Arial&quot;"
       stroke-width="0"
       font-size="16px"
       font-weight="bold"
       font-family="Arial"
       opacity="1"
       class="sm_label sm_label_PLMA"
       id="text21"><tspan
         dy="4.0000415"
         id="tspan21"
         style="stroke-width:0">Lesser Poland</tspan></text>
    <text
       style="font-style:normal;font-variant:normal;font-weight:bold;font-stretch:normal;font-size:10.92px;line-height:normal;font-family:Arial;text-anchor:middle;opacity:1"
       x="468.12341"
       y="290.37305"
       text-anchor="middle"
       font="10px &quot;Arial&quot;"
       stroke-width="0"
       font-size="16px"
       font-weight="bold"
       font-family="Arial"
       opacity="1"
       class="sm_label sm_label_PLMZ"
       id="text22"><tspan
         dy="4.0000038"
         id="tspan22"
         style="stroke-width:0">Masovian</tspan></text>
    <text
       style="font-style:normal;font-variant:normal;font-weight:bold;font-stretch:normal;font-size:11.008px;line-height:normal;font-family:Arial;text-anchor:middle;opacity:1"
       x="260.75198"
       y="470.24802"
       text-anchor="middle"
       font="10px &quot;Arial&quot;"
       stroke-width="0"
       font-size="16px"
       font-weight="bold"
       font-family="Arial"
       opacity="1"
       class="sm_label sm_label_PLOP"
       id="text23"><tspan
         dy="3.8986695"
         id="tspan23"
         style="stroke-width:0">Opole</tspan></text>
    <text
       style="font-style:normal;font-variant:normal;font-weight:bold;font-stretch:normal;font-size:11.008px;line-height:normal;font-family:Arial;text-anchor:middle;opacity:1"
       x="575.73761"
       y="200.132"
       text-anchor="middle"
       font="10px &quot;Arial&quot;"
       stroke-width="0"
       font-size="16px"
       font-weight="bold"
       font-family="Arial"
       opacity="1"
       class="sm_label sm_label_PLPD"
       id="text24"><tspan
         dy="4.0000129"
         id="tspan24"
         style="stroke-width:0">Podlachian</tspan></text>
    <text
       style="text-anchor: middle; font: bold 16px Arial; cursor: pointer; opacity: 1; display: none;"
       x="550.0559999999999"
       y="533.1999999999999"
       text-anchor="middle"
       font="10px &quot;Arial&quot;"
       stroke-width="0"
       font-size="16px"
       font-weight="bold"
       font-family="Arial"
       opacity="1"
       transform="matrix(0.688,0,0,0.688,171.6175,166.3584)"
       class="sm_label sm_label_PLPK"
       id="text25"><tspan
         dy="5.559633445739678"
         id="tspan25">Subcarpathian</tspan></text>
    <text
       style="font-style:normal;font-variant:normal;font-weight:bold;font-stretch:normal;font-size:11.008px;line-height:normal;font-family:Arial;text-anchor:middle;opacity:1"
       x="290.33597"
       y="104.57599"
       text-anchor="middle"
       font="10px &quot;Arial&quot;"
       stroke-width="0"
       font-size="16px"
       font-weight="bold"
       font-family="Arial"
       opacity="1"
       class="sm_label sm_label_PLPM"
       id="text26"><tspan
         dy="4.0000191"
         id="tspan26"
         style="stroke-width:0">Pomeranian</tspan></text>
    <text
       style="font-style:normal;font-variant:normal;font-weight:bold;font-stretch:normal;font-size:11.008px;line-height:normal;font-family:Arial;text-anchor:middle;opacity:1"
       x="447.54398"
       y="453.392"
       text-anchor="middle"
       font="10px &quot;Arial&quot;"
       stroke-width="0"
       font-size="16px"
       font-weight="bold"
       font-family="Arial"
       opacity="1"
       class="sm_label sm_label_PLSK"
       id="text27"><tspan
         dy="3.6833501"
         id="tspan27"
         style="stroke-width:0">Świętokrzyskie</tspan></text>
    <text
       style="font-style:normal;font-variant:normal;font-weight:bold;font-stretch:normal;font-size:11.008px;line-height:normal;font-family:Arial;text-anchor:middle;opacity:1"
       y="504.30396"
       text-anchor="middle"
       font="10px &quot;Arial&quot;"
       stroke-width="0"
       font-size="16px"
       font-weight="bold"
       font-family="Arial"
       opacity="1"
       class="sm_label sm_label_PLSL"
       x="325.07999"
       id="text28"><tspan
         dy="3.8986695"
         id="tspan28"
         style="stroke-width:0">Silesian</tspan></text>
    <text
       style="font-style:normal;font-variant:normal;font-weight:bold;font-stretch:normal;font-size:11.008px;line-height:normal;font-family:Arial;text-anchor:middle;opacity:1"
       x="458.55197"
       y="143.79201"
       text-anchor="middle"
       font="10px &quot;Arial&quot;"
       stroke-width="0"
       font-size="16px"
       font-weight="bold"
       font-family="Arial"
       opacity="1"
       class="sm_label sm_label_PLWN"
       id="text29"><tspan
         dy="4.000011"
         id="tspan29"
         style="stroke-width:0">Warmian-Masurian</tspan></text>
    <text
       style="font-style:normal;font-variant:normal;font-weight:bold;font-stretch:normal;font-size:11.008px;line-height:normal;font-family:Arial;text-anchor:middle;opacity:1"
       x="219.08005"
       y="301.71198"
       text-anchor="middle"
       font="10px &quot;Arial&quot;"
       stroke-width="0"
       font-size="16px"
       font-weight="bold"
       font-family="Arial"
       opacity="1"
       class="sm_label sm_label_PLWP"
       id="text30"><tspan
         dy="4.0000124"
         id="tspan30"
         style="stroke-width:0">Greater Poland</tspan></text>
    <text
       style="font-style:normal;font-variant:normal;font-weight:bold;font-stretch:normal;font-size:11.008px;line-height:normal;font-family:Arial;text-anchor:middle;opacity:1"
       x="123.15198"
       y="162.02402"
       text-anchor="middle"
       font="10px &quot;Arial&quot;"
       stroke-width="0"
       font-size="16px"
       font-weight="bold"
       font-family="Arial"
       opacity="1"
       class="sm_label sm_label_PLZP"
       id="text31"><tspan
         dy="4.0000153"
         id="tspan31"
         style="stroke-width:0">West Pomeranian</tspan></text>
    <text
       style="font-style:normal;font-variant:normal;font-weight:bold;font-stretch:normal;font-size:11.008px;line-height:normal;font-family:Arial;text-anchor:middle;opacity:1"
       x="534.86194"
       y="529.39313"
       text-anchor="middle"
       font="10px &quot;Arial&quot;"
       stroke-width="0"
       font-size="16px"
       font-weight="bold"
       font-family="Arial"
       opacity="1"
       class="sm_label sm_label_PLPK"
       id="text32"><tspan
         dy="3.5333309"
         id="tspan32"
         style="stroke-width:0">Subcarpathian</tspan></text>
  </g>
</svg>
