<?xml version="1.0" encoding="UTF-8" standalone="no"?>
<svg
   width="1200"
   height="1500"
   version="1.1"
   id="svg874"
   sodipodi:docname="Flag_map_of_Italy_with_regions.svg"
   inkscape:version="1.1.2 (b8e25be833, 2022-02-05)"
   xmlns:inkscape="http://www.inkscape.org/namespaces/inkscape"
   xmlns:sodipodi="http://sodipodi.sourceforge.net/DTD/sodipodi-0.dtd"
   xmlns="http://www.w3.org/2000/svg"
   xmlns:svg="http://www.w3.org/2000/svg">
  <metadata
     origin="https://upload.wikimedia.org/wikipedia/commons/f/fa/Flag_map_of_Italy_with_regions.svg"
     scale="1065.11"
     placeholder="ph2"
     id="mapMetadata" />
  <g
     style="fill-rule:evenodd;stroke:#726c5c;stroke-width:2;stroke-miterlimit:2"
     id="g872">
    <path
       id="Abruzzo"
       class="county_b"
       style="fill:#cb2c39"
       d="m 766.09375,730.59375 c 0.90037,-22.87905 -42.99615,-18.62517 -27.58982,1.04694 -5.71099,4.00733 -18.8458,16.78239 -23.69143,3.39063 -10.95303,-0.32612 -14.08401,-2.40686 -21.15615,-7.0937 -4.56569,-7.63193 -10.92168,14.23204 -18.21875,0.5 -13.29432,-0.50768 -6.55665,-11.69331 -14.99995,-16.15615 -5.74465,-3.09129 -6.57767,-12.04182 -17.0312,-10.9688 -3.50575,-9.37149 -12.18291,6.711 -10.21865,-7.0937 -0.97312,-17.98562 20.75161,-13.65867 19.62505,-6.2812 10.5904,5.98054 8.32378,-13.75181 10.21885,-12.90625 -16.93925,-1.31302 -11.65372,-18.08984 -20.25,-25.96875 -2.16691,-3.91076 1.64121,-21.27588 12.3438,-18.15625 17.52766,3.36044 3.55151,-13.92617 19.0938,-16.78125 -0.91275,-19.35589 19.33005,-0.42234 24.59375,-14 12.70045,-12.75144 16.84393,-1.72618 19.84375,12.125 8.8196,28.24551 36.2501,41.71614 53.15625,63.96875 12.61284,2.78267 21.55787,14.72984 15.625,26.0625 -9.72559,8.29075 -10.93176,22.24794 -21.3443,28.31223 z" />
    <path
       id="Trentino-Alto Adige"
       class="county_r"
       d="M 559.59375,56.53125 C 544.19959,60.808005 529.77884,68.469076 515.375,73.5 c -8.87349,-5.636782 -19.42378,-5.54183 -26.65625,-0.90625 -10.32333,-0.974924 -24.62046,-0.441415 -30.5,8.46875 -1.54242,13.164361 -7.69357,24.64809 -22.5,18.03125 -12.7925,0.244119 -11.4023,-19.240145 -26.96875,-8.625 -13.0112,-5.956121 -14.99303,26.39882 -12.9375,20.65625 0.44207,6.14472 9.77405,16.25703 1.96875,21.40625 9.20497,3.81906 31.06494,14.29318 12.4375,22.84375 -4.29263,4.93548 0.55523,19.62558 0.5001,18.84365 2.12869,12.92614 -17.84784,24.59816 -7.21885,35.3125 -6.55843,8.34279 12.05491,22.89492 6.9062,19.3125 7.95709,-5.62668 22.0377,-11.55399 29.09375,-3.9999 -6.29581,7.94442 -3.79972,26.06236 8.03125,17.1875 5.11515,2.20465 17.35329,0.17985 14,-10.5 6.81999,-5.89662 4.54891,-29.41056 16.3125,-16.9062 -0.51464,-10.70354 15.76424,-19.42949 21.7813,-11.43745 16.81226,11.90462 2.47285,-18.74672 17.15615,-16.21875 16.31163,3.7114 21.18359,-21.76643 5.0937,-22.06245 -4.21222,-9.10159 1.67766,-16.95953 5.37495,-24.2812 -12.7622,0.0663 2.0969,-13.07342 6.9063,-7.8435 7.62019,-5.13506 6.36925,-20.67946 14.6875,-21.1875 8.13509,8.78375 13.90256,13.11634 25.3437,6.43745 10.40786,-7.7745 -11.67581,-29.541675 -8.40625,-23.5625 1.34254,-15.679959 -14.96328,-6.06971 -14.34375,-24.1875 -0.39032,-5.32213 16.99899,-5.625034 8.15645,-13.7504 z"
       style="fill:#3e9c3b" />
    <path
       d="m 380.53125,117.875 c -10.19343,1.83642 -23.28596,15.5048 -15.09375,27.4375 11.20367,-0.66325 6.85404,32.97781 5.875,26.21875 -13.14939,4.26697 -7.52829,-18.89382 -20.96875,-18.96875 -14.1777,0.66327 -16.63828,14.32829 -28.96875,9.875 -14.65196,-1.79931 -22.83125,-23.30077 -14.8125,-25.125 -10.31785,-4.21344 -19.00507,3.74651 -12.9375,17.5625 5.40512,15.89697 -17.71828,24.72848 -17.875,37.75 -17.77211,6.77649 5.09292,19.1735 -3.375,26.5 -8.13039,9.41939 -11.01171,-1.96511 -14.03125,-12.9375 -15.89842,-5.05609 5.82318,-18.12716 -12.78125,-19.5625 -4.93334,9.04046 -18.00999,29.48517 -16.15625,45.34375 7.97565,10.26932 10.1989,16.80286 12.65625,27.90625 8.87205,10.02264 20.7415,25.21867 -0.375,24.5625 -1.15078,27.43101 -10.70823,-10.96725 -21.5937,4.34375 7.43118,10.42052 4.79166,20.87752 13.87495,29.5 -3.68013,18.57649 30.12948,13.68231 25.9687,8.625 0.37344,9.52678 6.72458,14.94947 13.0625,21.4374 8.79733,3.43654 9.38565,23.73475 18.9062,21.93745 -2.78233,-5.87572 9.47417,-18.17463 0.53125,-23.34375 -5.08212,-6.89942 6.70397,-16.62088 8.3437,-24.71875 10.77818,-2.5165 11.34567,-12.01591 18.375,-7 6.53467,-7.52764 10.84571,14.96781 15.59365,1.12485 7.24854,8.95941 11.38771,0.39256 10.96885,-6.75005 11.36985,3.13426 11.7472,15.75095 25.5,16.03125 11.15899,5.07473 23.39063,8.04125 33.125,15.24995 10.00529,6.28805 20.01851,-22.31578 21.84375,-3.75005 11.75408,10.58206 16.62211,-0.0444 27.59365,-1.96885 7.6782,-1.92193 38.04865,7.4821 30.68755,-1.34375 -10.6024,-1.12163 -10.10598,-13.39075 -20.28125,-10.65605 -4.83618,-3.19707 5.17806,-8.48575 -4.3436,-7.15605 -9.05198,7.48944 -11.74511,-7.2699 -14.74995,-8.7812 -7.564,-6.946 -16.92026,-12.53558 -25.53125,-16.81255 -6.17308,-5.51804 10.8377,-12.83131 -2.71865,-12.9061 -11.61763,-19.24821 8.84267,-36.94154 14.2813,-54.1875 -8.93076,-3.6545 -21.99892,15.4514 -25.2812,2.15625 -13.03988,-2.68759 -0.75534,-14.83936 -7.7499,-20.7187 1.1298,-12.40692 13.70007,-22.52006 9.81245,-35.9375 -0.88849,-9.52574 -5.04863,-15.61341 7.06265,-19.2187 2.69327,-13.21029 -21.28728,-9.00696 -21.9375,-21.99995 -7.30748,7.18301 -11.28858,-5.71321 -12.5004,-9.7189 z"
       style="fill:#3e9c3b"
       class="county_b"
       id="Lombardia" />
    <path
       id="Piemonte"
       class="county_y"
       style="fill:#3e9c3b"
       d="m 215.51758,140.78125 c -3.56681,0.60383 -7.15154,2.47766 -8.91325,5.76591 -2.08499,3.59912 -2.94711,7.80708 -5.61361,11.08201 -1.30707,1.66565 -2.93743,3.06409 -4.729,4.18528 -2.62781,0.13109 -5.48485,0.21601 -7.70117,1.81446 -1.29992,1.10097 -1.26377,3.00325 -0.70471,4.47327 1.25778,3.82877 3.85743,7.24955 4.13896,11.36936 0.26245,2.80372 -1.61858,5.36593 -3.9948,6.66518 -0.75118,0.47579 -1.65904,0.83805 -1.96806,1.74289 -2.63268,4.69725 -7.25126,7.7126 -11.41466,10.91727 -3.14084,2.3843 -6.24898,5.26329 -7.37282,9.17628 -0.4967,1.72579 -0.56002,3.54439 -0.41438,5.32567 -2.06836,2.67336 -3.21643,6.12857 -2.71434,9.5131 0.62987,5.87409 4.34176,10.8671 5.1616,16.69198 0.23091,1.56247 0.0297,3.14306 -0.38357,4.65445 -0.15144,1.33208 0.27334,2.65348 0.14139,3.99398 -0.1117,3.8054 -2.00116,7.51783 -5.10619,9.74642 -4.22784,3.16258 -9.6313,4.24234 -14.81326,4.38096 -5.42277,0.13534 -10.94403,-0.81234 -15.84772,-3.16746 -1.07942,-0.40228 -2.26625,0.0734 -3.0031,0.89586 -5.64708,4.35653 -12.59855,6.34318 -19.05591,9.13446 -1.92134,0.84221 -3.81867,1.74361 -5.65234,2.76367 -2.29765,-0.51265 -4.65526,-0.51321 -6.99414,-0.63477 1.308021,2.71842 2.96569,5.30053 3.83203,8.20899 0.6388,2.10739 0.1794,4.51566 -1.3479,6.13346 -0.9144,1.09446 -2.160765,1.81674 -3.318114,2.61849 0.969206,2.35277 1.902175,4.99855 1.050781,7.5332 -1.037948,2.8241 -3.859444,4.38246 -6.454682,5.55045 -4.315971,2.01981 -9.193612,3.22662 -12.703521,6.63315 -0.802134,0.8379 -1.408843,1.84123 -1.88086,2.89648 -5.870512,0.0801 -11.893322,-0.23869 -17.574938,1.51131 -1.839605,0.65258 -3.927756,1.74563 -4.413343,3.8051 -0.423977,1.88289 0.478169,3.76463 1.492188,5.29687 0.828071,0.97896 2.085302,1.45953 2.892288,2.47102 3.000396,3.23633 4.001905,7.67201 5.405435,11.7249 1.3131,4.12149 3.067348,8.40845 6.604075,11.12231 2.002492,1.5542 4.444512,2.39297 6.900936,2.90443 1.410635,-1.23478 3.32034,-2.36742 5.25385,-1.76604 2.562646,0.96614 3.906081,3.58967 4.937581,5.95528 0.353443,0.8374 0.645293,1.67453 0.904163,2.43999 1.36337,4.16492 2.191205,8.52054 2.386751,12.89889 -0.0467,0.24666 0.102948,1.04447 -0.396408,0.7043 -1.110717,-0.42268 -2.263113,0.004 -3.21289,0.60156 -3.840187,2.14728 -6.040612,6.20941 -7.622836,10.15775 -1.858136,4.70798 -2.962738,9.66089 -4.295133,14.53171 1.525025,1.04334 3.026686,2.28392 3.70167,4.06501 1.067241,2.62083 0.41336,5.51737 0.140567,8.19407 -0.413111,3.19953 -0.286374,6.70193 1.632372,9.43428 1.337871,1.97771 3.250719,3.48095 5.259766,4.73047 0.08181,2.36306 1.01096,4.87818 3.136719,6.13086 3.023502,1.95324 6.719902,2.17383 10.130393,3.01017 3.3568,0.72265 6.97632,1.94528 8.97393,4.93806 0.36536,0.54116 0.67143,1.12028 1.01286,1.67677 5.58274,0.7288 11.25863,0.52168 16.81036,1.50294 0.85756,0.13291 1.59792,0.59169 2.34394,1.00291 3.68455,-1.96994 7.62816,-4.09089 11.94079,-3.83851 4.02736,0.302 7.35955,2.8186 10.9428,4.41269 4.06516,1.85617 8.41577,3.08731 12.83503,3.7223 2.09996,0.30662 4.55539,-0.14747 5.83108,-2.00187 1.16248,-1.5336 1.9095,-3.32167 2.6671,-5.07585 2.2504,-0.26464 4.55217,-1.35604 5.62342,-3.45034 1.73579,-2.99922 1.81043,-6.56546 2.23986,-9.9149 0.45694,-4.16933 0.93674,-8.64513 3.5993,-12.06885 0.66801,-0.90929 1.6521,-1.54506 2.35121,-2.40215 2.38654,-4.64146 4.81554,-9.51965 8.97219,-12.84949 2.21193,-1.71816 5.25959,-2.44089 7.93667,-1.45099 2.14049,0.68544 3.89058,2.13448 5.69141,3.41992 1.13987,-1.8305 2.26142,-3.80189 4.18937,-4.91616 2.84762,-1.84467 6.43131,-1.62737 9.64657,-1.17759 4.59629,0.68829 9.12751,2.12158 13.81445,1.99219 2.2625,-0.0636 4.46632,-0.77434 6.38115,-1.97052 2.69706,-1.41618 5.12733,-3.37279 6.88214,-5.88029 2.47729,-3.39168 4.07545,-7.40798 7.10685,-10.3908 1.06203,-1.07806 2.22786,-2.09902 3.53416,-2.8541 2.61478,-0.1165 4.99648,1.25622 6.90048,2.93094 2.63879,2.24462 4.73241,5.15526 7.75223,6.92988 1.65613,0.91099 3.92305,1.18031 5.50549,-0.009 1.05145,-0.89658 0.7932,-2.37792 1.01701,-3.60042 0.67998,-6.43315 0.44295,-13.19054 -2.22099,-19.18272 -1.89543,-4.1925 -5.48436,-7.66934 -9.9151,-9.05039 -0.71369,-0.22989 -0.97599,-1.08795 -1.47148,-1.60388 -4.20994,-5.79184 -7.31695,-12.32473 -11.70631,-17.98642 -1.07537,-1.12789 -2.74583,-0.7766 -4.13358,-0.99925 -5.623,-0.43892 -11.58067,-1.21085 -16.77408,-3.78601 -4.67147,-2.21971 -8.36364,-6.40014 -9.90537,-11.34623 -0.86845,-2.62206 -0.98415,-5.4305 -1.97239,-8.02002 -1.85196,-5.75317 -4.63334,-11.28324 -5.33749,-17.34859 -0.19875,-2.08863 0.10342,-4.65053 2.07742,-5.83286 2.357,-1.32163 5.20161,-0.82295 7.71733,-0.30542 0.65011,0.0547 0.67405,0.92045 1.03209,1.36086 1.06946,1.95471 2.30896,4.01472 4.30761,5.12842 1.58494,0.70687 3.26143,-0.30149 4.29314,-1.48762 2.99629,-3.24658 5.01189,-7.43814 8.75391,-9.95313 1.22893,-0.81784 2.67122,-1.19805 4.02148,-1.75976 -1.68873,-2.98617 -3.5285,-5.88971 -5.68224,-8.56532 -3.07485,-3.97745 -6.519,-7.80976 -8.62049,-12.46007 -1.11915,-2.56005 -1.48865,-5.56448 -0.39028,-8.19751 0.44362,-0.65546 0.10009,-1.08887 -0.49805,-1.45045 -5.40286,-4.25655 -9.10734,-10.67181 -9.81182,-17.53936 -0.95157,-8.49139 1.92593,-17.06099 6.7314,-24.00018 1.4546,-2.08723 3.1127,-4.02311 4.84766,-5.88086 1.08828,-4.38207 0.24528,-9.21158 -2.39265,-12.89332 -3.90288,-5.81227 -9.96127,-9.69192 -14.15517,-15.26255 -0.43055,-0.66551 -0.98881,-1.18582 -1.65767,-1.60262 -2.09656,-1.61196 -3.12498,-4.3409 -2.8487,-6.94406 0.31203,-5.12908 2.99397,-9.83027 3.0288,-14.99862 -0.0408,-2.34791 -1.16187,-4.70085 -3.17547,-5.97828 -0.60004,-0.47546 -1.35334,-0.79049 -2.12922,-0.71899 z" />
    <path
       d="m 136.28125,202.5 c -7.8942,11.04774 -18.59501,8.25497 -28.65625,12.3125 -6.83324,12.37381 -22.824205,2.379 -18.1875,-2 -5.813437,10.40345 -28.499767,11.12387 -15.5625,27.90625 13.436406,5.53234 13.878194,6.85329 14.8125,20.65625 1.236678,8.64046 15.59726,12.19772 22.7187,4.5313 11.1237,4.01774 14.78185,-15.57702 26.21875,-6.93755 11.82102,4.51948 34.79776,-0.11172 29.03115,-17.15625 1.02879,-8.11251 -9.42754,-20.75369 -1.0312,-30.875 -11.26299,-0.46576 -17.07649,-7.90737 -29.34365,-8.4375 z"
       style="fill:#3e9c3b"
       class="county_g"
       id="Valle d'Aosta" />
    <path
       d="m 264,374.84375 c -9.38249,4.2208 -7.12574,13.52368 -17,17.7812 -9.33667,8.0096 -23.47704,-2.93827 -32.875,3.96875 -6.93832,8.52904 -19.96419,-9.4109 -22.65625,11.56255 -9.48243,8.10979 -5.97764,23.04735 -12.4688,30.3125 -10.60847,-0.31357 -2.04778,11.62461 -15.18745,7.24985 -17.51152,-10.54084 -13.33299,15.52738 -26.4375,22.125 -16.31551,17.13174 14.16103,17.24165 24.96875,11.71875 11.50377,-5.1466 28.79216,-9.46969 30.1875,-20.78125 8.50096,-8.07255 5.25176,-23.63502 20.96875,-24.96875 7.97073,-9.1971 4.41819,-18.85859 17.5625,-23.125 10.8898,-10.26097 25.54342,-8.78844 35.28125,-3.53125 15.26443,-2.21432 18.41007,18.1167 26.0625,6.3125 12.66158,6.27357 15.26307,12.34938 27.4375,18.625 7.68816,7.77556 14.39026,9.82533 25.40625,17.59375 -6.42788,-18.61455 13.75065,12.28629 15.59375,-2.93755 5.93986,-5.21766 -17.50687,-12.23135 -12.62495,-8.7501 3.1564,-10.68353 -8.59607,-0.44076 -7.5624,-12.15625 2.63722,-7.47811 -18.18601,-11.91394 -14.6562,-20.34375 -9.0123,-2.41255 -29.2816,5.75685 -14.8438,-11.5937 1.10117,-13.77171 -16.44962,-1.9016 -21.71875,-11.37495 -8.81023,6.27376 -13.40082,0.80995 -20.6875,-2.3751 -2.20579,-1.00014 -2.14892,-4.5979 -4.75015,-5.3122 z"
       style="fill:#3e9c3b"
       class="county_r"
       id="Liguria" />
    <path
       d="m 609.71875,460.40625 c -4.08233,6.77877 1.87046,15.01306 -10.0625,15.59375 -5.83018,8.3365 -8.61777,-4.93371 -15.0624,-3.06235 9.6731,-15.22879 -18.90248,3.61467 -14.21908,1.42267 -20.2782,14.2742 -20.40235,15.78228 -8.99972,10.63983 8.1589,-4.624 17.68418,11.59547 6.9687,12.0625 -0.76927,-11.35143 -20.55608,8.92518 -6.50005,9.59375 15.0962,-6.78315 16.52407,13.29697 10.96875,10.3125 9.68035,-3.88895 12.18095,9.20556 19.37495,11.56235 3.83933,-3.84367 9.7793,-2.76116 13.6874,-4.31245 1.20909,12.32019 10.11941,22.64873 11.74985,33.99995 -4.31601,10.76071 6.33872,20.75257 7.4687,31.3125 4.99264,9.99049 12.47955,-7.54047 19.625,6.49995 13.77232,-3.80084 10.00161,8.1937 3.18745,16.25 10.32341,-0.15117 14.73753,14.30993 24.46875,0.74995 0.42022,-20.19035 22.06184,-1.63886 28.62505,-16.81245 19.62441,-2.04651 4.01086,-16.33176 5,-30.0312 -8.33461,-18.20517 -16.04892,-38.28592 -21.5625,-56.5625 -8.54513,-10.55386 -21.69766,-3.55194 -32.3746,-17.40625 -14.06038,-10.93615 -25.3959,-26.11405 -42.34375,-31.8125 z"
       style="fill:#ffffff"
       class="county_y"
       id="Marche" />
    <path
       d="m 350.25,396.46875 c -16.42338,0.18327 -24.05568,21.72443 -6,26.7812 -8.73149,12.45827 11.28045,1.32471 3.87495,12.75 7.08449,-0.41695 20.7897,5.65791 13.78125,14.09385 10.05129,8.15721 24.25994,23.72716 21.7188,40.875 1.92037,9.58768 -0.27551,21.438 6.78125,31.4375 14.27853,15.60198 24.43596,40.70824 11.875,61.1875 1.57914,13.53804 20.912,-7.20119 27.28125,10.9375 -10.06569,16.71611 10.0791,12.19139 18.03125,21.5625 6.5577,8.65965 11.63914,16.89238 18.3125,23.28125 3.50784,12.63786 -20.2152,11.30357 -1.375,19.40625 6.10649,-13.99614 24.27971,4.38342 27.2188,-10.84375 16.62272,5.48745 8.15504,-21.43224 6.71875,-14.7187 15.97132,0.0311 26.67631,-24.89687 17.87495,-17.03125 -7.4164,-0.97344 -5.18327,-18.49052 4.375,-11.43755 4.66567,-5.97505 15.38152,-9.39906 11.4687,-20.21875 4.8178,-6.94482 2.54169,-10.33173 -2.06245,-13.6562 -0.15987,-6.3886 -2.74095,-15.27643 7.5625,-16.18745 3.78159,-9.80482 11.45704,0.91621 17.3749,-7.3438 7.40905,-1.42443 9.2312,-10.20211 1,-4.8124 -6.44249,-2.13457 -7.44504,-10.04611 -14.6249,-12.406 -0.96844,-9.03053 17.54709,-8.76751 7.4375,-13.74995 5.65173,-4.56789 4.72579,-15.28347 9.2187,-20.125 6.89899,-11.82539 11.89057,4.11364 13.40625,-5.2813 -6.53685,-4.89325 -12.08231,-2.84384 -12.99995,-9.5312 -4.61659,0.96979 4.85816,13.92137 -5.31245,8.25 -7.35398,-0.30882 -16.10747,-0.63797 -23.37485,-7.1876 -12.20382,2.68481 -20.66545,-11.6486 -23.96875,-21 0.0818,-5.8155 10.54309,-12.89134 5.90635,-20.09375 -12.03479,9.46064 -9.47981,-6.28253 -18.53125,-3.0625 -7.62725,-8.69862 -11.42226,-6.65643 -18.34375,-4.12495 -12.98397,4.02246 1.26143,16.61456 -19.15625,11.71875 -6.61181,1.45853 -9.29846,-11.60643 -12.59375,1.21875 -10.33195,2.33755 -19.135,-16.67729 -28.0937,-3.6565 -13.62997,-2.6777 -19.73758,-26.00312 -35.15625,-21.1876 -8.86398,-9.80938 -24.09781,-11.60239 -27.43745,-25.6874 l -1.59375,-0.15625 H 350.2504 Z M 458.875,632.75 c -0.16755,0.35966 0.41209,1.29806 0,0 z M 342.65625,570.96875 c -9.68661,12.24759 6.40125,9.90913 0,0 z M 396.09375,597 c -7.30688,11.72214 -10.98322,5.17916 -20.625,6.9375 -27.61932,10.45752 26.68494,10.46845 13.1019,8.24871 9.21037,2.63296 7.47334,3.50665 9.99185,-10.24871 0.80627,-1.85795 0.2209,-4.99815 -2.46875,-4.9375 z m -29.875,29.8125 c -9.30555,7.80923 5.77338,10.55722 0,0 z m 72.4375,28.90625 c -6.6077,8.47577 10.76642,10.8078 0,0 z M 386.9375,659.125 c -9.95723,7.78485 9.25952,6.55028 0,0 z"
       style="fill:#ffffff"
       class="county_b"
       id="Toscana" />
    <path
       d="m 347.09375,312.4375 c 2.75694,9.18147 -6.46893,13.15518 -12.5937,5.9688 1.94496,11.75474 -12.39401,-0.64869 -12.15625,-3.24995 -7.93288,-0.13153 -13.16472,8.97036 -9.2187,5.1251 -13.714,-6.29916 -14.16727,17.29852 -21.0312,23.46875 12.69712,6.93429 -0.52037,19.88192 1.00005,28.6562 -8.25543,-6.08265 -12.84458,13.1573 -2.90625,8.25 6.63768,9.44911 22.38716,-2.24749 23.40625,12.7188 -14.17666,18.50194 3.12592,5.7907 14,10.25005 -0.0956,16.92484 17.9142,-8.13289 11.93745,-5.625 17.27895,-12.49122 16.91981,12.15644 30.9375,14.96875 7.50309,3.7985 11.17862,9.54388 19.46875,7.5313 11.72445,5.0211 18.66311,29.07027 31.75,16.21875 9.69079,-0.26693 19.59103,17.96647 25.1875,1.4063 1.9056,10.49702 14.02185,3.11917 18.65625,2.875 1.49433,-12.42381 13.71107,-5.44808 18.12495,-12.7813 2.98099,10.43378 16.9929,3.81668 17.0625,12.59375 2.39483,3.13477 19.47412,-5.42194 13.4375,6.75 -3.91215,7.96007 -8.51213,11.19831 -3.5937,20.68745 4.8169,8.95757 14.60126,13.79659 23.90625,14.9375 8.1161,7.18487 13.10261,1.73655 20.83538,3.78398 16.75963,-7.54099 15.74278,-21.82553 30.13337,-30.78398 -2.89052,13.38358 11.46823,20.98032 5.9999,17.40625 3.09196,7.58708 19.39867,-5.37678 15.5625,-3.53125 2.39663,-10.78545 -3.9236,-11.96016 -12.40635,-19.9374 -10.50661,-10.76095 -22.8496,-21.84131 -24.1875,-38.5 -3.19932,-8.2053 -5.73639,-24.25047 -6.1875,-34.21875 -6.07044,-13.28131 3.67989,-23.97206 0.25,-36.21875 -6.37461,-2.07702 -15.68173,-2.5638 -23.4375,-4.59375 -17.10938,-9.54716 -33.68906,20.16502 -45.9375,4.62505 -12.77191,-4.03924 -27.82025,-2.63962 -42.21875,-3.875 -10.21306,3.97269 -17.97299,11.26776 -28.68745,0.1871 -0.0638,-14.64188 -12.98307,15.28432 -22.25,4.3438 -7.59081,-7.51893 -19.59646,-6.71292 -27.9375,-13.87495 -17.0169,1.38428 -15.23973,-11.46784 -26.90625,-15.5626 z"
       style="fill:#3e9c3b"
       class="county_g"
       id="Emilia-Romagna" />
    <path
       d="m 581.21875,111.65625 c -4.12492,9.54228 -32.03167,9.60398 -23.96865,10.99995 -3.36439,-5.58859 -13.3866,-15.29406 -13.031,-2.03115 -4.12574,8.33306 -8.49077,14.22848 -16.4688,14.99995 -10.16442,2.14702 10.45116,7.05446 -3.0938,12.24985 -4.74702,8.4248 -2.33033,17.76892 7.93755,19.59375 5.86646,14.1093 -6.73026,23.37031 -20.8124,22.5 3.9411,13.81806 -8.2602,24.95613 -17.96865,10.5 -10.85119,0.49752 -11.9627,16.45927 -19.1562,14.37495 -7.80889,-7.72474 -17.32712,17.18797 -10.3749,14.99995 2.34824,8.34325 -7.7961,20.2582 -14.93735,13.0626 -12.90963,11.60355 -19.73028,-8.55321 -11.78125,-18.56255 -8.55571,-1.22413 -10.32143,16.30252 -16.34375,22.4687 -4.79401,8.69164 -10.4443,22.0355 -1.6561,28.87485 13.67433,1.59544 -8.45566,14.2488 5.84365,15.71875 8.80227,2.92178 17.20576,11.72783 23.4375,16.18755 -0.51201,3.8181 5.74117,12.27641 11.25005,6.0311 11.86164,-1.66635 0.07,9.34407 8.46875,7.93725 4.96141,3.51416 17.65846,8.56607 20.1875,17.1875 12.35851,8.6142 24.68585,0.97024 40.06569,-4.65625 11.99278,-0.78481 19.87605,3.03389 30.21556,4.1563 8.9513,-7.41694 12.6168,25.75603 9.2188,10.78125 6.63574,9.13317 10.9715,8.81313 7.53125,-2.59375 5.41015,0.18808 6.43241,7.7403 11.25,-8.78125 3.37961,-13.46549 -19.62197,-7.39071 -11.6875,-12.96875 -5.35672,-4.84818 -7.3755,-18.85228 -8.8125,-27.40625 -1.32913,-6.82053 15.0734,-31.79235 4.1875,-17.75 -6.80649,6.32084 -4.63219,33.38897 -6.03125,25.90625 -4.39544,-5.61272 -8.02205,-9.75752 -9.6875,-17.875 -0.51365,-7.71519 9.13392,-20.53263 17.6875,-11.46875 -11.72983,-8.87958 14.7682,-19.04055 8.5,-15.34375 11.96648,-7.3437 12.51478,2.66242 -3.25,8.46875 -7.93802,6.15369 6.86489,5.54467 14.34375,-1.53125 17.00172,-2.29945 28.04891,-22.39162 44.03125,-18.71875 -5.00132,-8.78855 -10.89791,-20.87653 -10.12495,-28.96875 -4.47493,9.62395 -16.32631,-2.30502 -22.12495,4.18755 -8.3793,6.72274 -20.28969,-2.73703 -22.46875,-11.09375 -20.02863,-7.02074 11.5515,-29.16302 -4.25005,-39.625 -16.58359,-4.50671 0.15269,-23.58883 7.5937,-29.18745 -2.0182,-6.61457 19.60813,-3.29746 9.75005,-10.74995 9.14828,-2.52606 20.85413,-16.33633 2.21875,-18.4062 -6.32626,0.2255 -8.89275,-2.62549 -15.6885,-3.46825 z"
       style="fill:#3e9c3b"
       class="county_y"
       id="Veneto" />
    <path
       d="m 608.625,115.96875 c 1.70391,8.48067 0.0592,15.73787 -12.03125,16.8437 8.9023,5.34161 -5.48,10.60606 -9.4063,9.62505 -2.99399,8.94126 -20.90676,17.42562 -12.87495,28.625 19.94205,3.68652 0.96302,26.76288 3.0624,36.2812 10.28145,4.29088 9.09766,21.62867 24.71875,16.3436 4.35351,-10.00396 17.50677,3.85507 21.21875,-3.93755 10.40121,-7.36218 2.06754,15.08978 10.81245,19.1875 3.84717,19.86835 5.64032,4.33775 8.53125,1.3125 -13.3172,-1.04764 5.63771,-16.23556 14.1875,-6.9375 5.43115,9.43852 20.35993,11.34704 21.71875,1.6875 -1.37655,-13.88895 17.17704,20.55877 19.4375,13.25 1.78099,2.04139 -2.02321,13.59739 14.15625,0.9375 -6.2294,-11.8723 -16.92141,-19.10205 -28.34375,-25.4375 2.12565,-14.01478 9.61051,-22.06013 -8.78125,-21.40625 -4.4569,-10.31472 9.82829,-12.20669 16.03125,-22.65625 -7.73673,-10.76956 -23.69118,-1.36138 -25.125,-12.9375 -0.79484,-12.10853 13.42093,-16.43978 20.5,-23.28125 16.77653,1.39314 4.50061,-18.73118 -6.46875,-14.9375 -11.91388,-4.38744 -21.4785,1.50474 -32.6875,-2.78125 -12.31491,-7.12704 -28.69991,1.45781 -38.0625,-9.71875 l -0.59375,-0.0625 z M 648,237.09375 c -6.71079,4.52974 10.90535,-0.35872 0,0 z m 10.5,1.4375 c -4.59183,3.40838 5.80104,3.00787 0,0 z"
       style="fill:#3e9c3b"
       class="county_b"
       id="Friuli-Venezia Giulia" />
    <path
       d="m 570.40625,506.4375 c -8.01532,2.36805 -18.55493,-0.7938 -18.65615,10.03105 11.16553,5.02904 -18.08985,9.7744 -3.84375,15.49985 4.63425,3.24025 5.79017,11.89205 12.34355,6.5 11.86938,4.40426 -11.73459,17.86525 -16.1249,12.9374 -4.24545,4.49902 -19.01975,8.0966 -10.74995,17.2813 -2.34831,4.75597 8.61531,5.8716 2.0001,13.3437 -2.09266,6.83202 -0.23362,15.20274 -6.6873,19.5937 13.69498,7.55987 -4.02275,13.23634 10.59375,20.40625 7.26669,1.93821 18.61825,-10.84065 22.1875,7.03125 -2.55032,19.53347 21.77571,3.88791 16.65625,20.0312 -0.11168,7.14503 9.87627,19.83878 14.81245,7.4374 -5.72301,-18.28712 11.35056,2.38159 11.3125,-11.3438 -0.69517,-6.22139 9.93991,-17.04816 8.59375,-11.5938 7.32367,-15.15672 31.54644,-6.36401 34.5,-25.5938 14.15352,-12.6032 -4.53611,-7.34953 -10.06255,-16.125 -6.67482,3.79186 -9.88511,4.38293 -15.4687,-3.71875 -2.05216,-11.72799 -9.04739,-22.39254 -7.31245,-33.25 -2.33653,-10.46002 -9.06088,-20.4981 -10.7811,-29.03125 -4.08548,3.40111 -9.35179,1.52004 -14.18725,4.43745 -5.3217,-7.7351 -10.45503,-12.58775 -19.65625,-12.1563 -9.58086,-4.71732 5.0908,-5.62482 0.5305,-11.71785 z"
       style="fill:#ffffff"
       class="county_r"
       id="Umbria" />
    <path
       d="m 526.5625,601.90625 c -3.7291,6.75635 -12.24331,-0.42007 -13.1875,8.78125 4.45539,9.6188 12.2211,12.23029 -0.0625,17.625 -7.21271,5.65984 -19.81277,6.21771 -9.46865,14.8437 3.38759,13.00764 -22.2603,2.9494 -11.7187,15.03125 19.99806,5.83445 22.57612,29.61399 34.1875,41.4375 11.79968,-1.06296 22.84177,12.05151 29.4375,20.8125 0.35034,15.94598 15.04524,15.68995 23.28125,27.125 10.35769,8.09738 12.78697,24.86051 24.8125,23.40625 8.3846,4.28732 22.79684,3.2791 27.71875,17.40625 3.62564,20.5301 18.1427,-8.00689 31.28125,1.09375 12.81242,6.4046 17.32455,13.2516 24.21875,2.9375 10.26009,7.18226 27.52458,-0.84051 22.2813,-14.68745 1.03822,-9.2612 14.44456,-15.52358 11.53125,-28.53125 -2.72002,-14.0273 -15.16924,-13.37962 -23.31245,-15.90625 -3.5001,-7.45739 -8.65247,-4.61369 -12.5937,1.84365 -7.18107,-2.75945 -19.78973,-6.39451 -21.6875,-13.90625 3.24259,-7.84823 -11.38881,-7.12546 -10.5936,-15.53125 -8.59485,1.15615 -12.1673,-9.52634 -18.9062,-2.87505 -10.8326,-12.45354 9.11757,-26.62432 17.375,-13.74995 -6.2324,-8.74149 12.90743,5.25825 7.4688,-7.68745 12.38807,-8.72215 -18.66735,-7.5111 -12.75005,-21.25 -3.30145,-10.94196 -8.49805,-13.70195 -3,-24.53125 0.62051,-12.37582 31.0795,-0.63577 17.49995,-14.03125 -4.05561,-7.68139 -14.11382,-10.69292 -18.4687,-0.9062 -12.71757,4.47275 -27.51364,7.27376 -32.56245,21.0625 -3.91911,2.49492 -6.61676,18.78216 -14.6563,7.5313 3.30278,10.94187 -8.79492,20.72185 -15.5938,9.50005 -5.34938,-6.75479 2.66616,-22.23497 -10.875,-15.15625 -9.94705,-0.28431 -8.55195,-30.98246 -20.18745,-21.03125 -6.66146,9.79286 -26.26964,-9.16749 -13.8437,-13.09375 -3.40389,-1.26185 -8.6808,-2.9324 -7.62555,-7.5626 z m 102.25,228.40625 c -11.89997,9.06674 3.81844,8.88686 0,0 z"
       style="fill:#ffffff"
       class="county_g"
       id="Lazio" />
    <path
       d="m 902.34375,708.09375 c -19.49819,6.36291 -37.17888,3.29344 -57.1875,6.03125 -15.44306,-8.79814 -26.56333,2.80095 -23.4375,18.625 14.68465,14.52368 -16.67514,10.01885 -13.43745,19.03125 -7.63859,14.22768 19.06972,15.71571 9.90625,29.84375 2.98991,10.59214 22.23438,4.00262 15.46875,19.125 -2.21332,18.71157 19.19692,3.20066 26.87495,14.0625 19.43631,-2.24707 36.75403,-19.12172 46.59375,6.7813 -23.26734,9.52447 25.17163,2.96401 18.43745,20.6562 10.69118,20.15656 24.33528,6.10389 38.46875,12.56255 8.53404,8.87931 -0.86668,22.12092 4.96875,30.6875 8.86671,-3.96746 9.58199,18.25016 16.0937,3.96885 7.3739,-11.96442 25.34235,-10.70385 29.28125,0.9375 -5.2142,6.96007 20.6384,15.9696 29.875,17.25 11.3832,-1.27859 31.6852,-2.93149 30.375,12.65625 14.5609,9.29966 0.6781,23.69919 15.25,32.8125 8.4747,4.76705 29.1299,21.52539 28.0313,2.15625 -2.3824,-14.57263 17.3805,-22.94801 7.4062,-34.53125 -3.8535,-21.02242 -25.1889,-32.58015 -39.5937,-45.90625 1.7185,-13.76002 -13.4956,-11.69876 -22.1875,-18.5 -16.0274,-8.61366 -35.1101,-13.78349 -45.7813,-30.03125 -23.81189,-17.30474 -54.66392,-22.58077 -79.21875,-37.15625 -16.07757,-8.60515 -50.40321,-15.10095 -45.90625,-40.5312 11.07324,-8.46539 33.0725,-16.80598 25.28125,-31.28125 -1.49145,-3.04266 -10.23745,-9.65781 -15.5624,-9.2502 z"
       style="fill:#cb2c39"
       class="county_g"
       id="Puglia" />
    <path
       d="m 733.25,763.4375 c -7.06774,3.9868 5.01954,16.8495 -8.81255,15.24985 -3.11761,-15.24771 -13.43236,-10.86044 -13.37495,2.8124 7.79396,11.62173 -20.09905,13.45063 -6.59375,20.28125 6.92944,14.7832 18.54558,27.41618 20.3437,42.84375 1.70663,3.58588 7.83728,2.76791 16.9375,-1.0625 9.94075,0.86752 29.28038,13.42233 15.40625,22.5 -18.37926,9.55889 19.86451,4.92116 12.1875,4 -6.91126,-4.04793 15.92706,-0.98762 20.03125,-7.25 11.71526,7.12984 20.92035,24.60649 19.875,37.75 -10.34775,10.80579 -5.58981,13.7623 5.5625,21.59375 8.39506,-2.6783 25.56061,11.07501 19.875,17.5625 11.86601,6.28057 18.56624,-4.30848 30.65625,-6.78125 12.30053,12.78836 2.66465,-20.81169 16.8749,-19.2812 7.08883,-11.05132 -12.00881,-8.0526 -9.75,-19.5937 -7.56598,-7.85032 -20.15216,-16.79503 -19.5312,-28.5625 2.83246,-5.70414 -13.45735,-8.22646 -8.5,-17.59375 -9.08451,-6.92746 4.32919,-13.38153 10.5312,-11.37495 11.69865,-6.88085 6.21628,-28.05234 -9.0937,-24.3125 -16.07682,6.69628 -13.69668,-12.57456 -14.25,-20.9375 -13.36857,2.0935 -16.58672,-10.88111 -15.25,-20.3437 -6.91128,-8.50269 -14.26302,-3.23662 -20.96875,0.87505 -7.63474,-10.73804 -11.76571,13.32367 -23.46875,6.65625 -15.25055,-0.2884 -23.23489,-15.76717 -38.6874,-15.03125 z m -11.9375,86.6875 c -8.91971,9.12917 8.5769,-0.78344 0,0 z m -11.75,1.28125 c -10.89589,15.4231 23.99733,5.48247 0,0 z m 35.34375,23.4375 c -14.6856,-0.18516 -4.19593,8.56462 0,0 z"
       style="fill:#cb2c39"
       class="county_r"
       id="Campania" />
    <path
       d="m 891.375,807.46875 c -15.06895,9.52485 -33.35644,2.00763 -30.03125,24.2813 -3.1261,10.16909 -15.81226,3.335 -18.0312,11.6561 3.53371,6.62523 3.38642,15.88937 12.9375,18.5 -6.66965,16.17118 17.56725,24.35348 20.59375,38.2187 6.55241,2.70797 14.46707,12.26835 3.25,16.4373 -5.30503,4.92152 -10.1946,21.34881 -4.28105,26.4062 4.00909,19.14723 8.35555,-17.22509 17.34375,-1.625 13.05981,-2.04672 13.68922,18.82142 28.56245,6.56255 15.86033,3.11058 12.37487,-16.24644 21.5625,-23.21875 17.3497,-0.43065 23.47603,0.18472 29.3125,-17.34375 8.3748,-7.22174 6.88784,-13.48142 -0.3437,-20.1875 -15.36785,-1.8232 0.0108,-22.78124 -9.625,-30.9375 -14.05021,-4.44957 -27.92764,6.67817 -38.65625,-12.7813 6.22216,-16.76433 -42.71902,-12.49723 -20.3125,-21.9375 5.34331,-1.57452 -11.26192,-11.23805 -12.2815,-14.03085 z"
       style="fill:#cb2c39"
       class="county_b"
       id="Basilicata" />
    <path
       d="m 953.96875,923.4375 c -16.44385,-0.68013 -13.83135,17.60407 -22.1875,25.1874 -9.51424,-2.85772 -28.87941,14.28627 -29.6874,-4.6875 -12.12357,-7.25001 -20.6568,-2.59173 -21.34385,8.8751 2.70701,16.29068 3.4046,38.17904 18.5,51.1563 11.71699,20.2755 1.42071,49.7182 22.1875,64.875 3.46827,15.0296 -8.12945,25.7161 -21.5625,22.1875 -23.75383,5.4859 -1.86656,15.4422 -7.5625,28.5312 -5.33366,11.9293 -6.8451,25.2925 -22.8125,27.125 -0.91572,10.883 -3.31711,21.6377 3.40625,32.6563 10.40416,6.0766 30.8552,7.6874 38.96875,-2.4688 4.23796,-17.6507 13.41744,-35.4007 31.28125,-42.0625 26.03685,-12.0815 -5.82729,-47.8102 20.0625,-58.25 10.54027,-11.0726 26.22158,-11.2691 36.1875,-8.1562 13.98455,-2.8927 9.06515,-15.7833 2.78125,-25.75 2.3623,-9.7303 -4.33838,-39.3487 -0.625,-32.9688 -8.98436,-10.23045 -22.38176,-14.12565 -31.125,-24.34375 -15.4633,5.16939 -22.48874,-6.35377 -25.40625,-18.5 9.75524,-13.00769 13.20234,-22.84268 13.84375,-37.75 4.9632,-3.55031 -1.94076,-5.01224 -4.90625,-5.65625 z"
       style="fill:#cb2c39"
       class="county_y"
       id="Calabria" />
    <path
       d="m 571.25858,1174.9935 c -8.18575,0.6914 1.12248,-9.6993 0,0 z m -2.39726,5.6663 c -27.75208,-8.2329 16.01576,10.4465 0,0 z m -23.6457,-6.4291 c -7.57968,4.1987 8.53106,9.5516 0,0 z m -4.03176,131.9583 c -11.89185,-6.3828 -8.35084,14.4072 2.50623,10.3518 3.46049,-4.7313 1.59898,-7.3378 -2.50623,-10.3518 z m 51.75903,146.7777 c -19.10573,-2.4239 15.09052,5.2854 0,0 z m 25.82503,-39.3368 c -8.362,-0.051 4.66313,6.152 0,0 z m 212.06183,-333.3714 c -9.61259,5.3235 8.15657,3.4704 0,0 z m -13.71506,19.1086 c -5.39924,1.8076 2.80379,4.1987 0,0 z m -18.3381,6.7805 c -17.79507,-1.2189 5.46815,13.8493 0,0 z m 5.54766,7.551 c -8.57931,18.256 13.36206,3.7772 0,0 z m 3.54434,12.7904 c -8.30637,-6.8087 8.23248,14.1946 1.38691,0 z m -161.85907,-36.4893 c 19.98787,-2.3006 8.86211,-1.3668 0,0 z m 163.0137,66.0337 c -14.03263,-10.7109 -25.51904,5.3784 -37.9203,10.4607 -14.82813,6.3149 -33.29843,6.3726 -46.85554,3.0511 -11.80789,1.4309 -37.55254,15.0802 -44.24035,-5.2304 -11.36127,2.9895 -19.12476,-24.2347 -30.72852,-11.3325 -17.67747,-7.4919 -11.70856,28.7989 -33.12578,13.5118 -10.05242,-19.0376 -7.9434,-14.8274 -16.78082,-2.1793 -17.98162,1.6159 -18.59337,20.9631 -20.04982,31.6003 0.21901,10.5391 15.82334,24.0013 25.49814,27.2416 17.98681,-8.5076 28.51334,9.0059 42.71482,11.1145 8.14841,10.2812 21.19208,19.8456 34.6513,22.665 11.79137,11.3763 25.49573,21.9832 42.71482,18.7423 22.72804,-0.7175 33.18273,21.4261 42.27896,36.8306 15.52246,6.7148 29.25762,6.5016 43.53305,8.6753 20.81276,13.7417 3.73475,-13.2974 15.09086,-24.5844 15.44106,-12.5494 12.96336,-9.4702 11.9863,-21.5753 -20.31287,-10.2423 2.38988,-13.8268 -8.49938,-20.2678 -22.17077,-5.017 -1.88015,-30.942 -0.21793,-44.6762 5.38878,-20.7156 24.37689,-38.2278 33.99751,-59.2777 15.28408,-18.7723 -14.14991,-7.6672 -25.71607,-1.7435 -7.69371,-20.585 -5.20863,20.6873 -24.19053,7.4097 h -3.26899 l -1.08967,-0.8717 m -36.39477,-48.1631 c -8.86744,-2.5941 6.5656,7.4055 0.54484,-0.109 m -19.28705,3.269 c -4.65797,-1.9424 0.73576,4.8902 0,0 z"
       style="fill:#cb2c39"
       class="county_b"
       id="Sicilia" />
    <path
       d="m 306.57618,789.7011 c -10.0802,12.60527 5.62838,9.43168 0,0 z m -17.84375,1.96875 c -10.76248,-0.26272 -0.58693,17.45462 -18,15.65625 -6.22137,7.85606 -19.47996,25.89267 -19.84375,23.5625 -15.76768,4.36939 -26.706,19.31834 -43.78125,10.4375 -16.28478,-20.03046 -7.4374,-13.36373 -14.1875,5.90625 3.30689,8.37645 -6.55234,34.54857 4.375,20.90625 -0.62391,5.8934 20.12089,10.51983 15.90625,28.34375 10.15608,8.46543 5.24029,22.02981 8.28125,35.09375 -13.46074,-0.17922 2.93283,23.52672 -3.0625,23.96875 23.15467,-9.39174 0.69565,20.24099 0.4375,20.25 4.59351,15.42114 -9.38035,29.53435 -5,41.84375 -0.84866,13.3095 -0.65602,25.5663 12.625,34 7.49921,7.1326 5.46317,31.9878 17.4375,13.9375 7.96888,12.95 31.63639,-12.4232 25.71875,-6.3125 -1.52301,-16.6716 4.33865,-28.0844 19.625,-27.0312 12.95996,2.692 30.88392,25.7232 30.5,1.5312 5.72033,-13.9365 5.35566,-29.5506 8.28125,-45.53125 -0.4425,-17.91298 3.65474,-32.99251 4.15625,-50.34375 0.0323,-10.84008 -16.2664,-29.54808 2.8125,-40.75 12.95875,-9.18392 4.55875,-25.14351 -0.39747,-32.04062 3.01779,-7.30364 -2.49361,-29.66232 -4.60253,-25.49063 0.60598,-4.37383 -3.66205,-7.22002 -10.9062,-7.8437 13.68678,-17.24584 -7.96807,-5.61192 -2.07061,-17.29936 5.05062,-14.30055 -11.0765,-2.15882 -15.36689,-14.10689 -11.48789,-0.13691 -5.1292,-1.49457 -12.93755,-8.68755 z m 22.09375,1.28125 c -8.95687,12.60661 7.76784,8.48061 0,0 z m -104.46875,15.375 c -0.3617,0.002 0.16601,0.43143 0,0 z m -0.0312,0.1875 c -8.14598,3.42606 -9.32549,26.8139 -4.25,9.28125 1.7776,-3.41864 13.49145,0.18703 4.25,-9.28125 z m 120.875,12.9375 c -5.78701,4.08177 6.91752,4.60285 0,0 z m 7.53125,10.03125 c -11.75039,6.16838 4.05187,5.5385 0,0 z m -129.6563,204.81255 c -19.95409,3.1035 9.34346,21.4946 0,0 z m 6.96875,8.125 c -0.42803,-0.067 0.0833,0.194 0,0 z m 0,0.062 c -8.51727,26.3222 19.95697,10.4807 1.75271,1.6056 l -0.59646,-0.9806 z"
       style="fill:#cb2c39"
       class="county_r"
       id="Sardegna" />
    <path
       id="Molise"
       style="fill:#cb2c39"
       class="county_y"
       d="m 719.50584,743.44231 c 8.39684,7.24375 -5.20548,24.37225 5.43165,33.27634 12.11441,1.23733 -2.87047,-14.95665 9.125,-15.28115 17.49542,-0.47563 32.27357,25.15095 49.56255,11.5001 4.40148,-11.32919 10.62324,0.92321 16.4062,-5.9687 12.62392,-1.703 -1.04092,-30.20443 15.5,-20.4375 16.41928,-7.17839 -2.26461,-16.84307 6.50005,-29.6875 2.18788,-11.29319 -18.20273,-15.42007 -27.40625,-21.6875 -4.83817,2.74621 -10.09967,17.28784 -16.53125,23.125 -1.32217,5.9956 -14.07874,23.91519 -15.7587,8.22261 -18.74415,-24.7386 -22.69948,4.98225 -31.64759,12.08989 -1.02083,6.38249 -5.88497,1.42618 -11.18166,4.84841 z" />
  </g>
  <g
   id="textgroup">
  <text
     style="font-style:normal;font-variant:normal;font-weight:normal;font-stretch:normal;font-size:28.7926px;line-height:1.25;font-family:Helvetica;-inkscape-font-specification:Helvetica;stroke-width:0.999996"
     x="527.76459"
     y="692.45587"
     id="LACIO-txt"><tspan
       id="tspan1"
       x="527.76459"
       y="692.45587">LACIO</tspan></text>
  <text
     style="font-style:normal;font-variant:normal;font-weight:normal;font-stretch:normal;font-size:28.7926px;line-height:1.25;font-family:Helvetica;-inkscape-font-specification:Helvetica;stroke-width:0.999996"
     x="394.27188"
     y="516.48822"
     id="TOSCANA-txt"><tspan
       id="tspan2"
       x="394.27188"
       y="516.48822">TOSCANA</tspan></text>
  <text
     style="font-style:normal;font-variant:normal;font-weight:normal;font-stretch:normal;font-size:28.7926px;line-height:1.25;font-family:Helvetica;-inkscape-font-specification:Helvetica;stroke-width:0.999996"
     x="308.59842"
     y="380.76401"
     id="EMILIA-ROMAGNA-txt"><tspan
       id="tspan3"
       x="308.59842"
       y="380.76401">EMILIA-ROMAGNA</tspan></text>
  <text
     style="font-style:normal;font-variant:normal;font-weight:normal;font-stretch:normal;font-size:28.7926px;line-height:1.25;font-family:Helvetica;-inkscape-font-specification:Helvetica;stroke-width:0.999996"
     x="240.57382"
     y="252.94736"
     id="LOMBARDIA-txt"><tspan
       id="tspan5"
       x="240.57382"
       y="252.94736">LOMBARDIA</tspan></text>
  <text
     style="font-style:normal;font-variant:normal;font-weight:normal;font-stretch:normal;font-size:28.7926px;line-height:1.25;font-family:Helvetica;-inkscape-font-specification:Helvetica;stroke-width:0.999996"
     x="434.13824"
     y="277.82553"
     id="VENETO-txt"><tspan
       id="tspan6"
       x="434.13824"
       y="277.82553">VENETO</tspan></text>
  <text
     style="font-style:normal;font-variant:normal;font-weight:normal;font-stretch:normal;font-size:23.6199px;line-height:1.25;font-family:Helvetica;-inkscape-font-specification:Helvetica;stroke-width:0.999992"
     x="468.06827"
     y="125.79118"
     id="TRENTINO-ALTO–ADIGE-txt"><tspan
       id="tspan7"
       x="468.06827"
       y="125.79118"
       style="font-style:normal;font-variant:normal;font-weight:normal;font-stretch:normal;font-family:Helvetica;-inkscape-font-specification:Helvetica;text-align:center;text-anchor:middle;stroke-width:0.999992">TRENTINO-</tspan><tspan
       x="468.06827"
       y="155.31606"
       style="font-style:normal;font-variant:normal;font-weight:normal;font-stretch:normal;font-family:Helvetica;-inkscape-font-specification:Helvetica;text-align:center;text-anchor:middle;stroke-width:0.999992"
       id="tspan8">ALTO </tspan><tspan
       x="468.06827"
       y="184.84093"
       style="font-style:normal;font-variant:normal;font-weight:normal;font-stretch:normal;font-family:Helvetica;-inkscape-font-specification:Helvetica;text-align:center;text-anchor:middle;stroke-width:0.999992"
       id="tspan9">ADIGE</tspan></text>
  <text
     style="font-style:normal;font-variant:normal;font-weight:normal;font-stretch:normal;font-size:17.5992px;line-height:1.25;font-family:Helvetica;-inkscape-font-specification:Helvetica;stroke-width:0.999993"
     x="626.40973"
     y="161.94041"
     id="FRIULI-VENEZIA–GIULIA-txt"><tspan
       x="626.40973"
       y="161.94041"
       style="font-style:normal;font-variant:normal;font-weight:normal;font-stretch:normal;font-family:Helvetica;-inkscape-font-specification:Helvetica;text-align:center;text-anchor:middle;stroke-width:0.999993"
       id="tspan12">FRIULI-</tspan><tspan
       x="626.40973"
       y="183.93941"
       style="font-style:normal;font-variant:normal;font-weight:normal;font-stretch:normal;font-family:Helvetica;-inkscape-font-specification:Helvetica;text-align:center;text-anchor:middle;stroke-width:0.999993"
       id="tspan14">VENEZIA</tspan><tspan
       x="626.40973"
       y="205.93842"
       style="font-style:normal;font-variant:normal;font-weight:normal;font-stretch:normal;font-family:Helvetica;-inkscape-font-specification:Helvetica;text-align:center;text-anchor:middle;stroke-width:0.999993"
       id="tspan15">GIULIA</tspan></text>
  <text
     style="font-style:normal;font-variant:normal;font-weight:normal;font-stretch:normal;font-size:28.7926px;line-height:1.25;font-family:Helvetica;-inkscape-font-specification:Helvetica;stroke-width:0.999996"
     x="102.41592"
     y="358.2128"
     id="PIEMONTE-txt"><tspan
       id="tspan16"
       x="102.41592"
       y="358.2128">PIEMONTE</tspan></text>
  <text
     style="font-style:normal;font-variant:normal;font-weight:normal;font-stretch:normal;font-size:28.7926px;line-height:1.25;font-family:Helvetica;-inkscape-font-specification:Helvetica;stroke-width:0.999996"
     x="102.41592"
     y="450.2128"
     id="LIGURIA-txt"><tspan
       id="tspan31"
       x="102.41592"
       y="427.1212">LIGURIA</tspan></text>
  <text
     style="font-style:normal;font-variant:normal;font-weight:normal;font-stretch:normal;font-size:16.2395px;line-height:1.25;font-family:Helvetica;-inkscape-font-specification:Helvetica;stroke-width:0.999994"
     x="128.45181"
     y="232.5363"
     id="VALLE–D_AOSTA-txt"><tspan
       id="tspan17"
       x="128.45181"
       y="232.5363"
       style="font-style:normal;font-variant:normal;font-weight:normal;font-stretch:normal;font-family:Helvetica;-inkscape-font-specification:Helvetica;text-align:center;text-anchor:middle;stroke-width:0.999992">VALLE</tspan><tspan
       x="128.45181"
       y="252.83568"
       style="font-style:normal;font-variant:normal;font-weight:normal;font-stretch:normal;font-family:Helvetica;-inkscape-font-specification:Helvetica;text-align:center;text-anchor:middle;stroke-width:0.999994"
       id="tspan18">D'AOSTA</tspan></text>
  <text
     style="font-style:normal;font-variant:normal;font-weight:normal;font-stretch:normal;font-size:27.2008px;line-height:1.25;font-family:Helvetica;-inkscape-font-specification:Helvetica;stroke-width:0.999991"
     x="664.453"
     y="-407.97141"
     id="UMBRIA-txt"
     transform="rotate(75)"><tspan
       id="tspan19"
       x="664.453"
       y="-407.97141">UMBRIA</tspan></text>
  <text
     style="font-style:normal;font-variant:normal;font-weight:normal;font-stretch:normal;font-size:28.7926px;line-height:1.25;font-family:Helvetica;-inkscape-font-specification:Helvetica;stroke-width:0.999996"
     x="752.02631"
     y="149.44505"
     id="MARCHE-txt"
     transform="rotate(30)"><tspan
       id="tspan20"
       x="752.02631"
       y="149.44505">MARCHE</tspan></text>
  <text
     style="font-style:normal;font-variant:normal;font-weight:normal;font-stretch:normal;font-size:28.7926px;line-height:1.25;font-family:Helvetica;-inkscape-font-specification:Helvetica;stroke-width:0.999996"
     x="881.71844"
     y="232.87111"
     id="ABRUZZO-txt"
     transform="rotate(30)"><tspan
       id="tspan21"
       x="881.71844"
       y="232.87111">ABRUZZO</tspan></text>
  <text
     style="font-style:normal;font-variant:normal;font-weight:normal;font-stretch:normal;font-size:28.7926px;line-height:1.25;font-family:Helvetica;-inkscape-font-specification:Helvetica;stroke-width:0.999996"
     x="1087.2307"
     y="44.734241"
     id="CAMPANIA-txt"
     transform="rotate(45)"><tspan
       id="tspan22"
       x="1087.2307"
       y="44.734241">CAMPANIA</tspan></text>
  <text
     style="font-style:normal;font-variant:normal;font-weight:normal;font-stretch:normal;font-size:20.0959px;line-height:1.25;font-family:Helvetica;-inkscape-font-specification:Helvetica;stroke-width:0.999999"
     x="723.2041"
     y="756.06323"
     id="MOLISE-txt"><tspan
       id="tspan23"
       x="723.2041"
       y="756.06323">MOLISE</tspan></text>
  <text
     style="font-style:normal;font-variant:normal;font-weight:normal;font-stretch:normal;font-size:28.7926px;line-height:1.25;font-family:Helvetica;-inkscape-font-specification:Helvetica;stroke-width:0.999996"
     x="1226.3259"
     y="247.94104"
     id="PUGLIA-txt"
     transform="rotate(30)"><tspan
       id="tspan24"
       x="1226.3259"
       y="247.94104">PUGLIA</tspan></text>
  <text
     style="font-style:normal;font-variant:normal;font-weight:normal;font-stretch:normal;font-size:19.3246px;line-height:1.25;font-family:Helvetica;-inkscape-font-specification:Helvetica;stroke-width:0.999996"
     x="864.86713"
     y="865.80383"
     id="BASILICATA-txt"
     transform="scale(0.99006577,1.0100339)"><tspan
       id="tspan25"
       x="864.86713"
       y="865.80383">BASILICATA</tspan></text>
  <text
     style="font-style:normal;font-variant:normal;font-weight:normal;font-stretch:normal;font-size:28.7926px;line-height:1.25;font-family:Helvetica;-inkscape-font-specification:Helvetica;stroke-width:0.999996"
     x="1267.8428"
     y="-287.00751"
     id="CALABRIA-txt"
     transform="rotate(60)"><tspan
       id="tspan26"
       x="1267.8428"
       y="-287.00751">CALABRIA</tspan></text>
  <text
     style="font-style:normal;font-variant:normal;font-weight:normal;font-stretch:normal;font-size:33.9646px;line-height:1.25;font-family:Helvetica;-inkscape-font-specification:Helvetica;stroke-width:0.999997"
     x="675.58783"
     y="1231.2179"
     id="SICILIA-txt"><tspan
       id="tspan27"
       x="675.58783"
       y="1231.2179">SICILIA</tspan></text>
  <text
     style="font-style:normal;font-variant:normal;font-weight:normal;font-stretch:normal;font-size:28.7926px;line-height:1.25;font-family:Helvetica;-inkscape-font-specification:Helvetica;stroke-width:0.999996"
     x="-756.86707"
     y="715.12061"
     id="LACIO-txt"
     transform="rotate(-60)"
     inkscape:transform-center-x="10.92213"
     inkscape:transform-center-y="-86.163469"><tspan
       id="tspan28"
       x="-756.86707"
       y="715.12061">SARDEGNA</tspan></text>
  </g>
</svg>
