<?xml version="1.0" encoding="UTF-8" standalone="no"?>
<svg
   version="1.1"
   id="Bundesrepublik_Deutschland"
   width="592px"
   height="800px"
   xml:space="preserve"
   xmlns="http://www.w3.org/2000/svg"
   xmlns:svg="http://www.w3.org/2000/svg">
<metadata
   origin="https://commons.wikimedia.org/wiki/File:Karte_Deutsche_Bundesl%C3%A4nder_(Bezeichner).svg"
   scale="1080"
   placeholder="ph2"
   id="mapMetadata" />
<style
   type="text/css">
   <![CDATA[
      .label{
         font-family:'Lato-Bold', Arial, Helvetica, sans-serif;
         font-weight:bold;
         font-size:18px;
         text-align:center;
      }
   ]]>
</style>
<g
   id="Länder">
	<path
   id="Thüringen"
   class="area county_b"
   d="M 312,351.72 l 1.84,-0.4 3.39,0.27 1.91,0.17 2.92,0.69 0.43,0.31 1.96,1.82 1.26,-0.54 -1.67,2.24 -0.48,1.61 1.21,2.89 2.09,3.26 1.68,2.59 0.96,1.23 -0.15,2.39 -0.13,2.71 0.78,0.47 0.86,0.96 0.84,0.1 0.75,-0.07 1.16,-0.41 0.63,-0.32 6.45,2.04 0.46,0.05 6.44,0.14 1.4,-0.03 0.7,-0.15 2.77,0.12 4.19,1.61 0.23,0.3 0.04,0.34 -0.27,1.87 0.55,1.02 0.02,0.4 1.8,0.6 -0.52,0.51 -0.06,0.15 -0.02,0.15 0.49,0.63 0.68,0.65 0.31,0.1 0.4,0.21 1.31,1.17 0.47,0.51 0.04,0.27 -0.06,0.15 -0.4,0.69 -0.7,1.11 -1.47,2.15 -0.82,1.15 -0.52,0.59 -0.27,0.2 -0.47,0.18 -0.05,-0.01 -0.75,-0.85 -0.19,0.01 -0.22,0.16 -0.34,0.53 -0.58,1 -0.1,0.8 1.55,1.24 1.59,0.04 0.94,-0.44 0.24,0.02 0.86,0.36 1.57,1.61 1.08,2.45 v 0.27 l -0.53,1.25 -0.27,0.51 -1.32,0.24 0.83,3.43 0.49,0.37 0.9,0.42 0.05,0.26 3.87,-0.08 0.84,-0.71 0.25,-0.23 0.34,-0.75 0.2,-0.18 6.3,0.99 1.56,0.96 0.31,1.22 0.19,1.33 0.14,0.56 4.78,1.52 1.81,0.49 2.81,-0.58 2.03,-0.54 0.83,0.27 3.45,2.2 2.17,1.56 0.25,0.23 2.35,3.01 0.18,0.53 0.02,0.24 0.04,0.89 0.96,-0.42 0.34,-0.08 3.23,-0.52 0.24,-0.02 3.62,1.2 1.09,0.5 -0.07,-0.72 0.25,-0.27 0.27,-0.31 0.68,-0.55 0.11,0.1 1.41,1.8 0.44,0.84 0.26,1.08 0.04,0.03 0.58,-0.4 0.24,-0.12 0.71,-0.93 3.18,-6.87 0.06,-0.31 0.04,-1.02 -0.48,-0.62 -0.38,-0.23 -1.31,-0.96 -0.25,-1.68 1.61,-2.51 2.99,-1.46 0.1,-0.02 7.69,2.41 2.9,1.06 0.38,0.24 0.19,0.27 0.24,0.89 -0.13,0.65 -0.07,1.25 0.31,1.77 2.48,1.86 2.38,0.9 2.42,0.61 0.34,1.65 0.59,2.27 0.15,0.25 0.66,1.1 0.26,0.25 0.54,0.37 -0.82,1.24 -2.8,0.91 -1.42,0.25 -0.56,-0.14 -1.89,0.29 -3.21,0.81 -0.26,0.15 -1.45,1.23 -0.03,1.25 -0.92,2.62 -0.2,0.08 -1.27,0.37 -0.04,-0.06 -0.56,-0.73 -0.59,-0.22 h -1.58 l -0.3,0.1 -1.63,1.27 -0.01,0.07 0.02,1.38 -4.36,1.57 -1.33,-0.15 -0.57,-0.74 -0.47,0.96 -0.75,5.44 -0.08,1.05 0.03,0.51 0.02,0.29 2.49,4.43 0.79,0.78 2.96,0.79 -0.22,1.29 -1.08,1.44 -0.09,0.1 -2.04,2.14 -1.93,0.44 -0.15,-0.02 -3.64,1.57 -3.23,1.42 -0.52,0.22 -0.21,0.15 -0.29,0.84 1.97,0.58 0.35,-0.32 0.68,0.02 0.09,0.04 0.23,0.4 -0.15,0.54 -0.1,0.08 -0.21,0.1 -0.84,0.09 -0.35,-0.14 -1.16,0.76 -2.47,-0.3 -3.97,0.2 0.46,-2.81 -0.44,-3.07 -0.75,-0.79 -0.38,0.1 -0.14,0.09 -1.35,1.24 -0.05,0.81 -2.24,2.32 -0.21,0.08 -0.72,0.34 -0.38,0.22 -3.13,4.4 -0.12,0.34 -0.01,0.09 0.75,1.8 0.31,0.51 0.91,0.02 1.13,-0.14 0.83,0.76 1.98,1.86 0.24,0.49 0.04,0.27 -0.33,0.53 -1.85,1.73 -1.63,0.87 -0.61,0.5 -0.44,0.7 0.14,0.2 0.49,0.49 1.57,1.1 -2.67,1.19 -4.11,1.46 -12.48,1.71 h -0.21 l -0.3,-0.17 -0.56,-0.53 -0.42,-0.49 -0.29,-0.21 -0.39,-0.19 -1.32,0.28 -0.16,0.09 -0.16,0.25 -0.16,0.77 -0.02,0.21 -0.44,0.41 -1.89,0.59 -0.59,-0.29 -1.67,-1.87 -0.66,-1.18 -0.55,-2.19 -1.76,0.21 -1.98,-1.17 -0.1,-0.18 -0.09,-0.56 -0.03,-2.11 0.14,-1.58 0.44,-0.65 0.44,0.01 0.07,-0.11 0.27,-0.68 v -0.15 l -0.57,-0.82 -0.33,-0.48 -0.26,-0.22 -3.48,-0.67 -1.57,0.21 -0.17,0.06 -1.09,1.16 -0.22,0.75 -2.2,1.78 -1.52,0.7 -0.1,-0.16 -0.46,-0.14 -0.43,0.14 -0.22,0.25 -0.15,0.62 v 0.2 l 0.11,2.14 0.69,0.48 0.44,0.16 0.3,0.83 1.2,7.56 v 0.06 l -2.01,6.87 -3.11,0.52 -0.94,1.88 -0.1,0.14 -0.82,0.03 -2.21,-2.14 -0.7,-1.01 -0.03,-0.11 -0.1,-0.48 0.11,-0.58 0.42,-0.48 0.33,-0.28 0.55,-0.41 0.42,-0.14 0.04,-0.61 -1.36,-2.37 -1.62,-1.36 -0.89,-0.01 -0.74,0.17 -0.13,0.11 -0.38,1.15 -1.17,0.5 -1.36,0.46 -0.4,-0.05 -3.58,-0.64 -1.35,-1.47 -1.14,-2.03 -0.55,-0.56 -0.19,-0.04 h -0.16 l -6.64,0.04 -7.51,3.07 -0.21,0.94 0.18,3.06 0.09,0.37 0.37,0.31 5.5,3.89 0.17,0.06 0.62,0.15 1.28,0.42 0.59,0.31 0.41,0.53 0.05,1.38 -0.22,0.62 -0.14,0.17 -0.68,0.46 -0.7,0.18 -0.29,-0.04 -2.83,-0.65 -2.42,-0.56 -0.58,-0.12 -0.29,0.22 -0.07,0.21 0.04,1.7 0.14,0.07 0.14,1.75 -0.45,0.76 -0.19,0.09 -0.28,0.04 -5.23,-1.92 -1.83,-0.45 -0.19,-0.44 -0.42,-1.16 -0.67,-2.88 0.34,-3.57 0.26,-2.81 -3.04,-0.7 -4,-1.5 -2.28,-2.5 -0.31,-1.19 -0.25,-1.01 -0.88,0.44 -0.93,0.42 -1.86,-0.2 -0.17,-0.02 -0.53,-0.75 -0.02,-0.58 -0.39,-2.41 -2.43,-5.16 -0.5,-0.53 -0.55,-0.44 -4.68,-1.95 -1.46,-1.97 -1.84,-2.41 -0.54,-0.06 -6.64,0.71 -1.81,2.01 -0.99,0.98 -0.37,0.18 -0.28,0.09 -0.2,-9.71 0.17,-0.37 0.4,-0.64 0.21,-0.23 1.8,-1.51 -0.74,-2.06 -0.78,-1.35 -0.3,-0.24 -1.27,-0.13 -2.16,-0.13 -0.48,0.13 -2.43,0.95 -0.24,0.32 0.04,0.61 1.23,1.53 -0.54,1.24 -0.92,0.19 -1.08,-0.18 -3.27,-0.58 -0.06,-0.93 0.07,-2.65 0.3,-0.44 0.68,-0.97 1.39,-1.72 1.25,-2.67 0.47,-1.24 v -0.33 l -0.17,-1.47 -0.93,-1.13 1.35,-0.42 0.26,-0.09 0.13,-0.15 -0.01,-0.46 -0.09,-0.97 -0.38,-0.71 -0.01,-0.56 0.36,-1.8 0.14,-0.35 1.1,-0.89 0.46,-0.33 1.62,0.21 1.38,-0.04 0.71,-1.15 1.62,-4.1 -0.02,-0.79 -0.97,-5.91 -1.46,-4.81 0.61,-1.27 0.15,-0.3 0.15,-0.1 0.27,-0.14 0.86,-0.1 1.43,0.15 2.3,0.32 1.28,0.7 0.3,0.36 0.29,0.22 0.47,0.14 0.41,-0.05 1.71,-0.23 0.24,-0.18 0.18,0.04 0.52,-0.2 0.27,-0.16 0.55,-0.65 -0.15,-0.18 0.59,-1.16 0.17,-0.5 -0.53,-0.94 -0.51,-0.53 -0.2,-0.21 -0.9,-0.6 -1.8,-0.65 -0.21,-4.31 -0.61,-1.23 -1.35,-2.86 -0.11,-0.27 0.46,-0.57 2.61,-0.64 1.05,1.08 0.36,1.32 0.28,0.44 -0.01,0.04 0.37,0.7 h 0.57 l 0.19,-0.22 0.04,-0.78 -0.04,-1.79 -0.21,0.03 -0.36,-0.53 -0.03,-0.27 0.42,-1.33 0.33,-0.31 0.37,-0.18 0.61,-0.44 0.32,-0.79 -0.28,-0.61 -1.24,-0.3 -1.32,-1.29 -0.58,-0.48 -0.82,-0.5 -1.65,-0.56 -4.56,-2.31 -0.92,-2.9 -1.89,-0.8 -3.34,-1.27 -1.21,-1.53 -1.44,-3.45 -0.58,-2.17 -0.15,-1 0.2,-0.91 0.2,0.14 0.21,-0.06 0.49,-0.19 3.07,-2.07 6.66,-3.87 5.32,-1.08 8.02,-5.44 2.59,-2.07 0.14,-0.12 1.51,-2.25 0.15,-0.33 0.23,-0.81 -0.04,-0.1 -0.43,-0.2 0.91,-1.94 0.69,-1.16 2.37,-0.62 0.19,-0.02 0.84,0.27 1.54,0.66 0.42,0.19 0.74,0.47 0.39,0.25 1.21,1.8 0.58,0.31 2.43,-0.31 4.57,-1.16 0.95,-1.56 2.06,-5.74 0.28,0.04 1.16,-0.16 z" />
	<path
   id="Schleswig-Holstein"
   class="area county_r"
   d="M 321.98,114.02 l 0.9,3 -0.94,2.14 -2.62,-0.19 -5.22,3.67 -1.42,2.27 0.02,1.81 0.99,2.47 0.2,0.38 0.33,0.9 0.06,0.51 -0.18,1.5 -0.42,3.12 3.81,3.7 1.53,0.93 0.22,0.1 1.25,-0.06 0.4,-0.12 0.03,-0.18 0.22,-0.13 0.17,-0.04 1.13,0.23 0.9,0.44 1.32,1.45 0.71,3.78 -1.4,1.95 -0.4,2.43 -6.56,8.69 -2.15,2.53 -1,1.1 -0.31,0.32 -3.83,2.91 -1.38,-0.3 -0.65,-0.27 -0.51,-0.03 -1,0.58 -0.61,1.28 -1.78,8.1 0.05,0.04 -0.08,0.05 -0.44,0.25 -0.32,0.15 -0.48,-0.04 -4.14,-1.21 -0.58,-0.23 -0.92,-0.54 -0.82,-0.58 -2.42,-1.25 -5.9,-2.7 -1.6,-0.88 -0.54,-1.04 -3.73,-4.01 -0.24,-0.79 0.14,-0.62 -0.48,0.06 -0.38,-0.08 -3.49,-2.44 -0.21,-0.2 -0.85,-2.42 -0.06,-2.08 0.3,-1.18 0.65,-0.63 2.06,-1.66 1.25,-2.66 0.04,-0.1 0.23,-0.67 -1.6,-2.17 -0.75,-0.89 -0.14,-4.67 0.61,-1.42 0.13,-0.86 -1.28,-0.73 -0.2,-0.08 -0.28,-0.04 -4.28,2.07 -1.43,0.94 0.5,0.62 -0.8,1.95 -4.88,3.77 h -0.75 l -0.5,-0.05 -0.96,-0.21 -0.25,-0.2 -1.24,-0.03 -1.13,0.06 -0.07,0.76 0.01,0.33 -0.33,0.56 -0.37,0.56 -3.53,4.42 -0.75,0.37 -0.53,-0.23 -1.05,-0.97 -1.7,-2.07 -0.13,-0.67 0.09,-0.52 -0.39,0.02 -0.23,0.32 -0.72,2.09 -0.26,0.9 -0.42,1.55 -0.46,2.29 -1.67,-0.2 -1.65,-0.55 -5.36,-3.5 -2.27,-1.82 -0.44,-0.61 -0.4,-0.88 -0.35,-1.25 -0.08,-1.61 -0.1,-0.46 -0.42,-1.02 -0.78,-1.88 -0.34,-0.59 -0.98,-1.1 -2.34,-1.73 -0.86,-0.79 -0.59,-0.82 -0.74,-1.28 -0.77,-1.85 -1.82,-3.92 -0.52,-0.96 -2.36,-3.4 -1.8,-1.3 -3.55,-1.53 -1.89,-0.25 -2.07,0.03 -3.63,-0.05 -3.19,-0.21 -1.01,0.03 -0.84,0.15 -0.27,-2.61 -0.17,0.04 -1.48,0.74 -0.32,0.12 -0.46,-0.01 -0.37,-0.15 -1.05,-0.86 -1.9,-1.55 -0.94,-1.32 -0.65,-1.71 -0.32,-1.1 -1.34,-3.2 -2.08,-3.31 -0.37,0.05 -0.32,-0.05 -0.05,-0.21 1.51,-1.25 1.18,-0.66 0.96,-0.2 2.49,0.59 0.48,0.33 0.44,0.49 0.65,0.1 0.84,-0.22 0.51,-0.21 0.25,-0.19 0.25,-0.29 0.22,-0.38 0.15,-0.57 0.17,-0.67 0.01,-0.25 -0.03,-0.31 -0.1,-0.36 -3.23,-6.66 -0.24,-0.3 -0.69,-0.21 -0.26,-0.05 -0.95,0.19 -0.4,0.25 -1.25,0.82 -0.52,-0.33 -1.08,-0.7 -0.15,-0.18 -0.53,-1.02 -1.02,-2.79 -0.1,-0.48 0.02,-0.17 0.24,-0.6 1.06,-2.24 0.65,-1.36 0.1,-0.42 0.31,-3.49 0.05,-0.72 v -0.2 l -0.23,-0.05 0.18,-0.15 v -0.3 l -0.06,-0.58 -0.13,-0.42 -0.27,-0.52 -0.37,-0.48 -0.17,-0.13 -0.3,-0.08 -3.8,-0.01 -0.76,0.05 -2.43,0.18 -1.02,0.99 -0.63,0.75 0.05,0.06 0.49,0.12 0.14,0.01 0.08,-0.06 0.03,0.02 -0.05,0.11 -0.12,0.13 -0.15,0.06 -0.36,0.04 -0.4,-0.05 -4.44,-2.34 -0.56,-0.38 -0.54,-1.04 -0.11,-0.53 0.06,-0.74 0.25,-1.44 0.22,-0.81 0.35,-0.88 0.2,-0.38 0.1,-0.12 0.92,-0.48 0.06,0.91 1.23,0.88 0.56,-0.05 0.17,-0.06 2.61,-1.59 0.13,-0.1 0.08,-0.21 v -0.91 l -0.02,-0.18 -0.06,-0.55 0.54,-2.41 6.63,-1.15 1.29,0.14 1.38,0.66 1.1,-0.3 1.25,-0.57 1.09,-0.57 5.47,-4.62 0.14,-0.15 0.65,-1.07 0.17,-1.1 -0.02,-0.35 -0.21,-0.78 -1.27,-2.81 -6.41,-9.11 -2.98,-4.23 -1.18,-0.71 -1.81,-0.86 -1.18,-1.16 -0.34,-0.43 -2.21,-5.73 -0.77,-3.78 -0.87,-1.82 -0.12,-0.16 -2.25,-2.67 -2.11,-2.36 -0.03,-0.2 0.39,-3.62 1.48,-3.36 1.83,0.03 0.69,0.08 0.41,0.19 1.2,0.82 5.44,-0.28 0.7,-0.12 0.76,-0.08 0.53,0.03 4.08,0.27 2.71,0.23 0.56,0.17 0.25,0.1 3.1,1.44 0.88,0.63 -0.04,0.21 0.44,0.26 0.7,0.4 0.88,0.09 1.65,0.12 1.31,-0.35 1.36,0.01 0.4,0.08 0.72,0.24 2.95,1.23 2.08,0.96 0.27,0.63 -0.37,0.48 -0.21,0.39 0.03,0.42 0.15,0.44 0.68,1.78 4.7,0.46 1.01,-0.1 1.46,-1.29 0.18,-0.18 0.07,-0.63 2.61,-0.51 1.1,0.48 1.36,-0.55 1.34,-0.37 0.92,-0.43 5.14,-4.58 0.47,-0.1 2.16,0.77 -0.41,0.66 -1.03,1.89 4.28,1.76 3.31,1.35 5.9,6.68 1.01,0.54 0.9,0.25 0.52,0.05 h 0.09 l 0.1,-0.12 1.61,-3.48 -0.09,-0.21 0.18,-0.5 0.18,-0.31 0.1,-0.08 1.06,0.66 1.73,1.17 1.07,1.97 3.38,10.59 -0.06,2.17 -0.17,3.04 -0.02,5.38 -0.04,0.44 -1.68,2.88 -0.19,0.26 -0.63,0.73 -1.04,0.88 -1.6,0.93 -2.58,1.32 -1.76,0.87 -0.41,0.1 -0.24,-0.17 -0.18,-0.24 -0.62,-0.02 -0.33,0.07 -0.27,0.15 -0.12,0.14 0.71,1.41 0.27,0.46 0.36,0.4 0.49,0.3 0.27,0.07 2,-0.31 0.68,-0.15 0.31,-0.18 1.89,-0.83 v -0.07 l 0.76,-0.25 5.11,-1.22 3.83,-0.75 0.36,-0.06 0.52,-0.01 0.47,0.09 1.48,0.97 0.67,0.54 1.42,1.41 -0.46,0.79 -1.05,1.57 0.18,0.6 0.75,3.76 -1.24,1.05 -0.56,1.13 -0.13,0.61 1.35,1.78 0.34,-1.23 2.32,-5.07 0.46,-0.51 4.56,-2.25 1.03,-0.2 0.56,-0.02 0.62,0.11 1.19,0.33 1.7,0.48 12.44,6.21 0.73,0.41 1.48,0.95 0.37,0.33 0.48,0.73 0.23,0.52 -0.06,0.05 0.12,0.29 2.04,2.2 0.42,0.35 0.24,0.14 0.57,0.16 0.62,-0.01 2.67,-0.13 0.39,-0.05 0.54,-0.17 0.75,-0.31 0.53,-0.32 1.86,-1.5 0.73,-0.74 1.15,-1.36 1.76,-1.55 2.52,-1.94 1.19,-0.31 8.16,-0.37 -0.25,3.57 -0.46,0.8 -0.06,0.32 0.15,2.31 0.61,6.72 0.74,5.67 -0.03,0.1 -0.08,0.07 -2.61,2.13 -0.65,0.46 -3.23,2.26 -2.97,2.74 -2.62,3.29 -0.44,0.37 -0.5,0.31 -0.5,0.19 -2.23,-0.4 -0.32,-0.08 -0.5,-0.35 -3.16,3.36 -0.27,0.27 -0.17,0.35 -0.17,0.6 -0.06,0.48 0.01,0.29 0.1,0.51 0.69,1.67 0.59,1.1 0.38,0.6 0.42,0.54 0.24,0.23 0.52,0.33 0.45,0.07 h 1.89 l 0.23,-0.03 0.88,-0.22 0.32,0.04 0.52,0.24 0.41,0.34 0.32,0.41 0.2,0.52 0.01,0.19 -0.14,1.05 0.13,0.79 0.52,0.22 0.31,0.04 z M 168.3,10.27 l -1.11,2.87 -0.91,2.59 -0.3,1.42 -0.25,2.03 -0.21,2.38 -0.64,9.16 -0.01,0.71 0.55,1.27 0.32,0.41 0.13,-0.04 0.11,-0.18 0.02,-0.41 0.24,-7.81 -0.14,-0.23 -0.14,-0.47 V 23.8 l 0.16,-1.5 0.43,-1.38 0.25,-0.33 2.13,-1.38 0.61,0.53 0.12,0.16 1.44,0.81 1.4,1.02 0.47,0.16 h 0.22 l 2.74,-1.4 1.75,-1.46 -0.08,-0.07 -0.35,-0.08 -0.53,-0.05 -2.16,0.08 -0.53,-0.08 -0.27,-0.1 -1.85,-1.65 -0.05,-0.08 -1.64,-1.68 -0.41,-5.95 1.14,-2.26 0.51,-0.65 0.96,-0.76 0.09,-0.05 1.21,-0.29 1.27,-0.79 1.56,-3.06 -0.02,-0.08 -0.11,-0.1 -2.12,-0.88 -0.58,-0.17 -0.34,-0.02 -0.18,0.06 -0.52,0.33 -0.14,0.14 -0.42,0.69 -1.9,4.48 -0.37,0.94 z m 8.43,21.45 -0.51,-0.01 -1.94,0.37 -0.56,0.21 -0.42,0.33 -0.54,0.56 -0.4,0.72 -0.53,1.27 -0.08,0.83 0.09,0.42 0.17,0.31 0.2,0.17 4,1.97 0.83,0.23 0.97,0.06 3.26,0.13 0.42,-0.02 0.21,-0.09 1.85,-3.87 -0.6,-2.39 -0.15,-0.29 -0.91,-0.63 -1.11,-0.39 -0.45,-0.1 -0.3,-0.07 -0.71,-0.05 -0.83,0.3 -0.32,0.13 z m -11.03,9.07 0.01,0.22 0.3,0.77 1.22,1.97 0.65,0.99 0.73,1.13 0.17,0.08 0.35,0.05 1.14,-0.01 0.07,-0.02 1.19,-0.58 0.12,-0.13 0.3,-0.75 -0.04,-0.1 -0.08,-0.04 -1.19,-0.6 -1.04,-1.6 -1.26,-3.53 -0.14,-0.74 0.17,-0.5 0.27,-0.51 1.02,-1 -0.08,-0.1 -0.16,-0.05 -0.4,0.18 -2.45,2.23 -0.32,0.41 -0.38,0.93 -0.04,0.84 z m 17.25,3.62 3.65,-0.91 0.48,-0.29 0.34,-0.44 0.19,-0.6 0.18,-1.02 -0.17,-0.08 -6.29,2.46 -1.65,0.68 -0.15,0.41 0.05,0.15 1.05,0.86 z m -4.28,5.14 -0.26,0.03 -0.2,0.17 0.05,0.18 0.25,0.39 0.17,0.13 1.61,1.19 0.29,0.19 0.85,0.01 0.52,-0.15 0.12,-0.21 -0.01,-0.44 -0.75,-1.15 -0.11,-0.17 -0.11,-0.07 -0.33,-0.1 -0.66,0.19 z m 5.53,8.75 0.55,0.5 0.31,0.1 0.67,-0.03 1.02,-0.21 0.87,-0.25 0.24,-0.15 0.35,-0.39 1.1,-2.44 0.6,-1.41 0.08,-1.48 -0.23,-0.14 -0.62,-0.1 -0.56,0.07 -2.22,0.7 -0.32,0.09 -2.59,1.08 -0.37,0.19 -0.21,0.27 -0.05,0.27 0.03,1.14 0.13,0.49 0.15,0.31 0.23,0.32 0.14,0.1 z m 15.22,-2.69 -3.15,2.04 -0.41,0.51 v 0.27 l -0.01,2.58 0.68,0.53 0.59,0.3 0.78,0.18 2.17,0.21 0.91,-0.01 1.27,-1.06 0.56,-0.69 0.08,-0.12 1.5,-2.29 0.03,-0.16 -0.24,-1.3 -0.32,-0.36 -0.94,-0.21 -2.24,-0.09 z m 132.4,-0.73 -0.47,-0.16 -0.19,-0.18 -0.1,-0.16 -0.16,0.06 -0.33,0.26 -0.79,0.9 -0.61,0.85 -0.36,0.63 -0.7,1.56 -0.35,0.99 -0.09,0.33 -0.31,3.41 0.13,0.56 0.14,0.2 1.57,1.06 0.25,0.12 0.39,0.06 0.05,-0.05 -0.05,-0.04 -0.02,0.04 h -0.06 l -0.39,-0.14 -0.96,-0.6 0.01,-0.62 0.19,-0.18 2.31,-0.82 1.05,0.34 0.39,0.17 0.41,0.17 0.13,0.27 0.29,0.84 -0.09,0.93 -0.15,1.28 5.06,0.94 7.8,0.07 0.07,-0.02 0.03,-0.1 -0.04,-0.59 -1.26,-2.71 -1.04,-2.19 -3.15,-4.81 -3.23,-1.68 z m -143.78,49.9 -0.18,-0.11 -0.35,-0.36 -0.5,-0.61 0.01,-0.4 0.12,-0.49 0.21,-0.42 0.17,-0.23 0.22,-0.21 0.2,-0.13 0.25,-0.1 0.25,-0.02 0.31,0.25 0.02,0.06 -0.15,2.55 -0.29,0.2 z m -47.26,-16.02 1.18,-0.12 0.07,0.61 -0.87,1.52 -0.73,-0.06 -0.29,-0.06 -0.88,-1.61 0.04,-0.24 0.53,-0.37 0.44,-0.15 z" />
	<path
   id="Sachsen-Anhalt"
   class="area county_y"
   d="M 365.99,207.78 l 1.4,-0.57 0.25,-0.04 0.49,0.04 0.21,0.05 0.23,0.13 0.21,0.18 0.07,0.24 -0.02,0.2 -0.11,0.17 -0.86,1.15 -0.05,0.31 0.05,0.38 0.14,0.29 0.24,0.25 3.57,2.84 0.22,0.14 0.53,0.1 0.31,-0.08 0.74,-0.52 0.99,-0.58 0.17,-0.03 0.54,0.08 0.4,0.14 0.38,0.18 0.22,0.12 5.17,3 0.24,0.31 0.1,0.26 0.03,0.28 -0.02,0.24 -0.09,0.28 -0.14,0.19 -0.53,0.45 -0.52,0.55 -0.19,0.4 -0.05,0.2 0.06,0.49 0.25,0.5 0.22,0.22 0.35,0.18 3.59,1.46 5.22,1.68 0.29,0.05 8.22,-0.97 0.75,-0.69 -0.13,0.17 -0.25,0.65 -0.03,0.68 0.84,1.99 1.64,-0.55 0.92,-0.48 1.55,-0.7 1.48,0.67 0.62,0.41 0.1,0.27 1.23,4.9 -0.2,1.81 -1.46,0.73 -0.67,1.29 -0.35,1.14 -0.42,4.44 0.03,0.1 1.24,2.03 1.19,1.79 0.27,0.89 0.02,0.58 -0.41,3.68 -1.63,1.19 -0.42,-0.02 -0.41,-0.12 -0.9,1.63 -1.78,7.12 -0.04,0.75 0.04,0.04 1.83,2.17 0.86,1.03 1.18,-0.19 1.12,-0.33 0.32,-0.47 0.04,-0.15 0.18,-0.94 5.55,1.92 0.37,3.27 -0.31,0.93 -0.58,1.02 -0.87,2.16 0.19,1.65 0.4,2.85 0.65,3.43 -1.19,2.4 -0.25,0.12 -0.11,0.17 -1.17,2.57 -0.57,1.79 -0.13,0.48 -0.27,2.47 0.23,4.03 -1.83,4.14 2.93,3.75 2.09,3.22 2.65,3.45 1.66,1.88 4.59,2.85 7.21,2.8 3.96,0.6 0.77,-0.13 1.82,-1.29 0.15,-1.35 0.44,-0.59 0.93,-0.01 1.99,0.92 0.69,0.44 1.6,0.9 1.81,0.94 0.35,0.02 0.48,1.44 4.93,2.83 2.42,0.61 0.52,0.02 1.06,-0.38 4.87,2.59 3.03,3.13 0.3,0.19 0.16,0.02 2.36,0.21 2.05,-0.83 0.34,-0.21 -0.06,-0.67 0.9,0.04 0.41,0.26 0.73,0.72 0.14,0.61 0.02,0.62 -1.74,0.28 0.01,0.22 0.01,0.25 3.32,11.7 0.48,0.44 0.27,0.25 0.46,0.94 0.04,0.48 v 0.14 l -1.4,2.52 -0.52,0.56 -6.45,4.28 -2.15,0.3 -6.56,0.32 h -0.05 l -9.52,0.19 -0.93,-0.35 -0.1,-0.06 -0.7,-0.52 -1.01,-0.36 -0.34,-0.11 -0.53,-0.1 h -1.01 l -0.36,0.22 -0.27,0.32 -0.13,0.23 -0.1,0.59 -0.69,1.85 -0.22,0.18 -0.81,0.64 -0.83,0.61 -1.57,0.76 -2.03,-1.39 -0.33,1.12 -1.99,0.98 -7.53,2.16 -2.29,0.22 -2.54,0.05 -0.66,0.08 -5.27,2.77 -3.46,3.09 -0.2,2.39 -2.44,5.31 0.39,1.44 1.01,3.38 0.14,0.06 0.04,0.08 0.22,0.69 0.97,5.47 0.18,1.59 -1.33,0.51 -1.6,0.87 1.68,4.49 1.27,1.83 0.4,1.9 0.04,0.27 0.38,2.42 -0.02,7.23 2.04,0.43 0.31,0.16 0.54,0.58 -0.05,0.39 -0.67,0.56 2.3,2.02 1.39,0.97 -1.61,2.51 0.25,1.68 1.3,0.96 0.38,0.23 0.48,0.62 -0.04,1.02 -0.06,0.31 -3.18,6.87 -0.71,0.92 -0.24,0.14 -0.58,0.4 -0.04,-0.03 -0.26,-1.08 -0.44,-0.83 -1.41,-1.8 -0.1,-0.1 -0.68,0.55 -0.27,0.31 -0.25,0.28 0.07,0.72 -1.08,-0.5 -3.62,-1.2 -0.24,0.02 -3.22,0.52 -0.35,0.08 -0.96,0.42 -0.04,-0.89 -0.02,-0.24 -0.18,-0.53 -2.35,-3.01 -0.25,-0.23 -2.17,-1.55 -3.45,-2.2 -0.83,-0.28 -2.03,0.54 -2.81,0.58 -1.8,-0.48 -4.78,-1.52 -0.14,-0.56 -0.19,-1.33 -0.31,-1.22 -1.56,-0.96 -6.3,-0.99 -0.2,0.18 -0.35,0.75 -0.25,0.23 -0.84,0.71 -3.88,0.08 -0.05,-0.26 -0.9,-0.42 -0.49,-0.37 -0.83,-3.43 1.32,-0.24 0.27,-0.51 0.53,-1.25 v -0.27 l -1.09,-2.45 -1.57,-1.61 -0.86,-0.36 -0.24,-0.02 -0.94,0.44 -1.59,-0.04 -1.56,-1.24 0.11,-0.8 0.58,-1 0.34,-0.53 0.22,-0.16 0.19,-0.01 0.75,0.86 0.05,0.01 0.47,-0.18 0.27,-0.2 0.52,-0.59 0.82,-1.16 1.46,-2.14 0.7,-1.11 0.4,-0.69 0.06,-0.15 -0.04,-0.27 -0.46,-0.51 -1.31,-1.17 -0.4,-0.21 -0.31,-0.11 -0.67,-0.65 -0.5,-0.63 0.02,-0.15 0.06,-0.15 0.52,-0.51 -1.8,-0.6 -0.02,-0.4 -0.55,-1.02 0.28,-1.87 -0.04,-0.34 -0.23,-0.3 -4.19,-1.61 -2.77,-0.12 -0.7,0.15 -1.4,0.03 -6.44,-0.14 -0.46,-0.05 -6.45,-2.04 -0.63,0.32 -1.16,0.41 -0.75,0.07 -0.84,-0.1 -0.86,-0.96 -0.78,-0.46 0.13,-2.71 0.15,-2.39 -0.96,-1.23 -1.68,-2.59 -2.09,-3.26 -1.21,-2.89 0.48,-1.6 1.66,-2.24 -1.26,0.54 -1.96,-1.82 -0.43,-0.31 -2.92,-0.69 -1.91,-0.17 -3.39,-0.27 -1.85,0.4 -0.37,-0.12 -0.05,-0.05 -0.3,-0.41 -1.26,-2.03 -0.14,-0.39 -0.22,-1.28 -0.08,-0.86 0.21,-0.53 -0.94,-2.23 -3.01,-4.45 -1.03,-0.57 -0.7,-1.47 -0.27,-2.82 -0.01,-3.46 0.15,-0.51 0.36,-0.46 2.15,-1.78 0.39,-0.16 0.38,-0.02 0.18,-0.13 1.02,-1.6 0.1,-0.35 v -0.74 l -0.08,-0.66 -0.1,-0.29 -0.52,-0.65 -0.8,-0.33 -0.89,-0.33 -0.02,-1.63 0.02,-0.18 0.76,-1.1 1.27,-0.42 -3.73,-2.8 -1.69,-2.38 4.21,-0.44 1.77,-1.75 0.05,-0.14 0.04,-0.29 -0.16,-0.44 0.11,-0.95 1.92,-0.58 1.02,-0.2 5.04,-0.06 h 0.25 l 0.95,0.22 1.82,-0.05 1.39,-0.3 0.36,-0.15 0.94,-0.67 0.52,-0.09 3.43,-0.11 1.71,0.17 0.11,0.1 0.31,-3.09 0.38,-1.92 2.03,-1.45 1.88,-1.53 1.19,-1.77 0.16,-0.28 0.05,-1.46 -0.1,-0.36 -0.06,-0.07 -0.17,-0.02 -0.88,0.12 -0.47,-0.03 -0.67,-0.4 -0.38,-0.3 -0.18,-0.19 -0.14,-0.31 -0.06,-0.42 0.12,-0.75 0.41,-1.05 0.29,-0.54 0.33,-0.21 1,-0.47 0.7,-0.18 1.08,-0.22 0.59,-0.78 0.03,-0.06 -0.02,-0.08 -0.44,-0.96 -1.43,-2 -1.36,-1.36 -1.43,-1.57 -0.05,-0.1 -0.42,-4.1 1.23,-1.71 0.56,0.14 0.18,-0.05 1.13,-0.52 0.81,-0.65 0.05,-0.18 0.04,-1.41 -0.05,-0.39 -0.62,-0.6 -0.77,-0.67 -0.23,-0.1 -0.32,-0.05 -1.29,-0.8 -4.53,-5.77 -0.86,-1.84 0.63,-1.55 2.24,-1.21 1.74,0.07 -1.82,-2.11 -1.32,-1.68 -0.76,-1.29 -0.34,-0.75 -0.34,-1.35 0.18,-2.19 0.01,-0.04 -2.8,-5.42 -3.73,-5.32 -2.61,-1.92 -2.63,-7.19 0.08,-0.57 0.15,-0.6 -0.22,-2.27 0.02,-0.2 0.51,-2.19 2.06,-0.58 2.68,-0.55 6.06,-0.16 2.85,-3.1 0.2,-0.42 0.02,-0.16 -0.09,-0.45 0.04,-0.75 0.17,-0.66 0.33,-0.38 0.26,-0.1 0.34,-0.03 9.26,0.4 3.9,0.76 0.75,0.77 0.32,0.33 0.13,0.32 v 0.27 l 0.04,0.13 0.1,0.07 0.32,0.06 3.15,0.33 1.13,-0.32 5.69,-2.78 0.15,-0.16 0.89,-1.16 1.76,-1.7 1.12,-0.63 1.23,-0.29 0.86,0.01 -0.8,-1.87 0.58,-3.2 0.22,-1.01 0.34,-0.71 0.83,-0.16 0.08,0.04 0.38,0.53 0.65,0.36 0.74,0.07 0.03,-0.05 2.48,-3.64 0.01,-0.08 z" />
	<path
   id="Sachsen"
   class="area county_g"
   d="M 461.78,347.26 l 2.41,3.88 0.58,0.32 0.73,-0.48 0.33,-0.31 0.19,-0.31 2.65,1.42 0.45,0.81 1.87,4.09 1.13,2.75 0.22,0.68 0.16,0.68 -0.22,5.21 -0.77,3.69 1.53,1.83 0.22,0.63 0.21,0.4 2.28,0.05 0.51,-0.13 1.71,-0.48 -0.1,-1.07 -0.01,-0.15 2.62,-2.33 4.54,-2.43 0.59,0.45 2.3,2.05 2.15,1.74 4.92,3.02 2.9,0.87 0.35,0.04 1.99,-0.05 3.31,-0.09 0.46,-0.68 0.34,0.43 0.83,0.45 0.51,0.1 3.1,0.38 0.84,-0.57 2.06,-1.02 1.58,-0.59 2.79,0.08 0.33,-0.05 7.52,-1.54 2.66,-3.5 1.42,-5.52 1.51,-4.44 2.12,-3.08 0.4,-0.06 1.29,0.21 3.07,-0.1 4.02,0.52 2.93,1.01 4.35,-2.45 3.44,-0.44 0.33,0.18 -0.09,-0.54 -0.01,-0.38 0.13,-0.36 0.36,-0.25 6.95,-2.46 2.21,0.86 0.15,0.67 0.44,0.75 0.15,0.17 0.42,0.09 0.53,0.07 3.19,-0.32 0.17,-0.06 0.47,-0.55 0.16,-0.23 0.11,-0.27 0.65,-2.35 0.83,-0.76 0.98,0.79 -1,1.96 -0.03,0.16 1.27,2.99 0.44,0.53 1.07,0.39 0.86,0.24 0.88,0.06 0.94,-0.07 0.24,0.02 8.2,3.05 0.22,0.12 1.65,0.88 0.1,0.09 0.43,0.7 1.27,2.14 0.02,0.41 -0.05,4.03 4.87,10.45 0.66,2.02 -0.03,2.9 -1.16,2.69 -0.23,1.2 -1.95,14.35 -0.22,1.64 -0.86,1.22 -0.69,2.48 0.26,0.24 0.02,0.08 -0.22,1.07 -0.74,3.22 -1.2,3.66 -0.3,0.51 -1.53,1.96 -1.38,1.74 -1.4,2.74 -0.32,2.41 -0.45,2.42 -0.15,0.71 -0.35,0.21 -1.43,0.13 -0.47,0.01 -2.13,-0.35 -5.47,-2.07 -2.00581,-0.83105 -0.13419,-0.75895 0.84,-2.44 -0.84,-3.75 -2.12,-6.16 -1.33,-1.28 -5.31,-4.48 -0.52,0.35 0.16,0.68 -0.08,1.44 -4.76,0.69 -0.5,0.05 -0.17,-0.01 -4.59,-1.72 -0.18,-0.1 -0.19,-0.17 -0.96,-1.14 -0.21,-0.17 -0.15,-0.03 -0.71,0.05 -0.36,0.46 -0.27,0.62 -1.86,5.84 0.09,0.19 3.63,3.19 0.23,0.18 0.44,0.19 3.51,0.93 0.68,-0.19 0.37,0.17 0.31,0.21 0.27,0.41 0.14,0.92 -0.7,2.51 -5.28,1.9 -11.17,5.68 -1.95,1.07 -1.12,1.35 -0.58,0.22 -8.41,2.69 -0.81,0.07 -1.85,0.14 0.25,0.46 0.22,3.17 -0.06,0.42 -0.33,0.79 -2.47,1.66 -0.61,0.2 -1.18,0.18 -0.14,-0.02 -0.42,-0.13 -0.55,-0.39 -0.31,-0.12 -1.89,-0.41 -0.15,-0.02 -6.96,0.92 -0.98,0.14 -7.24,4.33 0.19,0.51 0.23,0.92 -0.04,0.14 -1.83,4.15 -0.92,0.57 -1.9,2.44 -3.88,-1.9 -2.14,-0.2 -5.87,4.5 -3.37,3.71 0.09,0.69 -1.86,4.52 -1.5,0.33 -3.08,-0.97 -5.51,0.49 -0.6,0.23 -0.15,0.07 -0.04,0.17 -0.42,2.14 -0.15,2.05 0.13,0.72 0.16,0.38 -0.02,0.5 -0.01,0.04 -0.09,0.37 -0.22,0.37 -2.01,2.51 -0.4,0.28 -2.1,1.29 -0.75,-0.27 -2.92,-1.89 -4.18,-2.68 -0.66,-0.35 -0.06,0.03 -5.27,3.17 -3.71,2.08 -1.1,0.15 -5.04,0.65 -4.46,1.25 -7.4,9.27 -2.1,3.1 -1.93,3.79 -0.21,0.76 -0.27,2.76 0.16,0.46 0.13,0.14 0.23,0.12 0.21,0.2 0.35,0.72 -0.17,1.88 -0.27,0.2 h -0.78 l -0.77,-0.09 -0.99,-0.21 -0.19,-0.11 -0.12,-0.13 -0.8,-1.29 -0.27,-0.56 0.04,-0.25 0.53,-0.23 0.18,-0.13 0.2,-0.8 -0.23,-1.63 -5.81,-8.35 -1.14,-1.3 -0.48,-0.02 -1.97,0.02 -2.72,0.1 -0.39,0.32 -0.47,-0.64 -1.99,-0.75 -4.47,-1.32 -1.16,-0.19 -0.41,-0.29 0.31,-1.75 0.22,-1.71 0.04,-0.42 -2.56,-2.64 -0.68,-0.63 -0.92,-0.19 -1.57,-1.1 -0.49,-0.48 -0.13,-0.2 0.44,-0.69 0.61,-0.5 1.63,-0.87 1.85,-1.73 0.33,-0.53 -0.04,-0.27 -0.24,-0.5 -1.98,-1.86 -0.83,-0.76 -1.13,0.14 -0.91,-0.02 -0.31,-0.51 -0.74,-1.8 0.01,-0.1 0.13,-0.34 3.12,-4.4 0.38,-0.22 0.72,-0.34 0.21,-0.08 2.24,-2.31 0.05,-0.81 1.35,-1.24 0.14,-0.08 0.38,-0.11 0.75,0.79 0.44,3.08 -0.46,2.81 3.97,-0.2 2.47,0.31 1.16,-0.76 0.35,0.14 0.84,-0.09 0.21,-0.11 0.1,-0.08 0.15,-0.54 -0.23,-0.4 -0.09,-0.04 -0.68,-0.02 -0.35,0.32 -1.97,-0.58 0.29,-0.85 0.21,-0.15 0.52,-0.22 3.23,-1.42 3.64,-1.57 0.15,0.02 1.93,-0.44 2.05,-2.14 0.09,-0.11 1.08,-1.44 0.22,-1.29 -2.96,-0.79 -0.79,-0.78 -2.5,-4.43 -0.02,-0.28 -0.03,-0.51 0.08,-1.05 0.75,-5.44 0.48,-0.96 0.57,0.74 1.33,0.15 4.38,-1.57 -0.02,-1.38 0.01,-0.07 1.63,-1.27 0.3,-0.09 h 1.57 l 0.59,0.22 0.56,0.73 0.04,0.06 1.26,-0.37 0.2,-0.08 0.92,-2.62 0.03,-1.25 1.45,-1.25 0.26,-0.14 3.21,-0.81 1.89,-0.29 0.56,0.14 1.42,-0.25 2.8,-0.91 0.81,-1.24 -0.54,-0.37 -0.27,-0.25 -0.66,-1.1 -0.15,-0.25 -0.59,-2.27 -0.34,-1.65 -2.42,-0.61 -2.38,-0.9 -2.48,-1.86 -0.31,-1.77 0.07,-1.25 0.13,-0.66 -0.24,-0.89 -0.19,-0.27 -0.38,-0.24 -2.9,-1.07 -7.69,-2.4 -0.1,0.01 -2.99,1.47 -1.39,-0.97 -2.3,-2.02 0.67,-0.56 0.05,-0.39 -0.54,-0.58 -0.31,-0.16 -2.04,-0.44 0.02,-7.23 -0.38,-2.42 -0.04,-0.27 -0.4,-1.9 -1.26,-1.83 -1.68,-4.49 1.6,-0.87 1.33,-0.51 -0.18,-1.59 -0.97,-5.47 -0.22,-0.69 -0.04,-0.08 -0.14,-0.06 -1.01,-3.38 -0.39,-1.44 2.44,-5.31 0.2,-2.39 3.46,-3.09 5.27,-2.77 0.66,-0.08 2.54,-0.05 2.29,-0.22 7.53,-2.16 1.99,-0.98 0.33,-1.12 2.03,1.38 1.57,-0.76 0.83,-0.61 0.81,-0.63 0.22,-0.18 0.69,-1.85 0.1,-0.59 0.13,-0.23 0.27,-0.32 0.36,-0.22 h 1.01 l 0.53,0.1 0.35,0.1 1,0.36 0.7,0.52 0.1,0.06 0.92,0.35 9.52,-0.19 h 0.05 l 6.56,-0.32 z" />
	<path
   id="Saarland"
   class="area county_b"
   d="M 25.86,560.26 l 0.48,0.29 7.04,2.2 1.33,0.16 4.35,0.3 7.08,-1.25 4.27,-1.23 0.61,-0.34 1.35,-0.77 0.18,-0.13 0.53,-0.54 0.21,-0.35 0.56,-0.61 0.27,-0.19 0.77,-0.36 3.02,-1.21 1.9,-0.74 h 0.43 l -0.01,-0.08 0.05,-0.06 0.13,-0.1 3.05,-1.79 0.37,-0.14 1.99,0.25 0.95,0.18 -0.07,0.31 -0.17,0.7 0.01,0.19 0.15,-0.04 1.65,-0.64 0.53,-0.45 0.55,-0.62 2.63,1.71 3.29,2.99 6.1,3.29 0.76,0.15 0.81,-0.27 1.11,-0.58 0.43,-0.42 0.18,0.31 0.36,0.73 0.46,1.02 0.02,0.2 0.06,0.84 0.13,4.41 -0.48,5.22 -1.67,0.51 -0.38,0.27 0.02,0.15 0.18,1 0.15,0.39 2.52,1.68 0.1,0.82 -0.27,1.49 -0.02,0.37 5.02,2.87 0.73,-0.19 1.24,-0.56 0.44,0.38 -0.6,0.43 -0.71,4.35 0.02,0.09 0.58,0.39 -0.53,2.28 -0.58,0.85 -0.37,0.44 -0.6,0.26 -1.38,0.69 -2.86,1.93 -1,1.32 -0.01,0.16 -0.03,0.59 1.02,3.06 0.9,1.19 1.8,2.59 0.16,0.22 0.27,0.21 0.98,-0.01 -0.53,0.86 -4.36,3.5 -0.35,0.22 -0.73,-0.23 -0.98,-0.74 -1.45,-0.6 -4.12,-0.39 -0.44,0.1 -0.66,0.27 -0.59,0.68 -0.23,-0.11 -0.84,-0.49 -0.48,-0.27 -1.28,-1.24 -0.835,-1.73812 -0.955,2.62812 -1.64,1.62 -0.67,0.22 -0.33,-0.12 -0.29,-0.29 -0.2,-0.5 -0.67,-3.76 -0.24,-1.43 0.07,-0.53 -1.24,-1.93 -2.21,-1.68 -2.33,-0.85 -1.4,-0.39 -4.01,-0.45 -1.43,0.9 -0.14,0.22 0.44,0.38 0.58,0.82 0.56,1.89 -0.04,0.31 -0.17,0.42 -0.94,1.48 -1.7,0.3 -5.52,-1 -1.16,-1.26 -0.56,-1.35 1.44,-1.75 -0.49,-1.35 -2.13,-1.23 0.07,-1.83 -0.04,-0.19 -1.3,-3.2 -1.93,-1.66 -1.62,-0.9 -0.3,-0.31 -0.95,-1.19 -0.34,-0.47 -1.37,-2.53 -0.07,-0.17 -1.54,-5.97 -0.06,-0.43 0.1,-0.27 0.7,-0.55 0.6,-0.15 -0.41,-0.62 -0.53,-0.57 -0.49,-0.37 -4.29,-3.31 -2.33,-0.87 -1.68,0.35 -0.34,0.16 -0.67,0.16 -1.25,-0.08 -0.49,-0.57 -0.4,-6.25 0.05,-0.19 0.26,-0.43 z" />
	<path
   id="Rheinland-Pfalz"
   class="area county_g"
   d="M 145.21,448.33 l -0.88,1.01 -0.15,0.41 -0.06,0.55 -0.01,0.93 0.92,4.87 0.13,0.25 0.36,0.21 1.17,0.67 0.01,0.59 -0.38,1.18 -0.73,1.8 -0.27,0.67 -0.78,1.85 -0.19,0.43 -0.76,0.11 -1.07,-0.21 -1.02,-0.35 -0.5,-1.05 -1.21,-0.49 -0.31,-0.03 -0.6,0.17 -0.38,0.14 -2.39,2.84 -0.53,1.07 -0.47,2.43 v 0.33 l 0.54,1.29 0.73,0.97 -1.76,4.95 -0.29,0.77 0.51,0.01 5.28,3.52 2.65,4.85 0.2,0.4 0.07,0.17 0.74,2.24 0.07,0.4 0.02,1.92 -2,1.15 -2.09,-0.85 -0.67,-0.09 -0.89,0.28 -0.99,1.3 0.23,0.48 1.68,1.63 0.37,0.26 0.09,0.17 -1.68,1.86 -0.3,0.01 -1,-0.24 -1.84,-1.08 -4.34,1.88 -0.35,0.18 -0.58,0.42 -1.53,2.01 -0.07,0.13 0.06,1.32 0.37,0.52 0.52,0.32 0.79,0.6 1,0.9 0.13,0.36 -0.38,2.99 -0.3,0.4 -2.31,-0.64 -0.38,-0.15 -4.16,3.47 -1.99,1.12 -0.95,0.2 0.68,1.93 5.41,7.57 0.47,0.33 0.27,0.08 0.35,0.04 3.34,-0.1 1.99,-0.32 0.29,-0.08 7.02,-2.69 4.14,-1.88 2.52,-0.83 0.92,-0.06 1.05,0.15 1.85,0.39 0.58,0.24 1.16,1.11 0.69,0.75 0.44,0.65 0.78,1.16 1.27,1.16 0.72,0.85 0.38,0.56 0.47,0.81 0.48,1.17 0.03,0.95 0.59,1.9 0.13,0.55 -0.02,0.5 -0.06,0.34 -0.31,0.65 -0.35,0.57 -0.13,0.35 -0.11,0.53 v 0.39 l 0.19,0.79 2.23,5.64 0.3,0.5 1,1.44 0.52,0.98 2.79,2.92 0.34,2.34 -0.62,1.01 -0.15,0.29 -0.08,0.19 -0.41,0.6 -0.48,0.38 -0.41,0.23 -0.39,0.16 -1.51,0.33 -0.7,0.26 -0.48,0.24 -0.55,0.34 -0.63,0.49 -0.11,0.13 -0.2,0.37 -0.08,0.24 -0.17,0.97 0.1,0.45 1.6,5.15 0.5,0.92 1.59,2.39 0.51,1.18 -0.08,1.14 -0.4,0.7 -0.13,0.5 -0.02,0.42 0.04,0.37 0.1,0.31 0.42,0.84 1.09,4.42 0.08,0.62 0.43,3.19 -0.24,0.18 -0.22,0.23 -0.11,0.31 0.01,0.36 0.13,0.24 0.16,0.18 0.26,0.22 0.23,0.11 0.58,0.1 0.66,-0.03 1,-0.03 0.56,0.1 0.36,0.16 0.34,0.4 0.1,0.32 -0.01,0.32 -0.78,2.09 0.17,2.29 0.05,0.86 -0.04,0.57 -0.24,0.93 -0.38,0.85 -0.59,0.87 -0.5,0.52 -0.44,0.34 -0.45,0.31 -0.52,0.48 -0.22,0.32 -0.13,0.33 -0.03,0.2 0.03,0.43 0.14,0.38 0.19,0.23 0.21,0.14 1.03,0.35 0.24,0.14 0.35,0.31 0.23,0.36 0.12,0.54 -0.05,0.42 -0.11,0.22 -1.36,0.7 -1.76,1.97 -0.49,0.44 -1.44,0.93 -0.55,0.34 -0.51,0.44 -0.36,0.43 -0.29,0.54 -0.18,0.61 -0.05,0.71 0.02,0.04 h 0.1 l 0.17,-0.04 0.16,1.8 -2.41,10.29 -0.18,0.52 -0.45,0.73 -0.69,0.85 -0.01,0.01 -0.98,1.06 -0.71,1.06 -0.36,0.66 -0.45,1.19 -0.19,0.9 -0.2,1.41 -0.07,0.3 -0.1,0.31 -0.42,0.94 -0.28,0.53 -0.31,0.45 -0.4,0.41 -1.07,0.85 -1.59,1.24 -0.41,0.24 -0.29,-0.59 -0.17,-0.29 -0.15,-0.1 -3.48,-0.42 -0.32,0.14 -0.99,0.04 -0.85,-0.17 -3.01,-1.22 -1.63,-0.75 -0.12,-0.29 -0.66,-0.8 -0.72,-0.72 -4.99,-2.41 -3.25,-0.93 -1.35,-0.12 -0.98,-0.46 -4.9,-0.74 -3.42,0.78 -0.3,0.07 -1.95,0.09 -3.88,-0.22 -2.89,-1.1 -4.47,-2.75 -0.91,-0.6 -1.4,-1.19 -2.03,-4.03 0.01,-0.79 0.19,-1.24 -0.19,-1.42 -3.2,-1.62 -2.37,0.41 -2,0.36 -1.09,0.29 -0.04,0.51 0.06,0.29 0.19,0.29 -0.98,0.01 -0.27,-0.21 -0.16,-0.22 -1.8,-2.59 -0.89,-1.21 -1.02,-3.04 0.03,-0.59 0.01,-0.16 1,-1.32 2.86,-1.93 1.38,-0.69 0.6,-0.27 0.38,-0.43 0.58,-0.85 0.53,-2.29 -0.54,-0.48 -0.01,-0.11 0.71,-4.35 0.6,-0.43 -0.44,-0.38 -1.24,0.56 -0.72,0.19 -5.02,-2.88 0.02,-0.37 0.27,-1.48 -0.1,-0.83 -2.52,-1.68 -0.15,-0.39 -0.18,-0.99 -0.02,-0.15 0.38,-0.27 1.67,-0.51 0.48,-5.22 -0.13,-4.41 -0.06,-0.83 -0.02,-0.2 -0.46,-1.02 -0.36,-0.73 -0.18,-0.31 -0.43,0.42 -1.11,0.58 -0.81,0.28 -0.76,-0.15 -6.1,-3.29 -3.29,-2.99 -2.63,-1.71 -0.55,0.62 -0.53,0.46 -1.64,0.63 -0.15,0.04 -0.01,-0.19 0.17,-0.7 0.07,-0.31 -0.95,-0.18 -1.99,-0.25 -0.37,0.14 -3.05,1.79 -0.13,0.1 -0.05,0.06 0.01,0.08 l 0,0 l -1.9,0.74 -3.02,1.22 -0.77,0.36 -0.28,0.19 -0.56,0.61 -0.21,0.35 -0.53,0.54 -0.18,0.13 -1.34,0.77 -0.62,0.34 -4.27,1.24 -7.08,1.25 -4.35,-0.29 -1.33,-0.16 -7.04,-2.2 -0.48,-0.28 -1.4,-2.18 v -0.12 l 0.08,-0.17 1.35,-1.96 0.43,-0.45 0.22,-0.12 0.51,-0.02 0.27,-0.13 0.25,-0.25 1.21,-1.28 5.82,-9.42 1.5,-5.13 -0.02,-0.65 -0.58,-4.22 -1.933125,-1.30219 l -1.99,1.02 l -1.47,0.02 -0.14,-0.03 -1.8,-1.05 -0.24,-0.22 -3.1,-3.08 -5.61,-3.43 -1.78,-2.07 -3.35,-5.57 -0.43,-0.96 -0.34,-0.77 -1.18,-2.92 -1.52,-6.08 0.32,-3 2.01,-7.17 2.46,-2.07 -0.31,-4.23 0.18,-1.33 0.01,-0.1 0.16,-0.22 7.46,-4.8 0.36,-0.91 1.19,-2.53 0.44,-0.16 0.96,-0.24 2.2,1.13 2.83,-0.73 1.44,0.11 -0.71,-1.08 -0.46,-0.81 -0.19,-0.53 -0.71,-2.66 -0.33,-1.33 1.88,-0.45 2.16,1.94 0.08,0.08 0.72,1.06 4.83,-0.74 4.67,-1.6 1.29,1.36 0.14,0.2 3.83,1.59 3.17,0.88 3.01,-0.93 0.76,0.14 0.56,0.13 -0.9,-1.54 -0.96,-1.77 -0.12,-5.97 3.24,-2.08 0.37,0.27 2.4,1.61 0.68,-0.21 2.4,-1.1 1.87,-7.75 0.23,-1.35 2.17,0.34 0.71,0.05 1.71,-0.83 0.19,-0.14 1.08,-1.12 0.88,-1.1 2.6,-0.44 5.27,-1.19 1.65,-0.46 1.01,-1.01 0.07,-0.08 0.37,-1.45 0.1,-0.48 0.28,-0.58 0.26,-0.13 0.49,0.02 0.06,0.27 v 0.46 l -0.06,1.56 -0.03,0.4 2.96,0.02 1.6,-0.35 0.82,-0.24 2.77,-0.86 1.35,-0.72 0.19,-0.34 0.52,-2.1 0.02,-1.58 -0.09,-1.47 0.47,-1.01 0.49,-0.48 1.94,-0.06 2.08,0.69 0.26,-0.23 0.89,-0.4 13.1,-4.66 0.46,-0.41 1.07,-1.38 0.35,-0.85 -0.17,-1.59 -0.29,-0.31 -0.97,-0.81 0.65,0.15 h 0.32 l 1.56,-0.58 0.12,-0.04 2.39,-2.15 1.25,-1.8 -0.56,-4.97 0.45,-0.55 2.4,-2.07 0.44,-0.23 1.29,0.25 2.34,1.67 -0.5,0.75 -0.43,0.87 -0.54,1.55 -0.09,0.39 -0.01,0.29 0.07,0.47 2.31,0.6 1.12,0.29 4.93,2.79 0.25,0.22 0.26,0.3 0.55,1.4 -0.01,0.56 -0.23,2.11 -0.08,0.2 -0.37,0.38 -0.05,0.65 -0.07,0.92 0.21,0.95 0.29,0.46 0.61,0.76 0.27,0.3 1.47,1.42 1.45,1.55 0.4,0.43 0.13,1.56 -0.3,1.51 2.65,-0.92 1.27,0.34 0.69,0.62 z" />
	<path
   id="Nordrhein-Westfalen"
   class="area county_y"
   d="M 231.54,350.83 l -1.29,2.18 -3.85,4.61 -3.24,5.32 -4.46,3.49 -4.31,3.48 -0.65,1.05 -0.6,1.01 -0.59,0.1 -2.76,-0.18 -0.62,-0.2 -0.27,-0.18 -0.17,-0.24 -0.57,-1.63 0.71,-1.77 -1.18,-1.96 -2.92,-1.24 -1.17,0.05 -2.22,0.55 -1.59,0.54 -2.85,1.22 -0.59,0.48 -0.09,0.65 0.18,0.66 2.52,4.14 0.54,0.13 0.31,0.17 0.04,0.23 0.21,1.35 -0.82,2.45 -0.15,0.05 -3.44,-0.22 -4.17,0.1 -3.77,1 -4.98,1.53 -2.96,1.88 -1.08,0.71 -1.09,1.35 -2.61,3.75 -0.57,0.85 2.07,2.89 0.22,0.21 0.31,0.1 0.75,0.04 0.1,-0.03 0.96,-0.65 4.57,-2.05 0.7,-0.06 0.92,0.02 0.85,1.16 0.12,0.25 0.74,6.42 0.16,2.04 -0.09,0.37 -0.27,0.66 -2.83,6.22 -3.19,1.23 -0.44,0.02 -1.12,-0.27 -0.76,-0.31 -1.7,-0.28 -2.81,-0.18 -0.15,0.12 -1.26,0.48 -0.13,0.07 -0.77,0.65 -0.53,0.46 -0.44,0.63 v 0.19 l 0.1,0.31 1.06,3.28 0.67,1.46 0.37,0.88 -0.48,0.73 -0.39,0.37 -0.99,0.87 -1.44,1.55 -0.85,0.93 -0.08,0.16 0.01,0.24 0.27,0.37 -0.16,-0.07 -0.6,0.01 -0.1,0.06 -0.4,0.23 -0.05,0.13 -0.6,2.59 -4.29,6.47 -1.13,1.21 -0.12,0.13 -0.54,0.11 -0.18,-0.05 -4.08,-2.16 -0.19,-0.06 -0.97,-0.03 -0.2,0.03 -0.2,0.17 -9.49,9.26 0.42,1.01 0.39,0.83 0.77,1.51 0.8,1.12 0.18,0.95 -0.05,0.35 -2.01,3.72 -0.73,0.99 -1.01,-1.25 -0.69,-0.62 -1.27,-0.34 -2.65,0.92 0.31,-1.51 -0.14,-1.56 -0.4,-0.43 -1.45,-1.55 -1.46,-1.42 -0.27,-0.3 -0.61,-0.76 -0.29,-0.46 -0.21,-0.95 0.07,-0.92 0.05,-0.65 0.37,-0.38 0.07,-0.2 0.23,-2.11 0.01,-0.56 -0.55,-1.4 -0.26,-0.3 -0.25,-0.22 -4.93,-2.79 -1.11,-0.29 -2.31,-0.6 -0.07,-0.47 0.01,-0.29 0.08,-0.39 0.54,-1.55 0.44,-0.87 0.5,-0.75 -2.34,-1.67 -1.29,-0.25 -0.45,0.23 -2.4,2.07 -0.46,0.55 0.56,4.97 -1.25,1.8 -2.39,2.15 -0.12,0.04 -1.56,0.58 h -0.32 l -0.65,-0.15 0.97,0.81 0.29,0.32 0.17,1.59 -0.35,0.85 -1.07,1.38 -0.46,0.41 -13.11,4.66 -0.89,0.4 -0.26,0.23 -2.08,-0.69 -1.94,0.06 -0.48,0.49 -0.47,1.01 0.08,1.47 -0.02,1.58 -0.52,2.1 -0.19,0.34 -1.34,0.72 -2.78,0.86 -0.82,0.24 -1.6,0.35 -2.96,-0.02 0.03,-0.4 0.06,-1.56 v -0.46 l -0.06,-0.27 -0.49,-0.02 -0.26,0.13 -0.27,0.58 -0.11,0.48 -0.36,1.45 -0.07,0.08 -1.01,1.02 -1.65,0.46 -5.27,1.19 -2.6,0.44 -0.88,1.1 -1.08,1.12 -0.19,0.14 -1.71,0.83 -0.7,-0.05 -2.17,-0.34 -0.23,1.35 -1.88,7.75 -2.4,1.1 -0.68,0.21 -2.4,-1.61 -0.37,-0.27 -3.24,2.08 0.12,5.97 0.96,1.78 0.9,1.54 -0.55,-0.13 -0.76,-0.14 -3.01,0.93 -3.17,-0.88 -3.83,-1.59 -0.14,-0.2 -1.28,-1.36 -4.67,1.6 -4.83,0.74 -0.71,-1.06 -0.08,-0.08 -2.16,-1.94 -1.88,0.45 0.33,1.33 0.71,2.66 0.19,0.53 0.47,0.81 0.7,1.08 -1.44,-0.11 0.31,-1.2 -0.01,-0.11 -0.46,-0.89 -2.44,-2.86 -0.11,-2.02 0.59,-1.02 0.33,-0.79 0.54,-2.51 0.08,-0.71 -0.08,-1.11 -0.19,-0.46 -1.7,-2.9 -0.48,-0.74 -1.12,-0.72 -0.2,-0.27 -0.25,-0.23 -2.55,-0.44 -1.2,0.02 -0.13,0.04 -0.52,0.36 -0.96,0.41 -0.1,0.02 -0.1,-0.04 -1.97,-2.77 -0.32,-0.55 -0.49,-1.58 -0.06,-1.51 0.08,-0.25 3.29,-3.11 0.8,-3.62 -3.45,-0.91 -0.913437,-1.11656 0.183437,-0.0834 1.11,-0.43 -0.78,-0.74 -0.47,-0.67 -0.99,-1.63 -0.25,-0.52 -0.12,-0.46 -1.35,-3.42 -0.33,-0.31 -0.19,-0.11 -4.46,-2.5 -2.67,-4.46 1.62,-5.18 0.23,-0.75 1,-0.39 1.03,-0.31 0.4,0.04 0.08,0.27 1.03,0.52 1.06,-2.6 -0.09,-0.74 -0.31,-0.36 -0.26,-0.53 -0.07,-0.5 0.44,-1.48 0.08,-0.2 0.37,-0.35 0.13,-0.27 0.05,-0.37 -0.78,-0.34 -1.34,-0.56 -2.41,-0.87 -0.13,-1.38 0.06,-1.4 0.59,-1.24 0.28,-0.87 -0.03,-0.1 -0.52,-0.08 -3.93,-0.32 -2.54,0.61 -0.89,-1.04 -1.41,-3.12 -0.61,-3.02 -0.02,-0.52 0.06,-0.07 3.03,-1.34 6.25,-2.02 7.88,-5.29 0.99,-2.86 2.38,-1 0.4,-0.18 -0.95,-0.85 -1.07,0.42 -1.7,0.75 -0.5,0.34 -0.12,0.19 -0.2,0.2 -0.37,0.16 -0.33,0.12 -0.44,0.01 -0.2,-0.02 -0.48,-0.14 -0.54,-1.07 -0.09,-3.22 1.19,-3.45 7.22,-9.09 2.33,-2.54 -0.99,-3.57 0.64,-3.18 0.51,-1.59 0.33,-2.25 0.01,-0.65 -0.49,-3.97 -0.66,-1.37 -2.58,-4.25 -0.69,-0.5 -3.26,-3.75 0.24,-1.07 -0.16,-4.5 -3.2,-1.48 -0.36,-0.45 -0.05,-0.11 -1.88,-6.25 -1.49,-7.02 1.53,-2.5 4.41,-1.97 2.19,0.1 4.88,-0.66 1.95,-1.28 4.94,0.21 0.25,0.05 0.71,0.34 0.67,0.43 2.98,1.92 1.94,1.69 1.27,0.73 0.44,0.06 -1.07,-3.52 -0.05,-0.32 0.28,-0.93 0.17,0.02 2.12,0.91 4.85,0.05 0.92,-0.49 1.48,-0.78 2.91,-1.13 5.76,-1.97 0.62,-0.15 0.5,0.31 0.32,0.51 1.44,1.44 0.03,0.02 0.68,-0.24 1.23,-0.81 1.23,-0.86 1.27,-1.32 2.66,-3.43 0.26,-0.62 0.02,-0.22 -0.1,-1.36 -0.19,-0.77 -4.5,-3.83 -2.39,-1.28 1.48,-3.5 1.54,-2.45 5.69,-1.83 0.56,-0.08 0.78,-0.74 0.39,-0.4 0.41,-1.63 0.16,-0.81 1.84,-1.98 7.68,-4.8 2.54,-1.5 2.1,-0.07 0.69,-0.99 0.22,-0.27 0.6,-0.56 2.14,-0.48 2.59,0.28 1.29,0.08 5,0.27 0.89,-1.04 0.41,-0.58 0.8,-0.08 1.02,-0.11 1.04,-0.55 0.27,-0.5 0.34,-0.68 0.61,-0.53 3.72,-2.75 4.21,-2.59 1.7,-0.97 0.27,-0.03 0.32,-0.02 2.31,-1.15 1.81,-3.18 0.13,-0.68 -1.38,-0.74 -0.68,-0.47 0.47,-1.51 0.38,-0.8 0.6,-1.04 0.78,-0.97 0.23,0.1 4.61,1.81 0.15,0.16 0.2,0.27 0.53,1.12 1.56,4.45 5.07,3.09 2.21,0.34 1.33,-0.59 0.27,-0.17 1.57,-0.38 2.79,1.7 0.96,1.68 0.7,2.54 -2.1,2.24 -0.1,0.38 -0.04,0.46 0.07,0.59 0.16,0.2 1.36,1.4 -1.05,0.71 -2.73,5.81 -0.01,0.12 0.16,0.77 0.31,0.99 0.29,0.48 1.23,0.88 0.06,0.03 2.33,0.46 1.97,1.83 0.19,4.14 -3.19,0.97 -3.69,1.23 -0.94,0.71 -0.04,0.14 h 0.28 l 1.41,2.29 0.24,1.01 1.03,0.54 1.8,0.76 1.15,0.43 0.63,-0.93 0.39,-0.53 2.27,-1.73 0.17,-0.01 1.53,0.12 1.04,0.15 1.09,0.29 0.3,0.62 2.27,-1.41 1.6,-0.37 4.02,-2.91 1.7,-1.63 1.38,-1.03 0.6,0.08 2.92,0.62 2.44,0.89 3.01,0.32 -0.24,-0.72 -0.12,-0.57 0.06,-0.34 0.34,-0.49 0.43,-0.4 2.21,-1.47 0.17,-0.06 0.65,0.04 0.36,-0.06 0.53,-0.25 0.23,-0.19 1.01,-1.06 0.48,-0.59 0.64,-0.85 -1.24,-0.65 -1.21,-0.39 -0.36,-0.02 -0.28,-0.12 -0.78,-0.69 -0.54,-1.01 -0.08,-0.23 1.12,-4.45 0.48,-0.97 -0.24,-3.33 0.15,-1.76 -1.56,-4.62 -2.18,-1.68 -5.21,-3.92 -0.65,-3.2 -0.49,-1.08 0.41,-0.26 0.44,0.09 2.37,0.62 0.31,0.31 -0.03,0.19 0.5,0.51 3.36,-0.25 0.98,-0.14 1.54,-1.31 0.1,-0.34 0.19,-1.31 0.14,-1.41 3.11,-2.39 3.08,1.51 5.91,-3.07 2.13,1.66 0.73,0.7 0.22,0.57 0.05,0.31 -0.27,1.34 0.24,7.62 0.18,1.47 0.54,0.39 1.84,0.79 6.73,-0.06 5.11,-1.14 0.19,-0.07 2.9,-3.76 2.13,-2.78 0.76,-1.41 1.58,-2.06 2.34,0.55 2.71,1.23 0.21,0.68 0.05,0.21 -1.8,4.09 0.92,2.33 -0.08,0.7 -0.19,0.48 -1.49,3.06 -0.81,1.53 -0.13,0.12 -0.74,0.69 -0.79,0.45 -1.2,0.17 -0.97,0.48 -1.02,0.68 -0.66,0.45 -2.26,4.78 0.51,1.55 0.16,0.13 0.29,0.12 1.56,0.43 2.01,0.8 2.55,1.69 -0.06,0.23 -1.99,4.92 -1.45,-0.02 -2.3,-1.21 1.91,2.54 3.45,2.65 3.46,0.67 0.93,0.33 0.23,0.1 0.53,0.58 0.34,0.98 -0.28,2.22 1.35,1.23 0.91,1.59 -0.14,0.12 -0.5,0.26 -0.47,0.67 -0.03,0.24 -0.03,1.8 0.27,6.21 0.63,1.53 5.65,4.09 0.88,0.49 1.01,-0.16 0.06,-0.03 0.34,0.05 1.06,0.57 0.06,0.08 0.47,0.82 0.34,1.3 -0.04,0.6 -0.15,1.02 -0.51,2.42 -0.23,0.15 1.01,-0.63 0.34,-0.2 0.62,-0.21 0.21,0.01 0.44,0.12 1.48,0.55 0.56,0.33 1.77,1.77 -0.02,3.4 -1.24,3.05 -1.81,5.57 -0.86,7.23 0.46,0.34 0.27,0.07 h 0.21 l 1.61,-0.04 0.14,-0.02 0.46,-0.24 0.06,-0.02 z" />
	<path
   id="Niedersachsen"
   class="area county_g"
   d="M 176.9,149.43 l -0.91,-2.18 -1.18,-3.02 -0.01,-2.02 v -1.27 l 0.06,-0.66 3.77,-11.35 0.52,-1.39 1.03,-2.62 2.19,-2.86 0.84,-0.79 1.81,-0.54 1.28,-0.33 1.1,-0.06 -0.03,0.54 0.06,0.31 0.15,0.31 1.46,1.78 2.82,2.07 0.97,0.68 0.64,0.3 0.74,0.2 1.56,0.2 5.07,0.41 1.64,-0.33 0.29,-0.11 0.06,-0.08 0.01,-0.15 0.29,-0.1 2.08,-0.44 0.53,0.03 2.15,0.52 -0.48,-0.63 -0.77,-1.97 -0.41,-1.23 0.81,-0.37 0.89,-0.31 0.84,-0.15 1.01,-0.03 3.2,0.21 3.63,0.05 2.07,-0.03 1.89,0.25 3.55,1.53 1.8,1.3 2.36,3.41 0.52,0.96 1.82,3.92 0.77,1.85 0.74,1.28 0.59,0.82 0.86,0.79 2.34,1.73 0.98,1.1 0.34,0.59 0.78,1.88 0.42,1.03 0.1,0.46 0.08,1.6 0.35,1.26 0.41,0.88 0.43,0.61 2.26,1.82 5.36,3.5 1.65,0.55 1.68,0.18 2.69,0.37 v 2.82 l -0.31,2.22 0.83,0.86 0.96,2.23 0.07,0.59 3.41,3.51 0.25,-0.12 0.83,-0.63 1.28,-1.43 0.25,-0.16 0.33,0.22 0.75,0.92 2.11,2.01 1.58,1.32 0.42,-0.03 2.82,-2.07 0.18,-0.91 0.6,-1.3 0.56,-0.74 1.76,1.05 0.51,0.58 0.37,0.51 1.76,2.01 2.54,2.4 0.44,0.3 0.38,0.09 3.21,0.14 0.37,-0.05 0.19,-0.13 0.24,-0.25 0.6,-1.49 0.19,-0.27 0.25,-0.25 0.37,-0.2 2.22,-1.22 0.19,-0.09 0.15,-0.01 1.6,0.88 5.9,2.69 2.42,1.25 0.82,0.58 0.92,0.54 0.58,0.23 4.14,1.22 0.48,0.04 0.32,-0.15 0.44,-0.25 0.08,-0.05 -0.05,-0.04 0.66,-0.41 0.68,-0.24 1.05,-0.1 3.96,-0.02 0.2,0.08 0.23,0.15 1.02,0.8 0.62,0.59 1.22,1.47 0.5,0.66 0.35,0.55 1.1,0.99 0.66,0.4 2.66,1.01 0.86,-0.48 1.1,-0.73 1.13,-0.74 0.04,-0.27 -0.04,-0.1 0.39,-0.75 1.38,-1.08 2.58,0.66 1.79,0.48 2.44,5.56 2.28,4.43 1.15,1.55 0.67,0.68 2.87,2.13 1.17,0.29 0.89,0.21 0.56,0.05 0.78,0.43 0.15,0.23 0.04,0.36 -0.3,0.93 -0.06,0.2 -0.55,0.55 -0.54,0.2 3.56,1.43 0.62,0.31 0.57,0.4 0.94,1.02 0.21,0.29 0.18,0.35 0.03,1.45 0.03,0.34 0.07,0.2 1.15,1.39 2.99,3.07 0.29,0.16 0.23,0.04 0.46,-0.01 1.7,-0.91 1.03,-0.79 0.27,-0.16 0.39,-0.1 2.04,-0.57 0.41,-0.04 0.52,0.04 0.41,0.2 0.36,0.29 0.71,0.79 1.16,1.23 0.56,0.4 0.64,0.19 4.39,1.06 0.6,0.02 0.09,0.14 -0.01,0.08 -2.48,3.64 -0.03,0.05 -0.74,-0.07 -0.65,-0.36 -0.38,-0.53 -0.08,-0.04 -0.83,0.16 -0.34,0.71 -0.22,1.02 -0.58,3.2 0.8,1.87 -0.86,-0.01 -1.23,0.29 -1.11,0.63 -1.76,1.7 -0.89,1.16 -0.15,0.16 -5.69,2.78 -1.13,0.31 -3.15,-0.32 -0.32,-0.06 -0.1,-0.07 -0.04,-0.13 v -0.28 l -0.13,-0.31 -0.32,-0.33 -0.74,-0.77 -3.9,-0.76 -9.26,-0.4 -0.34,0.03 -0.26,0.11 -0.33,0.38 -0.17,0.65 -0.04,0.75 0.09,0.46 -0.02,0.16 -0.2,0.42 -2.85,3.1 -6.06,0.16 -2.67,0.55 -2.06,0.58 -0.51,2.19 -0.02,0.2 0.22,2.27 -0.15,0.6 -0.08,0.57 2.63,7.19 2.61,1.92 3.73,5.32 2.8,5.42 -0.01,0.04 -0.18,2.19 0.34,1.34 0.34,0.76 0.76,1.29 1.32,1.68 1.82,2.11 -1.74,-0.07 -2.24,1.2 -0.62,1.56 0.85,1.84 4.53,5.77 1.3,0.81 0.32,0.05 0.23,0.11 0.77,0.67 0.62,0.6 0.05,0.39 -0.04,1.41 -0.05,0.18 -0.81,0.65 -1.13,0.52 -0.18,0.05 -0.56,-0.14 -1.23,1.71 0.42,4.1 0.05,0.09 1.43,1.58 1.36,1.36 1.43,2 0.44,0.96 0.02,0.08 -0.03,0.06 -0.59,0.78 -1.08,0.22 -0.7,0.18 -1,0.46 -0.33,0.21 -0.29,0.54 -0.41,1.05 -0.12,0.75 0.06,0.42 0.14,0.31 0.18,0.19 0.38,0.3 0.67,0.4 0.48,0.01 0.88,-0.12 0.17,0.02 0.06,0.07 0.1,0.36 -0.05,1.46 -0.16,0.28 -1.19,1.77 -1.88,1.53 -2.03,1.45 -0.38,1.92 -0.31,3.09 -0.11,-0.1 -1.71,-0.17 -3.43,0.1 -0.52,0.1 -0.94,0.67 -0.36,0.15 -1.39,0.28 -1.82,0.06 -0.94,-0.22 h -0.26 l -5.03,0.06 -1.02,0.2 -1.92,0.58 -0.1,0.95 0.16,0.44 -0.04,0.27 -0.05,0.15 -1.77,1.74 -4.21,0.44 1.69,2.38 3.73,2.8 -1.27,0.42 -0.76,1.1 -0.02,0.18 0.02,1.63 0.89,0.33 0.81,0.33 0.52,0.64 0.11,0.29 0.07,0.66 v 0.74 l -0.11,0.35 -1.02,1.6 -0.18,0.13 -0.38,0.02 -0.39,0.16 -2.15,1.77 -0.36,0.47 -0.15,0.51 0.01,3.46 0.26,2.82 0.7,1.47 1.03,0.57 3.01,4.45 0.94,2.23 -0.21,0.53 0.08,0.86 0.22,1.28 0.14,0.39 1.26,2.03 0.3,0.41 0.05,0.05 0.37,0.12 -0.11,0.18 -1.16,0.16 -0.27,-0.04 -2.08,5.53 -0.93,1.77 -4.57,1.16 -2.43,0.31 -0.58,-0.31 -1.21,-1.8 -0.39,-0.25 -0.74,-0.47 -0.42,-0.19 -1.54,-0.66 -0.84,-0.27 -0.19,0.02 -2.37,0.62 -0.7,1.16 -0.9,1.93 0.44,0.2 0.04,0.09 -0.23,0.81 -0.15,0.32 -1.51,2.26 -0.14,0.1 -2.59,2.08 -8.02,5.44 -5.31,1.08 -6.66,3.87 -3.08,2.07 -0.49,0.19 -0.21,0.06 -0.2,-0.14 0.36,-0.23 0.04,-0.14 -0.04,-1.17 -0.34,-0.59 -1.25,-2.03 -0.28,-0.17 -3.09,0.41 -3.2,0.46 -0.18,0.04 -0.43,0.27 -4.4,3.7 -1.08,1.5 1.77,2.78 1.72,-0.82 0.51,-0.02 0.07,0.15 0.07,1.36 -0.09,0.48 -0.27,1.19 -2.32,1.19 -0.13,-0.23 -3.36,-1.66 -5.29,-2.21 -1.73,-0.55 -0.66,-1.15 -0.51,-0.78 0.13,-0.31 0.45,-2.01 0.2,-0.43 1.07,-1.69 0.51,-0.1 1.61,-0.27 1.28,0.05 0.75,-1.14 0.1,-0.21 -0.76,-4.3 -0.35,-1.59 -0.54,-0.6 -2.07,-3.52 -0.05,-0.16 0.01,-0.1 0.15,-0.32 2.43,-2.72 1.53,-0.27 0.18,-0.36 0.59,-0.79 0.73,-0.6 0.66,0.19 h 0.11 l 0.12,-0.17 0.33,-0.83 -0.18,-0.4 -0.18,-0.19 -0.82,-0.53 -0.7,-0.58 -1.42,-1.55 -0.07,-0.11 -3.41,-1.74 -0.97,0.02 -3.2,-0.05 -0.7,-0.1 -0.72,-0.44 -0.31,-0.41 -0.04,-0.33 0.21,-0.83 0.24,-0.54 -0.03,-0.38 -0.15,-0.22 -0.27,-0.05 -3.27,0.72 -0.14,-0.08 -0.23,0.01 -0.59,0.19 -0.06,0.02 -0.46,0.24 -0.14,0.02 -1.61,0.04 h -0.21 l -0.27,-0.07 -0.46,-0.34 0.86,-7.23 1.81,-5.57 1.24,-3.05 0.02,-3.4 -1.78,-1.77 -0.56,-0.33 -1.48,-0.55 -0.45,-0.13 -0.21,-0.01 -0.62,0.22 -0.34,0.2 -1.01,0.64 0.23,-0.15 0.51,-2.42 0.15,-1.01 0.04,-0.6 -0.34,-1.3 -0.47,-0.82 -0.06,-0.08 -1.06,-0.57 -0.34,-0.05 -0.06,0.03 -1.01,0.16 -0.87,-0.49 -5.66,-4.09 -0.63,-1.53 -0.27,-6.21 0.03,-1.8 0.03,-0.24 0.47,-0.67 0.5,-0.26 0.14,-0.12 -0.92,-1.59 -1.35,-1.23 0.29,-2.22 -0.34,-0.97 -0.53,-0.58 -0.23,-0.11 -0.93,-0.33 -3.46,-0.67 -3.45,-2.65 -1.92,-2.54 2.3,1.21 1.45,0.02 1.99,-4.92 0.06,-0.23 -2.55,-1.69 -2.01,-0.8 -1.56,-0.43 -0.29,-0.12 -0.16,-0.13 -0.51,-1.56 2.26,-4.78 0.67,-0.46 1.02,-0.68 0.97,-0.48 1.2,-0.17 0.78,-0.46 0.75,-0.68 0.11,-0.14 0.8,-1.54 1.49,-3.05 0.19,-0.48 0.08,-0.7 -0.91,-2.34 1.8,-4.09 -0.05,-0.21 -0.21,-0.68 -2.71,-1.23 -2.34,-0.55 -1.58,2.06 -0.76,1.41 -2.13,2.78 -2.9,3.76 -0.19,0.07 -5.11,1.14 -6.73,0.06 -1.84,-0.79 -0.54,-0.39 -0.17,-1.47 -0.24,-7.63 0.27,-1.34 -0.05,-0.31 -0.22,-0.57 -0.73,-0.7 -2.13,-1.66 -5.91,3.07 -3.08,-1.51 -3.11,2.39 -0.14,1.4 -0.2,1.31 -0.1,0.34 -1.54,1.31 -0.98,0.14 -3.36,0.25 -0.5,-0.51 0.03,-0.19 -0.31,-0.31 -2.37,-0.62 -0.44,-0.09 -0.41,0.26 0.5,1.08 0.65,3.2 5.21,3.92 2.18,1.68 1.56,4.62 -0.15,1.76 0.24,3.33 -0.48,0.98 -1.12,4.45 0.09,0.23 0.55,1.02 0.78,0.69 0.28,0.12 0.36,0.02 1.21,0.39 1.24,0.64 -0.57,0.9 -0.48,0.59 -1.01,1.06 -0.23,0.19 -0.53,0.26 -0.36,0.06 -0.65,-0.04 -0.17,0.06 -2.21,1.47 -0.43,0.4 -0.34,0.49 -0.05,0.34 0.12,0.57 0.24,0.72 -3.02,-0.32 -2.44,-0.89 -2.92,-0.63 -0.6,-0.07 -1.38,1.03 -1.7,1.63 -4.02,2.91 -1.6,0.37 -2.26,1.41 -0.31,-0.62 -1.1,-0.28 -1.04,-0.15 -1.53,-0.12 -0.17,0.01 -2.27,1.73 -0.39,0.53 -0.63,0.93 -1.15,-0.43 -1.8,-0.76 -1.03,-0.54 -0.24,-1 -1.41,-2.29 h -0.27 l 0.04,-0.14 0.94,-0.71 3.69,-1.23 3.19,-0.97 -0.19,-4.14 -1.97,-1.84 -2.32,-0.49 -0.06,-0.03 -1.23,-0.88 -0.29,-0.49 -0.3,-0.99 -0.17,-0.77 0.01,-0.12 2.73,-5.81 1.05,-0.71 -1.36,-1.4 -0.16,-0.2 -0.07,-0.59 0.04,-0.46 0.09,-0.38 2.1,-2.24 -0.7,-2.54 -0.96,-1.68 -2.79,-1.7 -1.57,0.38 -0.26,0.17 -1.33,0.59 -2.21,-0.34 -5.08,-3.09 -1.55,-4.45 -0.53,-1.12 -0.2,-0.27 -0.15,-0.16 -4.61,-1.81 -0.24,-0.11 -0.78,0.98 -0.6,1.04 -0.38,0.8 -0.46,1.51 0.67,0.47 1.38,0.74 -0.13,0.68 -1.8,3.18 -2.31,1.15 -0.32,0.02 -0.27,0.03 -1.7,0.97 -4.21,2.59 -3.72,2.75 -0.61,0.52 -0.34,0.69 -0.27,0.5 -1.04,0.55 -1.02,0.11 -0.81,0.08 -0.41,0.58 -0.88,1.04 -5.01,-0.37 -1.29,-0.08 -2.59,-0.29 -2.14,0.48 -0.6,0.56 -0.22,0.26 -0.69,1 -2.05,0.03 -1.44,-1.54004 -0.61,-1.64 -0.15,-0.77 -0.15,-0.85 0.05,-0.49 1.38,-3.13 0.66,-1.47 1.06,-1.43 0.1,-2.14 -0.5,-1.87 -4.07,-7.82 -0.08,-0.15 -0.25,-0.22 -0.6,0.41 -0.55,1.05 -0.51,1.1 -1.01,0.68 -0.32,0.12 -10.37,-2.93 -1.33,-0.5 -3.36,-2.45 0.04,-0.3 0.36,-1.96 0.24,-1.22 0.79,-2.89 0.41,-4.09 -0.43,-4.03 2.11,-1.73 1.06,-0.34 1.6,-0.27 0.44,0.01 6.54,0.39 5.3,0.89 1.27,0.44 0.18,0.24 0.02,0.06 0.36,0.21 1.75,0.46 0.07,-0.02 0.24,-0.24 0.6,-0.82 0.83,-7.2 0.4,-4.11 0.55,-5.76 1.09,-4.02 2.1,-2.85 4.12,-6.25 1.38,-4.21 0.56,-1.77 0.22,-1.14 -0.53,-6.94 0.31,-3.45 -1.16,-0.94 -0.14,-0.84 -0.04,-0.85 0.86,-2.37 0.8,-1.42 0.88,-2.06 0.39,-5.47 1.11,-4.75 0.68,-2.11 0.08,-0.25 0.1,-0.1 0.53,-0.19 h 2.88 l -0.36,-0.14 -2.26,-0.65 -1.24,-0.29 -0.86,-0.14 -3.1,-0.28 -6.99,-0.22 -2.03,-0.29 -0.4,-0.24 -0.26,-0.33 -0.74,-1.37 -0.19,-0.51 0.08,-0.28 0.98,-1.69 0.13,-2.61 1.57,-12.75 3.36,1.52 0.98,1.39 1.92,-1.92 1.06,-1.14 -1,-1.79 -0.68,-0.4 -1.65,-1.1 -0.51,-0.66 0.29,-0.9 4.59,-4.76 1.21,-1.21 2.72,-1.98 1.1,-0.77 2.82,-0.99 1.35,-0.31 1.23,-0.15 1.66,-0.15 7.46,0.61 0.35,0.13 0.6,0.35 0.14,0.19 0.51,0.35 0.72,0.36 0.46,0.01 1.76,-0.33 3.94,-1.28 4.21,-1.19 0.4,-0.07 0.6,-0.08 0.44,0.04 0.01,0.16 0.56,0.15 1.15,0.03 1.23,-0.12 3.16,-0.95 6.19,-0.55 3.19,0.35 2.85,0.45 0.98,0.5 0.24,0.3 -0.04,0.48 -0.08,0.23 -0.45,0.63 -0.1,0.73 0.35,2.27 0.22,0.87 0.53,1.38 2.88,0.4 0.29,0.35 0.52,0.78 0.58,1.12 3.36,7.88 v 0.1 l -0.05,0.33 -0.1,0.36 -0.26,0.89 -0.28,0.58 -0.9,0.46 -0.9,0.34 -2.15,0.78 -0.41,0.11 -0.92,-0.03 -0.99,-0.77 0.07,2.06 0.1,0.93 0.13,0.53 0.24,0.67 0.31,0.68 0.61,0.81 0.8,0.87 0.39,-0.16 0.83,-0.55 0.19,-0.04 0.9,-0.03 0.7,0.2 1,1.28 1.21,1.75 0.64,1.02 0.05,0.1 -0.02,0.24 0.21,0.42 0.14,0.15 0.65,0.27 1.08,0.25 0.79,0.1 0.37,-0.04 0.62,-0.32 0.51,-0.38 0.18,-0.19 0.68,-0.76 0.57,-0.81 0.47,-0.82 0.73,-1.74 0.33,-0.77 0.13,-0.79 0.23,-3.72 -0.07,-1.55 -0.07,-0.22 -0.24,-0.5 -0.15,-0.17 -0.44,-0.25 -1.57,0.61 -0.55,0.16 -2.14,-0.4 0.48,-4.17 0.25,-1.66 0.07,-0.31 0.42,-0.89 0.33,-0.46 0.94,-0.93 0.94,-0.74 1.31,-0.49 1.2,0.12 1.4,0.92 0.44,0.62 0.74,1.39 0.92,1.36 1.12,0.61 3.73,1.68 0.21,0.04 0.4,-0.05 0.46,-0.01 1.41,0.24 0.76,0.13 1.92,1.19 0.13,0.14 0.1,0.27 0.16,0.96 -0.02,0.07 -0.19,0.17 -0.35,0.25 0.34,0.48 1.36,1.82 v 0.18 l -0.06,0.2 -0.37,0.53 0.17,0.23 0.32,0.2 1.82,0.2 0.18,-0.01 2.56,-2.71 0.1,-0.52 -0.9,-3.88 1.07,-4.97 -0.06,-0.1 -1.68,-0.26 -5.39,-0.28 z m 27.62,49.8 -0.27,-0.57 -1.38,-1.67 -0.68,-0.49 -0.32,-0.01 -1.15,0.73 -4.71,-0.14 -3.77,-1.91 -4.23,-2.07 -6.48,-0.77 -7.51,-4.05 -0.27,-0.86 -0.01,-0.68 -0.02,0.73 0.22,1.31 0.4,0.86 0.32,0.56 0.73,1.08 1.55,1.25 2.38,1.14 0.8,0.34 0.91,0.13 0.77,0.2 0.36,0.31 0.26,0.51 1.57,4.2 0.15,1.32 0.92,0.62 1.96,2.11 0.49,0.68 0.06,0.63 0.06,2.61 0.49,0.51 0.55,0.46 0.31,0.07 1.05,-0.36 0.37,-0.15 1.35,0.01 5.35,1.85 3.11,1.22 3.25,-2.78 0.05,-1.97 -0.38,-4.77 -0.79,-1.23 0.08,-0.13 0.14,-0.07 0.97,-0.36 z m -66.94,-67.93 -1.03,-1.26 -0.11,-0.12 v -0.18 l 0.44,-0.38 0.38,-0.16 1.34,-0.05 0.75,0.03 0.68,0.1 1.76,0.39 0.62,0.18 0.22,0.12 1.23,0.86 0.05,0.48 -0.17,0.04 -1.63,-0.6 -3.84,-0.98 -0.15,0.01 -0.1,0.07 -0.25,0.43 z m 9.27,3.17 -0.1,-0.01 -0.33,-0.15 -0.25,-0.17 -0.21,-0.24 -0.1,-0.23 -0.43,-1.68 0.01,-0.38 0.73,-0.86 0.36,0.44 0.41,2.11 -0.02,1.07 z m -20.64,-1.32 -0.53,-0.09 -0.18,-0.1 -0.21,-0.4 0.01,-0.39 0.27,-0.56 0.61,-0.76 0.29,-0.27 0.26,-0.17 0.61,-0.19 1.05,-0.04 1.51,0.04 2.38,0.21 0.43,0.06 1.35,0.37 0.39,0.41 0.05,0.15 -0.05,0.04 -3.67,0.69 -3.7,-0.23 z m -12.69,2.84 -0.22,-0.04 -0.36,-0.3 -0.15,-0.9 0.02,-0.73 0.07,-0.29 0.72,-0.98 0.2,-0.17 0.62,-0.32 0.43,-0.07 3.39,-0.02 2.68,0.14 0.97,0.12 0.25,0.07 0.4,0.15 0.36,0.21 0.13,0.19 0.03,0.49 -0.02,0.1 -0.04,0.01 -0.79,0.05 -0.01,-0.05 0.13,-0.13 -0.01,-0.05 -0.06,-0.02 -2.12,-0.14 h -0.23 l -1.59,0.14 -2.33,0.22 -0.28,0.09 z m -2.31,0.12 -1.38,-0.05 -1.61,-0.19 -1.39,-0.32 -0.32,-0.49 0.01,-0.1 0.09,-0.1 1.47,-0.6 0.25,-0.05 h 0.33 l 2.08,0.46 0.14,0.07 0.31,1.12 0.04,0.16 z m -17.4,1.61 -0.64,-0.54 -0.27,-0.38 -0.05,-0.19 0.13,-0.23 0.31,-0.22 0.38,-0.19 1.41,-0.63 0.93,-0.24 0.55,-0.07 7.15,0.03 1.07,0.03 0.53,0.14 0.25,0.13 0.18,0.51 -0.04,0.15 -0.88,0.32 -0.6,0.19 -7.67,0.95 -1.99,0.17 z m -15.53,2.69 -0.59,-0.04 -0.11,-0.01 -0.34,-0.12 -0.5,-0.33 -0.06,-0.17 0.06,-0.14 0.34,-0.09 2.1,-0.2 6.92,-0.69 h 3.13 l 0.87,0.19 0.13,0.16 0.05,0.15 -0.01,0.25 -0.17,0.23 -0.06,-0.16 -0.08,-0.04 -1.5,-0.1 -0.62,-0.02 -0.75,0.02 -3.54,0.13 -4.67,0.72 -0.56,0.17 z m -9.69,10.54 -0.52,-1.08 -0.31,-0.2 -0.52,0.03 -0.43,0.16 -0.07,0.14 v 0.3 l 0.1,0.31 0.13,0.09 -0.01,0.04 -0.12,0.03 -0.65,-0.1 -2.6,-2.07 -0.44,-0.68 -0.17,-0.86 0.08,-0.41 0.16,-0.25 0.1,-0.1 0.29,-0.11 5.24,-1.58 0.27,-0.01 0.55,0.08 0.66,0.28 1.76,1.32 0.52,0.55 0.05,0.16 -5.28,1.49 1.26,1.13 0.67,0.82 z" />
	<path
   id="Mecklenburg-Vorpommern"
   class="area county_b"
   d="M 321.98,114.02 l 4.56,-3.11 2.96,-1.77 1.01,-0.43 0.43,-0.11 2.18,-0.53 0.66,-0.05 4.94,-0.23 0.28,0.17 0.36,0.37 3.37,3.78 -0.21,1.89 0.03,0.55 0.34,0.8 0.59,0.55 0.61,0.32 0.55,0.18 0.54,-0.05 0.15,-0.06 1.19,-0.81 0.45,-0.34 0.17,-0.26 1.62,-0.38 2.36,1.02 1.25,0.57 -0.06,0.9 0.12,0.23 0.61,0.48 1.33,0.78 0.78,0.4 1.48,-2.55 0.35,-1 0.57,-5.59 0.9,-1.83 0.13,-0.19 0.4,-0.36 1.8,-1.04 0.85,-0.29 0.33,-0.21 0.48,-0.44 0.17,-0.24 2.75,-4.27 0.08,-1.16 -0.05,-0.25 -0.65,-1.05 -0.21,-0.23 h -0.24 l -0.3,0.26 -1.31,1.31 -0.58,1.02 -0.75,1.04 -0.76,0.94 -1.72,2.09 -0.06,0.03 -0.07,-0.06 -0.15,-0.88 -0.02,-0.53 0.11,-0.51 0.64,-1.24 1.74,-2.39 7.57,-6.23 0.21,-0.06 0.54,-0.05 0.55,-0.03 3.4,-0.12 0.17,0.02 0.62,0.29 0.73,0.22 0.96,0.22 1.16,0.15 1.01,0.03 0.89,-0.06 0.56,-0.14 1.28,-0.4 6.99,-2.78 4.14,0.62 2.94,0.38 1.5,-3.4 1.98,-3.8 0.32,-0.45 1,-0.91 1.61,-1.13 3.5,-2.19 1.15,-0.7 0.49,-0.36 0.53,-0.43 0.63,-0.65 0.46,-0.57 0.58,-0.94 4.21,-7.92 2.74,-5.4 2.21,-3.79 1.76,1.44 0.85,0.36 0.46,0.12 4.07,0.53 3.57,0.41 7.25,-0.19 4.32,-0.31 1.32,-0.16 1.8,-0.04 1.35,0.15 0.12,0.06 0.06,0.12 0.03,0.2 -0.07,0.1 -2.58,1.72 -0.4,0.22 -1.88,0.48 -4.25,0.32 -2.92,0.09 -1.03,-0.07 -0.13,-0.04 -0.22,-0.19 -0.45,-0.69 -0.25,-0.68 -0.27,-0.14 h -0.05 l -1.54,0.07 -3.26,0.83 -3.09,1.94 -8.94,3.26 -0.93,0.77 -2.75,6.45 -0.31,1.87 0.03,2.51 0.04,0.07 2.23,1.52 1.06,0.39 1.18,0.07 1,-0.18 0.36,-0.2 0.01,-0.2 -0.3,-0.24 -0.35,-0.18 -1.24,-0.25 h -0.47 l -0.18,-0.07 -0.59,-1.15 -0.07,-0.86 0.45,-0.99 3.18,-3.63 4.67,-3.6 5.98,-2.9 5.06,1.03 4.68,2.14 1.96,-0.36 0.38,-0.24 1.36,-1.21 0.21,-0.21 0.21,-0.41 0.08,-0.45 0.01,-0.96 0.59,-1.54 0.05,-0.15 1.39,-1.23 0.24,-0.19 3.76,-1.42 2.22,0.22 4.11,6 -0.79,1.8 0.17,0.79 1.72,5.58 2.51,2.81 1.73,-0.97 0.69,-0.34 h 0.17 l 6.13,2.93 0.15,0.15 0.43,0.73 1.57,3.29 0.25,0.59 0.22,0.39 0.18,0.12 0.19,-0.01 0.27,0.6 2.2,-0.02 2.22,0.85 0.02,0.1 -1.69,1.49 0.14,0.68 0.19,0.2 0.3,0.03 0.52,-0.34 0.23,-0.23 0.23,-0.02 1.23,0.77 0.1,0.07 0.15,0.29 0.66,1.42 0.01,0.92 0.1,0.29 1.13,1.84 0.37,0.32 0.37,0.17 1.49,0.26 0.19,-0.05 0.25,-0.16 0.03,-0.06 -0.07,-0.24 -0.44,-0.59 -0.47,-0.66 -0.66,-1.56 -0.01,-0.2 0.93,-0.76 0.33,-0.11 8.83,-2.94 3.54,-1.07 3.9,3.88 0.63,0.71 0.55,0.88 0.21,0.65 0.04,0.36 0.01,4.19 3.31,6.82 3.92,4.11 0.74,1.05 0.42,0.69 0.13,0.34 -0.03,0.24 -0.38,0.59 -0.33,0.35 -0.1,0.06 -0.18,-0.05 -0.39,0.01 -0.38,0.17 -0.35,0.31 -0.81,0.88 -1.81,2.08 -1.45,2.13 0.08,0.39 0.58,1.15 0.2,0.19 5.82,3.6 2.05,1.52 1.57,1.44 0.38,0.17 6.79,2.42 1.34,0.44 1.04,0.16 3.37,0.08 0.34,-0.02 0.21,-0.14 1.07,-0.95 0.84,-0.94 0.4,-0.61 0.14,-0.15 0.43,-0.02 0.68,0.16 0.38,0.16 0.83,0.73 0.42,1.14 1.07,5.71 1.98,6.38 0.37,3.79 -0.4,2.83 -0.01,0.11 0.25,0.98 0.71,1.96 0.83,2.13 0.17,0.13 1.62,2.27 0.36,2.22 1.24,4.93 2.55,7.35 0.29,0.7 c 0.037,0.38019 -0.42085,-0.0199 -0.75,-0.08 l -5.02,2.11 -0.16,0.93 -0.62,1.8 -2.03,2.83 -0.81,0.26 -2.51,0.4 -5.83,-0.2 -1.11,-0.13 0.18,-1.22 0.1,-0.48 0.48,-0.8 1.57,-1.9 0.73,-0.67 1.02,-1.07 1.07,-1.29 0.79,-1.05 1.01,-1.65 0.42,-0.98 0.14,-0.48 0.53,-1.96 0.02,-0.53 -0.24,-2.84 -0.42,-0.69 -0.73,-0.48 -6.33,-0.39 -0.72,1.4 -3.88,0.13 -2.69,-0.42 -3.4,0.6 -0.58,0.25 -1.62,-0.66 -1.48,-3.15 -0.97,-3.31 -5,-5.79 -0.52,0.13 -0.36,0.63 -0.07,0.32 -0.25,1.94 0.01,0.33 0.16,1.39 1.37,1.24 -2.75,2.43 -2.69,0.2 -1.75,1.38 -0.95,0.85 -6.59,6.32 -0.21,0.5 -1.18,2.83 -0.47,1.61 0.25,1.3 0.3,1.81 0.01,0.12 -0.06,0.1 -2.13,2.88 -4.74,4.98 -0.7,0.31 -0.36,-0.1 -1.08,-1.63 -0.13,-0.89 -0.06,-0.2 -0.39,-0.54 -0.21,-0.12 -3.52,-0.06 -1.09,0.52 -1.82,1.57 -0.36,0.51 -0.19,0.75 -0.1,1.23 0.01,0.51 -0.13,0.68 -0.49,0.87 -1.49,-0.22 -0.18,-0.2 -0.82,-1.76 -0.23,-0.63 -0.31,-0.57 -1.94,0.25 -0.18,0.03 -2.26,1.1 -0.44,0.4 -7.01,7.65 -0.3,0.16 -0.16,0.02 -2.07,-0.89 -0.15,-0.13 -0.01,-0.06 0.27,-0.41 0.93,-0.73 1.04,-0.62 -0.02,-0.17 -0.21,-0.51 -0.04,-0.04 -0.69,-0.2 -7.28,0.2 -1.78,0.58 -0.08,0.06 -0.02,0.15 -1.16,0.44 -0.83,0.31 -1.17,-0.13 -0.38,-0.69 -2.46,-2.56 -3.39,-3.16 -0.78,-0.14 -7.68,-0.72 -1.77,0.38 0.04,0.52 -0.2,0.21 -3.25,0.39 -2.48,-2.79 -0.51,-1.43 -0.98,-0.79 -1.86,-1 -0.74,-0.35 -0.61,-0.17 -0.55,-0.37 -1.98,-0.6 -3.87,-2.96 -0.33,0.02 -5.53,1.13 -1.48,0.54 -1.7,-0.23 -1.54,-0.29 -2.07,2.96 0.16,1.78 -0.37,0.5 -3.75,2.67 -0.39,0.24 -5.01,1.83 -3.21,0.23 1.1,1.86 0.13,0.35 -0.03,0.12 -0.21,0.23 -5.53,1.24 -0.63,0.11 -0.7,-1.46 -1.7,-0.96 -1.02,-0.07 -2.74,0.04 -0.57,0.43 -3.87,3.53 0.68,4.09 -0.64,2.54 -0.33,0.98 -0.86,0.6 -1.54,-0.05 -1.63,-0.3 -0.64,-0.3 -0.03,-0.25 -0.8,-0.59 -3.38,0.4 -2.76,2.18 -5.62,-0.33 -0.18,-0.35 -0.21,-0.29 -0.94,-1.02 -0.57,-0.4 -0.62,-0.31 -3.56,-1.43 0.54,-0.2 0.55,-0.55 0.06,-0.2 0.3,-0.94 -0.04,-0.35 -0.15,-0.23 -0.78,-0.43 -0.57,-0.05 -0.89,-0.21 -1.17,-0.28 -2.87,-2.13 -0.67,-0.68 -1.15,-1.55 -2.29,-4.43 -2.44,-5.56 -1.79,-0.48 -2.58,-0.67 -1.39,1.08 -0.39,0.75 0.04,0.1 -0.04,0.27 -1.13,0.74 -1.1,0.73 -0.85,0.49 -2.66,-1.02 -0.67,-0.4 -1.1,-0.99 -0.35,-0.55 -0.5,-0.65 -1.22,-1.47 -0.62,-0.59 -1.02,-0.8 -0.23,-0.15 -0.19,-0.08 -3.96,0.02 -1.05,0.1 -0.68,0.24 -0.66,0.41 1.78,-8.1 0.61,-1.28 1,-0.58 0.51,0.03 0.65,0.27 1.38,0.3 3.83,-2.91 0.3,-0.32 1,-1.1 2.15,-2.53 6.56,-8.69 0.4,-2.43 1.4,-1.94 -0.71,-3.78 -1.33,-1.45 -0.89,-0.43 -1.13,-0.23 -0.17,0.04 -0.22,0.13 -0.03,0.18 -0.4,0.12 -1.25,0.06 -0.22,-0.1 -1.53,-0.93 -3.81,-3.7 0.42,-3.12 0.18,-1.5 -0.06,-0.51 -0.34,-0.9 -0.19,-0.38 -0.99,-2.47 -0.02,-1.81 1.42,-2.27 5.22,-3.67 2.62,0.19 0.95,-2.14 z m 141.04,-77.72 -0.58,0.36 -1.77,1.44 -1.29,1.48 -0.22,0.35 -2.99,7.45 -0.07,0.2 -0.09,0.88 0.13,0.02 0.48,-0.16 0.23,-0.19 2.99,-2.88 0.66,-1.69 -0.16,-0.6 -0.27,-0.89 -0.03,-0.14 0.05,-0.12 1.65,-2.35 1.04,-0.3 0.11,0.03 0.2,0.43 0.15,1.22 -0.02,0.31 -0.11,0.59 -0.33,1 -0.74,1.32 -0.28,0.38 -0.24,0.57 -0.36,2.04 0.04,1.04 2.8,-1.33 2.07,-1.19 6.83,2.81 0.16,0.04 0.11,-0.01 1.88,-0.23 1.86,-0.75 0.11,5.18 -0.14,2.81 -0.15,0.1 -0.37,0.01 -1.69,0.04 -2.68,-0.86 -0.69,-0.34 -3.99,-2.33 -0.23,-0.26 0.02,-0.33 0.33,-3.13 -3.13,0.12 -3.3,0.16 -1.13,0.25 -3.29,0.94 -0.89,0.52 0.61,2.66 0.45,0.88 2.02,-0.12 1.58,0.15 2.51,2.27 -0.86,1.65 -0.24,0.14 -2.24,0.78 -1.16,0.21 -1.27,0.25 -1.16,2.58 0.01,0.55 0.04,0.14 0.34,0.19 5.31,1.16 0.67,0.14 -1.44,0.89 -5.94,2.88 -0.15,0.22 -0.14,0.4 -0.44,2.45 0.04,1.05 1.68,4.97 0.12,0.24 15.51,5.2 1.27,-0.96 0.27,-0.33 0.14,-0.27 0.03,-0.13 -0.07,-0.59 -0.41,-0.94 -0.85,-0.99 -0.1,-0.04 h -0.56 l -0.16,0.2 -0.1,0.17 0.05,0.24 -0.04,0.13 -0.65,0.56 -0.79,0.39 -0.37,0.03 -0.36,-0.42 -0.03,-1.2 4.18,-4.43 3.29,-3.16 1.05,-0.78 0.33,-0.13 10.05,-1.23 0.42,0.07 1.39,2.29 0.04,0.12 0.01,0.46 -0.19,0.43 -0.07,0.13 -0.8,0.6 -0.06,0.04 -0.94,0.5 -0.01,1.54 2.14,-0.56 0.89,-1.77 1.21,-2.5 -0.69,-1.66 -1.77,-2.88 -1.26,-1.04 -1.28,-0.9 -0.12,0.14 -0.22,0.12 -0.65,0.07 -1.24,0.06 -0.2,-0.02 -0.28,-0.18 -0.41,-0.37 -1.01,-1.19 -1.1,-2.08 -0.25,-0.65 -0.32,-1.12 -0.11,-1.46 0.11,-0.56 0.19,-0.34 0.16,-0.22 0.09,-0.12 1.58,-1.79 2.1,-1.77 0.56,-0.29 0.21,-0.04 0.61,-0.44 0.56,-1.16 0.15,-1.06 -0.24,-2.11 -0.4,-0.51 -0.69,-0.63 -1.43,-0.94 -0.25,-0.08 h -0.45 l -1.78,0.17 -0.42,0.04 -2.27,0.48 -0.32,0.14 -2.04,0.65 -2.89,0.53 -0.64,-0.04 -1.03,-0.25 -0.39,-0.14 -0.48,-0.32 -0.3,-0.2 -0.83,-0.85 -0.73,-0.97 -0.52,-1.09 -0.42,-1.52 -0.14,-0.86 0.04,-0.33 0.35,-1.04 0.34,-0.48 0.17,-0.11 0.54,-0.26 0.4,-0.1 0.39,-0.03 0.28,-0.13 0.41,-0.36 0.25,-0.48 0.35,-1.36 -0.01,-0.07 -0.37,-0.51 -0.25,-0.27 -3.05,0.27 -4.5,1.27 z m -12.47,22.19 0.13,0.32 h 0.1 l 0.18,-0.25 0.18,-0.7 1.09,-6.09 0.79,-3.89 2.28,-1.15 -2.98,-1.06 -1.81,10.38 -0.14,1.05 -0.01,0.54 0.07,0.34 z m 4.86,1.5 4.25,-2.35 0.52,-0.41 0.12,-0.15 -0.29,-0.92 -0.25,-0.32 -1.31,-0.6 -0.24,-0.11 -0.69,-0.08 -0.67,0.17 -0.66,0.44 -0.84,1.12 -0.16,0.36 -1.06,2.48 -0.03,0.67 0.06,0.16 0.14,0.06 z m -9.57,0.95 -0.15,-0.04 -0.21,0.01 -0.18,0.06 -0.23,0.15 -0.11,0.13 0.01,0.14 0.27,0.26 0.25,0.22 0.67,-0.04 3.23,-1.14 0.67,-0.58 0.35,-0.38 -0.5,-0.55 -0.22,0.05 -2.83,1.07 -0.36,0.42 -0.52,0.62 z m 51.22,25.99 -0.51,-0.55 -0.24,-0.17 -0.51,-0.13 -0.33,0.03 -0.66,0.18 -0.73,0.39 -0.48,0.38 -0.15,0.21 -0.17,0.36 0.04,1.34 0.35,1.06 0.21,0.26 1.99,2.22 0.21,0.14 0.51,5.02 3.71,5.76 0.1,0.16 0.18,0.11 0.19,0.03 3.8,-1.84 0.05,-0.03 0.4,-1.1 -0.02,-0.12 -1.25,-1.87 -0.37,-1.65 -0.01,-0.05 0.07,-0.11 3.48,0.31 1.54,1.33 2.7,3 0.25,0.33 0.19,0.38 0.42,1.11 -0.07,5.15 -3.62,-0.64 -0.74,-1.53 -0.59,-1.98 -0.15,-0.14 -0.46,-0.2 -0.74,-0.09 -1.89,0.5 -0.14,0.05 -0.13,0.1 -0.36,0.76 -0.17,1.36 0.03,0.24 0.18,0.41 0.3,0.25 1.23,1.49 0.36,0.86 0.79,2.31 0.03,0.48 -0.43,1.12 -0.33,0.82 -0.23,0.2 -1.06,0.64 -1.25,0.68 -1.28,0.65 -0.42,0.08 -0.4,-0.02 -0.27,-0.04 -0.76,1.54 0.75,0.72 1.19,0.52 1.4,0.35 1.04,-0.11 2.6,-0.46 2.75,-0.75 0.32,-0.14 4.16,-2.14 7.5,-0.78 0.32,0.01 0.21,0.04 1.35,-6.02 -3.91,-3.2 -4.28,-3.94 -5.14,-4.83 -1.1,-0.65 -1.48,-0.76 -0.36,-0.17 -0.35,-0.08 -1.02,-0.17 -1.01,-0.36 -1.83,-1.04 -0.53,-0.32 -1.1,-0.93 -1.1,-1.12 -0.78,-0.9 -0.24,-0.36 z m -140.14,24.04 0.71,-2.2 0.22,-1.21 -0.05,-0.53 -0.08,-0.19 -0.27,-0.13 -0.94,-0.22 -1.06,0.16 -0.34,0.09 -0.5,0.2 -2.35,1.23 -1.47,1.13 -0.26,0.59 0.05,1.04 0.14,0.65 0.24,0.53 0.23,0.31 0.36,0.3 0.36,0.07 3.54,0.66 z" />
	<path
   id="Hessen"
   class="area county_r"
   d="M 262.48,379.05 l -0.2,0.91 0.15,1 0.58,2.17 1.44,3.45 1.21,1.52 3.41,1.25 1.89,0.8 0.92,2.9 4.56,2.31 1.65,0.56 0.82,0.5 0.58,0.48 1.31,1.29 1.24,0.3 0.28,0.61 -0.33,0.79 -0.61,0.44 -0.37,0.18 -0.33,0.31 -0.42,1.33 0.03,0.25 0.36,0.54 0.21,-0.03 0.04,1.77 -0.04,0.79 -0.19,0.22 h -0.57 l -0.37,-0.7 0.01,-0.04 -0.28,-0.44 -0.36,-1.32 -1.05,-1.08 -2.61,0.64 -0.46,0.57 0.11,0.27 1.35,2.86 0.61,1.23 0.21,4.32 1.8,0.65 0.9,0.6 0.2,0.21 0.51,0.53 0.52,0.94 -0.17,0.5 -0.59,1.15 0.15,0.19 -0.55,0.65 -0.27,0.16 -0.52,0.2 -0.18,-0.04 -0.24,0.18 -1.71,0.23 -0.41,0.05 -0.46,-0.14 -0.29,-0.23 -0.3,-0.36 -1.28,-0.7 -2.29,-0.32 -1.43,-0.15 -0.86,0.1 -0.26,0.13 -0.15,0.1 -0.15,0.3 -0.61,1.27 1.46,4.81 0.97,5.91 0.02,0.79 -1.62,4.1 -0.71,1.15 -1.38,0.04 -1.62,-0.21 -0.46,0.33 -1.1,0.89 -0.14,0.35 -0.36,1.8 0.01,0.56 0.38,0.71 0.1,0.97 0.01,0.46 -0.13,0.15 -0.26,0.09 -1.35,0.42 0.92,1.13 0.17,1.47 v 0.33 l -0.48,1.24 -1.25,2.68 -1.39,1.71 -0.68,0.97 -0.3,0.44 -0.08,2.65 0.06,0.93 3.27,0.58 1.08,0.18 0.93,-0.19 0.54,-1.25 -1.23,-1.52 -0.04,-0.61 0.24,-0.31 2.43,-0.95 0.48,-0.13 2.16,0.13 1.27,0.13 0.3,0.24 0.78,1.35 0.74,2.06 -1.8,1.51 -0.21,0.23 -0.4,0.63 -0.17,0.37 0.2,9.71 0.04,0.76 -0.31,1.65 -0.47,1.31 -0.92,1.39 -3.53,3.79 -1.59,0.92 -1.21,0.98 -1.17,0.72 -1.2,0.5 -1.54,0.18 -2.24,-0.93 -0.76,-0.6 -3.56,1.04 -0.35,1.58 -0.57,2.15 -0.16,0.33 -0.68,0.63 0.69,1.01 0.25,0.56 0.08,1.64 -0.08,1.11 -0.12,0.39 -0.43,0.8 -0.77,0.76 -1.61,1.46 -0.73,0.28 -0.1,0.03 h -0.68 l -1.71,0.61 -0.13,0.17 -0.33,0.54 -0.69,1.28 -0.94,2.38 -0.08,0.42 -0.13,0.11 -1.59,0.11 -0.78,0.02 -3.05,-0.78 -1.09,-0.37 -1.19,2.52 -0.35,3.41 0.67,4.06 0.24,1.22 0.44,1.04 v 0.8 l -0.4,1.19 -5.11,0.92 -1.35,0.15 h -0.19 l -0.54,-0.43 -1.86,-4.31 -0.11,-0.13 -0.31,-0.09 -9.7,-1.89 -13.47,3.7 -0.13,0.09 -0.52,0.61 -0.73,1.19 -0.47,2.48 -0.65,1.31 1.29,1.12 0.3,-0.06 0.58,0.02 0.51,0.16 0.14,0.06 0.32,0.27 0.14,0.27 0.36,3.89 -1.58,0.89 0.35,0.48 0.04,0.22 0.38,3.03 0.15,2.85 0.1,2.06 0.38,3.05 0.1,0.22 0.71,0.95 -0.92,-0.1 -0.21,0.05 0.03,0.63 0.12,1.44 0.1,0.39 0.26,0.28 4.35,4.36 0.41,0.05 0.76,0.14 0.23,0.07 0.18,0.13 1.18,5.31 -1.62,4.31 -0.5,0.24 -1.36,3.72 -0.82,6.97 0.89,1.64 -0.17,1.64 0.09,0.08 -0.39,0.98 -0.15,0.22 -0.54,0.43 1.61,0.87 0.35,0.25 0.56,1.38 -0.01,0.42 -0.29,0.43 -0.92,0.24 -1.48,-1.72 -1.14,-0.27 -5.64,1.81 -0.24,0.12 -1.04,0.74 -1.59,1.83 -0.38,0.71 -0.2,0.64 0.74,0.68 0.56,0.84 -6.48,5.92 -0.26,0.18 -0.13,0.03 -1.86,-0.09 -0.48,-0.09 -0.59,-0.65 -0.3,-0.87 0.37,-0.85 1.76,-3.75 2.31,-0.8 2.32,-2.1 -0.2,-1.25 0.16,-0.65 h -2.39 l -6.5,-1.28 -0.46,-0.16 -2.31,-1.03 -1.45,-0.99 -1.87,-7.63 0.36,-0.2 0.1,0.19 0.43,0.16 0.1,-0.12 0.51,-1 -0.13,-0.48 -0.97,-0.22 -3.93,0.98 -1.71,0.49 -0.3,0.6 0.04,0.81 0.21,0.39 0.63,-0.1 0.9,4.06 v 0.51 l -0.1,0.54 -0.67,1.09 -1.73,1.36 -0.94,0.04 -0.29,-0.08 -0.46,-0.18 -0.91,-0.69 -0.63,-0.86 -0.38,-1.19 -2.04,-2.62 -1.45,-1.27 -0.55,-0.47 -1,-0.12 -0.28,0.02 -0.31,0.07 -1.04,0.51 -0.16,0.08 -0.51,-1.18 -1.59,-2.39 -0.5,-0.92 -1.6,-5.15 -0.1,-0.46 0.17,-0.97 0.07,-0.24 0.2,-0.37 0.12,-0.13 0.63,-0.49 0.55,-0.35 0.48,-0.23 0.7,-0.27 1.51,-0.33 0.39,-0.16 0.41,-0.23 0.48,-0.38 0.41,-0.6 0.08,-0.19 0.15,-0.3 0.62,-1.02 -0.35,-2.33 -2.79,-2.92 -0.52,-0.98 -1,-1.44 -0.3,-0.5 -2.23,-5.63 -0.19,-0.8 v -0.39 l 0.12,-0.53 0.13,-0.35 0.35,-0.57 0.31,-0.65 0.06,-0.34 0.02,-0.5 -0.13,-0.55 -0.59,-1.9 -0.03,-0.95 -0.48,-1.18 -0.47,-0.81 -0.37,-0.56 -0.72,-0.85 -1.27,-1.16 -0.78,-1.16 -0.44,-0.65 -0.69,-0.75 -1.16,-1.11 -0.58,-0.24 -1.85,-0.39 -1.05,-0.15 -0.91,0.06 -2.53,0.81 -4.14,1.89 -7.02,2.69 -0.3,0.08 -1.99,0.32 -3.33,0.1 -0.35,-0.04 -0.27,-0.09 -0.47,-0.33 -5.41,-7.57 -0.68,-1.94 0.94,-0.2 1.99,-1.12 4.15,-3.47 0.38,0.15 2.31,0.64 0.3,-0.4 0.38,-2.99 -0.13,-0.36 -1,-0.9 -0.79,-0.6 -0.52,-0.32 -0.36,-0.52 -0.06,-1.32 0.08,-0.13 1.52,-2.01 0.58,-0.42 0.34,-0.18 4.34,-1.88 1.84,1.08 1,0.24 0.3,-0.01 1.68,-1.86 -0.1,-0.17 -0.37,-0.26 -1.67,-1.63 -0.23,-0.48 0.99,-1.3 0.89,-0.27 0.67,0.08 2.1,0.86 2,-1.15 -0.02,-1.93 -0.07,-0.4 -0.73,-2.24 -0.07,-0.17 -0.2,-0.4 -2.65,-4.85 -5.28,-3.52 -0.51,-0.01 0.29,-0.77 1.76,-4.95 -0.73,-0.98 -0.53,-1.29 -0.01,-0.33 0.47,-2.43 0.53,-1.07 2.39,-2.85 0.38,-0.14 0.6,-0.17 0.31,0.03 1.21,0.48 0.5,1.05 1.02,0.35 1.07,0.21 0.76,-0.1 0.19,-0.43 0.78,-1.85 0.27,-0.67 0.73,-1.8 0.38,-1.18 -0.01,-0.59 -1.17,-0.67 -0.36,-0.21 -0.13,-0.26 -0.93,-4.86 0.01,-0.93 0.06,-0.55 0.15,-0.41 0.88,-1 0.73,-0.99 2,-3.72 0.06,-0.35 -0.18,-0.95 -0.8,-1.12 -0.77,-1.51 -0.39,-0.82 -0.42,-1.01 9.49,-9.26 0.2,-0.17 0.19,-0.03 0.97,0.03 0.19,0.06 4.09,2.16 0.18,0.05 0.54,-0.12 0.12,-0.13 1.13,-1.21 4.29,-6.47 0.6,-2.59 0.06,-0.13 0.4,-0.23 0.1,-0.05 0.6,-0.01 0.16,0.06 -0.26,-0.37 -0.01,-0.24 0.08,-0.16 0.86,-0.93 1.44,-1.56 0.99,-0.87 0.39,-0.37 0.48,-0.73 -0.37,-0.88 -0.67,-1.46 -1.06,-3.28 -0.1,-0.31 v -0.19 l 0.44,-0.63 0.53,-0.45 0.77,-0.65 0.13,-0.07 1.26,-0.48 0.15,-0.12 2.81,0.18 1.71,0.27 0.76,0.31 1.12,0.26 0.44,-0.02 3.19,-1.23 2.83,-6.22 0.27,-0.66 0.07,-0.38 -0.16,-2.04 -0.75,-6.42 -0.11,-0.25 -0.86,-1.16 -0.91,-0.02 -0.7,0.06 -4.57,2.05 -0.96,0.65 -0.1,0.03 -0.76,-0.04 -0.31,-0.1 -0.22,-0.21 -2.07,-2.89 0.57,-0.86 2.61,-3.75 1.1,-1.35 1.08,-0.71 2.96,-1.88 4.98,-1.53 3.77,-1 4.17,-0.09 3.44,0.22 0.15,-0.05 0.82,-2.45 -0.21,-1.35 -0.04,-0.22 -0.31,-0.17 -0.54,-0.13 -2.52,-4.15 -0.18,-0.65 v -0.44 l 0.69,-0.69 2.85,-1.22 1.59,-0.54 2.23,-0.55 1.17,-0.05 2.92,1.24 1.18,1.96 -0.71,1.77 0.56,1.63 0.17,0.24 0.27,0.18 0.62,0.2 2.76,0.18 0.59,-0.1 0.6,-1 0.65,-1.05 4.32,-3.48 4.46,-3.49 3.24,-5.32 3.84,-4.61 1.29,-2.18 3.27,-0.71 0.27,0.06 0.15,0.21 0.03,0.38 -0.24,0.54 -0.21,0.82 0.04,0.34 0.31,0.4 0.73,0.44 0.7,0.1 3.2,0.05 0.97,-0.02 3.41,1.75 0.07,0.1 1.42,1.56 0.69,0.58 0.82,0.53 0.18,0.19 0.17,0.4 -0.32,0.84 -0.12,0.17 h -0.1 l -0.66,-0.19 -0.73,0.6 -0.59,0.79 -0.18,0.36 -1.53,0.27 -2.43,2.72 -0.15,0.32 -0.01,0.1 0.05,0.16 2.06,3.52 0.55,0.6 0.35,1.59 0.76,4.3 -0.1,0.21 -0.74,1.14 -1.29,-0.05 -1.61,0.27 -0.51,0.08 -1.07,1.69 -0.2,0.44 -0.51,2 -0.07,0.31 0.51,0.78 0.66,1.15 1.73,0.56 5.29,2.2 3.36,1.66 0.14,0.23 2.31,-1.19 0.27,-1.19 0.1,-0.48 -0.08,-1.36 -0.07,-0.15 -0.51,0.02 -1.72,0.82 -1.78,-2.78 1.08,-1.5 4.4,-3.7 0.43,-0.27 0.17,-0.04 3.21,-0.46 3.09,-0.41 0.28,0.17 1.25,2.03 0.34,0.59 0.04,1.17 -0.04,0.14 z" />
	<path
   id="Hamburg"
   class="area county_y"
   d="M 250.76,155.3 l 0.45,-2.27 0.42,-1.55 0.25,-0.9 0.72,-2.1 0.23,-0.31 0.39,-0.02 -0.1,0.52 0.13,0.67 1.7,2.07 1.05,0.97 0.53,0.23 0.76,-0.37 3.53,-4.42 0.37,-0.56 0.33,-0.56 -0.01,-0.33 0.07,-0.76 1.13,-0.06 1.24,0.03 0.25,0.2 0.96,0.21 0.5,0.05 h 0.75 l 4.88,-3.77 0.81,-1.94 -0.5,-0.62 1.43,-0.94 4.28,-2.07 0.29,0.04 0.2,0.08 1.29,0.73 -0.13,0.85 -0.61,1.42 0.14,4.67 0.75,0.89 1.6,2.17 -0.23,0.67 -0.04,0.1 -1.25,2.66 -2.06,1.66 -0.65,0.63 -0.3,1.19 0.06,2.08 0.85,2.42 0.21,0.2 3.5,2.44 0.38,0.08 0.48,-0.06 -0.14,0.62 0.24,0.79 3.73,4.01 0.54,1.04 -0.15,0.01 -0.19,0.09 -2.22,1.22 -0.37,0.2 -0.25,0.25 -0.19,0.28 -0.6,1.49 -0.24,0.25 -0.19,0.13 -0.37,0.05 -3.21,-0.14 -0.38,-0.08 -0.44,-0.3 -2.54,-2.4 -1.76,-2.01 -0.37,-0.51 -0.52,-0.58 -1.76,-1.05 -0.55,0.74 -0.6,1.3 -0.18,0.91 -2.82,2.07 -0.42,0.03 -1.58,-1.32 -2.11,-2.01 -0.75,-0.92 -0.33,-0.22 -0.25,0.16 -1.28,1.43 -0.83,0.62 -0.25,0.11 -3.41,-3.51 -0.07,-0.59 -0.96,-2.23 -0.88,-0.82 0.36,-2.25 v -2.82 z" />
	<path
   id="Bremen"
   class="area county_r"
   d="M 178.36,158.23 l 0.57,-0.37 0.18,-0.46 0.07,-0.26 -0.04,-0.78 -0.06,-0.34 -0.13,-0.31 -2.15,-3.77 -0.86,-1.34 0.97,-1.18 0.92,-0.07 5.39,0.27 1.68,0.27 0.06,0.09 -1.07,4.97 0.9,3.88 -0.1,0.52 -2.56,2.71 -0.18,0.01 -1.83,-0.2 -0.32,-0.2 -0.17,-0.23 0.37,-0.53 0.06,-0.19 v -0.19 l -1.37,-1.82 z m 25.88,40.41 -1.38,-1.67 -0.68,-0.49 -0.32,-0.01 -1.15,0.73 -4.71,-0.14 -3.77,-1.91 -4.23,-2.07 -6.48,-0.77 -7.51,-4.05 -0.27,-0.87 -0.01,-0.68 -0.02,0.73 0.22,1.31 0.4,0.85 0.31,0.56 0.73,1.08 1.55,1.25 2.38,1.14 0.8,0.34 0.91,0.13 0.77,0.2 0.36,0.31 0.25,0.51 1.58,4.2 0.15,1.32 0.92,0.62 1.96,2.11 0.49,0.68 0.06,0.63 0.08,2.65 0.47,0.47 0.54,0.47 0.31,0.07 1.05,-0.36 0.37,-0.15 1.35,0.01 5.34,1.85 3.11,1.22 3.25,-2.78 0.05,-1.97 -0.38,-4.77 -0.79,-1.23 0.08,-0.13 0.14,-0.07 0.97,-0.36 1.01,-0.38 z" />
	<path
   id="Brandenburg"
   class="area county_r"
   d="M 538.22,170.71 l -0.21,2.05 1.06,3.29 0.83,-0.02 0.65,0.13 0.33,0.92 0.07,0.5 -0.98,2.16 -2.43,3.68 -0.52,0.24 -0.17,0.15 -0.33,2.1 -0.15,0.96 0.01,0.24 0.27,1.06 0.13,0.4 1.04,1.35 -0.26,2.56 -0.08,0.53 -0.55,3.19 -0.67,2.26 -0.58,0.98 -0.25,0.32 -3.26,3.42 -1.22,1.17 -1.68,1.43 -0.94,0.5 -0.8,0.26 -2.13,1.44 -1.46,1.4 -0.27,0.92 0.03,0.16 0.28,1.65 1.09,3.92 0.35,0.71 -0.1,1.31 -0.75,1.23 -0.79,1.09 -0.47,1.11 0.03,0.64 0.06,0.18 0.35,0.64 0.17,0.18 0.69,0.31 1.84,0.15 3.75,1.49 7.81,5.08 1.53,1.46 1.6,1.86 1.7,2.03 0.07,0.09 0.24,0.4 0.18,0.7 2.09,2 0.98,0.67 1.82,1.21 0.82,0.41 1.43,0.71 0.86,0.43 0.31,0.11 0.49,0.09 0.32,0.17 1.73,1.17 0.43,0.46 2.34,2.99 0.16,0.3 0.21,7.78 -0.14,0.67 -0.14,0.26 -1.72,3.01 -0.75,1.01 -1.57,1.1 -0.29,0.2 -0.32,0.37 -0.2,0.45 -0.1,0.51 -0.37,2.29 -0.08,0.76 1.04,1.61 0.26,0.55 0.35,2.67 1.5,5.61 0.07,0.25 0.19,0.22 0.95,1.06 0.2,0.19 0.41,0.2 0.73,-0.04 0.32,0.06 4.72,1.18 0.1,0.04 0.29,0.22 0.21,0.27 0.99,1.38 0.12,0.19 0.02,0.23 -0.22,6.41 -0.05,0.44 -0.47,0.92 -0.82,1.04 -0.14,0.27 -0.01,0.35 0.3,2.57 0.4,0.83 0.32,0.45 0.5,0.52 0.22,0.15 0.73,0.06 0.62,0.19 0.42,0.22 0.6,0.43 0.41,0.41 0.95,1.52 0.03,0.32 -0.43,3.29 -0.06,0.13 -0.35,0.73 -1.42,2.41 0.13,0.07 0.27,0.6 -0.18,6 -0.97,3.39 -2.94,4.03 -1.16,0.98 -1.7,1.75 -0.35,0.4 v 0.07 l 0.03,1.17 0.05,0.52 0.82,1.26 0.2,0.31 0.17,0.12 1.02,0.3 2.85,6.29 0.5,1.11 1.54,1.71 2.26,1.7 0.34,0.22 0.69,0.56 0.55,0.65 0.68,1.41 0.5,4.22 -0.8,2.7 -0.89,1.36 -0.98,-0.79 -0.82,0.76 -0.65,2.35 -0.1,0.27 -0.16,0.23 -0.47,0.55 -0.17,0.06 -3.19,0.32 -0.53,-0.07 -0.42,-0.1 -0.15,-0.17 -0.44,-0.75 -0.15,-0.67 -2.21,-0.86 -6.95,2.46 -0.36,0.25 -0.13,0.36 0.01,0.38 0.08,0.54 -0.33,-0.18 -3.44,0.44 -4.35,2.45 -2.93,-1.01 -4.02,-0.52 -3.07,0.1 -1.29,-0.21 -0.4,0.06 -2.12,3.08 -1.51,4.44 -1.42,5.52 -2.69,3.47 -7.5,1.57 -0.33,0.05 -2.79,-0.08 -1.58,0.59 -2.05,1.02 -0.84,0.57 -3.1,-0.38 -0.51,-0.1 -0.83,-0.45 -0.34,-0.43 -0.46,0.68 -3.32,0.1 -1.99,0.05 -0.35,-0.04 -2.9,-0.87 -4.92,-3.01 -2.15,-1.75 -2.31,-2.05 -0.59,-0.45 -4.54,2.43 -2.62,2.33 0.01,0.15 0.11,1.07 -1.71,0.48 -0.51,0.13 -2.28,-0.05 -0.21,-0.4 -0.22,-0.63 -1.53,-1.83 0.77,-3.69 0.22,-5.21 -0.16,-0.68 -0.22,-0.68 -1.13,-2.75 -1.87,-4.09 -0.45,-0.81 -2.64,-1.42 -0.19,0.31 -0.33,0.32 -0.74,0.48 -0.58,-0.32 -2.41,-3.88 6.45,-4.28 0.52,-0.56 1.4,-2.52 v -0.14 l -0.04,-0.48 -0.47,-0.94 -0.27,-0.25 -0.48,-0.44 -3.32,-11.7 -0.01,-0.25 -0.01,-0.22 1.74,-0.28 -0.02,-0.62 -0.14,-0.61 -0.72,-0.72 -0.41,-0.26 -0.91,-0.04 0.07,0.67 -0.34,0.21 -2.05,0.83 -2.36,-0.21 -0.16,-0.02 -0.3,-0.19 -3.03,-3.13 -4.88,-2.59 -1.06,0.38 -0.52,-0.02 -2.42,-0.61 -4.93,-2.83 -0.48,-1.44 -0.35,-0.02 -1.81,-0.94 -1.6,-0.9 -0.69,-0.44 -1.99,-0.92 -0.93,0.01 -0.44,0.59 -0.16,1.35 -1.82,1.29 -0.77,0.13 -3.96,-0.6 -7.21,-2.8 -4.59,-2.85 -1.67,-1.88 -2.65,-3.45 -2.09,-3.22 -2.92,-3.75 1.83,-4.15 -0.23,-4.03 0.27,-2.47 0.13,-0.48 0.57,-1.79 1.17,-2.57 0.1,-0.17 0.25,-0.12 1.19,-2.4 -0.65,-3.43 -0.4,-2.85 -0.19,-1.65 0.87,-2.15 0.57,-1.03 0.31,-0.93 -0.37,-3.27 -5.54,-1.92 -0.18,0.94 -0.04,0.15 -0.32,0.47 -1.12,0.33 -1.18,0.19 -0.86,-1.03 -1.83,-2.17 -0.04,-0.04 0.04,-0.75 1.78,-7.12 0.9,-1.63 0.41,0.12 0.42,0.02 1.63,-1.19 0.41,-3.68 -0.02,-0.58 -0.27,-0.89 -1.19,-1.79 -1.24,-2.03 -0.03,-0.11 0.42,-4.44 0.35,-1.14 0.67,-1.29 1.47,-0.73 0.2,-1.81 -1.23,-4.9 -0.1,-0.27 -0.62,-0.41 -1.48,-0.67 -1.55,0.7 -0.91,0.48 -1.65,0.55 -0.84,-1.99 0.03,-0.68 0.25,-0.65 0.14,-0.17 -0.75,0.69 -8.22,0.97 -0.29,-0.05 -5.22,-1.68 -3.59,-1.46 -0.35,-0.18 -0.22,-0.22 -0.25,-0.5 -0.06,-0.49 0.05,-0.2 0.19,-0.4 0.52,-0.55 0.53,-0.45 0.14,-0.19 0.1,-0.27 0.02,-0.24 -0.03,-0.28 -0.1,-0.26 -0.24,-0.31 -5.18,-3 -0.22,-0.12 -0.38,-0.18 -0.4,-0.14 -0.54,-0.08 -0.17,0.03 -0.99,0.58 -0.75,0.52 -0.31,0.08 -0.53,-0.1 -0.22,-0.14 -3.57,-2.84 -0.24,-0.25 -0.14,-0.29 -0.05,-0.38 0.05,-0.31 0.86,-1.15 0.11,-0.17 0.02,-0.2 -0.07,-0.24 -0.21,-0.18 -0.23,-0.13 -0.21,-0.05 -0.49,-0.04 -0.25,0.04 -1.4,0.57 -0.6,-0.02 -4.39,-1.06 -0.63,-0.19 -0.57,-0.4 -1.16,-1.23 -0.71,-0.79 -0.36,-0.29 -0.41,-0.2 -0.52,-0.04 -0.41,0.04 -2.03,0.57 -0.39,0.11 -0.27,0.16 -1.03,0.79 -1.7,0.91 -0.46,0.01 -0.23,-0.04 -0.29,-0.16 -2.99,-3.06 -1.15,-1.38 -0.07,-0.2 -0.03,-0.33 -0.03,-1.46 5.62,0.33 2.76,-2.18 3.38,-0.4 0.8,0.59 0.03,0.25 0.64,0.3 1.63,0.3 1.54,0.05 0.86,-0.6 0.33,-0.98 0.64,-2.54 -0.68,-4.09 3.88,-3.53 0.56,-0.43 2.74,-0.04 1.02,0.07 1.7,0.96 0.7,1.46 0.63,-0.1 5.53,-1.24 0.21,-0.23 0.02,-0.12 -0.13,-0.35 -1.1,-1.86 3.21,-0.23 5.01,-1.83 0.39,-0.24 3.75,-2.68 0.37,-0.5 -0.16,-1.77 2.07,-2.96 1.54,0.28 1.7,0.23 1.48,-0.54 5.53,-1.13 0.33,-0.02 3.87,2.96 1.99,0.6 0.55,0.37 0.61,0.17 0.74,0.35 1.86,1 0.98,0.79 0.51,1.43 2.48,2.79 3.25,-0.39 0.2,-0.21 -0.04,-0.52 1.77,-0.38 7.68,0.72 0.78,0.14 3.39,3.16 2.46,2.56 0.38,0.69 1.17,0.13 0.83,-0.31 1.16,-0.45 0.02,-0.15 0.08,-0.06 1.78,-0.58 7.28,-0.2 0.68,0.2 0.04,0.04 0.21,0.52 0.02,0.16 -1.04,0.62 -0.93,0.73 -0.27,0.41 0.01,0.06 0.15,0.13 2.07,0.89 0.16,-0.02 0.3,-0.16 7.01,-7.64 0.44,-0.4 2.26,-1.1 0.18,-0.03 1.94,-0.25 0.31,0.57 0.23,0.63 0.82,1.76 0.18,0.2 1.48,0.22 0.49,-0.87 0.13,-0.68 -0.01,-0.51 0.1,-1.23 0.19,-0.75 0.36,-0.51 1.82,-1.57 1.1,-0.52 3.52,0.05 0.21,0.12 0.39,0.54 0.06,0.2 0.13,0.89 1.08,1.63 0.36,0.11 0.7,-0.31 4.74,-4.98 2.14,-2.88 0.06,-0.1 -0.01,-0.12 -0.3,-1.81 -0.25,-1.3 0.47,-1.61 1.18,-2.83 0.21,-0.5 6.59,-6.32 0.95,-0.86 1.74,-1.38 2.69,-0.2 2.75,-2.43 -1.37,-1.24 -0.16,-1.38 -0.01,-0.33 0.25,-1.93 0.07,-0.32 0.36,-0.63 0.52,-0.13 5,5.79 0.97,3.31 1.48,3.15 1.62,0.66 0.58,-0.25 3.4,-0.6 2.69,0.42 3.88,-0.13 0.72,-1.4 6.33,0.39 0.73,0.49 0.42,0.69 0.24,2.84 -0.02,0.53 -0.53,1.97 -0.14,0.48 -0.42,0.98 -1.01,1.65 -0.79,1.05 -1.08,1.29 -1.01,1.07 -0.74,0.67 -1.57,1.9 -0.48,0.8 -0.1,0.48 -0.18,1.22 1.1,0.13 5.83,0.2 2.5,-0.4 0.81,-0.26 2.02,-2.83 0.62,-1.8 0.16,-0.93 5.02,-2.12 0.31,-0.02 z m -58.99,73.1 -0.62,1.06 -0.66,0.86 -0.46,0.36 -0.39,0.21 -0.43,0.14 -0.72,-0.02 -0.91,-0.05 -1.15,-0.23 -5.6,0.17 -1.13,2.23 -0.03,0.11 0.14,0.31 0.52,0.6 0.36,0.29 0.11,0.15 0.02,0.14 -0.06,0.38 -1.09,-0.08 -0.5,-0.1 -1.24,-0.54 -0.5,-0.29 -0.52,0.15 -1.67,1.12 -0.04,0.4 -0.42,6.15 0.05,0.61 1.62,-0.32 1.58,1.12 -2.24,2.93 -0.42,0.31 -0.45,0.68 -0.28,0.55 v 1.52 l 0.45,0.53 0.4,0.7 -0.6,1.05 -0.5,0.51 -0.99,0.54 0.17,0.77 0.23,0.19 2.06,1.29 1.97,0.13 0.65,-0.06 -0.55,-0.12 0.09,-0.64 2.22,-1.4 1.58,-0.59 0.21,-0.05 1.19,-0.08 3.37,0.72 0.99,1.3 1.9,-0.95 2.94,2.89 1.97,0.1 -0.2,-3.17 0.03,-0.17 0.1,-0.1 1.64,-0.77 0.72,-0.33 0.52,-0.16 0.75,1.85 3.79,1.21 7.06,2 1.26,0.26 1.59,-0.55 0.39,-0.7 0.05,-0.36 -0.15,-0.35 -0.24,-0.01 -0.56,-0.21 0.01,-0.25 1.81,-1.51 0.68,-1.71 0.81,-2.47 -1.54,-1.6 -0.89,-0.06 -2.54,-1.66 -1.61,-0.46 -0.76,-3.15 -1.6,-3.5 -3.56,-3.76 -4.66,-8.69 -0.88,-0.47 -0.8,0.61 -0.58,0.79 -0.61,1.42 -0.43,1.19 -0.59,0.18 -1.07,-0.58 z" />
	<path
   id="Berlin"
   class="area county_g"
   d="M 479.23,243.81 l 0.54,0.48 1.07,0.58 0.59,-0.18 0.43,-1.18 0.61,-1.42 0.58,-0.79 0.8,-0.61 0.88,0.47 4.66,8.69 3.56,3.76 1.6,3.5 0.76,3.15 1.61,0.46 2.54,1.66 0.9,0.06 1.54,1.6 -0.81,2.48 -0.68,1.71 -1.81,1.51 -0.01,0.25 0.52,0.16 0.24,0.01 0.15,0.35 -0.05,0.36 -0.39,0.7 -1.58,0.55 -1.26,-0.26 -7.05,-2 -3.79,-1.21 -0.75,-1.85 -0.52,0.16 -0.72,0.33 -1.64,0.77 -0.1,0.1 -0.03,0.17 0.23,3.23 -2,-0.15 -2.94,-2.89 -1.9,0.95 -0.99,-1.3 -3.37,-0.72 -1.19,0.08 -0.21,0.06 -1.57,0.59 -2.22,1.4 -0.08,0.65 0.54,0.12 -0.65,0.06 -1.97,-0.13 -2.06,-1.29 -0.23,-0.19 -0.17,-0.77 0.99,-0.54 0.5,-0.51 0.6,-1.05 -0.4,-0.7 -0.45,-0.53 v -1.52 l 0.28,-0.55 0.46,-0.68 0.42,-0.31 2.25,-2.93 -1.58,-1.12 -1.62,0.32 -0.05,-0.61 0.42,-6.15 0.04,-0.4 1.67,-1.12 0.52,-0.15 0.5,0.29 1.24,0.54 0.5,0.1 1.09,0.11 0.06,-0.41 -0.02,-0.14 -0.1,-0.15 -0.36,-0.29 -0.52,-0.6 -0.14,-0.31 0.03,-0.1 1.13,-2.23 5.6,-0.17 1.15,0.23 0.91,0.05 0.73,0.02 0.43,-0.14 0.39,-0.21 0.47,-0.36 0.66,-0.86 z" />
	<path
   id="Bayern"
   class="area county_y"
   d="M 393.09,474.99 l 0.92,0.19 0.69,0.63 2.56,2.65 -0.001,0.43496 L 397,480.6 l -0.31,1.76 0.41,0.29 1.16,0.19 4.47,1.32 1.99,0.75 0.46,0.65 1.5,1.47 1.2,2.65 -0.06,0.18 -0.05,0.11 -0.74,0.57 -0.95,0.23 -0.41,0.42 -0.97,1.19 0.15,0.31 1.27,1.14 3.27,1.74 0.25,0.21 1.13,1.2 1.4,1.71 1.01,2.08 -0.06,0.37 -0.2,0.59 -0.68,0.67 -0.32,0.98 -0.02,0.51 0.19,1.55 0.25,1.25 0.09,0.19 0.55,0.62 0.08,0.05 0.7,-0.22 0.51,0.14 1.02,0.78 1.54,1.6 -0.31,2.06 3.85,0.6 3.31,3.36 4.11,2.42 1.68,0.04 0.99,0.16 1.42,0.78 0.63,0.91 2.8,4.83 -0.06,3.49 -0.3,0.26 -0.59,0.7 -2.23,4.18 -0.59,1.74 -0.31,3.36 -0.15,0.67 -4.26,2.95 -0.04,0.27 0.04,0.24 0.37,1.36 0.46,0.75 1.9,2.66 0.18,0.2 0.21,0.13 0.48,0.13 4.46,1.28 0.17,0.07 0.4,1.65 0.78,5.33 2.75,5.93 0.96,1.38 0.41,0.34 -0.34,0.39 0.94,0.59 1.24,0.44 0.54,0.06 0.13,-0.42 0.1,-0.1 0.3,0.02 0.31,0.47 0.08,0.21 0.15,1.38 0.09,2.13 v 0.56 l -0.04,0.12 -0.61,0.8 1.73,2.58 6.84,5.42 0.31,1.27 -0.18,0.75 1.5,2.75 0.48,0.25 1.13,0.35 5.02,0.74 0.67,-0.01 0.13,-0.09 -0.2,-0.57 -0.37,-0.45 -0.08,-0.71 0.57,-0.07 0.85,0.09 2.96,0.49 0.32,0.07 1.55,0.87 2.05,1.92 2.03,2.65 5.84,7.78 0.88,1.2 1.66,1.49 0.93,0.74 0.25,0.13 0.35,0.01 0.07,2.99 0.9,0.93 1.07,0.75 0.85,0.5 1.74,0.71 0.63,-0.19 0.7,-0.29 1.36,-0.34 0.41,-0.02 0.48,0.2 2.46,1.75 1.38,1.09 3.2,3.55 0.57,0.87 0.66,2.27 1,4.28 1.09,0.74 4.39,2.93 0.2,0.03 0.65,-0.13 -0.03,-0.9 -0.14,-0.42 -0.08,-0.53 0.04,-0.91 1.48,-0.57 3.44,0.15 0.3,0.18 0.17,0.16 2.53,2.79 1.05,1.34 0.75,1.74 0.66,1.46 1.15,1.32 0.35,0.14 0.87,-0.02 1.86,-0.07 0.31,-0.16 0.4,-0.4 0.6,0.02 5.78,8.52 1.29,2.66 -0.58,2.23 -0.68,2.13 -0.9,1.61 1.31,2.27 1.18,5.72 0.03,1.63 -1.33,4.54 -4.59,6.46 -0.21,0.17 -1.44,-0.36 -2.91,-1.51 -0.27,-0.22 -5.02,-3.16 -5.36,-2.03 -0.37,1.62 -0.17,0.33 -0.77,0.86 -1.08,0.91 -0.49,0.23 -1.99,0.64 0.76,0.92 0.06,0.1 0.69,2.69 -0.04,0.2 -1.25,3.89 -0.26,0.52 -0.28,0.99 -0.01,0.38 0.04,0.18 0.77,1.25 0.14,0.47 0.02,0.29 -0.09,0.38 -1.27,4.98 -0.19,0.49 -0.16,0.26 -0.27,0.27 -5.06,5.21 -0.54,0.42 -3.94,2.62 -0.36,0.2 -0.47,0.08 -4.97,0.06 -2.81,1.58 -0.51,0.21 -0.74,0.14 -1.22,-0.03 -0.6,-0.02 -0.57,0.13 -3.93,2.12 -0.34,0.23 -0.32,0.34 -0.18,0.3 -0.33,0.74 -0.21,0.38 -2.31,2.7 -0.36,0.31 -0.37,0.24 -0.42,0.19 -0.33,0.07 -1.85,0.1 -2.85,0.48 -0.21,0.06 -0.28,0.2 -0.22,0.31 -0.04,0.19 -0.04,0.69 -0.08,0.29 -0.96,2.05 -0.88,1.1 -0.18,0.21 -2.17,1.7 -2.59,2.14 -0.51,0.64 -0.12,0.17 -0.02,0.28 0.28,1.84 0.21,0.78 0.31,0.7 0.64,0.82 2.87,2.38 2.01,1.65 0.81,0.83 0.41,0.52 0.29,0.52 0.07,0.25 0.91,3.64 0.23,0.45 0.26,0.25 2.4,0.44 0.49,0.21 0.22,0.19 0.93,1.31 2.25,3.54 2.81,5.05 0.19,0.46 0.06,0.46 -0.09,0.32 -2.58,4.59 -3.74,7.47 -0.01,0.19 0.07,0.21 0.55,0.6 0.86,0.63 3.35,0.25 0.97,-0.07 0.29,-0.14 0.71,-0.51 0.16,-0.2 0.07,-0.17 -0.07,-0.11 0.23,-0.44 0.16,-0.07 0.49,-0.04 1.97,0.96 0.27,0.2 1.47,1.88 2.15,5.26 0.12,0.45 -0.18,0.75 -0.3,0.33 -1.29,1.51 -1.84,2.88 -0.1,0.7 -0.56,4.45 0.02,0.15 0.14,0.18 0.31,0.26 0.33,0.11 0.3,0.24 0.09,0.25 0.15,2.28 -0.01,0.73 -2.73,2.97 -0.2,0.1 -0.18,-0.05 -2.64,-1.07 -0.8,-0.37 -2.94,-1.64 -7.68,-5.22 -0.68,-0.67 -0.77,-1.2 -0.35,-1.02 0.11,-0.36 0.73,-1.9 0.97,-1.03 -2.68,-5.57 -1.48,-0.44 -3.85,-1.07 h -0.81 l -0.42,0.03 -0.82,0.18 -3.93,0.86 -0.31,0.08 -0.52,0.74 -0.9,1.94 -4.83,2.47 -0.92,0.05 -2.43,-2.46 -1.8,-2.44 -0.12,-0.25 -5.24,-0.57 -1.79,-0.67 -0.22,-0.17 0.16,-0.46 -4.79,1.81 -1.16,-3.56 0.36,-0.64 0.45,-1.1 -0.14,-0.46 -0.45,-0.6 -0.51,0.18 -4.3,4.21 -0.14,3.47 1.16,2.53 0.3,1.01 0.49,1.95 0.01,0.21 -0.06,0.25 -0.13,0.2 -0.16,0.12 -1.37,0.31 -3.73,-0.09 -3.25,-0.33 -1.54,-0.89 -2.83,0.79 -3.59,-0.44 -3.9,0.52 -3.22,1.25 -1.18,2.04 -0.21,0.13 -1.02,-0.08 -2.79,-0.5 -9.75,-0.04 -1.16,-0.2 -1.78,1.14 -0.12,0.15 -1.14,2.47 -0.12,1.12 -0.01,0.22 0.02,0.19 0.11,0.26 0.05,1.4 -1.07,1.14 -0.24,0.11 -4.38,1 -3.45,-0.33 -0.66,-0.19 -0.48,-0.59 -0.24,0.11 -0.24,0.18 -1.37,1.58 -0.17,0.38 -1.71,1.95 -5.46,4.85 -0.56,0.99 -0.17,0.38 -0.33,0.99 -0.4,0.51 -0.79,0.47 -0.2,0.06 -2.9,0.3 -0.24,-0.02 -0.17,-0.2 0.1,-0.43 1.1,-1.89 0.9,-0.85 -0.19,-0.39 -0.15,-0.1 -3.03,-0.08 -3.42,1.35 -0.36,0.19 -1.3,0.74 -3.45,1.72 -5.3,0.27 -0.67,-0.04 -1.19,-0.23 -0.63,-0.3 -0.13,-1.21 0.15,-0.48 0.09,-0.1 0.59,-0.11 0.28,-0.25 -0.1,-0.93 -1.6,-1.87 -2.29,-2.38 -3.26,-0.7 -0.22,-0.02 -0.49,-0.24 -0.14,-0.4 0.05,-1.36 0.45,-0.44 1.96,-1.49 -1.36,-1.98 -2.2,0.26 -3.89,1.52 -2.36,-0.46 -4.88,-1.98 -0.21,-0.63 -0.03,-0.32 0.06,-0.19 -0.08,-0.27 -5.07,-0.84 -1.22,-0.1 -0.8,0.94 -0.46,0.93 -0.01,0.17 -0.59,1.47 -0.3,0.03 -3.1,-0.14 -2.45,-0.49 -1.97,-1.26 -0.47,-0.34 0.44,-0.65 0.63,-0.76 0.22,-1.01 -0.04,-0.8 h -0.26 l -2.19,0.34 -0.14,0.04 -0.39,0.66 0.13,7.57 0.66,1.75 0.16,0.18 0.2,0.06 0.42,-0.16 0.66,0.32 0.48,0.55 0.07,0.77 0.34,3.9 -3.99,5.36 -4.85,6.2 -1.51,1.45 -2.96,1.84 -2.76,1.01 -4.47,0.8 -0.29,-0.01 -0.12,-0.39 -0.03,-0.51 0.23,-0.91 0.24,-0.77 2.62,-6.07 0.65,-0.81 0.73,-1.05 0.04,-0.11 -0.06,-0.85 -0.49,-0.65 -0.15,-0.05 -3.16,-0.35 -0.86,0.67 -0.03,1.09 0.04,0.39 -0.27,0.25 -4.59,1.46 -1.57,-5.03 0.55,-1.08 0.6,-0.25 0.11,-0.09 0.7,-1.11 -0.91,-1.56 -0.86,-1.16 -1.91,-2.17 -2.06,-0.84 -0.88,0.24 -0.52,0.01 -0.14,-0.05 -0.4,-0.41 -2.1,-3.59 -0.01,-1.08 0.02,-0.67 0.19,-0.82 -0.22,0.2 -2.19,1.19 -0.75,0.31 -3.35,0.1 -4.07,-1.94 -0.04,-0.21 0.15,-0.38 0.13,-0.11 0.14,-0.04 0.18,-0.23 0.17,-0.32 0.11,-1.89 -0.26,-0.85 -1.47,-0.9 -0.15,-0.03 -1.62,0.07 -0.81,0.63 -0.64,0.93 -2.5,3.44 -3.81,-1.19 -3.19,-1.32 -0.88,-0.57 -0.32,-0.85 2.65,-2.01 1.24,-0.84 2.36,0.19 0.05,0.37 0.11,0.22 0.25,0.19 0.42,0.14 3.12,-0.15 5.51,-5.6 0.08,-0.12 4.78,-0.27 5.46,-0.08 0.3,-0.52 1.05,-1.31 0.24,-0.24 0.16,-0.08 1.34,-0.22 2.59,0.5 0.03,0.03 0.33,0.57 0.03,0.11 0.87,3.55 -0.07,-0.31 0.42,-1.15 0.38,-0.43 0.62,-0.79 0.44,-0.25 0.7,0.15 h 0.19 l 1.1,-1.02 0.68,-2.24 0.01,-0.6 -2.55,-6.23 -0.05,-3.7 1.01,-0.02 1.33,-1.19 -0.27,-0.78 -0.45,-0.29 -0.52,-0.65 -0.53,-1.09 -0.47,-2.52 -0.15,-3.48 -0.01,-0.4 0.02,-0.35 0.21,-1.79 0.38,-1.43 -0.8,-0.52 -0.34,-0.27 -0.25,-0.27 -0.21,-0.4 -0.15,-0.61 0.04,-0.57 0.12,-0.46 0.14,-0.24 0.17,-0.18 0.26,-0.16 0.72,-0.16 0.66,-0.14 0.06,-1.03 0.24,-1.86 0.4,-0.68 0.56,-0.56 0.16,-0.68 0.27,-2.42 -0.05,-2.97 -0.18,-3.41 -0.82,-0.75 -0.91,-0.95 -0.08,-0.14 -0.25,-0.65 -0.87,-2.8 v -0.49 l -0.3,-0.67 -0.34,-1.75 -0.15,-0.79 -1.22,-8.85 -0.97,-0.93 -2.86,-4.49 -0.81,-1.52 -0.39,-2 1.51,-3.54 0.14,-0.21 1.23,-2.24 0.29,-1.71 -0.16,-0.71 -0.32,-0.48 1.59,-0.13 3.3,-1.88 0.95,0.73 1.15,1.35 2.29,-0.49 4.75,-4.18 -0.2,-0.56 -0.24,-0.51 1.55,-0.82 0.24,-0.1 0.48,-0.06 0.94,0.41 h 0.58 l 0.65,-0.09 1.07,-0.62 0.08,-3.91 -0.05,-0.6 -0.97,-5.74 -1.31,-1.8 -1.18,-1.65 -0.57,-0.8 0.05,-1.34 0.05,-0.22 0.85,-2.44 4.04,1.28 0.62,0.2 4.78,-1.04 1.61,-0.08 0.35,0.25 0.14,0.18 0.05,0.31 -0.99,2.17 -0.43,0.31 -0.1,0.19 0.05,0.25 0.03,0.02 1.01,-0.04 2.18,-0.7 1.46,-1.62 0.34,-0.43 -0.32,-0.63 -0.22,0.01 -0.63,-0.62 -0.68,-2.57 -0.06,-0.85 -2.54,-0.83 -0.21,0.02 -0.26,-3.28 0.69,-0.29 1.21,-3.14 0.02,-0.06 0.35,-5.14 0.13,-6.16 -0.38,-1.87 -0.48,-0.62 -0.09,-0.12 -1.29,-1.34 -0.72,-1.97 -0.15,-0.35 -6.11,-4.45 -4.18,-1.77 -0.16,-1.04 0.01,-0.7 h 0.15 l 0.42,-0.2 -1.33,-6.67 -2.07,-3.75 -1.72,-0.72 -1.5,-0.78 -2.59,-1.77 -0.29,-0.35 -0.03,-0.17 0.21,-6.23 0.96,-2.7 -0.54,-0.86 -1.94,-4.36 -0.1,-0.34 -0.04,-0.29 0.3,-3.53 0.32,-0.63 2.28,-0.07 0.68,-0.31 0.27,-0.46 0.07,-0.21 -0.62,-1.69 -1.14,-2.28 -1.18,-3.92 -0.15,-0.06 -1.01,-1.32 -0.06,-0.62 0.04,-0.19 0.22,-0.48 0.39,-0.37 -0.29,-1.35 -0.81,-1.79 -0.67,-1.11 -1.13,-0.21 -0.34,0.1 -1.52,1.45 -0.05,0.09 0.24,0.33 0.66,0.59 0.63,0.15 -0.53,0.93 -0.19,0.21 -2.16,2.41 -0.36,0.13 -4.05,0.25 -1.53,-0.36 -0.19,-0.11 -0.81,-0.81 0.14,-0.68 0.41,-0.43 0.17,-0.39 0.03,-0.12 0.16,-4.2 -0.16,-1.09 -0.03,-0.12 -0.69,-2.23 -0.11,-0.27 -0.27,-0.06 -0.46,0.04 -0.29,0.05 -1.72,-2.7 -0.23,-0.99 -2.37,-8.36 -0.69,-0.71 -1.71,-1.69 -1.1,0.38 -4.21,1.45 -2.65,1.51 -0.88,0.42 -0.54,0.08 -1.44,-0.79 -0.5,-0.73 0.38,-1.38 0.11,-0.09 0.55,-0.27 0.06,-0.31 0.63,-5.98 -0.14,-0.98 -1.22,0.57 -4.27,4.13 -0.14,0.08 -0.23,-0.01 -0.26,-0.12 -2.57,-1.67 -0.29,-0.24 -0.23,-0.4 -0.06,-0.21 0.04,-0.38 0.17,-0.58 0.01,-0.27 -0.08,-0.2 -0.28,-0.27 -0.22,-0.19 -0.23,-0.06 -1.29,0.14 -0.18,0.16 -0.4,0.53 -0.66,1.05 -1.24,-0.51 -5.57,0.27 -2.25,0.25 -0.43,0.05 -0.27,0.12 -0.13,0.24 v 0.57 l 0.48,1.86 1.51,2.54 0.88,1.34 0.62,0.09 0.73,-0.07 0.32,-0.08 0.04,-1.63 -0.15,-0.53 0.35,-0.57 0.91,0.23 1.03,1.76 0.44,1.69 -0.76,3.31 0.53,0.5 -0.21,0.54 -0.68,0.84 -1.48,0.27 -2.33,-0.74 -2.98,-0.44 -1.26,1.83 -0.69,1.12 0.56,0.8 0.07,0.23 -2.42,3.08 -0.58,0.33 -1.18,0.36 -0.6,0.14 -1.29,0.24 -4.95,-0.02 -0.2,-0.03 -0.97,-0.38 -0.89,-1.64 0.82,-6.97 1.36,-3.72 0.5,-0.24 1.62,-4.32 -1.18,-5.31 -0.18,-0.13 -0.23,-0.07 -0.78,-0.17 -0.39,-0.02 -4.35,-4.36 -0.26,-0.28 -0.1,-0.39 -0.12,-1.44 -0.03,-0.63 0.21,-0.05 0.92,0.11 -0.71,-0.94 -0.1,-0.23 -0.38,-3.04 -0.1,-2.06 -0.15,-2.85 -0.38,-3.03 -0.04,-0.22 -0.35,-0.48 1.58,-0.89 -0.36,-3.89 -0.14,-0.28 -0.32,-0.27 -0.14,-0.06 -0.51,-0.16 -0.58,-0.02 -0.3,0.06 -1.29,-1.12 0.65,-1.31 0.47,-2.48 0.73,-1.19 0.52,-0.61 0.13,-0.1 13.47,-3.7 9.7,1.9 0.31,0.08 0.11,0.13 1.86,4.31 0.54,0.43 h 0.19 l 1.35,-0.15 5.11,-0.92 0.4,-1.18 v -0.8 l -0.43,-1.04 -0.24,-1.23 -0.67,-4.06 0.35,-3.41 1.19,-2.53 1.09,0.37 3.05,0.78 0.78,-0.02 1.59,-0.1 0.13,-0.11 0.07,-0.42 0.94,-2.38 0.69,-1.28 0.33,-0.54 0.13,-0.17 1.71,-0.61 h 0.68 l 0.1,-0.03 0.72,-0.28 1.61,-1.46 0.77,-0.76 0.43,-0.8 0.11,-0.39 0.08,-1.11 -0.08,-1.64 -0.25,-0.56 -0.69,-1 0.68,-0.63 0.16,-0.33 0.56,-2.15 0.35,-1.58 3.56,-1.04 0.76,0.6 2.24,0.93 1.54,-0.18 1.2,-0.5 1.17,-0.72 1.21,-0.98 1.59,-0.92 3.53,-3.79 0.93,-1.38 0.46,-1.32 0.31,-1.65 -0.04,-0.76 0.28,-0.08 0.37,-0.18 0.99,-0.98 1.81,-2.01 6.64,-0.71 0.54,0.05 1.84,2.41 1.45,1.97 4.67,1.96 0.54,0.44 0.51,0.53 2.43,5.15 0.39,2.42 0.02,0.58 0.54,0.75 0.17,0.02 1.85,0.2 0.93,-0.42 0.88,-0.45 0.25,1.02 0.3,1.18 2.28,2.5 4,1.5 3.04,0.7 -0.26,2.81 -0.34,3.57 0.66,2.88 0.42,1.17 0.19,0.44 1.83,0.44 5.23,1.92 0.27,-0.04 0.19,-0.09 0.45,-0.76 -0.14,-1.75 -0.15,-0.06 -0.04,-1.7 0.07,-0.21 0.29,-0.22 0.58,0.12 2.42,0.56 2.83,0.65 0.29,0.04 0.69,-0.18 0.69,-0.46 0.14,-0.18 0.22,-0.6 -0.05,-1.37 -0.41,-0.53 -0.59,-0.31 -1.28,-0.42 -0.62,-0.15 -0.17,-0.05 -5.5,-3.89 -0.37,-0.31 -0.08,-0.37 -0.18,-3.05 0.21,-0.94 7.51,-3.06 6.64,-0.04 h 0.16 l 0.19,0.04 0.55,0.56 1.14,2.03 1.34,1.47 3.59,0.63 0.4,0.06 1.36,-0.47 1.17,-0.5 0.38,-1.15 0.12,-0.11 0.75,-0.17 0.89,0.01 1.62,1.36 1.36,2.37 -0.04,0.61 -0.42,0.14 -0.56,0.41 -0.32,0.29 -0.42,0.48 -0.11,0.58 0.1,0.49 0.03,0.1 0.69,1.02 2.21,2.13 0.82,-0.03 0.09,-0.14 0.94,-1.89 3.11,-0.51 2,-6.87 v -0.06 l -1.2,-7.56 -0.3,-0.83 -0.44,-0.16 -0.69,-0.48 -0.12,-2.13 v -0.2 l 0.15,-0.63 0.22,-0.25 0.43,-0.14 0.45,0.14 0.1,0.16 1.52,-0.7 2.2,-1.77 0.22,-0.75 1.08,-1.15 0.17,-0.06 1.57,-0.21 3.48,0.67 0.26,0.22 0.33,0.48 0.57,0.82 v 0.15 l -0.27,0.68 -0.07,0.1 -0.44,-0.01 -0.44,0.66 -0.15,1.57 0.04,2.1 0.08,0.56 0.1,0.18 1.98,1.17 1.75,-0.21 0.55,2.19 0.66,1.19 1.68,1.87 0.59,0.28 1.89,-0.58 0.44,-0.41 0.02,-0.21 0.16,-0.77 0.16,-0.25 0.16,-0.1 1.32,-0.27 0.39,0.19 0.28,0.21 0.42,0.48 0.56,0.53 0.3,0.17 h 0.21 l 12.48,-1.71 4.11,-1.46 z" />
	<path
   id="Baden-Württemberg"
   class="area county_b"
   d="M 207.43,563.14 l 0.97,0.38 0.2,0.03 4.95,0.02 1.29,-0.24 0.6,-0.14 1.18,-0.36 0.58,-0.33 2.42,-3.08 -0.07,-0.23 -0.57,-0.8 0.69,-1.12 1.26,-1.83 2.98,0.45 2.33,0.74 1.48,-0.27 0.68,-0.83 0.21,-0.54 -0.53,-0.5 0.76,-3.31 -0.44,-1.69 -1.03,-1.76 -0.91,-0.23 -0.35,0.57 0.15,0.53 -0.04,1.63 -0.32,0.08 -0.73,0.07 -0.62,-0.08 -0.88,-1.34 -1.51,-2.53 -0.48,-1.86 V 544 l 0.13,-0.24 0.27,-0.12 0.44,-0.06 2.25,-0.25 5.57,-0.26 1.24,0.51 0.66,-1.05 0.4,-0.53 0.18,-0.16 1.3,-0.14 0.23,0.06 0.22,0.19 0.28,0.27 0.08,0.2 -0.01,0.27 -0.17,0.58 -0.04,0.38 0.06,0.21 0.23,0.4 0.29,0.25 2.57,1.67 0.27,0.12 0.23,0.01 0.14,-0.08 4.27,-4.13 1.22,-0.57 0.15,0.98 -0.63,5.99 -0.06,0.31 -0.55,0.28 -0.11,0.08 -0.38,1.39 0.5,0.73 1.44,0.78 0.54,-0.08 0.88,-0.42 2.65,-1.51 4.21,-1.45 1.1,-0.38 1.71,1.69 0.69,0.71 2.37,8.37 0.23,0.99 1.72,2.71 0.29,-0.05 0.47,-0.04 0.27,0.06 0.12,0.27 0.69,2.23 0.03,0.11 0.16,1.09 -0.16,4.19 -0.03,0.12 -0.17,0.39 -0.41,0.44 -0.14,0.67 0.81,0.81 0.19,0.11 1.53,0.36 4.05,-0.25 0.36,-0.13 2.16,-2.41 0.19,-0.21 0.53,-0.93 -0.63,-0.15 -0.66,-0.59 -0.24,-0.33 0.05,-0.09 1.52,-1.45 0.34,-0.1 1.13,0.21 0.67,1.11 0.81,1.79 0.29,1.35 -0.39,0.37 -0.22,0.47 -0.04,0.19 0.05,0.62 1.01,1.32 0.15,0.05 1.18,3.92 1.14,2.28 0.63,1.69 -0.07,0.21 -0.27,0.46 -0.68,0.31 -2.29,0.07 -0.32,0.62 -0.3,3.53 0.04,0.29 0.09,0.34 1.97,4.34 0.54,0.85 -0.96,2.71 -0.21,6.23 0.03,0.17 0.29,0.35 2.59,1.77 1.5,0.78 1.72,0.73 2.07,3.74 1.33,6.67 -0.42,0.2 h -0.15 l -0.01,0.7 0.16,1.04 4.18,1.77 6.11,4.45 0.15,0.36 0.72,1.96 1.3,1.34 0.09,0.12 0.49,0.62 0.38,1.87 -0.13,6.16 -0.35,5.14 -0.02,0.06 -1.21,3.14 -0.69,0.29 0.26,3.28 0.21,-0.02 2.54,0.83 0.06,0.86 0.68,2.57 0.63,0.61 0.22,-0.01 0.32,0.63 -0.34,0.44 -1.46,1.62 -2.18,0.7 -1.01,0.04 -0.03,-0.02 -0.06,-0.25 0.11,-0.19 0.43,-0.31 1,-2.17 -0.06,-0.31 -0.14,-0.18 -0.35,-0.25 -1.61,0.08 -4.78,1.04 -0.62,-0.2 -4.04,-1.28 -0.85,2.44 -0.05,0.22 -0.05,1.34 0.57,0.8 1.18,1.65 1.31,1.8 0.97,5.74 0.05,0.6 -0.09,3.91 -1.07,0.62 -0.65,0.08 h -0.58 l -0.94,-0.41 -0.49,0.07 -0.24,0.11 -1.55,0.81 0.23,0.5 0.2,0.56 -4.75,4.18 -2.29,0.48 -1.15,-1.35 -0.95,-0.73 -3.3,1.88 -1.59,0.13 0.32,0.48 0.16,0.71 -0.29,1.71 -1.23,2.24 -0.14,0.21 -1.51,3.54 0.39,2 0.81,1.53 2.86,4.49 0.97,0.93 1.22,8.85 0.15,0.79 0.34,1.76 0.3,0.67 v 0.49 l 0.87,2.8 0.25,0.64 0.08,0.14 0.85,0.92 0.82,0.75 0.18,3.41 0.05,2.97 -0.27,2.42 -0.16,0.68 -0.56,0.56 -0.4,0.68 -0.24,1.87 -0.06,1.02 -0.66,0.14 -0.72,0.16 -0.26,0.16 -0.17,0.18 -0.14,0.24 -0.12,0.48 -0.04,0.56 0.15,0.61 0.21,0.4 0.25,0.28 0.34,0.27 0.8,0.52 -0.38,1.43 -0.21,1.8 -0.02,0.35 0.01,0.4 0.15,3.48 0.47,2.52 0.53,1.09 0.52,0.64 0.45,0.3 0.27,0.78 -1.33,1.19 -1.01,0.02 0.05,3.7 2.55,6.24 -0.01,0.6 -0.68,2.24 -1.1,1.03 h -0.19 l -0.7,-0.15 -0.44,0.25 -0.65,0.75 -0.22,0.4 -0.42,1.15 0.07,0.29 -0.87,-3.54 -0.03,-0.11 -0.33,-0.57 -0.03,-0.03 -2.59,-0.51 -1.34,0.23 -0.16,0.08 -0.24,0.24 -1.05,1.31 -0.29,0.51 -5.46,0.09 -4.78,0.27 -0.07,0.12 -5.51,5.6 -3.12,0.15 -0.42,-0.14 -0.25,-0.19 -0.11,-0.22 -0.05,-0.37 -2.36,-0.19 -1.24,0.85 -2.65,2.01 h -2.08 l -0.84,-0.08 -0.34,-0.16 -0.32,-0.18 -1.43,-1.56 -0.8,-1.89 -0.14,-0.87 -0.39,-0.78 -0.65,-0.9 -0.59,-0.48 -4.92,-1.56 -0.97,-0.28 -0.59,-0.03 -0.41,0.05 -1.33,0.21 -0.24,0.04 -0.53,0.3 -0.51,0.16 -0.36,-0.02 -0.26,-0.12 -0.9,-0.48 -2.02,-1.1 -2.7,-1.82 -1.03,-0.92 -0.78,-0.79 -0.52,-0.89 -0.19,-0.51 -0.14,-0.86 0.1,-0.18 -0.03,-0.37 -0.05,-0.1 -0.62,-0.56 -7.65,-5.03 -2.1,-1.34 -0.27,-0.12 -0.36,-0.61 -0.29,-0.23 -1.52,-0.26 -0.39,0.63 -0.22,0.49 -0.01,0.13 0.14,0.24 2.48,2.57 0.76,0.61 0.56,0.39 3.28,2.24 0.13,0.03 0.52,-0.08 0.32,0.03 1.66,1.38 2.58,5.45 0.4,1.59 -1.59,0.96 -1.36,0.22 -2.54,-1.03 -2.29,-1.23 -0.4,-0.23 -0.49,-0.15 -2.46,-0.56 -0.44,-0.07 -1.79,-0.19 -0.28,-0.01 -0.35,0.08 -1.18,0.46 -1.18,0.62 -0.43,0.3 -0.5,0.47 -0.87,0.51 -1.24,0.61 -2.91,0.83 h -0.21 l -1.27,-0.75 -4.59,-4 -1,1.82 -0.28,0.04 -0.57,-0.24 -3.83,-1.66 -0.08,-0.29 -1.01,-3.56 0.24,-0.87 0.65,-0.72 -1.14,-1.87 -1.62,-1.42 -2.33,-0.75 0.25,1.13 -0.37,0.64 -0.22,0.27 -0.93,0.61 -0.27,-0.12 -0.56,-0.86 -0.32,-3.44 -2.81,-0.56 -0.76,1.07 -0.42,1.21 -3.23,0.7 -1.49,0.26 -1.08,0.9 -1.16,1.49 -3.24,5.59 -0.49,2.02 0.02,0.15 0.42,0.73 3.96,2.87 0.22,0.1 3.91,-1.61 -0.14,-0.59 0.43,-0.28 1.34,-0.56 0.61,-0.14 2.57,-0.2 0.23,0.01 0.36,0.06 1.48,2.02 0.02,0.31 -0.4,0.91 -1.49,3.1 -0.88,0.94 -0.55,0.5 -1.04,-0.17 -0.25,-0.54 0.2,-0.72 0.25,-0.1 0.09,-0.17 -0.05,-0.26 -0.13,-0.2 -0.74,-0.81 -1.28,-0.67 -0.04,-0.02 -1.15,-0.26 -3.75,2.96 1.37,1.68 0.36,0.56 0.02,0.12 -0.55,0.37 -1.53,0.51 -1.84,0.48 -0.5,0.07 -6.67,-0.55 -0.37,-0.05 -0.15,-0.06 -0.25,-0.14 -1.62,-1.51 -0.18,-0.23 -0.14,-0.33 v -0.36 l 0.19,-0.91 -0.03,-0.12 -0.21,-0.21 -0.59,-0.31 -1.86,-0.5 -3.21,-0.6 -0.5,-0.06 -0.27,0.06 -0.2,0.09 -6.23,3.62 -0.33,0.33 -0.15,0.22 -0.07,0.26 -0.1,0.86 -0.19,0.41 -0.44,0.35 -0.27,0.11 -4.61,0.6 h -0.18 l -4.17,-0.92 -3.36,-1.37 -1.05,-1.57 -0.16,-0.15 -0.37,-0.16 -0.24,-0.04 -3.55,0.13 -1.43,1.42 -0.19,0.4 -1.03,1.1 -0.51,0.27 -2.68,0.97 -3.84,1.09 -0.28,0.02 -0.83,-0.06 -0.77,-0.31 -0.15,-0.15 -1.24,-1.29 -0.68,-1.11 0.25,-0.14 0.48,0.15 2.49,-1.02 0.01,-0.34 -0.17,-0.91 -0.36,-0.97 -5.79,-1.52 -4.35,-5.69 -0.19,-0.31 -0.16,-0.43 -0.06,-0.36 -0.44,-2.83 0.09,-0.4 0.14,-0.2 1.58,-1.25 0.23,-0.25 0.27,-0.4 0.25,-0.61 0.14,-0.71 -0.01,-0.35 -0.14,-0.54 -0.97,-2.89 -0.06,-0.42 0.06,-0.83 0.1,-0.36 0.92,-2.2 1.23,-2.86 0.22,-0.69 0.05,-0.53 -0.05,-0.57 -0.34,-0.95 -0.08,-0.38 v -0.69 l 0.13,-0.53 1.81,-4.77 1.83,-2.55 0.48,-0.67 0.51,-0.93 0.14,-0.5 -0.02,-0.65 -0.3,-1.24 -0.27,-0.63 -0.46,-0.78 -2.13,-2.67 -0.16,-0.23 -0.08,-0.3 0.01,-0.36 0.16,-4.33 0.05,-0.42 0.62,-3.16 0.01,-0.47 0.1,-0.27 1.57,-3.38 0.17,-0.32 2.19,-2.86 2.36,-3.22 0.19,-0.42 0.33,-1.07 0.67,-2.29 0.7,-3.7 0.08,-0.35 0.22,-0.48 0.4,-0.48 0.47,-0.36 1.68,-0.61 0.48,-0.29 0.21,-0.2 0.15,-0.2 0.17,-0.37 0.08,-0.31 0.01,-0.31 -0.73,-3.89 -0.1,-0.9 v -0.59 l 0.08,-0.71 0.14,-0.65 0.21,-0.65 2.13,-5.21 2.31,-4.69 0.29,-0.42 0.32,-0.69 0.1,-0.53 0.01,-0.41 0.04,-3.57 -0.07,-0.91 -0.21,-1.09 -0.01,-0.47 0.04,-0.32 0.15,-0.43 2.69,-5.24 0.15,-0.22 0.24,-0.23 1.2,-0.51 1.47,-0.82 0.51,-0.39 4.77,-5.5 0.74,-3.62 0.15,-0.33 0.15,-0.15 0.49,-0.21 0.4,-0.02 2.49,-0.63 3.48,-2.46 0.77,-0.7 0.7,-0.86 0.43,-0.66 0.24,-0.55 0.19,-0.79 0.27,-1.22 0.43,-1.29 0.59,-1.66 0.35,-0.85 0.42,-0.89 0.89,-1.64 3.37,-5.3 0.31,-0.33 0.3,-0.17 2,-0.63 0.41,-0.24 1.59,-1.23 1.07,-0.85 0.4,-0.41 0.31,-0.46 0.29,-0.53 0.42,-0.94 0.09,-0.32 0.08,-0.3 0.2,-1.4 0.2,-0.9 0.45,-1.18 0.36,-0.65 0.71,-1.06 0.98,-1.06 0.01,-0.01 0.69,-0.84 0.45,-0.73 0.18,-0.52 2.41,-10.29 -0.16,-1.8 -0.17,0.04 h -0.1 l -0.02,-0.04 0.05,-0.71 0.18,-0.61 0.28,-0.54 0.36,-0.43 0.51,-0.44 0.55,-0.34 1.44,-0.93 0.49,-0.44 1.76,-1.97 1.36,-0.7 0.1,-0.21 0.05,-0.43 -0.12,-0.54 -0.23,-0.35 -0.35,-0.32 -0.17,-0.16 -1.03,-0.35 -0.21,-0.14 -0.19,-0.22 -0.14,-0.38 -0.03,-0.43 0.03,-0.2 0.13,-0.32 0.22,-0.32 0.52,-0.49 0.45,-0.31 0.44,-0.34 0.5,-0.52 0.59,-0.86 0.38,-0.85 0.24,-0.93 0.04,-0.57 -0.05,-0.85 -0.17,-2.3 0.78,-2.09 0.01,-0.32 -0.1,-0.32 -0.35,-0.4 -0.35,-0.16 -0.56,-0.1 -1,0.03 -0.66,0.03 -0.58,-0.11 -0.23,-0.1 -0.26,-0.22 -0.16,-0.18 -0.13,-0.24 -0.01,-0.36 0.12,-0.31 0.22,-0.23 0.24,-0.18 -0.43,-3.19 -0.08,-0.62 -1.1,-4.43 -0.42,-0.85 -0.1,-0.31 -0.04,-0.37 0.02,-0.42 0.13,-0.5 0.4,-0.7 0.08,-1.14 0.15,-0.08 1.05,-0.51 0.31,-0.08 0.28,-0.02 1,0.12 0.55,0.46 1.45,1.27 2.04,2.62 0.38,1.18 0.63,0.86 0.91,0.69 0.46,0.18 0.3,0.09 0.94,-0.04 1.73,-1.36 0.67,-1.09 0.1,-0.54 v -0.51 l -0.9,-4.06 -0.63,0.1 -0.21,-0.39 -0.04,-0.81 0.3,-0.6 1.71,-0.49 3.93,-0.98 0.97,0.22 0.13,0.48 -0.51,0.99 -0.1,0.12 -0.43,-0.16 -0.1,-0.19 -0.37,0.2 1.87,7.64 1.45,0.99 2.31,1.03 0.46,0.16 6.5,1.28 h 2.39 l -0.16,0.65 0.2,1.25 -2.33,2.1 -2.31,0.8 -1.76,3.74 -0.38,0.87 0.3,0.86 0.59,0.64 0.48,0.1 1.87,0.08 0.13,-0.03 0.25,-0.18 6.48,-5.92 -0.56,-0.85 -0.74,-0.68 0.2,-0.63 0.38,-0.71 1.59,-1.83 1.04,-0.74 0.24,-0.12 5.64,-1.81 1.14,0.27 1.48,1.73 0.92,-0.24 0.3,-0.42 0.01,-0.42 -0.56,-1.39 -0.35,-0.25 -1.61,-0.87 0.54,-0.43 0.15,-0.22 0.39,-0.98 -0.09,-0.08 z m -29.17,192.67 -0.73,-1.88 -0.40188,-0.17266 -2.37812,0.12266 0.22,2.19 0.64,0.52 2.07,-0.21 0.7,-0.09 z" />
</g>
<g
   id="textgroup">
	<text
   transform="matrix(1 0 0 1 164.5166 658.8557)"
   class="label"
   id="BADEN-WÜRTEMBERG-txt"><tspan
     x="0"
     y="0"
     class="label"
     id="tspan2158">Baden-</tspan><tspan
     x="-28.6"
     y="24"
     class="label"
     id="tspan2160">Württemberg</tspan></text>
	<text
   transform="matrix(1 0 0 1 360.085 136.8601)"
   class="label"
   id="MECKLENBURG-VORPOMERN-txt"><tspan
     x="0"
     y="0"
     class="label"
     id="tspan2164">Mecklenburg-</tspan><tspan
     x="3.17"
     y="24"
     class="label"
     id="tspan2166">Vorpommern</tspan></text>
	<text
   transform="matrix(1 0 0 1 166.8481 466.4338)"
   class="label"
   id="HESSEN-txt">Hessen</text>
	<text
   transform="matrix(1 0 0 1 217.9985 157.8606)"
   class="label"
   id="HAMBURG-txt">Hamburg</text>
	<text
   transform="matrix(1 0 0 1 159.4775 202.8606)"
   class="label"
   id="BREMEN-txt">Bremen</text>
	<text
   transform="matrix(1 0 0 1 432.376 297.7883)"
   class="label"
   id="BRANDENBURG-txt">Brandenburg</text>
	<text
   transform="matrix(1 0 0 1 342.6416 630.9006)"
   class="label"
   id="BAYERN-txt">Bayern</text>
	<text
   transform="matrix(1 0 0 1 452.8574 263.5735)"
   class="label"
   id="BERLIN-txt">Berlin</text>
	<text
   transform="matrix(1 0 0 1 171.9282 242.8601)"
   class="label"
   id="NIEDERSACHSEN-txt">Niedersachsen</text>
	<text
   transform="matrix(1 0 0 1 53.6963 361.4675)"
   class="label"
   id="NORDRHEIN-WESTFALEN-txt"><tspan
     x="0"
     y="0"
     class="label"
     id="tspan2184">Nordrhein-</tspan><tspan
     x="3.66"
     y="24"
     class="label"
     id="tspan2186">Westfalen</tspan></text>
	<text
   transform="matrix(1 0 0 1 25.3623 509.8586)"
   class="label"
   id="RHEINLAND-PFALZ-txt"><tspan
     x="0"
     y="0"
     class="label"
     id="tspan2190">Rheinland-</tspan><tspan
     x="26.26"
     y="24"
     class="label"
     id="tspan2192">Pfalz</tspan></text>
	<text
   transform="matrix(1 0 0 1 45.3198 583.8596)"
   class="label"
   id="SAARLAND-txt">Saarland</text>
	<text
   transform="matrix(1 0 0 1 451.0889 409.4329)"
   class="label"
   id="SACHSEN-txt">Sachsen</text>
	<text
   transform="matrix(1 0 0 1 331.9688 325.5725)"
   class="label"
   id="SACHSEN-ANHALT-txt"><tspan
     x="0"
     y="0"
     class="label"
     id="tspan2200">Sachsen-</tspan><tspan
     x="10.62"
     y="24"
     class="label"
     id="tspan2202">Anhalt</tspan></text>
	<text
   transform="matrix(1 0 0 1 212.8223 90.8601)"
   class="label"
   id="SCHLESWIG-HOLSTEIN-txt"><tspan
     x="0"
     y="0"
     class="label"
     id="tspan2206">Schleswig-</tspan><tspan
     x="10.17"
     y="24"
     class="label"
     id="tspan2208">Holstein</tspan></text>
	<text
   transform="matrix(1 0 0 1 291.8359 433.4348)"
   class="label"
   id="THÜRINGEN-txt">Thüringen</text>
</g>
</svg>
