<?xml version="1.0" encoding="UTF-8" standalone="no"?>
<!-- Created with Inkscape (http://www.inkscape.org/) -->

<svg
   version="1.0"
   width="600px"
   height="566px"
   id="BPmap"
   xmlns="http://www.w3.org/2000/svg"
   xmlns:svg="http://www.w3.org/2000/svg">
  <style
     type="text/css"
     id="style4523"><![CDATA[
        #bp {
        fill:none;
        stroke:#000000;
        stroke-width:2;
        }
        #duna {
        fill:#89c1ff;
        stroke:none;
        }
        .district {
        fill:#e5e5e5;
        stroke:#606060;
        stroke-width:1;
        }
     ]]></style>
  <metadata
   origin="https://en.wikipedia.org/wiki/File:Budapest_districts_map.svg"
   scale="54"
   placeholder="ph2"
   id="mapMetadata" />
  <g
    id="districts">
  <path
     id="bp1"
     class="district county_b"
     title="I°"
     d="M 148.37909,227.4528 l -3.5461,4.8579 -1.7621,23.1609 3.6423,-0.5247 6.3182,15.6753 c 0.008,0.006 0.0131,0.0112 0.0131,0.0175 0,0 1.8193,3.5579 4.4162,4.1713 2.597,0.6135 5.7236,-1.8409 5.7236,-1.8408 l 4.4162,3.2707 c 2.3383,-1.498 4.5215,-4.1746 7.0352,-4.2938 2.903,-0.1379 4.5824,1.5565 4.5824,1.5566 l 5.3957,-3.4368 0.0699,0.0831 0.0131,-0.0831 -6.8692,-10.7957 -5.4831,-12.5139 -1.8801,-18.5699 z" />
  <path
     id="bp2"
     class="district county_r"
     title="II°"
     d="M 73.636608,83.974203 62.129192,78.925464 25.490175,74.478803 c -2.985298,6.3257 -12.587136,9.517615 -20.6455492,14.282315 l 16.5105412,39.173942 -0.05543,5.82183 -10.886381,10.19517 C 6.516536,144.21719 4.6926565,145.37642 1,147.88734 l 3.1964836,4.4614 9.0726814,-1.0776 c -3.5521652,18.548 -1.516923,30.95517 -0.858428,42.42707 C 6.7970781,191.21945 3.309402,189.75801 1,197.4397 l 9.90673,3.13848 2.768944,-3.21863 6.533788,4.18155 c 0.317924,-3.2626 9.368824,-10.0804 9.968824,-10.4889 5.4813,-3.7319 5.7646,-7.0328 8.6181,-7.114 c 0.0921,-0.003 0.191,-0.004 0.2887,0 c 3.4834,0.1507 6.4753,6.3778 10.262,7.9797 c 3.5252,1.4913 7.4275,2.7665 10.9837,4.7266 c 3.4133,1.8813 6.8951,3.9828 10.6733,4.8621 c 5.3874,1.2539 10.8965,2.2202 16.3311,3.3887 c 5.351,1.1506 10.852,2.2071 16.348604,1.7009 l 17.8134,16.6592 4.5649,0.0874 12.9599,3.1525 3.4105,4.626 1.1588,-0.9269 1.233,2.0857 0.009,0.0306 3.5461,-4.8579 22.0285,0.7346 1.0318,-10.8042 0.809,-4.4513 -2.6322,0.2012 -1.994,-12.0025 1.0407,-7.8922 2.6584,-7.0572 -11.941,-1.2724 -6.48,-3.874 -0.8089,0.2886 -4.4513,-3.0083 c -0.0169,1.9518 -1.3652,1.239 -3.065,-0.1748 l -2.0857,2.313 l -7.7479,1.1019 -0.9838,-7.5776 -1.9065,-1.3292 -2.0244,-7.114 -4.2239,-5.0326 -7.7479,-1.9676 c 0.9728,-2.8337 3.5299,-3.6269 6.6505,-3.6991 l -2.1994,-2.3744 c -2.1447,0.2624 -1.7532,-1.2182 -1.5042,-2.6016 l -2.2561,-2.4879 -2.4879,-7.114 0.2929,-4.1058 -4.9759,-5.0327 0.6384,-2.4266 h -1.7971 l -8.6748,-16.0208 c -2.728704,-2.7476 -5.314404,-4.4493 -8.325304,-9.3133 l -1.1587,-5.784698 l -11.8581,-11.6834 l -4.1058,1.5042 z" />
  <path
     id="bp3"
     class="district county_y"
     title="III°"
     d="M 212.26302,54.666291 c -1.56998,-15.5617 5.31602,-28.734974 9.14327,-41.707774 L 208.26978,9.710466 C 197.26567,10.850873 191.74814,7.762143 180.1999,7.200843 L 164.07001,8.8011396 143.30307,19.323003 c 5.388,10.214682 14.49612,25.386931 14.31982,37.1266 -14.57404,-8.415702 -30.69393,4.634403 -46.79848,8.7756 l -8.92956,-7.164862 -4.840967,2.63303 -14.016468,-10.321468 -3.96673,5.898128 7.121053,8.140256 -12.55513,19.563916 2.457142,3.432047 4.09375,-1.53125 11.875,11.6875 1.15625,5.78125 c 3.0109,4.864 5.583796,6.5649 8.3125,9.3125 l 8.6875,16.03125 H 112 l -0.625,2.4375 4.96875,5.03125 -0.28125,4.09375 2.46875,7.125 2.28125,2.46875 c -0.2491,1.38339 -0.6447,2.8874 1.5,2.625 l 2.1875,2.375 c -3.1206,0.0722 -5.68345,0.8538 -6.65625,3.6875 l 7.75,1.96875 4.21875,5.03125 2.03125,7.125 1.90625,1.3125 1,7.59375 7.75,-1.09375 2.0625,-2.34375 c 1.69979,1.4138 3.0456,2.1393 3.0625,0.1875 l 4.46875,3 0.8125,-0.28125 6.46875,3.875 11.84375,1.28125 6.03125,-12.15625 15.125,-21.09375 7.03125,-16.59375 7.53125,-27.25 2.71875,-27.40625 5.6875,-27.09375 z">
  </path>
  <path
     id="bp4"
     class="district county_g"
     title="IV°"
     d="M 290.046,30.486895 c -3.10093,-1.90184 -5.94356,-4.504423 -10.67161,-6.264928 C 275.05802,22.614753 261.63383,16.487978 265.85435,8 L 253,3 v 0 c -12.35793,19.3701 -31.31218,32.313403 -36.38503,51.564203 l -1.20898,-0.251301 -5.75,27.375 -2.7187,27.406198 15.5937,5.9375 7.3438,10.9375 20.0312,22 8.9688,7.2813 2.9375,-8.125 16.875,-68.343798 7.75,-26.0312 0.125,-14.9375 z">
  </path>
  <path
     id="bp5"
     class="district county_y"
     title="V°"
     d="M 172.23959,212.9713 l -0.8002,4.4119 -1.0318,10.8042 h 0.0568 l 1.8801,18.5699 5.4831,12.5139 6.8692,10.7957 -0.0131,0.0831 4.6261,5.4393 c 2.6775,-1.8387 9.3446,-6.5087 9.4575,-7.5119 0.1973,-1.753 -1.197,-10.0565 -2.4879,-12.0855 -1.3128,-2.0632 -7.3456,-5.7847 -7.3456,-5.7847 l -0.1706,-24.3503 c -0.007,-1.049 1.0407,-3.6422 1.0407,-3.6422 z">
  </path>
  <path
     id="bp6"
     class="district county_r"
     title="VI°"
     d="M 214.43829,205.1533 l -7.7393,6.0209 -4.8272,-4.6611 -5.7629,3.9877 -6.3006,11.727 c -0.3036,0.8109 -1.0505,2.8726 -1.0451,3.6291 l 0.1706,24.3503 c 0,0 0.0205,0.0124 0.0218,0.0132 l 7.6824,-5.8373 3.6816,-3.9265 13.9875,-11.6133 11.9193,-8.5132 z">
  </path>
  <path
     id="bp7"
     class="district county_g"
     title="VII°"
     d="M 226.22639,220.3301 l -11.9193,8.5132 -13.9875,11.6133 -3.6816,3.9265 -7.6824,5.8373 c 0.1223,0.0755 6.0247,3.7296 7.3238,5.7715 0.1465,0.2302 0.295,0.5453 0.4416,0.9182 l 28.0713,-11.329 7.0002,-4.9322 10.0918,-0.0918 z">
  </path>
  <path
     id="bp8"
     class="district county_b"
     title="VIII°"
     d="M 266.20389,243.9589 l -7.6344,1.5041 -0.4776,-2.2639 -16.2077,-2.6405 -10.093,0.0902 -6.9989,4.9323 -28.0713,11.329 c 1.1459,2.9147 2.2213,9.6132 2.0463,11.1673 -0.002,0.0218 -0.009,0.0449 -0.0175,0.07 l 12.2867,7.3983 27.8919,13.9874 13.5154,7.267 14.569,-26.6982 0.4635,-17.9271 z" />
  <path
     id="bp9"
     class="district county_g"
     title="IX°"
     d="M 198.74979,268.1474 c -0.3835,1.1339 -6.8205,5.6429 -9.44,7.4419 l 13.4627,15.8283 c 3.6418,8.352 5.2187,16.8529 3.9703,25.6401 l -8.0498,14.862 c 2.6458,-1.4111 5.2682,-2.6611 7.5163,-3.4498 2.9453,-1.0333 5.1781,-1.3867 6.843,-1.4036 3.1782,-0.0322 4.2806,1.1543 4.2806,1.1543 5.7968,5.2194 10.2401,11.6897 13.6595,17.3413 l 5.7017,26.7814 5.9947,-0.5247 4.4161,-3.4369 -0.6514,-5.0676 2.2081,-2.0464 1.7971,2.6978 24.2103,-22.7368 0.0219,0.0219 19.0377,-19.1645 -0.656,-2.9427 c 0,0 0.0322,-0.1362 0.2449,-0.3585 l -54.3891,-29.2518 -27.8919,-13.9874 z">
  </path>
  <path
     id="bp10"
     class="district county_r"
     title="X°"
     d="M 351.39699,230.3125 l -7.4726,1.6615 -37.1003,5.7979 -40.6158,6.2133 1.268,8.1896 -0.4635,17.9271 -14.569,26.6982 40.8737,21.9848 c 0.2985,-0.312 0.9563,-0.7945 2.4136,-1.3161 1.3681,-0.4898 2.7574,-0.6897 4.1582,-0.6821 7.5646,0.0407 15.4915,6.1246 22.5094,5.2206 7.805,1.1006 10.0567,3.2313 10.0568,3.2313 l 3.3143,-0.0831 c 1.7901,1.3167 4.3196,2.5888 6.585,1.5129 l 9.3525,3.6424 h 0.0132 l 0.083,0.0392 13.9833,6.5413 1.0232,-2.8203 -11.6965,-8.5875 0.2055,-1.3511 12.8814,-2.7809 0.8614,-6.5018 19.9559,17.5467 0.8219,-1.3511 40.9744,-67.5196 -0.2448,-3.4368 -14.8927,-4.32 c -1.3553,0.5782 -2.4733,0.3143 -3.6073,-1.0493 l -52.8062,-15.2118 z" />
  <path
     id="bp11"
     class="district county_r"
     title="XI°"
     d="M 64.849851,296.2477 c 3.743548,5.54195 9.152462,11.72234 12.485866,16.2841 c 0.03632,0.0497 0.08221,0.108 0.118049,0.1574 c 2.691012,8.6592 8.086799,15.93388 2.725069,28.27438 c -5.26342,-0.2328 -10.146543,6.40117 -15.409963,9.68487 l 11.945942,8.34945 c 0.39695,8.54527 2.195648,17.09053 0.393536,25.6358 c -1.029866,4.7661 -1.965461,8.77141 -5.449502,11.40751 l 5.186638,3.03529 c 7.3394,-1.2751 14.8303,0.2359 22.2122,0 c 3.914604,-2.1546 6.609004,-5.6347 10.235904,-8.1547 l 7.3458,-0.3455 9.1384,-23.9435 c 3.1158,-1.4407 3.4784,-9.0683 5.4919,-11.915 l 7.7391,3.2138 8.8018,9.9736 0.2318,1.386 9.1778,6.7512 2.7591,-0.6909 9.5232,18.4081 9.497,-1.0407 3.9002,-10.5115 4.906,-30.183 18.9371,-34.9667 c 1.2484,-8.7871 -0.3285,-17.2881 -3.9703,-25.6401 l -18.1587,-21.3507 v 0 l -5.3957,3.4368 c 0,0 -1.6794,-1.6945 -4.5824,-1.5566 -2.5137,0.1193 -4.6969,2.7958 -7.0352,4.2938 l -4.4162,-3.2707 c 0,0 -3.1266,2.4543 -5.7236,1.8408 -2.5969,-0.6134 -4.4162,-4.1713 -4.4162,-4.1713 0,-0.2818 -7.8119,0.1197 -9.8162,2.6585 -2.8533,3.614 -0.1831,6.7362 -0.4503,8.6313 -0.2667,1.8909 -3.8616,-3.9444 -6.8692,-5.2776 -3.0076,-1.3333 1.6747,3.4761 1.6747,3.4761 0,0 -5.2101,-0.6494 -7.8092,1.7184 -0.8882,0.8091 -3.6563,-0.849 -5.6055,-3.5155 -0.6723,-0.9197 -2.7549,2.0563 -7.0309,1.7971 l -0.739,6.5454 -7.1141,-2.4965 c 0,-10e-5 -11.187304,0.6808 -11.123504,2.4135 0.2997,8.1234 -6.1663,5.4182 -8.2639,9.2434 l -9.978,-9.9779 -3.6817,4.7397 -2.1248,-1.9589 z" />
  <path
     id="bp12"
     class="district county_g"
     title="XII°"
     d="M 24.296823,204.0742 c -0.808865,1.09571 -0.720119,2.2934 0.362902,4.6173 l -4.79884,8.71603 -1.901198,0.45145 c -2.126878,3.93755 -6.169487,9.13309 -5.476552,11.61525 l 14.50462,7.98112 c -2.87962,2.0946 -0.891204,9.37436 0.248113,13.47846 l -7.424343,-0.68529 -5.378068,12.90058 8.766775,6.8123 0.345438,3.4587 7.163186,8.78618 12.335786,-8.82123 c 7.257101,3.2641 12.69418,11.10635 18.165428,16.15625 0.688147,1.98849 2.005211,4.28659 3.639781,6.7064 l 9.263035,-7.611 2.1248,1.9589 3.6817,-4.7397 9.978,9.9779 c 2.0976,-3.8252 8.5636,-1.12 8.2639,-9.2434 -0.0638,-1.7327 11.123504,-2.4135 11.123504,-2.4135 l 7.1141,2.4965 0.739,-6.5454 c 4.276,0.2592 6.3586,-2.7168 7.0309,-1.7971 1.9492,2.6665 4.7173,4.3246 5.6055,3.5155 2.5991,-2.3678 7.8092,-1.7184 7.8092,-1.7184 0,0 -4.6823,-4.8094 -1.6747,-3.4761 3.0076,1.3332 6.6025,7.1685 6.8692,5.2776 0.2672,-1.8951 -2.403,-5.0173 0.4503,-8.6313 1.961,-2.4838 9.4786,-2.9221 9.8031,-2.676 l -6.3182,-15.6753 -3.6423,0.5247 1.7518,-23.1937 -1.2314,-2.0835 -1.1588,0.9269 -3.4105,-4.626 -12.9599,-3.1525 -4.5649,-0.0874 -17.8134,-16.6592 c -5.496604,0.5063 -10.997604,-0.5503 -16.348604,-1.7009 -5.4346,-1.1685 -10.9437,-2.1348 -16.3311,-3.3887 -3.7782,-0.8793 -7.26,-2.9808 -10.6733,-4.8621 -3.5562,-1.9601 -7.4585,-3.2353 -10.9837,-4.7266 -3.7867,-1.6019 -6.7786,-7.829 -10.262,-7.9797 -0.0977,-0.004 -0.1966,-0.003 -0.2887,0 v 0 c -2.8535,0.0812 -3.1368,3.3821 -8.6181,7.114 -0.6,0.4085 -9.6509,7.2263 -9.968824,10.4889 z" />
  <path
     id="bp13"
     class="district county_b"
     title="XIII°"
     d="M 206.94389,109.0989 l -7.525,27.2361 -7.0309,16.6024 -15.1332,21.1058 -6.0209,12.1292 0.0874,0.009 -2.6584,7.0572 -1.0407,7.8922 1.994,12.0025 2.6322,-0.2012 -0.009,0.0394 17.5643,9.2434 c 0,0 -0.4194,1.0421 -0.7259,2.0726 l 0.0219,0.009 c 0.2373,-0.784 0.5397,-1.6179 0.7084,-2.0682 l 6.3006,-11.727 5.7629,-3.9877 4.8272,4.6611 7.7393,-6.0209 21.1714,-13.0737 1.9064,-2.0244 -2.7153,-2.4879 15.2075,-39.5009 -20.1265,-22.094 -7.3457,-10.9312 z" />
  <path
     id="bp14"
     class="district county_y"
     title="XIV°"
     d="M 249.92079,147.9702 l 0.0875,0.0962 -15.2075,39.5009 2.7153,2.4879 -1.9064,2.0244 -21.1714,13.0737 11.7881,15.1768 15.6579,20.227 16.2087,2.6411 0.4765,2.2648 7.6344,-1.5041 0.004,0.0263 40.6158,-6.2133 29.7896,-4.6567 -3.3188,-13.6771 -13.1873,-23.021 0.7958,-7.9097 -3.6205,-1.7884 h -2.6977 l -20.9398,-9.6501 -12.4308,-3.5985 z" />
  <path
     id="bp15"
     class="district county_r"
     title="XV°"
     d="M 369.17397,144.45826 l 3.59225,-3.93747 -28.18646,-24.84706 14.04129,-14.43186 -22.83047,-19.921813 -5.59355,3.360592 -8.743,-8.49487 13.63123,-18.331008 c -4.39616,-3.198223 -4.29186,-5.287862 -9.3371,-4.737837 l -12.40831,-13.613296 2.29,-1.95797 -3.10828,-8.24592 c -12.71461,5.285753 -17.87889,4.006344 -22.47557,1.187147 l -3.48401,7.340907 -0.1137,14.9232 -7.7522,26.0249 -16.8865,68.363498 -2.9384,8.1241 22.3434,18.2069 12.4308,3.5985 20.9398,9.6501 h 2.6977 l 3.6205,1.7884 0.004,-0.0307 10.0174,-7.5031 21.272,-22.4482 14.298,-12.7721 z" />
  <path
     id="bp16"
     class="district county_b"
     title="XVI°"
     d="M 492.71655,225.66884 l -7.30397,-25.03158 -19.32188,-37.10586 -35.59546,9.2826 -16.54682,-16.04869 -8.33249,5.81279 -7.0084,-4.81869 -6.1396,3.91799 -23.29396,-17.21914 -2.67888,1.29504 v 0 l -14.298,12.7721 -21.272,22.4482 -10.0174,7.5031 -0.8001,7.9404 13.1873,23.021 3.3188,13.6771 7.3107,-1.1412 7.4726,-1.6615 7.866,9.1953 52.8062,15.2118 c 1.1339,1.3635 2.252,1.6275 3.6073,1.0493 l 14.8927,4.32 25.9287,-13.3316 16.1125,-12.4354 7.0353,-7.4419 z">
  </path>
  <path
     id="bp17"
     class="district county_g"
     title="XVII°"
     d="M 503.3853,380 l 14.41373,2.16538 16.10933,-27.11148 14.92084,-17.68114 c 12.1638,2.2853 27.21694,-2.55159 36.05005,-6.66379 l 12.3043,-11.61185 c -10.37634,-7.56394 -4.27291,-19.47573 -8.74775,-30.79433 -6.35977,-9.8586 -27.31093,-26.67606 -19.61277,-51.52326 1.12649,-3.6362 8.23522,-13.40296 8.23522,-13.40296 l -4.5665,-13.36312 c -19.1926,1.81371 -28.6279,11.7526 -42.57274,10.09276 -9.20428,-1.09984 -22.96341,2.99193 -37.20246,5.56263 l -13.07086,1.21116 -7.0353,7.4419 -16.1125,12.4354 -25.9287,13.3316 0.2448,3.4368 -40.9744,67.5196 5.8461,-0.328 4.3331,2.5361 3.5592,3.721 7.5249,-6.2964 2.5361,2.0857 2.8203,0.9794 25.8062,21.0227 6.34,1.7972 3.0258,-0.7346 2.5754,-4.4992 11.1673,2.6978 2.8202,2.9033 6.7074,13.0912 5.56716,1.3535 13.875,5.40625 1.09375,2.09375 z" />
  <path
     id="bp18"
     class="district county_y"
     title="XVIII°"
     d="M 400.01828,492.31448 l 10.76589,-23.41918 13.64791,-14.20513 2.67012,4.82633 11.70516,-14.60565 -12.68127,-11.87864 20.21059,-23.89531 6.90259,1.63912 0.98121,-5.24671 c 3.15021,2.51911 4.21506,3.95657 3.27478,7.58891 l 11.86439,5.39985 12.47345,-15.93029 5.87578,-2.01338 L 503.3853,380 495.5,378.875 l -1.15625,-2.09375 -13.875,-5.40625 -5.5625,-1.34375 -6.71875,-13.09375 -2.8125,-2.90625 -11.15625,-2.6875 -2.59375,4.5 -3.03125,0.71875 -6.34375,-1.78125 -25.78125,-21.03125 -2.84375,-1 -2.53125,-2.0625 -7.53125,6.28125 -3.53125,-3.71875 -4.34375,-2.53125 -5.84375,0.3125 -0.8125,1.375 -19.96875,-17.5625 v 0 l -0.875,6.5 -12.875,2.78125 -0.1875,1.34375 11.6875,8.59375 -1.03125,2.84375 -13.96875,-6.5625 c -2.56281,2.90371 -4.3745,6.06525 -7.6875,8.71875 l 0.46875,8.3125 -10.9375,15.53125 9.46875,6.28125 -5.28125,6.6875 5.6875,5.21875 16,9.90625 L 340,405.65625 l 20.40625,23.4375 -9.0625,4.5 9.84375,10.375 -8.28125,4.28125 9.71875,10.46875 -3.59375,3.28125 5.15625,5.5625 7.5,-7.0625 z" />
  <path
     id="bp19"
     class="district county_b"
     title="XIX°"
     d="M 299.88929,316.7867 c -1.4008,-0.008 -2.7901,0.1923 -4.1582,0.6821 -2.4961,0.8935 -2.6585,1.6746 -2.6585,1.6746 l 0.656,2.9427 -19.0377,19.1645 34.0046,33.9216 c 5.2917,3.4602 10.0206,6.2279 13.6596,13.6596 l 4.4162,0.9838 13.2136,15.8458 19.5448,-14.6609 -15.99,-9.8993 -5.6842,-5.2338 5.2775,-6.668 -9.4882,-6.2963 10.9574,-15.5398 -0.4897,-8.3033 c 3.313,-2.6535 5.1282,-5.8063 7.691,-8.71 l -9.4487,-3.6816 c -2.2654,1.0759 -4.7949,-0.1961 -6.585,-1.5129 l -3.3143,0.0831 c 0,0 -2.2517,-2.1307 -10.0568,-3.2313 -7.0178,0.904 -14.9448,-5.1799 -22.5094,-5.2206 z" />
  <path
     id="bp20"
     class="district county_r"
     title="XX°"
     d="M 274.66899,341.2287 l -24.2103,22.7368 -1.7971,-2.6978 -2.2081,2.0464 0.6514,5.0676 -4.4161,3.4369 -5.9947,0.5247 1.9064,8.9634 3.1395,15.1987 2.3698,-1.0144 c 1.1061,0.1063 2.1314,0.5379 3.5286,-0.5202 l 2.1994,1.5041 2.0812,2.9514 -1.5041,0.9837 2.9515,3.9309 0.634,-0.634 1.7927,2.195 c 1.0211,-2.0692 2.8283,-2.0325 4.2806,-2.4836 l 1.5609,5.8984 6.0735,8.9636 7.0571,-6.7074 5.8416,7.6912 -2.313,5.6099 5.3213,6.9959 6.0121,-4.2194 -6.0734,-10.4676 13.8826,-12.3216 19.8378,20.3013 14.403,-13.1874 c 2.6704,0.7019 4.3008,-0.1151 4.2763,-3.0651 l 4.027,-3.2224 0.004,-0.0263 -13.2136,-15.8458 -4.4162,-0.9838 c -3.639,-7.4317 -8.3679,-10.1993 -13.6596,-13.6596 z" />
  <path
     id="bp21"
     class="district county_y"
     title="XXI°"
     d="M 136.19343,481.4662 l 7.67321,-4.98644 5.76776,10.40834 2.77611,5.81327 11.33525,-6.41569 8.0827,6.52871 6.61892,-7.81756 3.97687,2.692 5.03736,-11.34611 13.92701,0.1032 1.15687,-1.3452 -3.20303,-5.39714 c 6.98093,-8.10491 18.49799,-21.08291 30.52227,-19.10258 l 15.46542,29.1643 17.53158,7.89765 5.02116,-11.15015 0.3236,-5.9684 -1.9589,-6.7905 -3.7647,-8.8323 -8.7536,-27.3191 -8.9942,-16.6068 -6.1346,-29.689 -7.6081,-35.7448 c -3.4194,-5.6516 -7.8627,-12.1219 -13.6595,-17.3413 0,0 -1.1024,-1.1865 -4.2806,-1.1543 v 0 c -1.6649,0.0169 -3.8977,0.3703 -6.843,1.4036 -2.2481,0.7887 -4.8705,2.0387 -7.5163,3.4498 l -10.8873,20.1047 -4.906,30.183 -3.9002,10.5115 0.0437,-0.004 -2.7459,10.8743 -1.303,21.4601 -3.6117,15.3822 -13.043,25.9114 -5.9597,5.7847 z" />
  <path
     id="bp22"
     class="district county_b"
     title="XXII°"
     d="M 53.885786,520.596 c 9.8449,-14.633 18.019,-22.2907 42.6971,-29.5186 l 39.610104,-9.6107 v 0 l 16.1869,-9.3395 5.9597,-5.7847 13.043,-25.9114 3.6117,-15.3822 1.303,-21.4601 2.7459,-10.8743 -9.5407,1.0451 -9.5232,-18.4081 -2.7591,0.6909 -9.1778,-6.7512 -0.2318,-1.386 -8.8018,-9.9736 -7.7391,-3.2138 c -2.0135,2.8467 -2.3761,10.4743 -5.4919,11.915 l -9.1384,23.9435 -7.3458,0.3455 c -3.6269,2.52 -6.3213,6.0001 -10.235904,8.1547 -7.3819,0.2359 -14.8728,-1.2751 -22.2122,0 l -5.186638,-3.03529 c -9.875451,6.42293 -17.932379,19.07543 -26.594771,29.3932 3.007837,12.50878 9.516419,25.67299 8.172956,37.81917 -14.317643,2.9743 -20.028899,7.37091 -11.04442,32.52271 0.264634,0.74084 -2.075398,0.44027 -1.879666,1.16961 1.505039,5.60807 3.727865,9.99713 6.452073,16.94531 z" />
  <path
     id="bp23"
     class="district county_g"
     title="XXIII°"
     d="M 251.21163,506.16763 l 53.5534,47.29997 11.04236,12.5324 15.55908,-12.46443 c 13.49176,-3.88056 25.70567,-7.21185 39.48121,-7.68137 L 388.56512,517.22867 400.01828,492.31448 371.6875,460.5 l -7.5,7.0625 -5.15625,-5.5625 3.59375,-3.28125 -9.71875,-10.46875 8.28125,-4.28125 -9.84375,-10.375 9.0625,-4.5 L 340,405.65625 l -4.03125,3.25 c 0.0245,2.94999 -1.61085,3.7644 -4.28125,3.0625 l -14.40625,13.1875 -19.84375,-20.28125 -13.875,12.3125 6.0625,10.46875 -6,4.21875 -5.34375,-7 2.3125,-5.625 -5.84375,-7.6875 -7.03125,6.71875 -6.09375,-8.96875 -1.5625,-5.90625 c -1.45231,0.45121 -3.26015,0.4308 -4.28125,2.5 L 254,403.71875 l -0.625,0.625 -2.96875,-3.9375 1.5,-0.96875 -2.0625,-2.96875 -2.21875,-1.5 v 0 c -1.3972,1.05809 -2.3939,0.63755 -3.5,0.53125 l -2.375,1 3,14.5 8.96875,16.59375 8.75,27.3125 3.78125,8.84375 1.96875,6.78125 -0.34375,5.96875 -6.53125,12.125 0.375,0.1875 z" />
  <g
     id="ornaments">
    <path
       id="bp"
       d="M 212.26302,54.666291 c -1.56998,-15.5617 5.31602,-28.734974 9.14327,-41.707774 L 208.26978,9.710466 C 197.26567,10.850873 191.74814,7.762143 180.1999,7.200843 L 164.07001,8.8011396 143.30307,19.323003 c 5.388,10.214682 14.49612,25.386931 14.31982,37.1266 -14.57404,-8.415702 -30.69393,4.634403 -46.79848,8.7756 l -8.92956,-7.164862 -4.840967,2.63303 -14.016468,-10.321468 -3.96673,5.898128 7.121053,8.140256 -12.55513,19.563916 -11.507416,-5.048739 -36.639017,-4.446661 c -2.985298,6.3257 -12.587136,9.517615 -20.6455492,14.282315 l 16.5105412,39.173942 -0.05543,5.82183 -10.886381,10.19517 C 6.516536,144.21719 4.6926565,145.37642 1,147.88734 l 3.1964836,4.4614 9.0726814,-1.0776 c -3.5521652,18.548 -1.516923,30.95517 -0.858428,42.42707 C 6.7970781,191.21945 3.309402,189.75801 1,197.4397 l 9.90673,3.13848 2.768944,-3.21863 6.533788,4.18155 4.087361,2.5331 c -0.808865,1.09571 -0.720119,2.2934 0.362902,4.6173 l -4.79884,8.71603 -1.901198,0.45145 c -2.126878,3.93755 -6.169487,9.13309 -5.476552,11.61525 l 14.50462,7.98112 c -2.87962,2.0946 -0.891204,9.37436 0.248113,13.47846 l -7.424343,-0.68529 -5.378068,12.90058 8.766775,6.8123 0.345438,3.4587 7.163186,8.78618 12.335786,-8.82123 c 7.257101,3.2641 12.69418,11.10635 18.165428,16.15625 0.688147,1.98849 2.005211,4.28659 3.639781,6.7064 3.743548,5.54195 9.152462,11.72234 12.485866,16.2841 0.03632,0.0497 0.08221,0.108 0.118049,0.1574 2.691012,8.6592 8.086799,15.93388 2.725069,28.27438 -5.26342,-0.2328 -10.146543,6.40117 -15.409963,9.68487 l 11.945942,8.34945 c 0.39695,8.54527 2.195648,17.09053 0.393536,25.6358 -1.029866,4.7661 -1.965461,8.77141 -5.449502,11.40751 -9.875451,6.42293 -17.932379,19.07543 -26.594771,29.3932 3.007837,12.50878 9.516419,25.67299 8.172956,37.81917 -14.317643,2.9743 -20.028899,7.37091 -11.04442,32.52271 0.264634,0.74084 -2.075398,0.44027 -1.879666,1.16961 1.505039,5.60807 3.727865,9.99713 6.452073,16.94531 l 4.576462,5.94629 c 9.84498,-14.633 20.5636,-21.5328 45.241827,-28.7606 l 39.610121,-9.6107 7.67321,-4.98644 5.76776,10.40834 2.77611,5.81327 11.33525,-6.41569 8.0827,6.52871 6.61892,-7.81756 3.97687,2.692 5.03736,-11.34611 13.92701,0.1032 1.15687,-1.3452 -3.20303,-5.39714 c 6.98093,-8.10491 18.49799,-21.08291 30.52227,-19.10258 l 15.46542,29.1643 17.53158,7.89765 -11.6501,18.50468 53.5534,47.29997 11.04236,12.5324 15.55908,-12.46443 c 13.49176,-3.88056 25.70567,-7.21185 39.48121,-7.68137 l 17.71744,-28.62553 11.45316,-24.91419 10.76589,-23.41918 13.64791,-14.20513 2.67012,4.82633 11.70516,-14.60565 -12.68127,-11.87864 20.21059,-23.89531 6.90259,1.63912 0.98121,-5.24671 c 3.15021,2.51911 4.21506,3.95657 3.27478,7.58891 l 11.86439,5.39985 12.47345,-15.93029 5.87578,-2.01338 L 503.3853,380 l 14.41373,2.16538 16.10933,-27.11148 14.92084,-17.68114 c 12.1638,2.2853 27.21694,-2.55159 36.05005,-6.66379 l 12.3043,-11.61185 c -10.37634,-7.56394 -4.27291,-19.47573 -8.74775,-30.79433 -6.35977,-9.8586 -27.31093,-26.67606 -19.61277,-51.52326 1.12649,-3.6362 8.23522,-13.40296 8.23522,-13.40296 l -4.5665,-13.36312 c -19.1926,1.81371 -28.6279,11.7526 -42.57274,10.09276 -9.20428,-1.09984 -22.96341,2.99193 -37.20246,5.56263 l -7.30397,-25.03158 -19.32188,-37.10586 -35.59546,9.2826 -16.54682,-16.04869 -8.33249,5.81279 -7.0084,-4.81869 -6.1396,3.91799 -23.29396,-17.21914 3.59225,-3.93747 -28.18646,-24.84706 14.04129,-14.43186 -22.83047,-19.921813 -5.59355,3.360592 -8.743,-8.49487 13.63123,-18.331008 c -4.39616,-3.198223 -4.29186,-5.287862 -9.3371,-4.737837 l -12.40831,-13.613296 2.29,-1.95797 -3.10828,-8.24592 c -12.71461,5.285753 -17.87889,4.006344 -22.47557,1.187147 -3.10093,-1.90184 -5.94356,-4.504423 -10.67161,-6.264928 C 275.05802,22.614753 261.63383,16.487978 265.85435,8 L 253,3 v 0 c -12.35793,19.3701 -31.31218,32.313403 -36.38503,51.564203 z" />
    <path
       id="duna"
       class="water"
       d="M 246.4915,1 c 0,0 -7.62604,6.7237622 -12.86286,14.471562 -5.23686,7.7481 -5.17108,8.285543 -10.18607,18.02362 -4.6721,9.072258 -7.61803,15.265567 -7.56722,16.680767 -0.0889,-0.4935 -1.46357,-8.959249 1.68806,-19.687349 3.24195,-11.0357 8.69991,-20.275804 8.69991,-20.275804 l -5.46416,0.06585 c 0.0142,0.0257 -5.53667,10.362261 -8.43366,23.996261 -5.72035,26.9214 -7.20082,50.0026 -11.60757,77.008693 0,0 -16.6512,9.7319 -22.6995,24.0827 -4.12943,12.9913 -0.24063,19.7609 -2.9201,33.9543 -2.67944,14.1936 -5.4838,10.0825 -8.00907,22.2051 -2.53409,12.1649 -0.20244,16.8062 -0.26344,28.2727 -0.061,11.4662 0.2218,28.3861 6.25723,37.8357 6.91126,10.821 11.18274,20.3023 20.60429,29.1579 9.43772,8.871 7.71068,14.6532 9.87424,22.8484 1.96044,7.4259 -8.73359,22.1569 -8.73359,22.1569 l 6.64643,-14.6141 -5.81917,-2.2341 c 0.63448,4.0334 -0.48607,10.1144 -4.10158,20.4687 -3.50432,10.0357 -7.09786,10.2403 -9.46877,20.7922 -2.14265,9.5363 -0.3603,14.1091 -1.55028,19.8129 -2.31236,11.0835 -6.15713,14.1471 -8.38938,24.4511 -2.23229,10.304 -0.12909,7.9269 -1.03537,16.8353 -0.91023,8.9473 0.24742,9.5877 -4.077,20.028 -4.32437,10.4404 -9.15912,23.038 -12.49152,28.3532 -3.36548,5.3678 -23.54068,10.5273 -23.25149,9.949 -0.23851,-1.9081 3.02156,-10.23308 9.35404,-16.26223 6.33248,-6.02915 13.93301,-5.50835 17.42564,-6.88834 l -0.842,-1.4229 c 0,0 -9.19557,2.69122 -9.76095,2.48965 -0.76979,-0.27444 6.2759,-5.15415 9.05206,-4.69155 l -0.5662,-1.7786 c -0.32002,-0.512 -13.37967,5.49049 -19.64415,14.38589 -6.71113,8.1807 -7.2947,14.28368 -7.35253,14.39928 0,0 -30.053825,4.3005 -48.825872,12.3299 -16.99044,7.2675 -18.052323,12.0204 -26.241937,20.3786 -8.189589,8.3581 -10.063705,14.9524 -10.063705,14.9524 l 11.555696,0.2483 c 0,0 22.183212,-21.1447 24.003962,-22.2349 10.033384,-6.0074 22.983536,-8.7673 38.254866,-11.2225 14.73784,-2.3693 31.08588,-9.4382 37.68448,-15.5812 9.69111,-9.0222 17.93136,-22.5406 22.79607,-44.2513 2.29181,-10.2282 0.94849,-19.2765 3.28646,-28.2289 3.09264,-11.8425 3.93204,-10.206 5.53913,-20.3263 0.51756,-3.2593 0.78935,-4.8482 4.30526,-4.7499 2.02138,0.0566 4.57,0.3704 4.57,0.3704 l 0.3735,-2.8364 c -3.22858,0.1467 -7.22657,-2.0456 -8.50308,2.7871 -0.11694,-4.5445 3.34579,-10.5229 6.95094,-10.3807 l 15.53704,0.6127 -1.05047,-1.9534 c -5.71563,-2.7224 -14.85827,-0.1329 -14.53463,-3.6721 0.3341,-3.654 14.55669,-2.33 14.55669,-2.33 l -0.51364,-2.2224 c 0,0 -12.54331,-1.1186 -14.72023,0.3461 -1.84166,1.239 -3.14797,5.8141 -4.76064,8.7691 0.22196,0.0832 -0.30412,-8.7677 3.51149,-13.4047 3.09286,-3.7585 15.64835,-0.9101 15.35917,-2.0748 l -0.0638,-2.1572 c -6.40607,-0.7021 -11.17859,-0.7311 -14.27493,1.0081 0,0 7.60578,-21.3167 17.57907,-21.9719 7.90091,-0.517 17.92522,15.0467 18.98919,21.3741 1.17684,6.9989 2.27978,4.4713 4.53275,21.8724 0.0933,0.7204 -16.59048,0.234 -16.59048,0.234 l -0.0377,2.0004 c 0,0 16.62065,-0.9925 17.21704,0.0789 0.55362,0.9944 8.24295,36.7553 8.93107,38.8103 2.55613,7.6337 6.2208,10.0212 9.6586,19.4376 2.38368,6.529 4.27073,13.7276 5.63428,17.9356 2.09401,6.4626 5.2831,14.155 6.97131,19.4479 2.99336,9.3851 -11.55307,26.3948 -18.49179,37.9634 l 3.39393,1.99532 c 11.42845,-18.4186 18.56526,-27.11532 19.39121,-44.78232 0.0455,-0.9726 -0.0906,-10.7228 -3.15858,-17.892 -1.55657,-3.6373 -6.70934,-12.621 -11.03467,-16.6191 -1.75218,-1.6196 -9.36388,-15.6621 -10.47244,-18.3495 -1.14784,-2.7827 -5.41745,-27.3897 -12.99557,-63.1772 -1.19339,-5.6487 -10.33117,-18.2087 -15.7042,-21.6188 -1.0865,-0.6895 -6.83641,-1.5083 -11.16624,0.1173 5.72608,-8.5861 5.1369,-28.5923 -2.48072,-37.4261 -7.1699,-8.3143 -26.2622,-29.2798 -27.90603,-43.2169 -1.18846,-10.0764 -3.48131,-19.0307 0.14094,-30.7211 1.35853,-4.3844 9.83546,-20.966 11.36797,-25.4257 3.06496,-8.9193 5.12788,-22.9586 7.0697,-29.8066 1.73536,-6.1201 5.09643,-8.2169 7.39815,-8.3206 2.81209,-0.1268 5.35097,-5.0943 3.40493,-5.1224 l -2.38801,-0.0344 c -1.67567,3.4125 -3.18972,4.2399 -4.71616,5.2648 0,0 2.74117,-8.5246 5.30884,-12.0752 2.56767,-3.5506 4.26098,-1.2455 5.07751,-2.0694 3.47653,-3.5079 9.21487,-15.0493 10.92524,-18.9462 4.42094,-10.0728 2.27281,-18.7568 0.75072,-18.0261 -1.63286,0.7839 0.26922,10.4484 -3.56025,17.0081 -2.24562,3.8467 -5.34053,11.0928 -12.76217,19.7644 0.37136,-5.5362 3.76484,-9.3194 7.18024,-26.436 3.03163,-15.192993 2.53427,-50.796996 16.10739,-69.076342 C 238.02558,27.78297 259.58134,0.282 259.3222,1 Z m -49.92972,116.284 c 0.11735,9.406 0.73077,15.8381 -15.17189,47.0377 0.14938,-6.24825 1.65005,-11.94114 2.54943,-18.46381 -2.44979,6.81888 -4.65171,13.66301 -5.5637,21.16991 -1.14849,-10.8898 -0.41717,-19.0545 1.96403,-30.0769 2.38119,-11.0222 16.22213,-19.6669 16.22213,-19.6669 z m -8.2946,44.8959 c -1.99462,14.5912 -1.72007,22.6691 -16.10788,50.0844 0,0 -4.39165,-9.8154 -0.55278,-21.8313 3.83889,-12.0161 16.66066,-28.2531 16.66066,-28.2531 z m 68.32107,269.8843 c 0,0 7.35656,8.7068 9.11139,13.3099 3.19972,8.3931 3.88951,13.5068 2.74441,20.8683 -5.28779,-11.4524 -8.79122,-22.5101 -11.8558,-34.1782 z" />
  </g>
  </g>
  <g
     id="textgroup">
    <text
       font-size="12"
       id="I°-txt"
       style="font-size:12px;font-family:'Arial Rounded MT Bold';fill:#636466"
       x="154.71535"
       y="251.62527">I.</text>
    <text
       font-size="12"
       id="II°-txt"
       style="font-size:12px;font-family:'Arial Rounded MT Bold';fill:#636466"
       x="63.256313"
       y="161.35005">II.</text>
    <text
       transform="translate(132.2837,104.4565)"
       font-size="12"
       id="III°-txt"
       style="font-size:12px;font-family:'Arial Rounded MT Bold';fill:#636466">III.</text>
    <text
       font-size="12"
       id="IV°-txt"
       style="font-size:12px;font-family:'Arial Rounded MT Bold';fill:#636466"
       x="237.03503"
       y="85.409142">IV.</text>
    <text
       font-size="12"
       id="V°-txt"
       style="font-size:12px;font-family:'Arial Rounded MT Bold';fill:#636466"
       x="176.41006"
       y="241.2406">V.</text>
    <text
       font-size="12"
       id="VI°-txt"
       style="font-size:12px;font-family:'Arial Rounded MT Bold';fill:#636466"
       x="195.96405"
       y="223.82048">VI.</text>
    <text
       font-size="12"
       id="VII°-txt"
       style="font-size:12px;font-family:'Arial Rounded MT Bold';fill:#636466"
       x="210.09276"
       y="242.14716">VII.</text>
    <text
       font-size="12"
       id="VIII°-txt"
       style="font-size:12px;font-family:'Arial Rounded MT Bold';fill:#636466"
       x="222.60126"
       y="267.25027">VIII.</text>
    <text
       transform="translate(218.2612,315.0806)"
       font-size="12"
       id="IX°-txt"
       style="font-size:12px;font-family:'Arial Rounded MT Bold';fill:#636466">IX.</text>
    <text
       font-size="12"
       id="X°-txt"
       style="font-size:12px;font-family:'Arial Rounded MT Bold';fill:#636466"
       x="311.3233"
       y="282.15936">X.</text>
    <text
       font-size="12"
       id="XIX°-txt"
       style="font-size:12px;font-family:'Arial Rounded MT Bold';fill:#636466"
       x="301.16864"
       y="343.0307">XIX.</text>
    <text
       font-size="12"
       id="XX°-txt"
       style="font-size:12px;font-family:'Arial Rounded MT Bold';fill:#636466"
       x="265.64349"
       y="383.47141">XX.</text>
    <text
       font-size="12"
       id="XXIII°-txt"
       style="font-size:12px;font-family:'Arial Rounded MT Bold';fill:#636466"
       x="299.1282"
       y="477.8671">XXIII.</text>
    <text
       font-size="12"
       id="XXI°-txt"
       style="font-size:12px;font-family:'Arial Rounded MT Bold';fill:#636466"
       x="199.67566"
       y="416.71829">XXI.</text>
    <text
       font-size="12"
       id="XIV°-txt"
       style="font-size:12px;font-family:'Arial Rounded MT Bold';fill:#636466"
       x="263.78644"
       y="210.48097">XIV.</text>
    <text
       font-size="12"
       id="XVI°-txt"
       style="font-size:12px;font-family:'Arial Rounded MT Bold';fill:#636466"
       x="371.14966"
       y="205.59807">XVI.</text>
    <text
       font-size="12"
       id="XV°-txt"
       style="font-size:12px;font-family:'Arial Rounded MT Bold';fill:#636466"
       x="291.42523"
       y="129.14066">XV.</text>
    <text
       font-size="12"
       id="XVII°-txt"
       style="font-size:12px;font-family:'Arial Rounded MT Bold';fill:#636466"
       x="486.17001"
       y="295.69434">XVII.</text>
    <text
       font-size="12"
       id="XVIII°-txt"
       style="font-size:12px;font-family:'Arial Rounded MT Bold';fill:#636466"
       x="374.52097"
       y="377.6915">XVIII.</text>
    <text
       font-size="12"
       id="XII°-txt"
       style="font-size:12px;font-family:'Arial Rounded MT Bold';fill:#636466"
       x="67.14959"
       y="243.73866">XII.</text>
    <text
       font-size="12"
       id="XI°-txt"
       style="font-size:12px;font-family:'Arial Rounded MT Bold';fill:#636466"
       x="132.74823"
       y="323.44827">XI.</text>
    <text
       font-size="12"
       id="XXII°-txt"
       style="font-size:12px;font-family:'Arial Rounded MT Bold';fill:#636466"
       x="90.887314"
       y="430.46677">XXII.</text>
    <text
       font-size="12"
       id="XIII°-txt"
       style="font-size:12px;font-family:'Arial Rounded MT Bold';fill:#636466"
       x="201.09656"
       y="176.5806">XIII.</text>
  </g>
</svg>
